<?xml version="1.0" encoding="UTF-8"?>
<svg xmlns="http://www.w3.org/2000/svg" viewBox="0 0 657.61 523.48">
  <defs>
    <style>
      .cls-1, .cls-2, .cls-3, .cls-4, .cls-5, .cls-6 {
        stroke-width: 0px;
      }

      .cls-2 {
        fill: #5bd9f0;
      }

      .cls-3 {
        fill: #419cad;
      }

      .cls-4 {
        fill: #b598f0;
      }

      .cls-5 {
        fill: #ff6260;
      }

      .cls-6 {
        fill: #f06563;
      }
    </style>
  </defs>
  <g id="Vector_layer" data-name="Vector layer">
    <path class="cls-1" d="m220.93,194.13s.07,0,.11,0c-.34.91-.68,1.83-.99,2.75-.07.19-.14.39-.2.58-4.89,14.35-6.83,29.67-8.05,44.72-1.14,22.2-.68,44.62-.49,66.82,0,.8.01,1.59.02,2.39.02.42.05.84.09,1.27h0c-.94.68-1.89,1.34-2.84,2-.07-1.24-.09-2.48-.08-3.73.04-4.98.56-9.99.38-14.98-.1-7.85-.11-15.69-.05-23.54-.32-23.53.97-47.32,7.29-70.08.52-1.86,1.08-3.7,1.71-5.54.02-.05.03-.09.05-.14.29-.84.58-1.67.89-2.5.71.05,1.45.04,2.17-.02Z"/>
    <path class="cls-1" d="m342.52,152.85c.68.63,1.35,1.28,2,1.94-1.04.27-2.09.53-3.13.78-.66-.67-1.34-1.32-2.04-1.96-1.13-1.03-2.29-2.02-3.5-2.96-13.82-10.53-31.81-15.35-49.01-12.8-14.86,1.76-28.44,8.44-39.61,18.06-.52.45-1.02.9-1.53,1.36-.27.25-.55.5-.82.75-.26.24-.51.48-.77.72-4.55,4.33-8.64,9.15-12.2,14.33-.52.76-1.03,1.52-1.52,2.29-.1.16-.2.31-.3.47-.3.47-.6.95-.89,1.43-.2-.02-.4-.04-.59-.08-.1-.02-.19-.04-.29-.05-.41-.08-.8-.2-1.16-.35.19-.31.39-.63.58-.94.24-.39.48-.77.73-1.15.16-.25.32-.51.49-.76,3.5-5.32,7.5-10.31,11.96-14.82.93-.95,1.88-1.87,2.86-2.77,8.79-8.16,19.16-14.52,30.73-18.15,19.95-6.32,40.59-3.55,57.09,6.45.93.56,1.84,1.14,2.74,1.75,2.86,1.93,5.59,4.09,8.14,6.47Z"/>
    <path class="cls-1" d="m378.2,280.81c.22,1.15.45,2.3.66,3.46-.29-.07-.58-.15-.88-.22-.43-.11-.86-.21-1.3-.32-.44-.11-.88-.21-1.32-.32-.06-.33-.12-.67-.19-1-.14-.76-.29-1.52-.43-2.28-2.68-14.14-5.39-28.28-6.99-42.59-2.2-18.23-3.32-36.85-9.5-54.29-.45-1.27-.92-2.52-1.43-3.77-.2-.48-.4-.97-.61-1.46.98-.31,1.94-.66,2.88-1.04.02.03.03.06.04.09.21.48.41.97.61,1.45,5.7,13.9,7.79,28.95,9.43,43.8,1.72,15.11,3.45,30.23,6.41,45.15.87,4.44,1.74,8.88,2.59,13.32Z"/>
    <path class="cls-1" d="m382.45,304.29c.02.12.02.25.01.37,0,.04,0,.07-.01.1,0,.02,0,.04,0,.05,0,.03-.02.06-.02.09,0,.04-.02.07-.03.1-.02.05-.04.09-.05.14-.06.12-.14.25-.22.35-.02.03-.05.05-.07.08-.04.04-.07.07-.11.11-.19.17-.41.3-.65.37-.16.05-.32.07-.48.07-.32,0-.65-.1-.93-.34-.34-.27-.53-.63-.61-1.05-.06-.31-.12-.62-.18-.93-.15-.77-.3-1.54-.44-2.31-.2-1.04-.39-2.07-.57-3.11-.22-1.21-.43-2.41-.65-3.62.08.02.16.04.24.06,1.07.27,2.14.54,3.21.81.03,0,.05.01.08.02.22,1.21.43,2.43.64,3.64.09.54.19,1.07.28,1.61.11.61.21,1.21.3,1.81,0,.02.01.04.01.06.03.16.05.31.08.46.06.35.12.7.18,1.05Z"/>
    <path class="cls-1" d="m220.05,303.79c1.11.25.52,1.55-.09,2.04-2.68,2.45-5.57,4.69-8.54,6.82h0c-.94.68-1.89,1.34-2.84,2-2.95,2.04-5.92,4-8.8,6.01-.05.03-.11.07-.16.1-5.51,3.72-11.08,7.38-16.66,11.01-.59.39-1.18.77-1.77,1.16-.1.06-.2.13-.29.19-.02-.05-.05-.09-.07-.14-.11-.2-.22-.41-.33-.61-.11-.19-.22-.38-.34-.57-.14-.22-.28-.44-.43-.66-.1-.16-.21-.31-.32-.46-.02-.02-.03-.04-.04-.06.71-.47,1.43-.95,2.14-1.42,4.72-3.13,9.44-6.27,14.14-9.42,0,0,0,0,.01,0,4.31-2.89,8.57-5.89,12.85-8.85.93-.65,1.87-1.29,2.81-1.93,2.18-1.5,4.38-2.97,6.59-4.4.66-.37,1.36-.86,2.15-.8Z"/>
    <path class="cls-1" d="m233.73,311.49c.95-1.59,2.55.9.7,1.1-2.05,1.34-4.72,3.13-6.45,4.31-2.41,1.62-4.73,3.2-7.1,4.81,0,0-.02.01-.03.02,0,0-.02.01-.02.02-1.7,1.15-3.34,2.27-4.99,3.39-.23.16-.46.32-.7.47-1.29.88-2.59,1.75-3.88,2.62-.4.27-.8.54-1.2.8-1.28.86-2.55,1.72-3.84,2.58-3.71,2.48-7.44,4.95-11.19,7.4-1.3.86-2.61,1.71-3.91,2.57-.64.43-1.29.85-1.93,1.28-.67.44-1.34.89-2.01,1.34-.77.52-1.52,1.04-2.29,1.57-1.04.72-2.09,1.44-3.13,2.16,0,0,0,0,0,0,.1-.29.19-.59.28-.88.05-.18.1-.36.15-.54.09-.32.17-.65.24-.97.05-.24.1-.48.14-.71.87-.58,1.75-1.16,2.62-1.73,2.32-1.54,4.65-3.06,6.98-4.6,3.18-2.11,6.39-4.2,9.59-6.28,1.34-.87,2.68-1.73,4.02-2.6,1.92-1.24,3.84-2.48,5.76-3.71,1.02-.66,2.03-1.31,3.04-1.96,6.41-4.12,12.8-8.25,19.14-12.43Z"/>
    <path class="cls-1" d="m158.45,347.81c-.03.14-.06.27-.09.41-.09.42-.18.83-.25,1.25-.06.3-.12.6-.17.91-.04.24-.09.48-.12.72-.31.07-.63.12-.95.16-.39.03-.77-.05-1.09-.29-1.02-.76-.55-2.44.7-2.61.57-.09,1.14-.24,1.68-.42.1-.04.2-.07.29-.11Z"/>
    <path class="cls-1" d="m177.07,324.79c.02,1.11-.04,2.21-.14,3.29-.02-.02-.04-.03-.05-.04-.12-.1-.25-.2-.38-.29-.02-.02-.04-.03-.05-.04-.14-.1-.27-.2-.41-.29-.01,0-.02-.02-.04-.02-.12-.08-.25-.16-.37-.23-.19-.12-.38-.22-.58-.32.08-1.02.08-2.05-.03-3.1,0-.05,0-.1-.01-.14-.3-4.42-1.75-9.27-5.56-11.86-5.91-3.9-11.16,1.54-12.1,7.33-.45,1.93-.46,3.91-.17,5.86.24,1.13-.08,3.28-1.69,2.71-.04-.03-.09-.06-.12-.09-1.05-.77-1.33-2.11-1.42-3.45-.05-.74-.04-1.47-.07-2.12.16-6.66,4.73-15.26,12.45-13.99,7.59,1.72,10.66,9.32,10.75,16.8Z"/>
    <path class="cls-1" d="m184.05,334.57c.84,2.66,1.2,5.49,1.15,8.21,0,.1,0,.2-.02.29-.04.91-.14,1.8-.29,2.68-.55,3.28-1.79,6.42-3.39,9.36-.5.92-1.03,1.82-1.59,2.7-.41.66-.85,1.31-1.29,1.95-2.01,2.91-4.48,5.5-7.3,7.62-.44.33-.88.64-1.33.95-1.1.74-2.24,1.41-3.43,1.99-.78.39-1.58.74-2.4,1.06-.59.23-1.22.5-1.84.21-1.16-.46-1.28-2.05-.39-2.77.11-.09.25-.17.39-.23.93-.41,1.85-.83,2.76-1.28,2.39-1.2,4.64-2.68,6.66-4.43,2.32-2.13,4.62-4.82,6.52-7.8.55-.85,1.06-1.73,1.53-2.62.78-1.47,1.44-2.99,1.95-4.54.1-.29.19-.59.28-.88.05-.18.1-.36.15-.54.09-.32.17-.65.24-.97.05-.24.1-.48.14-.71.57-3.01.48-6.05-.52-8.93-.11-.32-.22-.64-.34-.97-.12-.31-.25-.63-.4-.94-.06-.13-.12-.27-.19-.4-.07-.15-.14-.3-.22-.45-.02-.05-.05-.09-.07-.14-.11-.2-.21-.41-.33-.61-.11-.19-.22-.38-.34-.57-.14-.22-.28-.44-.43-.66-.1-.16-.21-.31-.32-.46-.02-.02-.03-.04-.04-.06-.71-.95-1.52-1.82-2.42-2.54-.02-.02-.04-.03-.05-.04-.12-.11-.25-.2-.38-.29-.02-.02-.04-.03-.05-.04-.14-.1-.27-.2-.41-.29-.01,0-.02-.02-.04-.02-.12-.08-.25-.16-.37-.23-.19-.12-.38-.22-.58-.32-1.68-.84-3.58-1.17-5.65-.69-.85.19-1.7.45-2.51.8-.69.29-1.34.64-1.94,1.03-.75.63-2.16,1.48-2.96.92-.23-.16-.41-.43-.51-.84-.17-1.39,1.16-2.38,2.17-3.1,3.3-2.25,7.69-2.65,11.37-1.22.71.28,1.4.62,2.05,1.04.45.29.88.61,1.29.97,1.21,1,2.25,2.16,3.12,3.44.56.81,1.05,1.67,1.47,2.57.14.29.27.57.39.86.07.17.14.34.2.5.06.15.12.3.17.46.06.16.12.32.17.49.06.16.11.32.16.49Z"/>
    <path class="cls-1" d="m166.14,326.06c.55.19.75.52.75.91,0,.7-.64,1.57-1.06,2.09-1.35,2.08-2.51,4.26-3.51,6.5,0,0,0,.01,0,.02-.16.36-.32.72-.46,1.08-.14.34-.29.69-.42,1.03-.01.03-.02.05-.03.08-1.27,3.25-2.23,6.62-2.95,10.04-.03.14-.06.27-.09.41-.09.42-.18.83-.25,1.25-.06.3-.12.6-.17.91-.04.24-.09.48-.12.72-.62,3.74-.97,7.51-1.46,11.27-.01.08-.03.16-.05.23h0c-.42,1.39-2.71,1.18-2.68-.42.09-1.25.18-2.5.29-3.75.32-3.86.73-7.73,1.45-11.54.34-1.82.74-3.62,1.24-5.39.3-1.07.62-2.13.99-3.18,0,0,0-.02.01-.03.09-.26.19-.52.29-.79.1-.27.2-.53.3-.79.07-.2.15-.39.23-.58.03-.07.05-.14.08-.2.84-1.78,1.94-4.78,3.48-7,1.12-1.62,2.48-2.82,4.15-2.86Z"/>
    <path class="cls-1" d="m157.04,343.83c.2,1.09.73,2.73-.71,3.14-.32.09-.67.05-.96-.09-.3-.14-.54-.38-.66-.69-.38-.87-1.04-3.8-1.57-7.26-.1-.65-.2-1.32-.28-2.01-.76-5.85-.98-12.33,1.09-12.81.15-.04.31-.04.49,0,.84.41.86,1.53.92,2.34,0,.38,0,.75,0,1.12.04,3.02.2,5.98.53,8.93.03.29.06.58.1.87.02.21.05.43.08.64.02.17.04.34.07.52.13.99.29,1.98.46,2.98.13.78.28,1.56.44,2.34Z"/>
    <path class="cls-1" d="m193.29,383.21c.13.4.27.8.4,1.2-.75-.61-1.42-1.35-2.01-2.18-.29-.41-.57-.84-.84-1.28-.43-.73-.83-1.51-1.2-2.3-.73-1.55-1.35-3.18-1.96-4.68-.32-.79-.63-1.55-.96-2.26-.7-1.76-1.41-3.52-2.03-5.31-.45-.96-.64-2.32.55-2.81.38-.13.7-.15.98-.08.57,1.17,1.1,2.36,1.59,3.56.08.2.16.4.24.6.48,1.22.91,2.46,1.28,3.71.05.19.11.38.16.56.12.41.23.83.33,1.24,0,0,0,0,0,0,.04.02.09.05.12.07.02.01.04.03.05.04.05.04.09.07.13.11.04.04.08.07.12.12.02.02.04.04.05.06.04.04.07.08.09.12.04.05.07.11.11.17,0,0,0,.01.01.02.03.05.06.11.09.17.07.13.12.28.17.43.02.06.04.13.05.2.02.07.04.14.05.2.03.15.06.31.08.46,0,.07.02.15.02.22v.15s.02.08.02.12c.02.28.01.55,0,.79v.27c.02.12.02.25.03.38,0,.15.02.3.03.45,0,.07.01.14.02.21h0c.04.07.07.15.08.25.09.14.18.29.26.44.05.09.11.19.16.29.07.12.13.25.19.37.56,1.12,1,2.3,1.4,3.51.04.13.09.27.13.4Z"/>
    <path class="cls-1" d="m204.49,372.95c.14,3.32.09,8.17-2.03,11,0,0,0,0,0,0,.02-.11.04-.22.05-.33.07-.46.13-.92.2-1.38.14-.99.25-1.98.34-2.97,0-.02,0-.05,0-.07v-.02c.06-.77.09-1.53.06-2.3-.05-.82-.15-1.63-.26-2.44-.11-.88-.26-1.74-.41-2.55-.16-.84-.35-1.66-.57-2.5-.19-.73-.38-1.47-.59-2.15,0-.02-.01-.04-.02-.06l-.02-.04c-.34-1.07-.71-2.14-1.07-3.2-.04-.11-.07-.21-.11-.31-.02-.06-.04-.11-.06-.17-.55-1.66-1.17-3.25-1.86-4.8-1.48-3.3-3.26-6.41-5.23-9.5-.51-1.1-3.09-4.23-3.74-6.3-.26-.82-.21-1.47.38-1.77.54-.26,1.14.11,1.55.49.04.04.08.07.11.11,3.53,4.18,6.8,9.98,9.23,16.02h0c2.09,5.2,3.56,10.57,4.03,15.24Z"/>
    <path class="cls-1" d="m190.84,380.96c.03,1.25-.02,2.67-.16,4.16-.03.29-.05.58-.09.87-.09.76-.2,1.54-.34,2.32-.02.1-.04.2-.05.29-1.22,6.46-4.33,12.85-10.79,11.77-4.36-1.39-5.78-5.31-6.43-9.57-.11-.73-.2-1.47-.28-2.2-.23-2.21-.37-4.42-.69-6.31-.38-3.31-.9-6.61-1.5-9.88-.05-.84-.69-2.86-.49-4.07.11-.67.47-1.1,1.33-.95h0c1.78,1.37,1.72,4.11,2.3,6.12,1.04,4.81,1.03,9.81,1.68,14.68.03.18.05.37.08.55.02.16.05.32.07.48.03.23.07.45.11.67.02.16.05.33.09.49.17.94.38,1.88.63,2.8,1.12,3.66,5.29,5.42,7.7,1.81,1.15-1.94,1.97-4.02,2.52-6.18.05-.19.1-.39.14-.58,0-.02,0-.03.01-.05.04-.18.08-.36.12-.54.08-.39.16-.78.22-1.17.73-4.38.5-8.96-.23-13.22-1.22-5.27-3.8-9.87-6.31-14.5-.17-.32-.34-.64-.53-.95-.53-.92-1.11-1.82-1.64-2.74.55-.85,1.06-1.73,1.53-2.62.57.88,1.14,1.76,1.7,2.66,1.69,2.7,3.31,5.5,4.71,8.4.57,1.17,1.1,2.36,1.59,3.56.08.2.16.4.24.6.48,1.22.91,2.46,1.28,3.71.06.19.11.38.16.56.12.41.23.82.33,1.24.37,1.48.64,2.97.81,4.48.08.69.14,1.38.17,2.07.02.38.04.79.05,1.21Z"/>
    <path class="cls-1" d="m166.07,368.04c1.19.62,1.13,1.5.51,2.29-.91,1.16-3.03,2.16-4.14,1.95-4.16-.18-7.45-3.76-8.6-7.53-.36-1.55-2.1-5.69.07-6.32.05-.02.11-.03.16-.04.78-.11,1.46.45,1.59,1.21.15,1.04.36,2.04.64,3h0c.37,1.24.88,2.42,1.6,3.52.9,1.32,2.43,2.46,4.04,2.71.81.13,1.64.03,2.43-.39.51-.29,1.1-.55,1.7-.39Z"/>
    <path class="cls-1" d="m332.9,225.26c.19,2.8.21,5.64-.01,8.44-.06.73-.77,1.29-1.48,1.29-.8,0-1.5-.68-1.49-1.49.02-2.16.02-4.29-.12-6.36.04-9.64-6.55-18.39-15.61-21.48-9.82-2.8-19.88,1.78-27.98,7.13-6.69,4.36-11.97,10.82-15.7,17.79-1.54,3.07-2.96,6.36-3.59,9.68-.32,1.59-.46,3.21-.79,4.8-.14.59-.49,1.12-1.14,1.15-.83.04-1.35-.9-1.52-1.59-1.05-5.63,1.37-11.3,3.78-16.28,4.73-9.45,12.62-16.91,21.94-21.78,12.45-7.21,27.02-8.43,37.3,3.09,3.81,4.29,6.32,9.86,6.42,15.6Z"/>
    <path class="cls-1" d="m248.88,202.62c1.38-.87,14.74-10.26,14.75-7.39-6.12,3.01-11.78,7.37-17.36,11.43-1.97,1.5-3.88,3.08-5.75,4.7-.34.3-.91.23-1.21-.07-.34-.35-.37-.96,0-1.3,2.96-2.73,6.26-5.08,9.57-7.37Z"/>
    <path class="cls-1" d="m336.59,186.58c2.13,1.06,16.71,9.3,13.78,11.79-.5.52-1.34.55-1.91.12-6.38-5.12-13.28-10.2-21.43-11.52-2.29-.13-3.3-2.36-.75-3.16,3.57-.38,7.14,1.32,10.31,2.78Z"/>
    <path class="cls-1" d="m302.09,289.86c9.07-.46,17.29-8.1,13.57-17.51-1.58-4.18-4.41-8.02-8.49-9.86.15,1.36-1.33,1.39-2.27,1.39-3.88.34-7.47,1.1-10.66,3.3-11.84,7.72-5.81,23.34,7.85,22.67Zm5.66-30.11c7.46,2.78,12.06,11.52,11.36,19.27-1.34,10.56-14.8,16.48-24.17,12.62-5.5-1.89-9.16-6.86-9.41-12.59-.99-9.83,9.1-17.29,18.11-17.92-.43-2.32,2.73-1.74,4.11-1.37Z"/>
    <path class="cls-1" d="m443.34,297.01c-.06.13-.11.27-.16.41-.05.13-.1.27-.15.4-.12.36-.24.72-.35,1.09-.06.2-.12.4-.18.6,0,0,0,.01,0,.02-.08.27-.16.55-.25.82-1.06-.26-2.11-.52-3.17-.77-.83-.21-1.66-.41-2.5-.61h0c-1.27-.31-2.54-.62-3.81-.93-2.79-.68-5.58-1.36-8.38-2.03-.68-.17-1.36-.33-2.04-.5-6.63-1.61-13.26-3.25-19.88-4.94-7.93-1.9-15.72-4.29-23.62-6.3-.29-.07-.58-.15-.88-.22-.43-.11-.86-.21-1.3-.32-.44-.11-.88-.21-1.32-.32-.14-.04-.27-.07-.41-.1-1.96-.4-3.94-.68-5.93-.94-.79-.14-1.68-.17-2.3-.74-.36-.36-.42-.92-.17-1.36.91-1.32,2.84-.88,4.21-.82,1.33.2,2.66.43,3.98.68,1.15.21,2.3.44,3.45.68,10.9,2.26,21.58,5.58,32.41,8.18,5.58,1.33,11.15,2.69,16.72,4.06,1.99.49,3.97.98,5.96,1.47,2.05.5,4.1,1.01,6.15,1.52.33.08.65.16.98.24.98.24,1.96.48,2.93.73Z"/>
    <path class="cls-1" d="m462.24,302.56c.14.38.14.81,0,1.2-.25.77-.99,1.36-2.05,1.1,0,0,0,0-.01,0-.15-.04-.3-.08-.45-.12.08-.05.15-.09.23-.14.21-.12.42-.27.62-.41.1-.07.2-.14.29-.22.1-.07.19-.15.28-.23.06-.05.12-.11.18-.16.15-.14.29-.29.43-.44l.16-.19s.06-.07.09-.11c.07-.08.13-.16.2-.24.01-.01.02-.03.03-.04Z"/>
    <path class="cls-1" d="m437.33,311.09c.44.12.88.24,1.32.36-.55.87-.99,1.79-1.4,2.74-.07.16-.14.32-.2.48-.02.05-.04.11-.07.16-.02,0-.05-.01-.07-.02-.32-.09-.64-.17-.96-.26-.09-.02-.18-.05-.27-.07-15.02-4.06-29.94-8.59-44.95-12.73-1.8-.5-3.59-.99-5.39-1.47-1.24-.34-2.48-.66-3.73-.99-1.18-.31-2.35-.61-3.53-.91-5.61-1.44-11.25-2.78-16.91-4-.92-.11-1.88-.15-2.78-.39-.34-.06-.62-.34-.65-.71.11-1.39,2.09-1.24,3.12-1.33,5.6.36,11.11,1.48,16.57,2.81.08.02.16.04.24.06,1.07.26,2.14.54,3.21.81.03,0,.05.01.08.02,3.05.79,6.08,1.6,9.12,2.35,1.09.29,2.17.57,3.25.87.91.24,1.82.49,2.74.74.91.25,1.82.5,2.74.75,8.21,2.25,16.4,4.6,24.61,6.88,4.63,1.3,9.27,2.59,13.91,3.87Z"/>
    <path class="cls-1" d="m436.57,298.95h0c-1.27-.31-2.54-.62-3.81-.92.08-1.16,1.74-1.9,2.56-.78.39.58.81,1.14,1.25,1.7Z"/>
    <path class="cls-1" d="m464.76,301.8c.23.28.49.54.76.78-.46.89-1.01,1.73-1.65,2.51-.03.04-.06.07-.09.11-.13.16-.27.32-.4.47-.2.21-.39.42-.59.62-.12.11-.24.23-.36.34-.21.2-.43.39-.66.58l-.08.07c-.11.09-.22.18-.33.26-.12.1-.25.2-.38.29-.12.09-.25.19-.38.28-.17,0-.34-.01-.51-.02-.59,0-1.18,0-1.76.01-.02-.04-.04-.07-.07-.1-.04-.05-.07-.11-.12-.17-.02-.03-.04-.06-.06-.09-.02-.02-.04-.05-.05-.07-.11-.15-.22-.3-.34-.44-.11-.13-.21-.27-.33-.39-.11-.12-.22-.25-.34-.36,0-.01-.02-.02-.03-.03.71-.36,1.43-.8,2.13-1.33.09-.07.18-.13.26-.2.12-.06.23-.12.34-.18h0c.08-.05.15-.09.23-.14.21-.12.42-.27.62-.41.1-.07.2-.14.29-.22.1-.07.19-.15.28-.23.06-.05.12-.11.18-.16.15-.14.29-.29.43-.44l.16-.19s.06-.07.09-.11c.07-.08.13-.16.2-.24.01-.01.02-.03.03-.04.64-.83,1.12-1.77,1.46-2.77.06.2.12.39.21.58.03.07.06.14.09.2.04.1.09.2.14.29.04.07.08.14.12.21.05.08.1.16.15.25.11.16.22.32.35.48Z"/>
    <path class="cls-1" d="m466.84,294.04c-.12.03-.25.06-.37.09-.13.04-.26.07-.39.11-.21.06-.41.12-.62.19-.11.04-.22.07-.33.11l-.16.06c-.28.27-.51.55-.7.87-.02.04-.05.07-.07.11-.02-.21-.04-.43-.07-.65-.12-.88-.36-1.74-.71-2.55-.02-.05-.05-.11-.07-.16-.39-.87-.92-1.68-1.57-2.38-.06-.07-.12-.13-.19-.19-.06-.06-.12-.12-.19-.18l-.04-.04-.2-.18c-.51-.45-1.09-.84-1.73-1.15-.39-.1-.79-.17-1.18-.22-2.08-.26-4.13.16-6.05,1.01-.1.04-.2.09-.3.14-1.7.8-3.29,1.92-4.7,3.19-1.09.98-2.07,2.06-2.89,3.14-.4.52-.71,1.07-.95,1.65-.06.13-.11.27-.16.41-.05.13-.1.27-.15.4-.12.36-.24.72-.35,1.09-.06.2-.12.4-.18.6,0,0,0,.01,0,.02-.08.27-.16.55-.25.82-.15.48-.32.95-.54,1.4-.39.5-1.09.62-1.64.32-.83-.71-1.08-1.58-.99-2.5.11-1.09.7-2.25,1.34-3.29.39-.62.8-1.21,1.13-1.7.39-.54.83-1.09,1.31-1.64.89-1.02,1.92-2.04,3.04-3,5.11-4.33,12.2-7.27,17.29-2.88.36.31.71.65,1.05,1.04.3.39.57.79.82,1.21.39.63.72,1.29.99,1.97.01.04.03.07.04.1.27.68.48,1.38.64,2.09.04.19.08.38.11.57Z"/>
    <path class="cls-1" d="m452.79,322.54c.22.46.02,1.03-.13,1.48-.04.12-.09.25-.13.38-.4-.67-.77-1.35-1.12-2.05h0s.02-.02.03-.02c.03-.02.05-.03.09-.04.02-.01.04-.02.05-.02.03-.02.06-.02.09-.03.04-.02.09-.02.13-.03.05,0,.11-.01.16-.01.27,0,.55.11.83.34Z"/>
    <path class="cls-1" d="m463.87,305.09s-.06.07-.09.11c-.13.16-.27.32-.4.47-.2.21-.39.42-.59.62-.12.11-.24.23-.36.34-.21.2-.43.4-.66.58l-.08.07c-.11.09-.22.18-.33.26-.12.1-.25.2-.38.29-.12.09-.25.19-.38.28-.17,0-.34-.01-.51-.02-.59,0-1.18,0-1.76.01-.02-.04-.04-.07-.07-.1-.04-.05-.07-.11-.12-.17-.02-.03-.04-.06-.06-.09-.02-.02-.04-.05-.05-.07-.11-.15-.22-.3-.34-.44-.11-.13-.21-.27-.33-.39-.11-.12-.22-.25-.34-.36,0-.01-.02-.02-.03-.03-.17-.18-.35-.35-.54-.51-.09-.08-.18-.16-.27-.23-.14-.12-.29-.23-.43-.34,1.08-.11,2.21-.2,3.37-.25.41-.02.82-.03,1.24-.04,1.07-.03,2.16-.03,3.27,0,.08,0,.16,0,.23,0Z"/>
    <path class="cls-1" d="m466.89,334.55c.07.32.13.65.19.97-.18-.04-.36-.09-.53-.14-.92-.24-1.81-.54-2.67-.9-.23-.09-.45-.19-.67-.29-.05-.02-.1-.04-.15-.07-.04-.24-.08-.48-.12-.72-.15-.87.46-1.73,1.28-1.95.08-.02.15-.04.22-.05h0s.01,0,.02,0h0c.45.2.91.38,1.39.55.04.01.09.03.13.04.07.09.13.18.19.28.03.05.06.1.09.15.16.31.29.65.38,1,.02.08.05.17.07.25.08.31.14.61.19.87Z"/>
    <path class="cls-1" d="m448.97,338.07c.09.25.12.53.08.81-.15.95-.34,1.89-.59,2.81-.13.51-.29,1.01-.46,1.51-.05.17-.11.33-.18.5-.01.04-.03.07-.04.11-.07.19-.14.38-.22.57v.04c-.1.21-.19.43-.28.64,0,0,0,0,0,0-.09.2-.18.39-.27.59-.02.05-.05.1-.07.15-.09.18-.18.36-.27.54,0,0,0,0,0,0-.11.21-.23.42-.34.62-.05.09-.1.19-.16.28,0,0,0,0,0,.01-.02.03-.04.06-.05.09-.04.07-.08.13-.12.2-.01.02-.03.04-.04.06-.68,1.09-1.54,2.11-2.54,2.96-2.12,1.82-4.84,2.86-7.64,2.04-8.75-2.65-5.03-18.62-3.83-25.29.83-3.94,1.85-7.84,3.03-11.69.15-.41.34-.89.71-1.17.06-.04.13-.09.2-.12.05-.02.1-.02.15-.03.49-.08.76.14.89.48.01.04.02.07.04.11.16.55.03,1.36-.09,1.84-.49,2.37-1.07,4.84-1.54,7.16-.81,4.27-1.79,8.53-2.2,12.86-.01,3.87-.26,7.9,1.95,11.13,3.07,3.25,6.96-.67,8.31-3.68.95-1.94,1.55-4.02,2.23-6.06.17-.51.52-.92.98-1.13.29-.14.61-.19.96-.14.66.09,1.21.57,1.43,1.18Z"/>
    <path class="cls-1" d="m452.79,322.54c.22.46.02,1.03-.13,1.48-.04.12-.09.25-.13.38-.82,2.45-1.71,4.88-2.29,7.4-.4,1.94-.88,4.07-1.27,6.26-.21,1.2-.39,2.41-.52,3.62-.13.51-.29,1.01-.46,1.51-.05.17-.11.34-.18.5-.01.04-.03.07-.04.11-.07.19-.14.38-.22.57v.04c-.1.21-.19.43-.28.64,0,0,0,0,0,0-.09.2-.18.39-.27.59-.02.05-.05.1-.07.15-.09.18-.18.36-.27.54,0,0,0,0,0,0-.11.21-.23.42-.34.62-.05.09-.1.19-.16.28-.05.1-.12.2-.18.3-.01.02-.03.04-.04.06-.11-1.34-.12-2.65-.06-3.87-.01-.14-.01-.34,0-.59.04-1.17.29-3.47.71-6.13.93-5.88,2.7-13.53,4.83-14.68h0s.02-.02.03-.02c.03-.02.05-.03.09-.04.02-.01.04-.02.05-.02.03-.01.06-.02.09-.03.04-.02.09-.02.13-.03.05,0,.1-.01.16-.01.27,0,.55.11.83.34Z"/>
    <path class="cls-1" d="m467.28,336.77c-.14.02-.29.05-.43.07-.04,0-.09.01-.13.02-.1.01-.2.02-.3.03-.13.01-.26.02-.39.03-.14,0-.29.01-.43.01-.43,0-.87-.02-1.3-.08-.04-.24-.09-.47-.13-.71v-.07c-.06-.27-.11-.54-.16-.8-.01-.06-.02-.12-.03-.19-.02-.11-.04-.23-.05-.34,0-.04-.01-.07-.02-.11,0-.02,0-.05,0-.07,0,0,0-.01,0-.02,0-.02,0-.04,0-.05-.23-.09-.45-.19-.67-.29-.05-.02-.1-.04-.15-.07-.04-.24-.08-.48-.12-.72-.15-.87.46-1.73,1.28-1.95.08-.02.15-.04.22-.05h0s.03,0,.05,0h0c.43-.06.77.03,1.06.21.16.1.3.24.43.39.07.09.13.18.19.28.03.05.06.1.09.15.16.31.29.65.38,1,.02.08.05.17.07.25.08.31.14.61.19.87.07.32.13.65.19.97.08.42.14.84.2,1.25Z"/>
    <path class="cls-1" d="m315.29,346.48c.36.73.64,1.76,0,2.32-.11.09-.23.18-.39.24-.11.05-.22.08-.34.09-.55.07-1.14-.22-1.38-.75,0-.01-.01-.02-.02-.04-.34-.81-.67-1.62-1-2.43-1.98-4.88-3.89-9.79-6.06-14.59-.86-2.23-2.62-4.8-1.71-7.24.14-.21.3-.34.48-.41.15-.06.3-.07.46-.04.4.07.81.38,1.12.75.06.07.11.13.16.2.03.04.06.09.09.13.07.1.13.21.18.3.28.66.55,1.32.82,1.99,1.85,4.61,3.41,9.38,5.43,13.93.75,1.84,1.46,3.7,2.16,5.56Z"/>
    <path class="cls-1" d="m315.31,348.83c3.29,5.46,4.98,11.95,4.8,18.25-.07,1.37-.24,2.86-.51,4.39-.08.42-.16.84-.25,1.27-.04.21-.09.43-.14.64-.05.21-.1.43-.16.64-.84,3.27-2.18,6.52-4.12,8.98-.86,1.09-1.84,2.02-2.95,2.73-2.1,1.35-4.66,1.89-7.73,1.18-5.3-1.39-9.68-5.12-12.34-9.83-.41-.73-.79-1.49-1.11-2.27-.6-1.41-1.05-2.88-1.33-4.38-.02-.1-.04-.2-.06-.3-.16-.95.51-1.9,1.42-2.15.92-.25,1.97.22,2.32,1.12.64,1.65,1.24,3.31,2.02,4.9.05.1.11.2.17.31.4.73.92,1.5,1.54,2.26.26.32.54.65.84.97,3.42,3.72,8.84,6.91,12.84,4.24,1.99-1.72,3.48-4.34,4.5-7.28.09-.25.18-.52.26-.78.04-.14.08-.27.12-.41.02-.06.04-.12.05-.19.05-.18.1-.35.14-.53,0,0,0-.02,0-.03.05-.17.09-.33.13-.5.01-.05.02-.09.04-.14,1.01-4.15,1.17-8.6.53-11.96-.67-3.55-2.29-6.83-3.3-10.28-.11-.54-.05-.97.12-1.27l.04-.06c.23-.34.61-.48,1.02-.38.36.08.75.34,1.08.81,0,0,.02.02.02.03Z"/>
    <path class="cls-1" d="m303.94,323.29c.12.16.16.38.11.64-.45,1.13-1.93,1.09-2.94,1.29-3.19.42-6.41.54-9.6,1-3.99.58-7.96,1.31-11.93,2.07-1.88.36-3.75.72-5.62,1.07-.16.04-.32-.1-.34-.26-.02-.17.1-.3.26-.34,5.04-.98,10.12-1.89,15.14-2.93h.04c.27,0,.69-.08,1.23-.21,1.08-.26,2.63-.72,4.3-1.2,3.24-.92,6.95-1.9,8.6-1.55.24.05.43.12.58.23.04.03.08.07.12.11h0s.04.04.05.06h0Z"/>
    <path class="cls-1" d="m297.7,322.15s0,.01,0,.02c-.08.54-.71.81-1.14,1.04-.51.26-1.03.5-1.55.72-.47.2-.95.39-1.42.56-.55.2-1.1.39-1.66.56-.68.2-1.35.39-2.03.58-.28.08-.56.16-.84.23-3.14.86-6.3,1.66-9.47,2.45-2.38.58-4.76,1.16-7.14,1.74-4.36,1.02-8.71,2.04-13.07,3.04-3.99.91-8,1.77-12.01,2.6-.33.07-.66.05-.96-.12-.94-.51-.75-2.02.3-2.27,8.59-2.3,17.31-4.13,25.96-6.22,4.39-1.04,8.76-2.1,13.13-3.23,3.02-.76,6-1.64,9.04-2.3.37-.05.9-.2,1.41-.25.68-.07,1.32.01,1.45.7.01.05.02.12.02.18Z"/>
    <path class="cls-1" d="m256.34,362.9c2.04,0,1.86,1.18.97,2.11-.32.34-.74.65-1.17.86-4.86,2.51-10.44,3.98-15.93,3.59,0,0,.2.02.01,0-6.84-.58-13.25-3.68-18.81-7.49-6.47-4.2-10.36-10.71-10.83-18.43-.3-4.19-.07-8.39.36-12.57.07-.7.15-1.4.23-2.1.02-.22.05-.44.08-.66.09-.78.19-1.56.29-2.34,1.02-.66,2.03-1.31,3.04-1.96.41.38.64.96.56,1.54,0,.05,0,.09-.01.14-.07.92-.16,1.85-.25,2.78-.07.7-.14,1.4-.2,2.1-.12,1.28-.24,2.56-.32,3.83,0,.06-.01.13-.02.2,0,.02,0,.04,0,.07-1.07,13.98,1.52,20.62,14.55,26.95,10.27,5.36,15.32,3.8,24.87,1.88.82-.16,1.68-.33,2.58-.5Z"/>
    <path class="cls-1" d="m298.53,374.9c.21.32.29.69.26,1.04,0,.03,0,.07-.01.1,0,.04-.01.08-.02.12,0,.04-.02.08-.03.12,0,.04-.02.07-.03.1-.16.49-.53.93-.99,1.16-.31.16-.67.23-1.05.16-.58-.19-1.06-.54-1.48-.96-.64-.65-1.15-1.48-1.71-2.23-.26-.35-.53-.67-.83-.95-.99-1.23-2.05-2.27-3.17-3.13-5.08-3.94-11.35-4.39-18.05-4.18-3.27-.04-6.53-.18-9.79-.27-.98.06-2.57-.31-3.16-1.1-.33-.43-.36-.99.14-1.67,1.06-.95,2.64-.68,3.95-.68,1.55.05,3.11.05,4.67.02,2.02-.03,4.04-.09,6.05-.08,8.86-.46,16.81,1.9,22.54,8.97.73.83,1.45,1.69,2.1,2.58.21.29.42.58.62.88Z"/>
    <path class="cls-1" d="m377.12,319.82c2.13-.03,2.4,3.25.24,3.53-1.44.18-2.88.29-4.33.39-15.12,1.26-30.25,1.38-45.38,2.14-5.31.31-10.82.64-16.09.98-1.22,0-2.62.32-3.86.13-.19-.03-.38-.07-.57-.13-.37-.11-.71-.29-1.02-.56-.54-.77-.4-1.35.18-1.8.05-.05.11-.09.18-.12.05-.04.11-.07.18-.11.11-.07.22-.12.35-.18,3.04-1.35,10.87-1.13,12.33-1.45,13.61-.85,27.27-.88,40.89-1.7,5.65-.3,11.28-.74,16.92-1.14Z"/>
    <path class="cls-1" d="m370.42,356.41s-.07,0-.1,0c-.9.09-1.78.16-2.64.21,0,.04-.01.08-.02.12,0,.04-.02.09-.03.13,0,.03-.02.06-.03.09-.02.05-.04.11-.07.18-1.05,1-2.71.63-4.04.71h-.17c-1.19-.36-2.38-.71-3.56-1.11h0l-.18-.06c-.43-.14-.79-.39-1.02-.78-.06-.1-.11-.2-.14-.29-.15-.41-.11-.83.05-1.2.32-.73,1.14-1.25,2.01-.99,1.96.44,4.17,1.11,6.51,1.87,1.12.36,2.27.74,3.44,1.12Z"/>
    <path class="cls-1" d="m383.5,303.01c-.34.06-.68.12-1.02.18-.07.02-.14.03-.21.04.06.35.12.7.18,1.05.02.12.02.25.01.37,0,.04,0,.07-.01.1,0,.02,0,.04,0,.05,0,.03-.02.06-.02.09,0,.04-.02.07-.03.1-.02.05-.04.09-.05.14-.06.12-.14.25-.22.35-.02.03-.05.05-.07.08-.04.04-.07.07-.11.11-.19.17-.41.3-.65.37-.34-.43-.62-.92-.68-1.46-.03-.25,0-.5.07-.73.04-.13.1-.25.17-.36.16-.27.41-.49.72-.64.2-.08.4-.12.59-.14h.03c.46-.04.9.09,1.32.3Z"/>
    <path class="cls-1" d="m386.91,363.07c2.02-.23,4.04-.45,6.06-.68-2.38.95-4.96,1.38-7.69,1.08-.32-.03-.65-.07-.97-.11.87-.1,1.73-.2,2.6-.3Z"/>
    <path class="cls-1" d="m403.08,334.11c-.01.33-.04.67-.07,1-1.67-4.41-3.92-8.55-6.58-12.42-.28-.4-.55-.79-.84-1.18,0-.01-.02-.02-.03-.04-1.17-1.62-2.42-3.2-3.73-4.71-.04-.04-.07-.08-.11-.12-.68-.78-1.38-1.55-2.08-2.3,0,0,0-.01,0-.02-.04-.07-.08-.13-.11-.19-.09-.18-.16-.35-.19-.52-.01-.07-.02-.13-.02-.2,0-.06,0-.12.02-.17.02-.13.08-.26.17-.38.86-1.12,3.97,2.74,6.02,5.33.76.97,1.38,1.75,1.68,2.04,2.85,4.09,5.69,8.79,5.88,13.89Z"/>
    <path class="cls-1" d="m343.6,338.81c.48.25.94.53,1.38.84-.2.49-.62.88-1.3.98-.09,0-.18.01-.27.02-.86.06-1.71.12-2.57.2-1.54.12-3.07.25-4.61.37-.42-.29-.84-.57-1.26-.85-.15-.1-.31-.2-.46-.3-.17-.11-.34-.22-.52-.32-.13-.08-.26-.16-.39-.23l-.4-.23c-.06-.04-.12-.09-.19-.13-.13-.09-.27-.18-.41-.27-.03-.02-.05-.04-.09-.05-.19-.11-.39-.23-.59-.35,0,0,0,0,0,0-.13-.08-.27-.16-.41-.24-.03-.02-.05-.03-.08-.05.43-.03.85-.08,1.26-.16,2.2-.16,4.41-.4,6.62-.56,0,0,0,0,0,0,.19.13.38.26.56.39.19.13.38.27.56.4.07-.02.14-.05.21-.07,0,0,.02,0,.02,0,.07-.02.15-.04.23-.05.07-.01.15-.02.22-.03.46-.04.94.03,1.3.17.14.06.29.12.43.18s.28.13.42.2c.11.05.23.11.34.17Z"/>
    <path class="cls-1" d="m357.32,362.33c.11,1.44.12,2.9.03,4.35-.05.85-.14,1.7-.26,2.55,0,.02,0,.04,0,.05-.3,3.07-.89,5.95-1.86,8.73,0,.02-.01.05-.02.07-.09.25-.18.51-.27.76-.08.18-.16.36-.25.54s-.18.35-.28.52c-.09.15-.17.3-.27.45-.04.06-.07.12-.11.17-.07.12-.15.23-.23.34-.24.35-.5.7-.78,1.02-.11.13-.22.27-.34.39,0,0,0,0,0,0-.13.15-.27.29-.4.43,0,0-.02,0-.03,0-.55-.15-.94-.77-.76-1.33.09-.29.18-.58.26-.87.62-2.12,1.2-4.38,1.7-6.5.07-.33.15-.66.23-.98.23-1.14.43-2.29.58-3.45.11-.84.19-1.7.25-2.54.2-3.1,0-6.2-.8-9.18-.32-1.18-.74-2.35-1.27-3.48-.1-.21-.2-.43-.31-.64-2.65-4.66-5.77-9.47-10.25-12.46-.31-.14-.66-.29-1-.46-.58-.29-1.12-.67-1.28-1.29-.09-.7.31-1.11.86-1.31.07-.03.14-.05.21-.07,0,0,.02,0,.02,0,.07-.02.15-.04.23-.05.07-.02.15-.02.22-.03.46-.04.94.03,1.3.17.14.06.29.12.43.18s.28.13.42.2c.11.06.23.11.34.17.48.25.94.53,1.38.84,3.27,2.23,5.68,5.75,7.84,8.97,1.16,1.82,2.1,3.75,2.82,5.75.41,1.16.75,2.33,1.02,3.53,0,.02,0,.03.01.05.32,1.43.54,2.88.65,4.35v.04Z"/>
    <path class="cls-1" d="m351.91,383.09s-.02.02-.04.03c-.12.12-.24.23-.36.34-.16.15-.33.3-.5.44-.07.06-.13.12-.2.17-.19.16-.38.31-.57.46-.1.08-.21.16-.31.24-.18.13-.35.26-.53.39-.17.12-.34.24-.51.36,0,0-.02.01-.02.02-.18.12-.36.24-.53.36-.19.12-.38.24-.56.36-1.19.05-2.38.1-3.58.14-.6.02-1.19.04-1.79.05-.41.01-.82.02-1.23.03-.47.01-.94.02-1.41.03-3.79.07-7.57.08-11.36.02-4.56,0-9.08-.63-13.63-.79-.68-.14-1.79,0-2.8-.02-1.1-.02-2.08-.22-2.25-1.18-.09-.65.39-1.37,1.08-1.42,1.38-.07,2.75-.11,4.12-.13,6.72-.11,13.45.27,20.17.25,3.7.04,7.4-.09,11.1-.16.5-.01.99-.02,1.49-.03.06,0,.12,0,.18.01.68.04,1.43-.02,2.17-.05.64-.02,1.27-.02,1.87.08Z"/>
    <path class="cls-1" d="m366.77,355.3c.62.32.97.74.91,1.32,0,.04,0,.08-.02.12,0,.02,0,.04-.01.06h0s-.01.04-.02.07c0,.03-.02.06-.03.09-.02.06-.04.12-.07.18-1.05,1-2.71.63-4.04.71h-.17c-2.21,0-4.44.03-6.66.04h0c-.99,0-1.98,0-2.97-.02-.32,0-.64,0-.95-.01-.07-.16-.14-.31-.21-.46-.09-.2-.19-.4-.29-.6-.01-.02-.02-.04-.04-.06-.09-.19-.19-.38-.3-.57-.09-.16-.18-.33-.28-.49-.03-.05-.05-.09-.08-.14-.11-.19-.22-.37-.34-.55-.12-.18-.23-.37-.36-.55.52-.02,1.04-.04,1.57-.05.91-.02,1.83-.03,2.75-.03h1.08c.41.05,1.21.05,2.21.05,2.61,0,6.54,0,8.31.89Z"/>
    <path class="cls-1" d="m175.57,389.9c.03.16.05.33.09.49-.66.1-1.32.2-1.98.3-.23.04-.47.07-.7.11-13.3,1.93-26.56,4.67-39.8,6.81-.99.16-1.99.32-2.98.47-.43.07-.86.13-1.3.2-.48.08-.96.15-1.45.22-.32-.26-.35-.52-.17-.76.27-.37,1.02-.71,1.98-1.03.54-.18,1.14-.34,1.76-.5,2.54-.63,5.47-1.08,5.94-1.25,11.86-2.41,23.78-4.52,35.74-6.36.47-.07.95-.15,1.42-.22.4-.06.8-.12,1.2-.18.03.18.05.37.08.55.02.16.05.32.07.48.03.23.07.45.11.67Z"/>
    <path class="cls-1" d="m194.86,387.53c.02.05.04.1.07.15-.33.04-.66.09-.99.13-.78.1-1.55.2-2.33.31-.46.06-.91.12-1.36.19l-.19.02c-1.19.16-2.37.32-3.55.49.05-.19.1-.39.14-.58,0-.02,0-.03.01-.05.04-.18.08-.36.12-.54.08-.39.16-.78.22-1.17.72-.1,1.44-.2,2.16-.3l1.43-.2c.11-.02.21-.03.32-.04.62-.09,1.25-.17,1.88-.25.43-.06.86-.11,1.29-.17.2.55.4,1.09.62,1.62.05.13.11.26.16.38Z"/>
    <path class="cls-1" d="m298.53,374.9c.21.32.29.69.26,1.04,0,.04,0,.07-.01.1,0,.04,0,.08-.02.12,0,.04-.02.08-.03.12,0,.04-.02.07-.03.1-.14.02-.29.03-.44.05-.46.05-.93.09-1.39.14-.56.05-1.12.11-1.69.17-1.09.11-2.18.22-3.28.34-28.77,2.92-57.58,5.64-86.27,9.23-.12.01-.25.03-.38.05-.8.1-1.61.2-2.42.3-.35.04-.7.09-1.05.13.04-.14.08-.29.12-.43.07-.26.14-.52.21-.79.05-.2.11-.39.15-.59.04-.18.08-.37.11-.56.44-.05.88-.11,1.32-.17.55-.07,1.09-.14,1.64-.21.11-.02.23-.03.35-.05,22.66-2.87,45.39-5.22,68.12-7.48,5.66-.54,11.32-1.11,16.97-1.72.89-.09,1.78-.19,2.68-.29.62-.07,1.24-.13,1.86-.21.86-.09,1.72-.19,2.59-.29.21.29.42.58.62.88Z"/>
    <path class="cls-1" d="m315.8,371.93c1.27-.15,2.54-.31,3.8-.46-.08.42-.16.84-.25,1.27-.04.21-.09.43-.14.64-.05.21-.1.43-.16.64-1.33.16-2.67.32-4,.48.09-.25.18-.52.26-.78.04-.14.08-.27.12-.41.02-.06.04-.12.05-.19.05-.18.1-.35.14-.53,0,0,0-.02,0-.03.05-.17.09-.33.13-.5.01-.05.02-.09.04-.14Z"/>
    <path class="cls-1" d="m445.79,359.29s.02.08.03.12c-.64.06-1.27.13-1.91.19-15.33,1.55-30.68,3.07-45.99,4.75-13.63,1.47-27.23,3.15-40.83,4.88-.16.02-.31.04-.46.06-.79.1-1.58.2-2.38.3l-.66.08c.05-.29.09-.58.13-.87.02-.13.04-.27.05-.4.03-.23.05-.46.07-.69.02-.2.04-.39.05-.59.2-.03.4-.05.6-.08.87-.11,1.74-.22,2.61-.34.08-.01.16-.02.24-.03,5.36-.69,10.72-1.38,16.08-2.05,3.62-.43,7.25-.85,10.88-1.26.87-.1,1.73-.2,2.6-.3,2.02-.23,4.04-.45,6.06-.68,16.86-1.86,33.73-3.55,50.6-5.27.61-.06,1.22-.12,1.84-.19,0,.01,0,.03,0,.04.02.16.04.31.05.46,0,.09.02.18.04.27.02.16.05.33.07.49,0,.02,0,.04,0,.05.03.18.06.35.09.53,0,.01,0,.02,0,.04.03.16.07.32.1.48Z"/>
    <path class="cls-1" d="m519.37,350.06c.03.23,0,.46-.1.66-.17.39-.53.69-.97.74-7.71.88-15.42,1.77-23.14,2.65-10.25,1.21-20.52,2.33-30.79,3.4-.76.08-1.52.16-2.28.24.05-.12.11-.24.16-.37.08-.19.16-.38.23-.57.52-.55,1-1.14,1.45-1.77.46-.05.91-.09,1.37-.14,12.5-1.3,24.99-2.64,37.48-4.09,5.06-.59,10.12-1.19,15.18-1.82.67-.08,1.31.38,1.4,1.07Z"/>
    <path class="cls-1" d="m138.1,342.33c.49.14.32.94-.18.86-.58-.07-.36-1,.18-.86Z"/>
    <path class="cls-1" d="m143.71,339.15c.13.35.16.71.14,1.07-.06,1.02-.59,2.06-.86,3.01,0,.01,0,.02-.01.03-4.51,12.09-7.79,24.53-10.26,37.17-.25,1.21-.48,2.37-.72,3.54,0,0,0,.02,0,.03,0,0,0,.02,0,.03-.09.46-.18.86-.27,1.31l.02-.13c-.74,3.56-1.51,7.08-2.3,10.6-.07.29-.13.59-.2.89-.05.23-.1.46-.16.69-.07.29-.13.59-.2.88-.05.23-.1.46-.16.7-.04.2-.09.39-.13.59-.07.02-.14.03-.21.05-.16.04-.32.07-.47.09-.22.04-.45.07-.66.09-.07,0-.14.01-.21.02-.21.01-.41,0-.58-.02h0c-.06-.01-.12-.02-.17-.04-.06-.01-.11-.03-.16-.05l.07-.32.26-1.11c.03-.12.06-.25.09-.37.01-.04.02-.09.03-.13.13-.55.26-1.1.39-1.65,1.22-5.35,2.18-10.86,3.23-16.12,2.96-13.38,7.07-26.54,11.53-39.48.08-.23.16-.46.24-.7.05-.16.15-.33.28-.49.04-.04.07-.09.11-.13.02-.02.05-.05.07-.07.05-.05.11-.1.16-.14.32-.22.69-.3.99,0,.02.02.04.04.06.06.03.03.05.06.08.1Z"/>
    <path class="cls-1" d="m156.07,338c.02.17.04.34.07.52-1,.14-2,.28-3,.42-2.76.39-5.52.77-8.29,1.15-.33.05-.67.09-1,.14-.25.04-.5.07-.76.11-.46.06-.92.13-1.38.19.08-.23.16-.46.24-.7.05-.16.15-.33.28-.49.04-.05.07-.09.11-.13.02-.02.05-.05.07-.07.05-.05.11-.1.16-.14.32-.22.69-.3.99,0,.02.02.04.04.06.06.04-.09.08-.18.12-.27.06-.12.11-.24.16-.35.04-.09.08-.18.12-.27l1.69-.23c2.38-.33,4.76-.66,7.14-1,1.01-.14,2.03-.29,3.04-.43.03.29.06.58.1.87.02.21.05.43.08.64Z"/>
    <path class="cls-1" d="m162.32,335.57s0,.01,0,.02c-.08.18-.16.36-.24.54h0c-.07.18-.15.36-.23.54-.14.34-.29.69-.42,1.03-.01.03-.02.05-.03.08-1.27.18-2.54.36-3.81.54,0,0,0-.02.01-.03.09-.26.19-.52.29-.79.05-.13.1-.26.15-.39h0c.05-.14.1-.27.15-.39.07-.2.15-.39.23-.58,1.3-.19,2.6-.38,3.9-.56Z"/>
    <path class="cls-1" d="m183.89,334.08c.05.16.11.33.16.49-.79.11-1.57.22-2.35.33-.12-.31-.25-.63-.4-.94-.06-.14-.12-.27-.19-.4-.07-.15-.14-.3-.22-.45-.02-.05-.05-.09-.07-.14.12-.02.25-.04.37-.05.72-.1,1.44-.2,2.16-.3.07.17.14.34.2.5.06.15.12.3.17.46.06.16.12.32.17.49Z"/>
    <path class="cls-1" d="m214.88,328.38c-.07.7-.14,1.4-.2,2.1-1.24.16-2.49.33-3.73.5-1.57.21-3.15.42-4.73.63-1.49.2-2.97.4-4.46.59,1.34-.87,2.68-1.73,4.02-2.6l4.28-.57c.38-.05.75-.1,1.12-.15,1.23-.16,2.47-.33,3.7-.5Z"/>
    <path class="cls-1" d="m396.07,299.6c.91.25,1.82.5,2.74.75-2.7.46-5.39.93-8.08,1.4-2.41.42-4.82.84-7.22,1.27-.34.06-.68.12-1.02.18l-.21.04c-.48.09-.95.17-1.43.25-.12.02-.23.04-.35.06-.47.08-.93.17-1.4.25-.15-.77-.3-1.54-.44-2.31.53-.1,1.06-.2,1.59-.3.55-.1,1.09-.2,1.64-.29,1.15-.21,2.3-.41,3.45-.62,2.67-.48,5.33-.95,8-1.42.91.24,1.83.49,2.74.74Z"/>
    <path class="cls-1" d="m452.19,288.89c-.1.04-.2.09-.3.14-1.7.8-3.29,1.92-4.7,3.19-1.45.24-2.89.48-4.34.71-3.19.52-6.38,1.05-9.57,1.58-2.96.49-5.93.98-8.89,1.48-.68-.17-1.36-.33-2.04-.5-1.31-.32-2.62-.64-3.92-.96,2.96-.5,5.93-1,8.89-1.5,6.19-1.04,12.38-2.07,18.57-3.11,2.1-.35,4.2-.7,6.3-1.05Z"/>
    <path class="cls-1" d="m477.97,287.22c-1.26.2-2.53.41-3.79.61-3.04.49-6.08.98-9.12,1.48-1.1.18-2.2.36-3.29.54-.06-.07-.12-.13-.19-.19-.06-.06-.12-.12-.19-.18l-.04-.04-.2-.18c-.51-.45-1.09-.84-1.73-1.15-.39-.1-.79-.17-1.18-.22,1.65-.27,3.29-.55,4.94-.82,2.71-.45,5.43-.91,8.15-1.36,1.22-.21,2.45-.41,3.67-.62.65.46,1.3.93,1.94,1.39.34.25.68.49,1.02.74Z"/>
    <path class="cls-1" d="m551.77,347.38c-1.51.15-3.02.3-4.53.45-.57-.43-1.14-.87-1.71-1.31-.42-.32-.84-.65-1.27-.98-.15-.11-.3-.23-.45-.35-9.46-7.39-18.45-15.41-27.54-23.24-13.47-12.07-27.64-23.28-42.1-34.12-.95-.71-1.9-1.43-2.85-2.13,1.22-.21,2.45-.41,3.67-.62.65.46,1.3.93,1.94,1.39.34.25.68.49,1.02.74,13.02,9.42,25.56,19.58,37.62,30.16l.09.08c10.55,9.02,21.05,18.12,31.96,26.71.36.29.71.57,1.07.84.07.05.13.11.2.15.95.74,1.89,1.48,2.84,2.21Z"/>
    <path class="cls-1" d="m551.77,347.38c-1.51.15-3.02.3-4.53.45-8.16.82-16.32,1.65-24.48,2.55-1.16.1-2.33.22-3.49.34-7.75.83-15.49,2.03-23.27,2.21-.97-.05-.91-.97.06-1.16,2.24-.34,4.48-.65,6.73-.96,5.86-.8,11.73-1.54,17.58-2.31,7.65-.96,15.32-1.95,23-2.86l.89-.11c1.49-.18,2.98-.35,4.46-.52.07.05.13.11.2.15.95.74,1.89,1.48,2.84,2.21Z"/>
    <path class="cls-1" d="m133.16,397.61c.67,1.23-1.41,1.26-2.21,1.43-.51.03-1.42.3-2.35.52-.07.02-.14.03-.21.05-.16.04-.32.07-.47.09-.23.04-.45.07-.66.09-.07,0-.14.02-.21.02-.21.01-.41,0-.58-.02h0c-.06,0-.12-.02-.17-.04-.06,0-.11-.02-.16-.05-.18-.06-.33-.16-.43-.3-.03-.04-.05-.07-.07-.11-.03-.04-.05-.08-.06-.13-.06-.36.03-.62.21-.82.02-.02.04-.04.06-.06t0,0c.07-.06.14-.12.23-.17.14-.08.3-.15.48-.21.23-.07.48-.13.72-.18.35-.07.69-.12.94-.2.29-.02.58-.07.88-.14.59-.12,1.19-.28,1.79-.36.76-.1,1.5-.07,2.14.34.06.08.11.16.15.24Z"/>
    <path class="cls-1" d="m131.01,396.2c.03.27-.04.57-.13.83-.03.09-.06.16-.1.24-.16.31-.36.58-.59.8-.41.41-.91.7-1.45.89-.79.28-1.67.39-2.53.42-.17,0-.34.01-.5.02-.03-.04-.05-.07-.07-.11-.03-.04-.05-.08-.06-.13-.06-.36.03-.62.21-.82.02-.02.04-.04.06-.06t0,0c.07-.06.14-.12.23-.17.14-.08.3-.15.48-.21.01-.04.02-.09.03-.13.13-.55.26-1.1.39-1.65.88,0,1.75-.04,2.48-.32.17-.06.33-.14.48-.23.24-.16.55-.11.77.04.2.15.29.36.31.58Z"/>
    <path class="cls-1" d="m144.48,337.02c.37-.9,1.79-.31,1.39.59-.05.11-.11.21-.15.32-.32.7-.59,1.43-.87,2.16-.41,1.05-.85,2.08-1.54,2.94-.11.09-.19.22-.32.25-.03.01-.07.01-.1,0-.61-.39-.3-1.63.21-2.94.17-.43.36-.86.54-1.28.04-.09.08-.18.12-.27.06-.12.11-.24.16-.35.04-.09.08-.18.12-.27.21-.47.38-.88.45-1.14Z"/>
    <path class="cls-1" d="m355.45,374.77c.25,1.07.09,2.2-.23,3.25,0,.02-.01.05-.02.07-.06.21-.13.41-.21.61-.02.05-.04.1-.07.15-.08.18-.16.36-.25.54-.09.18-.18.35-.28.52l-.13.22h0c-.05.08-.09.15-.14.22-.04.06-.07.12-.11.17-.07.12-.15.23-.23.34-.24.35-.5.7-.78,1.02-.11.13-.22.27-.34.39,0,0,0,0,0,0-.13.15-.26.29-.4.43-.12.12-.24.25-.36.37-.01.01-.02.02-.04.03-.12.12-.24.23-.36.34-.16.15-.33.3-.5.44-.06.06-.13.11-.2.17-.19.16-.38.31-.57.46-.1.08-.21.16-.31.24-.18.13-.35.26-.53.39-.17.12-.34.24-.51.36,0,0-.02.01-.02.02-.18.12-.35.24-.53.36-.19.12-.38.24-.56.36-1.19.05-2.38.1-3.58.14-.59.02-1.19.04-1.79.05-.41.01-.82.02-1.23.03-.47.01-.94.02-1.41.03.09-.08.2-.15.3-.21,2.02-1.08,4.17-2.08,6.13-3.23.14-.08.28-.16.41-.25.98-.59,1.88-1.31,2.69-2.12,1.39-1.39,2.51-3.07,3.34-4.84.2-.6.41-1.2.73-1.75.02-.04.05-.07.07-.11.46-.66,1.21-.52,1.66-.02.18.21.31.47.36.77Z"/>
    <path class="cls-1" d="m357.32,362.33c.06,1.46-.02,2.93-.21,4.38-.12.86-.28,1.72-.48,2.57-.38,1.61-.9,3.18-1.52,4.71-.5,1.23-1.07,2.43-1.7,3.59-.53.97-1.07,1.96-1.65,2.93-.52.86-1.08,1.7-1.7,2.49-.78,1-1.66,1.9-2.68,2.64-.18.32-.64.44-.93.2-.36-.3-.24-.81.1-1,.47-.57.92-1.16,1.33-1.79.52-.76.99-1.55,1.43-2.35,1.04-1.9,1.93-3.91,2.76-5.82.72-1.68,1.23-3.43,1.54-5.21.05-.29.09-.58.13-.87.02-.13.04-.27.05-.4.03-.23.05-.46.07-.69.02-.2.04-.39.05-.59.19-2.83-.1-5.7-.83-8.45-.1-.27-.21-.55-.33-.81-.07-.16-.14-.31-.21-.46-.09-.2-.19-.4-.29-.6-.01-.02-.02-.04-.04-.06-.09-.19-.19-.38-.3-.57-.09-.16-.18-.33-.28-.49-.03-.05-.05-.09-.08-.14-.11-.18-.22-.37-.34-.55s-.23-.37-.36-.55c-3.21-4.74-8.21-8.38-12.6-11.79-.69-.5-1.36-.98-2.02-1.44-.42-.29-.84-.57-1.26-.85-.15-.1-.31-.2-.46-.3-.17-.11-.34-.22-.52-.32-.13-.08-.26-.16-.39-.23l-.4-.23c-.06-.04-.12-.09-.19-.13-.13-.09-.27-.18-.41-.27-.03-.02-.05-.04-.09-.05-.19-.12-.39-.23-.59-.35,0,0,0,0,0,0-.13-.08-.27-.16-.41-.24-.03-.02-.05-.03-.08-.05h0c-2.07-1.21-4.4-2.7-2.81-5.03,1.07-1.34,2.87-.89,3.95.17,2.05,1.34,4.24,2.45,6.27,3.82.16.11.32.21.47.32,0,0,0,0,0,0,.19.12.38.25.56.39.19.13.38.27.56.4,1.04.76,2.03,1.56,2.98,2.41,2.56,2.25,4.86,4.8,7.01,7.46,1.73,1.87,3.46,3.96,4.74,6.26.63,1.13,1.14,2.3,1.49,3.53,0,.02.01.03.02.05.11.41.21.82.29,1.23.2,1.04.32,2.08.36,3.11v.04Z"/>
    <path class="cls-1" d="m206,379.13c.07,1.64-.06,3.27-.32,4.88-.02.16-.05.32-.08.48-.11.62-.23,1.25-.36,1.86-.04.2-.09.39-.13.59-.16.65-.36,1.28-.59,1.91-.2.54-.4,1.08-.66,1.59-.29.58-.86.94-1.47.94-.21,0-.44-.05-.65-.14-.38-.17-.68-.49-.83-.88-.03-.08-.05-.16-.07-.23-.09-.39-.01-.8.18-1.16.12-.25.23-.5.34-.76.16-.46.29-.92.41-1.39,0,0,0-.02,0-.03.04-.14.08-.29.12-.43.07-.26.14-.52.21-.79.05-.2.11-.39.15-.59.04-.18.08-.37.11-.56l.08-.48s0,0,0,0l.05-.33c.07-.46.13-.92.2-1.38.14-.99.25-1.98.34-2.97,0-.02,0-.05,0-.07v-.02c.06-.77.09-1.53.06-2.3-.05-.82-.15-1.63-.26-2.44-.11-.88-.26-1.74-.41-2.55-.16-.84-.35-1.66-.57-2.5-.19-.73-.38-1.47-.59-2.15,0-.02-.01-.04-.02-.06l-.02-.04c-.34-1.07-.71-2.14-1.07-3.2-.04-.11-.07-.21-.11-.31-.13-.37-.27-.73-.41-1.1-.15-.4-.3-.8-.48-1.19-.27-.52-.59-1-.82-1.53-.15-.33-.22-.7-.22-1.06,0-.03,0-.06,0-.09.04-.53.37-1,.86-1.21.42-.18.95-.1,1.32.16.04.03.09.06.12.09h0c.28.23.48.5.67.82.16.27.26.57.35.86.09.29.2.57.3.85.31.82.65,1.63.97,2.45.75,1.95,1.34,3.96,1.84,5.98.18.73.32,1.47.46,2.21.16.8.31,1.61.44,2.41.11.66.22,1.33.3,2,.09.77.1,1.54.13,2.31h0v.02c0,.05,0,.11,0,.14,0,.11,0,.22.01.31,0,0,0,.02,0,.03v.07c0,.05,0,.1,0,.14.02.34.04.67.04.8Z"/>
    <path class="cls-1" d="m199.23,391.48c1.05-.05,1.91.94,1.74,1.97-.03.25-.11.47-.24.66-.51.8-1.72,1.02-2.62.73-3.8-.59-6.31-3.1-7.93-6.25-.04-.09-.09-.18-.13-.27-.34-.69-.64-1.41-.9-2.14-.63-1.77-1.04-3.63-1.29-5.39-.15-1.55-1.07-5.1-.2-6.82.22-.44.56-.77,1.06-.91.43-.07.79-.01,1.07.13,0,0,0,0,0,0,.04.02.09.05.12.07.02.01.04.03.05.04.05.04.09.07.13.11.04.04.08.07.12.12.02.02.04.04.05.06.04.04.07.08.09.12.04.05.07.11.11.17,0,0,0,.01.01.02.03.05.06.11.09.17.07.13.12.28.17.43.02.06.04.13.05.2.02.07.04.14.05.2.03.15.06.31.08.46,0,.07.02.15.02.22v.15s.02.08.02.12c.02.28.01.55,0,.79v.27c.02.12.02.25.03.38,0,.15.02.3.03.45,0,.07.01.14.02.21h0c.1,1.39.29,2.85.61,4.28.27,1.2.62,2.37,1.1,3.46.32.75.71,1.46,1.16,2.12,1.22,1.79,2.93,3.15,5.3,3.67Z"/>
    <path class="cls-1" d="m205.61,384.49c.17.52.08,1.21.02,1.73,0,.03,0,.06,0,.09-.16,3.06-2.07,6.56-4.89,7.81-1.1.49-2.34.64-3.68.27-2.75-.89-4.38-3.41-5.45-6.27-.27-.71-.5-1.44-.7-2.17-.08-.28-.16-.55-.23-.83-.4-1.54-.7-3.05-.99-4.35-.09-.68-.26-1.45-.05-2.11.05-.18.14-.35.25-.51.08-.37.43-.52.73-.47.18.03.35.12.45.28h0c.04.07.07.15.08.25.09.14.18.29.26.44.05.09.11.19.16.29.07.12.13.25.19.37.56,1.12,1,2.3,1.4,3.51.04.13.09.27.13.4.13.4.27.8.4,1.2.12.37.25.74.38,1.11.2.55.4,1.09.62,1.62.05.13.11.25.16.38.02.05.04.1.07.15.23.52.49,1.02.77,1.5.52.65,1.21,1.19,1.9,1.62.88.27,1.79-.06,2.67-.18.21-.15.4-.32.57-.5.93-.93,1.54-2.21,1.98-3.47.1-.27.19-.54.27-.8.16-.48.29-1.14.6-1.59.23-.34.55-.55,1.07-.48.25.04.44.14.58.27.12.12.21.27.27.43Z"/>
    <path class="cls-1" d="m267.27,362.57c1.12.62.39,1.82-.69,1.88-2.74-.07-5.44.13-8.13.44-.38.04-.75.08-1.13.13-1.39.17-2.77.36-4.16.55-.36.41-1.04.38-1.37-.05-.27-.35-.24-.87.07-1.18.17-.17.41-.26.64-.27.4-.27.82-.49,1.26-.66,1.86-.74,4.04-.73,5.99-.89,2.45-.14,5.07-.69,7.45.04.02,0,.04.01.06.02Z"/>
    <path class="cls-1" d="m470.2,332.78c9.96-3.59,16.35-15.14,14.49-25.46-1.84-7.07-8.16-14.27-16.01-13.61-.62.07-1.24.18-1.85.32-.12.03-.25.06-.37.09-.13.04-.26.07-.39.11-.21.06-.41.12-.62.19-.11.04-.22.07-.33.11l-.16.06c-.18.07-.37.13-.55.21-.09.04-.2.08-.3.12-.96.36-2.38.71-2.57-.62,0-.08,0-.16.02-.23.12-.89.97-1.48,1.77-1.87.15-.07.3-.14.44-.2.74-.33,1.5-.57,2.27-.75,3.85-.86,8.04.12,11.43,2.08,13.21,8.19,12.73,25.25,2.33,35.54-3.24,3.19-7.75,7.09-12.53,7.88-.14.03-.29.05-.43.07-.04,0-.09.01-.13.02-.1.02-.2.02-.3.03-.13.01-.26.02-.39.03-.14,0-.29.01-.43.01-.43,0-.87-.02-1.3-.08-.04-.24-.09-.47-.13-.71v-.07c-.06-.27-.11-.54-.16-.8-.01-.06-.02-.12-.03-.19-.03-.17-.06-.35-.08-.52,0,0,0-.01,0-.02,0-.02,0-.04,0-.05-.23-.09-.45-.19-.67-.29.15-.22.36-.4.61-.51.25-.12.54-.17.86-.13.57.12,1.15.16,1.72.14.1,0,.21-.01.31-.02,1.21-.09,2.4-.45,3.5-.9Z"/>
    <path class="cls-1" d="m472.31,307.33c1.87,1.65,3.33,4.24,2.3,6.73-1.67,3.31-4.61,6.94-8.68,6.76-1.98-.19-3.92-.87-5.7-1.89-.97-.55-1.89-1.21-2.74-1.96h0c.12-.33.24-.65.35-.98.06-.19.12-.39.18-.58.05-.18.1-.35.14-.53.18-.71.33-1.43.45-2.15.85.91,1.82,1.73,2.86,2.44.33.23.66.44,1,.64,1.75,1.01,3.84,2.52,5.88,1.39,2.62-1.57,5.31-4.61,2.31-7.25-2.03-1.96-4.74-3.09-6.88-4.75-.05-.04-.1-.07-.14-.11-.5-.41-.97-.84-1.39-1.33-.18-.2-.34-.41-.49-.62-.57-.8-1-1.74-1.24-2.88-.64-2.09-.21-4.43,1.05-6.16.49-.68,1.11-1.26,1.84-1.71.13-.08.27-.16.41-.23.66-.34,1.48-.68,2.28-.78.66-.08,1.3,0,1.84.39.56.82-.66,1.32-1.19,1.7,0,0,0,0,0,0-.7.27-1.29.66-1.77,1.14-.28.27-.51.55-.7.87-.8,1.26-1,2.83-.56,4.31.06.2.12.39.21.58.03.07.06.14.09.2.04.1.09.2.14.29.04.07.08.14.12.21.05.08.1.16.15.25.11.16.22.32.35.48.23.28.49.54.76.78,2.04,1.84,4.89,2.7,6.8,4.75Z"/>
    <path class="cls-1" d="m462.21,309.07c.17.91-.12,3.51-.75,6.1-.32,1.34-.74,2.67-1.23,3.76-.78,1.73-1.75,2.86-2.82,2.41-1.46-.56-.96-2.2-.42-3.21.18-.38.35-.77.5-1.16h0c.13-.32.24-.65.35-.98.06-.19.12-.39.18-.58.05-.18.1-.35.14-.53.18-.71.33-1.43.45-2.15,0-.02,0-.05.01-.07.12-1.23.61-2.56.17-3.77-.14-.26-.29-.52-.46-.77-.02-.04-.04-.07-.07-.1-.04-.05-.07-.11-.12-.17-.02-.03-.04-.06-.06-.09-.02-.02-.04-.05-.05-.07-.11-.15-.22-.3-.34-.44-.11-.13-.21-.27-.33-.39-.11-.12-.22-.25-.34-.36,0-.01-.02-.02-.03-.03-.17-.18-.35-.35-.54-.51-.04-.04-.09-.08-.14-.12-.04-.04-.09-.07-.13-.11-.14-.12-.29-.23-.43-.34-.75-.55-1.57-.98-2.42-1.23-.85-.17-1.8-.91-1.43-1.87.64-1.51,2.62-1.17,3.84-.69,1.57.67,3.06,1.71,4.21,3.02.08.08.15.17.22.25.06.07.12.15.18.23.54.68.98,1.42,1.32,2.21.24.57.42,1.16.54,1.78Z"/>
    <path class="cls-1" d="m466.71,336.86c.5,5.95.36,12.29-1.4,18.05-.27.88-.58,1.75-.93,2.61-.86,2.1-1.98,4.1-3.4,5.94-2.48,2.95-6.05,5.97-10.15,5.48-4.35-1.14-6.15-5.07-6.91-9.33-.14-.82-.25-1.65-.34-2.48-.19-1.95-.22-3.88-.24-5.56.02-.22.04-.56.07-.98.17-2.48.62-7.7,2.47-7.42.02,0,.05,0,.07.01,1.63.56.36,2.56.27,3.74-.02.11-.05.23-.07.34,0,0,0,0,0,.01-.45,2.11-.72,4.25-.83,6.4-.04,1.11-.01,2.21.09,3.27,0,.01,0,.03,0,.04.02.16.04.31.05.46,0,.09.02.18.04.27.02.16.05.33.07.49,0,.02,0,.04,0,.05.03.18.06.35.09.53,0,.01,0,.02,0,.04.03.16.06.32.1.48,0,.04.02.08.03.12,1.42,6.12,5.74,9.76,12.68,3.9,1.52-1.66,2.7-3.55,3.6-5.56.05-.12.11-.24.16-.37.08-.19.16-.38.23-.57,1.49-3.73,2.09-7.86,2.22-11.8.04-2.2,0-4.41-.23-6.6-.02-.52-.1-1.04-.19-1.57-.04-.24-.09-.47-.13-.71v-.07c-.06-.27-.11-.54-.16-.8-.01-.06-.02-.12-.03-.19-.01-.07-.03-.15-.04-.22,0-.04-.02-.08-.02-.12,0-.04-.01-.07-.02-.11,0-.02,0-.05,0-.07,0,0,0-.01,0-.02,0-.02,0-.04,0-.05-.03-.27-.05-.53-.07-.8-.03-.55,0-1.11.14-1.66.1-.25.28-.47.5-.61h0s.02-.01.03-.02h0c.18-.1.39-.14.62-.09.17.08.31.18.44.3.11.1.21.22.3.35.32.47.46,1.09.54,1.73.07.57.1,1.16.16,1.68.02.23.05.45.09.64.03.27.05.55.07.83Z"/>
    <path class="cls-1" d="m548.73,345.02c.07.05.13.11.2.15-1.12.41-2.26,1.07-3.39,1.35-.63.16-1.27.21-1.89.05-.32-.36-.38-.67-.26-.92.08-.18.24-.32.45-.45.73-.46,2.08-.67,2.66-.75.4-.07.79-.16,1.18-.27.36.29.71.57,1.07.84Z"/>
    <path class="cls-1" d="m351.4,148.9c3.16,3.03-2.2,4.55-4.47,5.27-.8.21-1.6.42-2.4.62-1.04.27-2.09.53-3.13.78-11.52,2.79-23.21,4.79-34.93,6.64-.38.06-.77.12-1.16.18-7,1.09-14.01,2.14-21,3.26-2.53.41-5.06.84-7.6,1.29-.82.14-1.65.29-2.48.45-10.68,1.92-21.36,4.07-32,5.79-3.58.66-7.17,1.31-10.68,2.25-.2.04-.4.09-.6.14-.27.08-.55.16-.82.25-.72.21-1.45.37-2.18.16-.06-.05-.12-.1-.16-.15-.52-.5-.37-.97.21-1.39.25-.18.6-.36,1.01-.52.78-.32,1.8-.6,2.94-.86,4.18-.95,9.88-1.52,10.76-1.84,6.05-1.07,12.1-2.19,18.13-3.42,19.7-4.34,39.77-6.88,59.55-10.61,6.26-1.27,12.7-2.17,18.97-3.57,1.06-.24,2.11-.49,3.16-.76,2.69-.69,5.34-1.51,7.92-2.52-2.64-1.08-5.63-.62-8.42-.8-1.17,0-1.21-1.8-.08-1.89,3.14-.04,6.66-.39,9.45,1.27Z"/>
    <path class="cls-1" d="m370.13,165.76c2.39,7.26-2.95,9.02-8.31,11.99-.69.28-1.38.54-2.07.79-.97.35-1.95.66-2.93.95-14.32,4.23-29.83,2.74-44.62,3.48-18.49.52-36.89,2.31-55.12,5.38-6.21,1.11-12.35,2.57-18.43,4.22-5.36,1.3-10.64,3.42-16.12,4.1-.83.11-1.66.18-2.5.2-.43.02-.87.02-1.31.01-.16-.01-.32-.02-.48-.04-.15-.02-.3-.04-.44-.05.02-.05.03-.09.05-.14.29-.84.58-1.67.89-2.5.71.05,1.45.04,2.17-.02.04,0,.07,0,.11,0,.05,0,.11-.01.17-.02,1.2-.11,2.37-.32,3.44-.48,6.07-1.15,11.99-2.95,17.99-4.41,9.36-2.5,18.96-3.97,28.57-5.14,13.04-1.39,26.07-2.87,39.19-3.14,12.75-.36,25.69,1.25,38.32-1.05.35-.07.7-.14,1.05-.21.91-.18,1.8-.38,2.7-.59,1.26-.3,2.52-.64,3.75-1.04.98-.31,1.94-.66,2.88-1.04,2.45-1,4.78-2.25,6.9-3.89,3.14-2.17,1.86-5.3,1.08-8.37-1.95-6.38-3.56-13.47-8-18.51-3.12-2.59-7.48-1.45-11.16-1.36-4.53.39-9.04,1-13.55,1.52-1.21.14-2.41.27-3.62.39-.67.24-1.31-.44-1.12-1.09.16-.64.95-.82,1.49-.95l.5-.09c3.48-.64,7.01-.87,10.53-1.18,3.39-.33,6.79-.54,10.19-.58,2.23,0,4.71-.02,6.7,1.08,6.8,4.05,9.05,14.62,11.07,21.82Z"/>
    <path class="cls-1" d="m230.95,175.57c1.91,1.08-.11,2.14-1.68,1.68,0,0-.02,0-.03,0-.2-.02-.4-.04-.59-.08-.1-.02-.19-.04-.29-.05-.41-.08-.8-.2-1.16-.35-3.24-1.3-4.42-4.83-2.29-8.22.74-.98,2.01-3.3,3.43-2.14.72.76.05,1.6-.56,2.15-.7.77-1.24,1.68-1.47,2.7-.5,1.64.44,2.56,1.7,3.18.17.09.34.16.52.23.64.27,1.32.47,1.91.67.09.03.18.06.27.09.09.04.17.09.25.13Z"/>
    <path class="cls-1" d="m228.7,158.52c.21.85-.38,1.31-1.05,1.6-.24.1-.5.18-.73.26-2.1.73-3.99,2.01-5.68,3.42-3.9,3.46-7.79,7.55-8.21,12.93-.22,4.08-.07,8.66,1.91,12.27,1.22,1.77,2.27,3.3,4.09,4.34.66.36,1.46.48,2.16.77.46.19.88.44,1.19.87.42.7.41,1.27.15,1.7-.46.73-1.66,1.02-2.7.79-.11-.02-.23-.05-.34-.09-.43-.15-.85-.32-1.25-.52-.13-.06-.27-.13-.39-.2-6.79-3.59-8.45-13.16-7.71-20.2.66-6.79,5.62-12.57,11.12-16.32h0c.27-.19.54-.37.82-.54.88-.39,2.68-1.49,4.2-1.87.55-.14,1.06-.18,1.48-.07.42.11.75.38.93.88Z"/>
    <path class="cls-1" d="m247.25,155.91c-.52.45-1.02.9-1.53,1.36-.27.25-.55.5-.82.75-.26.24-.51.48-.77.72-1.05.14-2.11.26-3.17.37-4.43.49-8.87.81-13.32,1.02-.36.02-.71.04-1.07.05-1.72-.09-3.68.63-5.3-.04h0c-.07-.03-.15-.07-.22-.1-1.86-2.61,3.64-2.16,4.93-2.29.11,0,.21,0,.31-.02.49-.02.99-.04,1.48-.07,5.37-.25,10.72-.7,16.05-1.32,1.14-.13,2.29-.27,3.43-.42Z"/>
    <path class="cls-1" d="m276.4,166.02c.69-.29.99.48.39.86-.02.02-.05.03-.07.05-5.53,3.67-10.91,7.55-16.05,11.75-3.37,2.73-6.74,5.46-10.2,8.08-.38.23-.8.86-1.26.43-.47-.58.42-.95.77-1.3,1.61-1.32,3.25-2.61,4.87-3.9,5.02-3.83,9.68-8.11,14.89-11.67,1.5-.99,3-1.98,4.51-2.94.72-.46,1.44-.91,2.16-1.36Z"/>
    <path class="cls-1" d="m352.47,179.07c.45.25.32,1.08-.29,1.05-.81-.13-1.61-.28-2.41-.45-8-1.7-15.5-5.23-23.06-8.29-7.03-3.03-14.51-5.18-21.37-8.48-.15-.05-.21-.27-.1-.39.02-.04.04-.08.07-.11.22-.28.64-.3,1.16-.18,1.28.29,3.12,1.45,3.86,1.61,7.34,3.07,14.77,5.93,22.17,8.86,6.47,2.44,12.92,5.23,19.78,6.33.07.01.14.03.19.06Z"/>
    <path class="cls-1" d="m435.57,317.3c-.22-.09-.25-.35-.21-.55.42-1.97,1.09-3.9,1.99-5.71.51-1.04,3.88-5.2,4.96-3.65.31.94-1.47,1.3-1.91,1.93-2.33,2.15-3.1,4.91-4.33,7.65,0,.25-.28.43-.51.33Z"/>
    <path class="cls-1" d="m362.26,356.77c-.89-.15-4.85.44-3.93-1.08.21-.19.46-.19.73-.16,3.02.34,6.03-.16,8.99-.3,6.57-.35,12.99-2,19.2-4.09,7.5-2.38,13.32-9.7,13.49-17.59-.35-4.04-2.52-7.65-4.46-11.12-1.37-1.83-2.75-3.65-4.23-5.39-.68-1.04-3.45-2.93-2.54-4.17,1.18-1.55,6.61,6.33,7.7,7.36,2.85,4.09,5.69,8.79,5.88,13.89-.2,4.96-2.63,9.77-6.14,13.22-8.17,7.04-24.09,9.59-34.68,9.44Z"/>
    <path class="cls-1" d="m393.95,318.6c-2.5-2.44-4.24-5.43-6.93-7.65-2.65-2.14-4.91-4.72-6.66-7.63-.25-.39-.64-.87-.47-1.35.23-.81,1.28-.77,1.68-.11,1.61,2.24,2.95,4.66,5.28,6.26,3.29,2.63,6.19,5.72,8.64,9.14.57.95-.66,2.03-1.53,1.34Z"/>
    <path class="cls-1" d="m289.44,325.58c-.89-1.25,2.18-.97,2.82-1.18,2.69-.4,5.26-1.01,7.89-1.63,1.46-.32,2.91-.65,4.39-.87.31-.04.63.16.71.47.09.34-.11.7-.45.79-5.09.7-10.23,2.94-15.36,2.42Z"/>
    <path class="cls-1" d="m313.87,350.14c-2.27-5.26-3.93-10.82-6.09-16.15-.44-.97-4.14-12.99-1.5-11.41.11.03.19.12.19.24,0,.04-.01.09-.03.12,1.16,8.56,4.74,16.35,7.55,24.43.21.63,1.48,3.62-.11,2.77Z"/>
    <path class="cls-1" d="m306.47,324.62c-3.45-2.32-7.42-3.41-11.39-1.75-.51.08-1.54.95-1.86.31-.05-.2.12-.43.25-.56,2.32-1.87,5.65-1.96,8.44-1.27.81.06,6.86,2.61,4.55,3.26Z"/>
    <path class="cls-1" d="m293.4,324.45c-1.88-1.57,2.67-1.92,3.55-2.27,1.72-.55,3.49-.73,5.28-.87.95-.21,2.55-.11,2.11,1.27.02.02.04.04.05.06.33.03.26.56-.08.5-2.3.56-4.79.61-7.16.97-1.12.03-2.79.52-3.76.34Z"/>
  </g>
  <g id="Vector_layer-2" data-name="Vector layer">
    <path class="cls-2" d="m263.64,195.23c-.01-2.87-13.38,6.52-14.75,7.39-3.31,2.29-6.61,4.64-9.57,7.37-.37.34-.34.96,0,1.3.31.31.87.38,1.21.07,1.87-1.62,3.78-3.2,5.75-4.7,5.58-4.07,11.24-8.42,17.36-11.43Zm55.48,83.79c.7-7.75-3.9-16.48-11.36-19.27-1.38-.37-4.54-.95-4.11,1.37-9.01.63-19.1,8.09-18.11,17.92.25,5.73,3.9,10.7,9.41,12.59,9.37,3.86,22.84-2.05,24.17-12.62Zm13.78-45.32c.22-2.8.2-5.64.01-8.44-.09-5.74-2.61-11.31-6.42-15.6-10.28-11.52-24.86-10.3-37.3-3.09-9.32,4.87-17.21,12.33-21.94,21.78-2.41,4.98-4.84,10.65-3.78,16.28.17.69.69,1.63,1.52,1.59.65-.03,1-.57,1.14-1.15.33-1.59.48-3.21.79-4.8.63-3.32,2.06-6.61,3.59-9.68,3.73-6.97,9.01-13.43,15.7-17.79,8.1-5.35,18.16-9.93,27.98-7.13,9.06,3.09,15.64,11.84,15.61,21.48.14,2.07.14,4.2.12,6.36,0,.81.68,1.49,1.49,1.49.71,0,1.41-.56,1.48-1.29Zm17.47-35.34c2.93-2.49-11.64-10.72-13.78-11.79-3.17-1.46-6.74-3.15-10.31-2.78-2.55.8-1.55,3.03.75,3.16,8.15,1.32,15.04,6.4,21.43,11.52.58.43,1.41.39,1.91-.12Zm134.33,108.96c1.86,10.31-4.54,21.86-14.49,25.46-1.1.45-2.29.81-3.5.9-.02-.08-.04-.17-.07-.25-.1-.34-.22-.69-.38-1-.03-.05-.05-.1-.09-.15-.06-.1-.12-.19-.19-.28-.12-.16-.27-.29-.43-.39-.12-.12-.27-.22-.44-.3-.23-.05-.44-.02-.62.09h0s-.04,0-.05,0h0c-.07.01-.14.03-.22.05-.82.23-1.43,1.09-1.28,1.95.04.24.08.48.12.72.05.02.1.05.15.07.22.1.45.2.67.29,0,.02,0,.04,0,.05,0,0,0,.01,0,.02,0,.02,0,.05,0,.07.02.15.04.3.07.45,0,.06.02.12.03.19.05.27.1.54.15.8v.07c.06.24.1.47.14.71.09.52.17,1.05.19,1.57.22,2.19.27,4.4.23,6.6-.12,3.95-.73,8.07-2.22,11.8-.07.19-.15.38-.23.57-.05.12-.11.25-.16.37-.9,2.02-2.08,3.9-3.6,5.56-6.95,5.86-11.27,2.22-12.68-3.9,0-.04-.02-.08-.03-.12-.04-.16-.07-.32-.1-.48,0-.01,0-.02,0-.04-.03-.18-.07-.35-.09-.53,0-.02,0-.04,0-.05-.03-.16-.05-.32-.07-.49-.01-.09-.03-.18-.04-.27-.02-.15-.04-.31-.05-.46,0-.01,0-.03,0-.04-.11-1.06-.14-2.16-.09-3.27.11-2.15.38-4.3.83-6.4,0,0,0,0,0-.01.06-.09.11-.19.16-.28.12-.21.23-.41.34-.62,0,0,0,0,0,0,.09-.18.19-.36.27-.54.03-.05.05-.1.07-.15.09-.2.18-.39.27-.59,0,0,0,0,0,0,.09-.21.18-.42.27-.64v-.04c.09-.19.16-.38.23-.57.01-.04.03-.07.04-.11.06-.17.12-.33.18-.5.17-.5.32-1,.46-1.51.25-.93.45-1.86.59-2.81.04-.28.01-.55-.08-.81.39-2.2.87-4.32,1.27-6.26.58-2.52,1.46-4.95,2.29-7.4.04-.12.09-.25.13-.38.15-.46.35-1.02.13-1.48-.28-.23-.56-.34-.83-.34-.05,0-.11,0-.16.01-.04,0-.09.02-.13.03-.03,0-.06.02-.09.03-.02,0-.04.01-.05.02-.03,0-.06.02-.09.04-.01,0-.02.01-.03.02h0c-2.14,1.16-3.9,8.81-4.83,14.69-.46.21-.81.62-.98,1.13-.68,2.05-1.28,4.12-2.23,6.06-1.35,3.01-5.24,6.93-8.31,3.68-2.21-3.23-1.96-7.26-1.95-11.13.42-4.33,1.39-8.59,2.2-12.86.47-2.32,1.05-4.8,1.54-7.16.12-.48.25-1.28.09-1.84.01-.03.03-.06.04-.09.02-.05.04-.11.07-.16.07-.16.14-.32.2-.48.41-.95.85-1.87,1.4-2.74.48-.75,1.05-1.47,1.76-2.12.44-.64,2.22-.99,1.91-1.93-1.09-1.55-4.45,2.61-4.96,3.65l-.02.05c-4.64-1.28-9.28-2.57-13.91-3.87-8.21-2.27-16.4-4.62-24.61-6.88-.91-.25-1.82-.5-2.74-.75-.91-.25-1.82-.5-2.74-.74-1.09-.29-2.17-.58-3.25-.87-3.04-.75-6.07-1.56-9.12-2.35-.03,0-.05-.02-.08-.02-1.07-.28-2.14-.55-3.21-.81-.08-.02-.16-.04-.24-.06-5.46-1.33-10.97-2.45-16.57-2.81-1.04.09-3.02-.07-3.12,1.33.03.37.32.65.65.71.9.24,1.86.28,2.78.39,5.66,1.21,11.3,2.56,16.91,4,.19,1.04.38,2.07.57,3.11.14.77.29,1.54.44,2.31.05.31.12.62.18.93.08.42.27.79.61,1.05.28.23.61.34.93.34.16,0,.32-.03.48-.07.23-.07.46-.2.65-.37,1.46,1.96,3.17,3.74,5.09,5.29.85.7,1.61,1.48,2.32,2.29-.01.05-.02.11-.02.17,0,.06,0,.13.02.2.03.17.09.34.19.52.03.06.07.12.11.19,0,0,0,.01,0,.02.51.81,1.5,1.66,2.08,2.3.04.04.07.08.11.12.08.09.15.18.2.27,1.23,1.44,2.39,2.93,3.52,4.45.01.01.02.02.03.04.29.39.56.79.84,1.18,1.89,3.38,3.96,6.91,4.3,10.84-.16,7.89-5.99,15.21-13.49,17.59-6.21,2.1-12.63,3.75-19.2,4.09-.35.02-.71.04-1.06.07-2.34-.75-4.55-1.43-6.51-1.87-.87-.26-1.69.26-2.01.99-1,0-1.81,0-2.21-.05h-.61c-.72-2-1.66-3.93-2.82-5.75-2.16-3.23-4.57-6.75-7.84-8.97-.44-.3-.9-.59-1.38-.84-.11-.06-.22-.12-.34-.17-.14-.07-.28-.13-.42-.2-.14-.07-.29-.12-.43-.18-.36-.14-.84-.21-1.3-.17-.07,0-.15.01-.22.03-.08,0-.16.02-.23.05,0,0-.01,0-.02,0-.07.02-.14.04-.21.07-.18-.13-.37-.27-.56-.4-.18-.13-.37-.26-.56-.39,0,0,0,0,0,0-.16-.11-.31-.21-.47-.32-2.03-1.37-4.22-2.47-6.27-3.82-1.09-1.06-2.89-1.51-3.95-.17-1.59,2.33.74,3.82,2.81,5.03h0s.05.03.08.05c.14.08.27.16.41.24,0,0,0,0,0,0,.21.12.41.24.59.35.03.02.06.04.09.05.14.09.28.18.41.27.07.05.13.09.19.13l.4.23c.13.08.26.16.39.23.18.11.35.21.52.32.16.1.31.2.46.3.43.28.84.56,1.26.85.66.46,1.33.95,2.02,1.44,4.38,3.41,9.38,7.05,12.6,11.79.12.18.24.37.36.55s.23.37.34.55c.03.04.05.09.08.14.09.16.19.33.28.49.11.19.2.38.3.57.02.02.02.04.04.06.1.2.2.39.29.6.07.15.14.3.21.46.12.27.23.54.33.81.73,2.76,1.02,5.62.83,8.45-.01.2-.03.39-.05.59-.02.23-.04.46-.07.69-.02.13-.03.27-.05.4-.04.29-.08.58-.13.87-.31,1.78-.82,3.54-1.54,5.21-.83,1.92-1.71,3.92-2.76,5.82-.81.81-1.71,1.54-2.69,2.12-.14.08-.27.16-.41.25-3.7.07-7.4.2-11.1.16-6.72.02-13.45-.35-20.17-.25,1.95-2.46,3.29-5.71,4.12-8.98.05-.21.11-.43.16-.64.05-.21.1-.43.14-.64.09-.43.18-.85.25-1.27.27-1.53.44-3.02.51-4.39.17-6.3-1.51-12.79-4.8-18.25,0-.01-.02-.02-.02-.03.64-.56.37-1.58,0-2.32-.7-1.86-1.41-3.71-2.16-5.56-2.03-4.55-3.58-9.31-5.43-13.93,1.24.19,2.64-.14,3.86-.13,5.27-.34,10.79-.67,16.09-.98,15.13-.76,30.26-.88,45.38-2.14,1.45-.11,2.89-.21,4.33-.39,2.16-.28,1.89-3.56-.24-3.53-5.64.39-11.27.84-16.92,1.14-13.62.82-27.28.85-40.89,1.7-1.46.32-9.29.09-12.33,1.45-.05-.18-.22-.38-.47-.58-.03-.19-.05-.38-.08-.57.02-.04.04-.08.04-.12,0-.12-.08-.21-.19-.24-.44-.26-.7-.15-.84.23-.06-.04-.13-.07-.2-.11.03-.11.03-.22,0-.34-.08-.31-.4-.51-.71-.47-.05,0-.1.02-.15.02-.2-.75-1.39-.78-2.16-.61-.13.01-.26.02-.39.03-1.79-.43-3.79-.55-5.6-.07-.51.05-1.04.2-1.41.25-3.04.67-6.02,1.55-9.04,2.3-4.37,1.12-8.74,2.18-13.13,3.23-8.65,2.09-17.37,3.91-25.96,6.22-1.04.25-1.23,1.76-.3,2.27.3.18.62.2.96.12,4.01-.83,8.02-1.68,12.01-2.6,4.36-1,8.71-2.02,13.07-3.04,2.38-.58,4.76-1.16,7.14-1.74,3.96-.76,7.93-1.49,11.93-2.07,3.18-.46,6.41-.58,9.6-1,1.02-.2,2.5-.16,2.94-1.29.05-.27,0-.48-.11-.64.05-.01.1-.02.14-.02.27.12.53.25.79.39-.17.07-.33.2-.48.41-.91,2.44.85,5.01,1.71,7.24,2.18,4.8,4.08,9.71,6.06,14.59.31.85.64,1.69.98,2.52-.17.3-.23.73-.12,1.27,1.02,3.45,2.63,6.73,3.3,10.28.64,3.36.48,7.8-.53,11.96-.01.05-.02.09-.04.14-.04.17-.08.34-.13.5,0,0,0,.02,0,.03-.05.18-.09.35-.14.53-.02.06-.04.12-.05.19-.04.14-.08.27-.12.41-.08.26-.17.52-.26.78-1.02,2.94-2.51,5.56-4.5,7.28-4,2.66-9.42-.52-12.84-4.24.46-.23.83-.67.99-1.16.01-.03.02-.06.03-.1.02-.04.02-.08.03-.12.01-.04.02-.08.02-.12,0-.03.01-.07.01-.1.03-.35-.04-.71-.26-1.04-.2-.3-.41-.59-.62-.88-.66-.89-1.37-1.75-2.1-2.58-5.73-7.07-13.68-9.43-22.54-8.97-2.02-.01-4.04.05-6.05.08-2.39-.73-5-.18-7.45-.04-1.96.16-4.14.15-5.99.89-9.55,1.92-14.6,3.48-24.87-1.88-13.04-6.33-15.62-12.97-14.55-26.95,0-.02,0-.04,0-.07,0-.06,0-.13.02-.2.08-1.27.2-2.55.32-3.83.07-.7.14-1.4.2-2.1.09-.93.18-1.86.25-2.78.23-.16.46-.32.7-.47,1.66-1.12,3.3-2.23,4.99-3.39,0,0,.02-.01.02-.02,0,0,.02-.02.03-.02,2.37-1.61,4.69-3.18,7.1-4.81,1.73-1.18,4.4-2.97,6.45-4.31,1.85-.2.25-2.69-.7-1.1-6.34,4.18-12.74,8.31-19.14,12.43-1.01.65-2.03,1.3-3.04,1.96-1.92,1.23-3.84,2.47-5.76,3.71-1.34.86-2.68,1.73-4.02,2.6-3.21,2.08-6.41,4.17-9.59,6.28-2.32,1.54-4.65,3.07-6.98,4.6,0-.09.01-.19.02-.29.05-2.72-.31-5.55-1.15-8.21-.05-.17-.1-.33-.16-.49-.05-.16-.11-.33-.17-.49-.05-.16-.11-.31-.17-.46-.07-.17-.13-.34-.2-.5-.12-.29-.25-.57-.39-.86,5.58-3.64,11.16-7.29,16.66-11.01.05-.04.11-.07.16-.1,2.88-2,5.86-3.97,8.8-6.01.95-.66,1.9-1.32,2.84-1.99h0c2.97-2.14,5.86-4.38,8.54-6.83.61-.48,1.2-1.79.09-2.04-.79-.05-1.49.44-2.15.8-2.21,1.43-4.41,2.9-6.59,4.4-.19-22.2-.65-44.62.49-66.82,1.22-15.05,3.16-30.37,8.05-44.72,1.04.23,2.24-.06,2.7-.79,5.48-.68,10.76-2.79,16.12-4.1,6.08-1.66,12.22-3.11,18.43-4.22,18.23-3.07,36.63-4.87,55.12-5.38,14.79-.74,30.3.75,44.62-3.48.51,1.25.98,2.51,1.43,3.77,6.18,17.44,7.3,36.06,9.5,54.29,1.61,14.3,4.32,28.45,6.99,42.59-1.32-.25-2.65-.47-3.98-.68-1.38-.06-3.3-.5-4.21.82-.25.43-.19,1,.17,1.36.62.57,1.51.6,2.3.74,1.99.26,3.96.54,5.93.94.14.03.27.06.41.1.44.1.88.21,1.32.32.43.11.87.21,1.3.32.29.07.59.14.88.22,7.9,2,15.69,4.39,23.62,6.3,6.61,1.69,13.24,3.32,19.88,4.94.68.16,1.36.33,2.04.5,2.79.68,5.58,1.35,8.38,2.03,1.27.3,2.54.61,3.81.93.84.2,1.67.4,2.5.61-.09.92.16,1.79.99,2.5.55.3,1.25.18,1.64-.32.21-.45.39-.93.54-1.4.09-.27.18-.54.25-.82,0,0,0-.01,0-.02.06-.2.12-.4.18-.6.11-.36.22-.73.35-1.09.05-.14.09-.27.15-.4.05-.14.11-.27.16-.41.25-.58.55-1.13.95-1.65.83-1.08,1.8-2.15,2.89-3.14,1.41-1.27,3-2.39,4.7-3.19.1-.04.2-.09.3-.14,1.92-.85,3.97-1.27,6.05-1.01.39.05.78.12,1.18.22.64.32,1.22.71,1.73,1.15l.2.18.04.04c.06.06.12.12.19.18s.12.12.19.19c.65.7,1.18,1.51,1.57,2.38-.8.39-1.64.98-1.77,1.87-1.26,1.73-1.69,4.07-1.05,6.16.24,1.14.68,2.08,1.24,2.88-.14.15-.29.3-.43.44-.06.05-.12.11-.18.16-.09.08-.18.16-.28.23-.09.08-.19.15-.29.22-.2.15-.4.29-.62.41-1.16-1.31-2.64-2.36-4.21-3.02-1.21-.48-3.2-.82-3.84.69-.37.96.58,1.7,1.43,1.87.86.25,1.68.68,2.42,1.23.14.11.29.22.43.34.09.07.18.15.27.23.18.16.36.33.54.51.01.01.02.02.03.03.12.12.23.24.34.36.11.12.22.26.33.39.12.14.23.29.34.44.02.02.04.05.05.07.02.03.04.06.06.09.04.05.08.11.12.17.02.04.04.07.07.1.17.25.32.51.46.77.44,1.21-.05,2.54-.17,3.77,0,.02,0,.05-.01.07-.11.73-.26,1.45-.45,2.15-.04.18-.09.35-.14.53-.05.19-.11.39-.18.58-.11.33-.22.65-.35.98h0c-.15.39-.32.78-.5,1.16-.54,1.02-1.05,2.66.42,3.21,1.08.44,2.04-.68,2.82-2.41,1.78,1.03,3.72,1.7,5.7,1.89,4.07.18,7.01-3.45,8.68-6.76,1.04-2.49-.43-5.08-2.3-6.73-1.91-2.05-4.76-2.91-6.8-4.75-.27-.25-.52-.5-.76-.78-.12-.16-.24-.32-.35-.48-.05-.08-.11-.16-.15-.25-.04-.07-.08-.14-.12-.21-.05-.1-.1-.2-.14-.29-.03-.07-.06-.14-.09-.2-.08-.19-.15-.39-.21-.58-.43-1.48-.24-3.05.56-4.31.2-.31.43-.6.7-.87l.16-.06c.11-.04.22-.08.33-.11.21-.07.41-.13.62-.19.13-.04.26-.07.39-.11.12-.03.25-.06.37-.09.61-.14,1.23-.25,1.85-.32,7.84-.67,14.16,6.54,16.01,13.61Z"/>
    <path class="cls-2" d="m335.86,150.65c1.21.94,2.37,1.93,3.5,2.96-6.28,1.41-12.71,2.3-18.97,3.57-19.79,3.73-39.86,6.27-59.55,10.61-6.03,1.23-12.07,2.35-18.13,3.42-.88.32-6.59.89-10.76,1.84,3.55-5.18,7.64-10,12.2-14.33.25-.24.51-.48.77-.72.27-.25.54-.5.82-.75.5-.46,1.01-.91,1.53-1.36,11.16-9.62,24.74-16.3,39.61-18.06,17.2-2.54,35.18,2.27,49.01,12.8Z"/>
    <path class="cls-6" d="m349.77,179.66c-.35.07-.7.14-1.05.21-12.63,2.3-25.58.7-38.32,1.05-13.12.27-26.16,1.75-39.19,3.14-9.61,1.17-19.21,2.64-28.57,5.14-6,1.46-11.92,3.26-17.99,4.41-1.07.16-2.25.38-3.44.48-.7-.29-1.5-.41-2.16-.77-1.82-1.05-2.88-2.57-4.09-4.34-1.98-3.61-2.14-8.19-1.91-12.27.43-5.37,4.31-9.46,8.21-12.93,1.69-1.41,3.58-2.69,5.68-3.42.23-.07.48-.16.73-.26,4.45-.21,8.89-.54,13.32-1.02-4.46,4.51-8.46,9.5-11.96,14.82-.41.17-.75.34-1.01.52-1.26-.62-2.2-1.54-1.7-3.18.23-1.02.77-1.94,1.47-2.7.62-.55,1.28-1.39.56-2.15-1.42-1.17-2.69,1.16-3.43,2.14-2.12,3.39-.95,6.92,2.29,8.22.36.14.75.27,1.16.35.09.02.19.04.29.05.19.04.39.06.59.08,0,0,.02,0,.03,0,1.58.46,3.6-.6,1.68-1.68.2-.05.4-.11.6-.14,3.52-.94,7.1-1.59,10.68-2.25,10.65-1.72,21.33-3.87,32-5.79-1.51.96-3,1.95-4.51,2.94-5.21,3.56-9.88,7.84-14.89,11.67-1.62,1.3-3.26,2.58-4.87,3.9-.35.35-1.24.71-.77,1.3.46.43.88-.2,1.26-.43,3.46-2.62,6.83-5.35,10.2-8.08,5.15-4.2,10.53-8.08,16.05-11.75,2.54-.45,5.07-.88,7.6-1.29,6.98-1.12,13.99-2.16,21-3.26-.03.03-.05.07-.07.11-.11.12-.05.34.1.39,6.86,3.3,14.34,5.45,21.37,8.48,7.56,3.06,15.06,6.59,23.06,8.29Z"/>
    <path class="cls-6" d="m367.09,164.73c.78,3.07,2.05,6.2-1.08,8.37-2.12,1.64-4.45,2.9-6.9,3.89-.95.38-1.91.73-2.88,1.04-1.23.39-2.49.73-3.75,1.04-.05-.03-.12-.05-.19-.06-6.86-1.1-13.31-3.89-19.78-6.33-7.4-2.93-14.83-5.8-22.17-8.86-.75-.16-2.59-1.31-3.86-1.61,11.72-1.84,23.42-3.85,34.93-6.64,1.04-.25,2.09-.51,3.13-.78.8-.2,1.6-.41,2.4-.62,2.27-.71,7.63-2.24,4.47-5.27-2.8-1.66-6.32-1.31-9.45-1.27-1.13.09-1.09,1.89.08,1.89,2.79.18,5.78-.28,8.42.8-2.58,1.02-5.23,1.83-7.92,2.52-2.55-2.38-5.28-4.54-8.14-6.47,4.52-.52,9.02-1.13,13.55-1.52,3.68-.09,8.04-1.24,11.16,1.36,4.43,5.04,6.05,12.12,8,18.51Z"/>
    <path class="cls-2" d="m182.04,335.88c1.01,2.88,1.09,5.92.52,8.93-.04.24-.09.48-.14.71-.07.32-.15.65-.24.97-.05.18-.1.36-.15.54-.09.3-.18.59-.28.88-.51,1.55-1.17,3.07-1.95,4.54-.47.89-.98,1.77-1.53,2.62-1.9,2.98-4.2,5.67-6.52,7.8-2.02,1.75-4.27,3.22-6.66,4.43-.91.45-1.83.88-2.76,1.28-.15.06-.28.14-.39.23-1.61-.25-3.14-1.39-4.04-2.71-.73-1.1-1.23-2.28-1.6-3.52h0c.02-.07.04-.15.05-.23.49-3.76.84-7.53,1.46-11.27.04-.24.08-.48.12-.72.05-.3.11-.61.17-.91.08-.42.16-.83.25-1.25.03-.14.05-.27.09-.41.72-3.42,1.68-6.79,2.95-10.04.01-.02.02-.05.03-.08.13-.34.27-.69.42-1.03.15-.36.3-.72.46-1.08,0,0,0-.01,0-.02,1-2.25,2.16-4.42,3.51-6.5.42-.52,1.06-1.39,1.06-2.09.81-.35,1.66-.61,2.51-.8,2.07-.48,3.97-.16,5.65.69.2.1.39.2.58.32.12.07.25.14.37.23.02,0,.03.02.04.02.14.09.28.19.41.29.02,0,.04.02.05.04.12.09.25.19.38.29.02.01.04.02.05.04.89.72,1.71,1.59,2.42,2.54.02.02.03.04.04.06.11.15.22.3.32.46.15.21.29.43.43.66.12.19.23.38.34.57.11.2.23.41.33.61.03.05.05.09.07.14.08.15.15.3.22.45.06.13.13.27.19.4.14.31.27.63.4.94.12.32.24.65.34.97Z"/>
    <path class="cls-2" d="m175.01,323.61s.01.1.01.14c-3.68-1.43-8.07-1.03-11.37,1.22-1.01.72-2.34,1.71-2.17,3.1.1.41.28.68.51.84-1.55,2.22-2.64,5.22-3.48,7-.03.07-.05.14-.08.2-.08.19-.16.38-.23.58-.11.26-.2.52-.3.79s-.19.52-.29.79c0,.01,0,.02-.01.03-.37,1.05-.7,2.11-.99,3.18-.17-.99-.32-1.98-.46-2.98-.02-.17-.05-.34-.07-.52-.03-.21-.05-.43-.08-.64-.04-.29-.07-.58-.1-.87-.32-2.95-.49-5.91-.53-8.93.04.03.08.06.12.09,1.61.57,1.93-1.58,1.69-2.71-.29-1.95-.28-3.93.17-5.86.94-5.79,6.19-11.23,12.1-7.33,3.81,2.59,5.26,7.45,5.56,11.86Z"/>
    <path class="cls-2" d="m203.12,376.89c.02.77,0,1.53-.06,2.3v.02s0,.04,0,.07c-.09.99-.2,1.98-.34,2.97-.07.46-.13.92-.2,1.38-.02.11-.03.22-.05.33l-.08.48c-.04.19-.07.38-.11.56-.05.2-.1.39-.15.59-.07.26-.14.52-.21.79-.04.14-.08.29-.12.43,0,0,0,.02,0,.03-.12.47-.25.93-.41,1.39-.1.26-.21.51-.34.76-.2.36-.27.77-.18,1.16-.18.18-.37.35-.57.5-.88.12-1.79.45-2.67.18-.69-.43-1.38-.97-1.9-1.62-.29-.49-.54-.99-.77-1.5-.02-.05-.04-.1-.07-.15-.05-.12-.11-.25-.16-.38-.23-.54-.43-1.08-.62-1.62-.13-.37-.25-.74-.38-1.11-.13-.4-.27-.8-.4-1.2-.04-.13-.09-.27-.13-.4-.41-1.2-.84-2.39-1.4-3.51-.06-.12-.12-.25-.19-.37-.05-.09-.1-.19-.16-.29-.08-.15-.17-.3-.26-.44-.01-.09-.04-.17-.08-.24h0c0-.08-.01-.15-.02-.22-.01-.15-.02-.3-.03-.45,0-.12-.02-.25-.02-.38v-.27c0-.24,0-.51-.01-.79,0-.04,0-.08,0-.12v-.15c-.02-.07-.03-.14-.04-.22-.02-.16-.05-.31-.08-.46-.02-.07-.03-.14-.05-.2-.02-.07-.04-.13-.05-.2-.05-.15-.1-.3-.17-.43-.03-.06-.05-.12-.09-.17,0,0,0-.02-.01-.02-.04-.06-.07-.11-.11-.17-.03-.04-.06-.09-.09-.12-.02-.02-.03-.04-.05-.06-.04-.04-.08-.08-.12-.12-.04-.04-.09-.07-.13-.11-.02-.01-.04-.03-.05-.04-.04-.02-.08-.05-.12-.07,0,0,0,0,0,0-.1-.42-.21-.83-.33-1.24-.05-.19-.1-.38-.16-.56-.37-1.25-.8-2.49-1.28-3.71-.08-.2-.16-.4-.24-.6-.48-1.2-1.02-2.39-1.59-3.56-1.4-2.9-3.02-5.7-4.71-8.4,1.59-2.95,2.83-6.09,3.39-9.36.76-.52,1.52-1.05,2.29-1.57.67-.45,1.34-.9,2.01-1.34.65,2.07,3.23,5.2,3.74,6.3,1.96,3.09,3.75,6.2,5.23,9.5,0,.03,0,.06,0,.09,0,.36.07.73.22,1.06.23.53.56,1.01.82,1.53.18.39.33.79.48,1.19.14.36.28.73.41,1.1.04.11.08.21.11.31.36,1.06.73,2.13,1.07,3.2l.02.04s.01.04.02.06c.21.68.4,1.42.59,2.15.21.83.41,1.66.57,2.5.15.82.3,1.68.41,2.55.11.81.21,1.62.26,2.44Z"/>
    <path class="cls-2" d="m186.76,373.27c.73,4.26.96,8.84.23,13.22-.07.39-.14.79-.22,1.17-.04.18-.07.36-.12.54,0,.02,0,.03-.01.05-.04.19-.09.39-.14.58-.55,2.16-1.37,4.25-2.52,6.18-2.4,3.61-6.57,1.85-7.7-1.81-.25-.93-.46-1.86-.63-2.8-.03-.16-.06-.33-.09-.49-.04-.22-.08-.45-.11-.67-.03-.16-.05-.32-.07-.48-.03-.18-.05-.37-.08-.55-.64-4.87-.64-9.87-1.68-14.68-.58-2.02-.52-4.76-2.3-6.12,2.82-2.12,5.29-4.71,7.3-7.62.44-.64.88-1.29,1.29-1.95.18.31.36.63.53.95,2.51,4.63,5.09,9.23,6.31,14.5Z"/>
    <path class="cls-3" d="m315.66,272.35c3.71,9.41-4.5,17.05-13.57,17.51-13.66.67-19.69-14.95-7.85-22.67,3.19-2.2,6.79-2.96,10.66-3.3.94,0,2.42-.03,2.27-1.39,4.08,1.84,6.91,5.68,8.49,9.86Z"/>
    <path class="cls-4" d="m543.82,345.19c-.21.13-.37.28-.45.45-7.68.92-15.36,1.9-23,2.86-5.86.77-11.73,1.5-17.58,2.31-12.48,1.45-24.98,2.79-37.48,4.09,1.77-5.76,1.91-12.1,1.4-18.05.05,0,.09,0,.13-.02.14-.02.29-.04.43-.07,4.77-.79,9.29-4.69,12.53-7.88,10.41-10.29,10.88-27.35-2.33-35.54-3.39-1.95-7.58-2.93-11.43-2.08-.27-.68-.61-1.34-.99-1.97,3.04-.49,6.08-.99,9.12-1.48,14.46,10.84,28.63,22.05,42.1,34.12,9.08,7.83,18.07,15.84,27.54,23.24Z"/>
    <path class="cls-4" d="m443.4,350.59c-.03.42-.05.76-.07.98.02,1.68.05,3.61.24,5.56-16.88,1.71-33.75,3.41-50.6,5.27-2.02.22-4.04.45-6.06.68-4.5.5-8.99,1.02-13.48,1.55-5.36.68-10.72,1.36-16.08,2.05.09-1.45.08-2.91-.03-4.35v-.04c-.05-1.04-.17-2.08-.36-3.11-.07-.42-.17-.83-.29-1.23,0-.02,0-.04-.01-.05,2.22,0,4.44-.03,6.66-.04h.17c1.32-.08,2.99.29,4.04-.71.03-.06.05-.12.07-.18.01-.03.02-.06.03-.09.02-.04.03-.09.03-.13.01-.04.02-.08.02-.12.87-.05,1.75-.12,2.64-.21.03,0,.07,0,.1,0h0c9.46-.93,20.26-3.69,26.51-9.08,3.28-3.21,5.61-7.61,6.07-12.21.04-.33.06-.67.07-1-.2-5.11-3.04-9.8-5.88-13.89-.3-.28-.91-1.07-1.68-2.04.14-.28.15-.61-.05-.93-2.45-3.42-5.35-6.52-8.64-9.14-1.87-1.29-3.1-3.1-4.35-4.92.34-.06.68-.12,1.02-.18,2.41-.43,4.81-.85,7.22-1.27,15,4.14,29.92,8.67,44.95,12.73-.37.28-.56.76-.71,1.17-1.18,3.85-2.2,7.75-3.03,11.69-1.2,6.66-4.93,22.64,3.83,25.29,2.8.82,5.52-.22,7.64-2.04Z"/>
    <path class="cls-4" d="m470.65,309.95c3,2.65.31,5.68-2.31,7.25-2.04,1.13-4.12-.38-5.88-1.39-.34-.2-.68-.42-1-.64.63-2.59.93-5.19.75-6.1-.11-.62-.29-1.21-.54-1.78l.08-.07c.23-.18.45-.38.66-.58.12-.11.24-.23.36-.34.2-.2.4-.41.59-.62.14-.15.27-.31.4-.47,2.14,1.67,4.84,2.79,6.88,4.75Z"/>
    <path class="cls-4" d="m289.45,370.43c.28,1.5.73,2.97,1.33,4.38-5.66.61-11.31,1.18-16.97,1.72-22.73,2.27-45.46,4.62-68.12,7.48.25-1.61.39-3.25.32-4.88,0-.14-.02-.47-.04-.8,0-.05,0-.09,0-.14v-.07s0-.02,0-.03c0-.09,0-.2-.01-.31,0-.03,0-.09,0-.14v-.02h0c-.04-.77-.04-1.55-.13-2.32-.08-.67-.19-1.33-.3-2-.13-.81-.29-1.61-.44-2.41-.14-.74-.28-1.48-.46-2.21-.51-2.02-1.09-4.03-1.84-5.98-.32-.82-.66-1.63-.97-2.45-.11-.28-.21-.56-.3-.85-.09-.29-.2-.59-.35-.86-.19-.32-.39-.59-.67-.81h0c-2.43-6.04-5.7-11.84-9.23-16.02-.04-.04-.07-.07-.11-.11,1.3-.86,2.61-1.71,3.91-2.57,3.75-2.45,7.48-4.92,11.19-7.4,1.57-.21,3.15-.42,4.73-.63-.43,4.18-.66,8.38-.36,12.57.47,7.72,4.36,14.24,10.83,18.43,5.57,3.81,11.97,6.91,18.81,7.49.19.01-.01,0-.01,0,5.49.38,11.07-1.08,15.93-3.59.43-.21.85-.52,1.17-.86.38-.05.75-.09,1.13-.13.6.79,2.18,1.16,3.16,1.1,3.27.1,6.52.24,9.79.27,6.7-.21,12.97.23,18.05,4.18Z"/>
    <path class="cls-4" d="m172,382.29c.32,1.89.46,4.09.69,6.31-11.96,1.83-23.88,3.94-35.74,6.36-.46.17-3.4.62-5.94,1.25-.02-.22-.11-.43-.31-.58-.22-.16-.54-.2-.77-.04-.15.09-.31.17-.48.23.79-3.52,1.56-7.04,2.3-10.6l-.02.13c.09-.45.17-.84.27-1.31,0-.01,0-.02,0-.03,0-.01,0-.02,0-.03.24-1.17.48-2.33.72-3.54,2.47-12.64,5.75-25.08,10.26-37.17.14-.02.22-.16.32-.25.7-.86,1.14-1.89,1.54-2.94,2.76-.38,5.52-.77,8.29-1.15.53,3.46,1.19,6.39,1.57,7.26.11.32.36.55.66.69-.71,3.81-1.13,7.68-1.45,11.54-2.18.63-.43,4.76-.07,6.32,1.15,3.77,4.44,7.36,8.6,7.53,1.11.21,3.23-.78,4.14-1.95,1.19-.59,2.33-1.25,3.43-1.99-.2,1.21.43,3.23.49,4.07.61,3.28,1.12,6.57,1.5,9.88Z"/>
    <path class="cls-5" d="m349.77,179.66c-.35.07-.7.14-1.05.21-12.63,2.3-25.58.7-38.32,1.05-13.12.27-26.16,1.75-39.19,3.14-9.61,1.17-19.21,2.64-28.57,5.14-6,1.46-11.92,3.26-17.99,4.41-1.07.16-2.25.38-3.44.48-.7-.29-1.5-.41-2.16-.77-1.82-1.05-2.88-2.57-4.09-4.34-1.98-3.61-2.14-8.19-1.91-12.27.43-5.37,4.31-9.46,8.21-12.93,1.69-1.41,3.58-2.69,5.68-3.42.23-.07.48-.16.73-.26,4.45-.21,8.89-.54,13.32-1.02-4.46,4.51-8.46,9.5-11.96,14.82-.41.17-.75.34-1.01.52-1.26-.62-2.2-1.54-1.7-3.18.23-1.02.77-1.94,1.47-2.7.62-.55,1.28-1.39.56-2.15-1.42-1.17-2.69,1.16-3.43,2.14-2.12,3.39-.95,6.92,2.29,8.22.36.14.75.27,1.16.35.09.02.19.04.29.05.19.04.39.06.59.08,0,0,.02,0,.03,0,1.58.46,3.6-.6,1.68-1.68.2-.05.4-.11.6-.14,3.52-.94,7.1-1.59,10.68-2.25,10.65-1.72,21.33-3.87,32-5.79-1.51.96-3,1.95-4.51,2.94-5.21,3.56-9.88,7.84-14.89,11.67-1.62,1.3-3.26,2.58-4.87,3.9-.35.35-1.24.71-.77,1.3.46.43.88-.2,1.26-.43,3.46-2.62,6.83-5.35,10.2-8.08,5.15-4.2,10.53-8.08,16.05-11.75,2.54-.45,5.07-.88,7.6-1.29,6.98-1.12,13.99-2.16,21-3.26-.03.03-.05.07-.07.11-.11.12-.05.34.1.39,6.86,3.3,14.34,5.45,21.37,8.48,7.56,3.06,15.06,6.59,23.06,8.29Z"/>
    <path class="cls-5" d="m367.09,164.73c.78,3.07,2.05,6.2-1.08,8.37-2.12,1.64-4.45,2.9-6.9,3.89-.95.38-1.91.73-2.88,1.04-1.23.39-2.49.73-3.75,1.04-.05-.03-.12-.05-.19-.06-6.86-1.1-13.31-3.89-19.78-6.33-7.4-2.93-14.83-5.8-22.17-8.86-.75-.16-2.59-1.31-3.86-1.61,11.72-1.84,23.42-3.85,34.93-6.64,1.04-.25,2.09-.51,3.13-.78.8-.2,1.6-.41,2.4-.62,2.27-.71,7.63-2.24,4.47-5.27-2.8-1.66-6.32-1.31-9.45-1.27-1.13.09-1.09,1.89.08,1.89,2.79.18,5.78-.28,8.42.8-2.58,1.02-5.23,1.83-7.92,2.52-2.55-2.38-5.28-4.54-8.14-6.47,4.52-.52,9.02-1.13,13.55-1.52,3.68-.09,8.04-1.24,11.16,1.36,4.43,5.04,6.05,12.12,8,18.51Z"/>
  </g>
</svg>