<?xml version="1.0" encoding="UTF-8"?>
<svg xmlns="http://www.w3.org/2000/svg" viewBox="0 0 579.46 434.93">
  <defs>
    <style>
      .cls-1, .cls-2, .cls-3, .cls-4, .cls-5, .cls-6, .cls-7, .cls-8, .cls-9, .cls-10, .cls-11, .cls-12, .cls-13, .cls-14, .cls-15, .cls-16 {
        stroke-width: 0px;
      }

      .cls-2 {
        fill: #f6f2ff;
      }

      .cls-3 {
        fill: #5bf0de;
      }

      .cls-4 {
        fill: #5bd9f0;
      }

      .cls-5 {
        fill: #54515c;
      }

      .cls-6 {
        fill: #3a3a3a;
      }

      .cls-7 {
        fill: #c3f0d4;
      }

      .cls-8 {
        fill: #afd7be;
      }

      .cls-9 {
        fill: #b9b2c9;
      }

      .cls-10 {
        fill: #9981cb;
      }

      .cls-11 {
        fill: #a07e67;
      }

      .cls-12 {
        fill: #fff;
      }

      .cls-13 {
        fill: #e8dffc;
      }

      .cls-14 {
        fill: #eff05b;
      }

      .cls-15 {
        fill: #ebe1ff;
      }

      .cls-16 {
        fill: #ebe2fd;
      }
    </style>
  </defs>
  <g id="Vector_layer" data-name="Vector layer">
    <path class="cls-1" d="m397.62,380.18c.09.65.19,1.29.28,1.94-17.42,1.53-34.87,2.51-52.28,3.86-29.25,2.33-58.47,5.13-87.74,7.18-35.87,2.43-71.8,4.41-107.68,6.64l-.19-1.71c4.17-.24,8.35-.45,12.53-.7,22.81-1.27,45.59-2.85,68.4-4.18,55.61-3.52,111.08-9.06,166.68-13.04Z"/>
    <path class="cls-1" d="m151.8,399.7c-.54.04-1.07.07-1.61.1-3.45-31.49-7.02-62.98-9.14-94.59-1.09-14.47-1.75-29.02-2.71-43.46-.09-1.54-.19-3.07-.31-4.61.54-.05,1.08-.09,1.62-.14.22,2.64.43,5.27.61,7.91,1.41,21.8,2.68,43.67,4.53,65.47,1.79,21.06,4.31,42.05,6.34,63.08.22,2.08.44,4.16.66,6.24Z"/>
    <path class="cls-1" d="m380.34,239.14c.03.64.06,1.29.09,1.93-3.4.35-6.8.68-10.21,1.01-39.08,4.15-78.17,8.28-117.47,9.61-24.07,1.09-48.16,2.07-72.2,3.65-14.15.88-28.27,2.19-42.4,3.3-.04-.5-.07-1-.11-1.5,4.87-.43,9.73-.84,14.59-1.27,33.36-2.96,66.76-4.21,100.18-5.89,42.66-1.73,85.11-6.17,127.52-10.84Z"/>
    <path class="cls-1" d="m397.9,382.13c-.9.08-1.8.16-2.7.23-.42-3.71-.88-7.41-1.46-11.08-4.07-25.73-7.47-51.54-10.68-77.38-2.14-18.23-4.54-36.56-4.91-54.89.12.11.23.23.36.34.61-.07,1.22-.14,1.84-.2.81,18.96,3.35,37.8,5.63,56.64,2.25,18.42,4.53,36.83,7.3,55.18,1.45,10.4,3.16,20.77,4.62,31.17Z"/>
    <path class="cls-1" d="m328.02,196.63c-1.06.12-2.12.24-3.18.36-4.7-3.98-9.31-8.07-13.78-12.33-.98-.89-1.96-1.76-2.94-2.62.34-.79.64-1.59.88-2.39,4.94,4.33,9.8,8.85,14.71,13.19,1.42,1.29,2.86,2.55,4.31,3.79Z"/>
    <path class="cls-1" d="m380.72,241.82c.06.69-.85.9-1.35.58-9.8-7.18-18.08-16.3-27.53-23.9-2.71-2.09-5.42-4.18-8.12-6.29,1.25,0,2.49.02,3.74.03,2.28,1.79,4.56,3.59,6.82,5.41,8.26,6.82,15.7,14.38,23.8,21.3.91.89,2.07,1.77,2.64,2.87Z"/>
    <path class="cls-1" d="m288.87,163.75c-.68-.38-1.36-.76-2.03-1.15-.14.01-.31-.02-.5-.09-.17-.12-.29-.26-.38-.42-.39-.23-.77-.46-1.16-.7.32-.09.69-.03.96.19,1.02.74,2.06,1.46,3.1,2.16Z"/>
    <path class="cls-1" d="m136.82,174.73c.11.14.21.29.31.43-.33.02-.66.04-.99.05-.39.02-.73-.35-.73-.73,0-.39.34-.73.73-.73.21-.01.41-.02.61-.04v.21c.03.27.05.54.06.81Z"/>
    <path class="cls-1" d="m168.1,171.5c.02.44.05.87.08,1.31-.37.03-.74.06-1.11.09-.02-.44-.04-.87-.06-1.31.37-.03.73-.06,1.1-.09Z"/>
    <path class="cls-1" d="m207.86,168.13c.04.41.08.81.11,1.21-.7.07-1.39.13-2.08.19l-.11-1.22,2.07-.19Z"/>
    <path class="cls-1" d="m268.21,163.36c-.12.46-.22.91-.29,1.37-.64.03-1.29.05-1.93.07-3.04.14-6.11.3-9.17.48-.48-.42-.96-.84-1.45-1.26,4.28-.26,8.56-.48,12.84-.66Z"/>
    <path class="cls-1" d="m271.25,163.24c.33.42.66.84.99,1.26-.72.04-1.44.08-2.16.12-.31-.43-.61-.86-.92-1.29.7-.04,1.39-.06,2.09-.09Z"/>
    <path class="cls-1" d="m278.34,163.22c.21.32.41.63.61.95-.82.02-1.65.05-2.48.09-.29-.39-.57-.78-.85-1.18.85-.03,1.7-.05,2.55-.07.05.07.11.14.16.21Z"/>
    <path class="cls-1" d="m282.27,162.95c-.01.4-.06.8-.14,1.19-.43,0-.85,0-1.27,0,.12-.38.2-.77.23-1.17.37-.01.77-.02,1.18-.02Z"/>
    <path class="cls-1" d="m136.76,173.71v.21c-3.29-.04-6.62-.03-9.89.17-2.2.19-4.38.36-6.57.54-.23,0-.43-.15-.46-.39-.03-.25.14-.46.38-.5,2.89-.52,5.8-.82,8.72-1.03,2.55-.08,5.18-.31,7.75-.24.03.41.05.83.08,1.24Z"/>
    <path class="cls-1" d="m117.66,174.45c-.51-.56.32-1.24.76-.6.65.41-.38,1.05-.76.6Z"/>
    <path class="cls-1" d="m121.38,174.54c-.36.03-.72.06-1.09.09-.23,0-.43-.15-.46-.39-.03-.25.14-.46.38-.5.26-.05.51-.09.77-.13.13.31.27.62.4.93Z"/>
    <path class="cls-1" d="m143.2,258.24l-2.33.19-.38-1.5c.77-.07,1.54-.14,2.32-.2h0c.12.5.25,1.01.39,1.52Z"/>
    <path class="cls-1" d="m118.46,311.99c.05,2.14.1,4.27.14,6.41-.84-2.08-1.68-4.16-2.5-6.25-1.13-29.38-.37-58.8.02-88.2.16-16.64.78-33.38.21-50.01.34-.02.69-.04,1.04-.06.19-.23.43-.31.68-.29.05,0,.1,0,.14.02.61,36.67-.46,73.36-.2,110.04.03,9.45.25,18.89.48,28.34Z"/>
    <path class="cls-1" d="m152.48,395.71c.64,1.57,3.93,6.5,1.51,7.06-9.41-16.79-15.55-35.49-22.79-53.38-4.96-12.45-10.2-24.78-15.11-37.24-.1-2.47-.18-4.94-.25-7.41,4.02,10.55,8.22,21.04,12.51,31.48,6.38,15.52,12.12,31.29,18.42,46.84,1.74,4.28,3.62,8.52,5.7,12.64Z"/>
    <path class="cls-1" d="m187.78,221.08c.13.48.27.96.4,1.43-5.73.58-11.45,1.18-17.18,1.81-.32.04-.82-.2-.56-.58.38-.36.97-.39,1.46-.52,5.26-.93,10.56-1.57,15.88-2.14Z"/>
    <path class="cls-1" d="m295.13,210.28c.04.61.01,1.18-.17,1.61-23.42,2.88-46.92,5.02-70.42,7.18.06-.56.12-1.12.18-1.68,23.49-2.2,47-4.24,70.41-7.11Z"/>
    <path class="cls-1" d="m171.08,224.41c-2.85-19.19-3.27-38.6-4.35-57.93-.93-17.33-2.07-34.64-2.11-52,.04-.39,0-.85.32-1.11.13-.09.32-.02.38.13.13.49.11,1.07.17,1.57.86,11.84.77,23.73,1.36,35.59.87,14.15,1.7,28.37,2.55,42.54.7,9.65,1.38,19.31,2.61,28.9.1.72.21,1.43.32,2.15.05.34-.2.66-.54.71-.34.05-.66-.2-.71-.54Z"/>
    <path class="cls-1" d="m163.9,113.84c-10.61-6.52-19.5-15.5-29.04-23.43-.98-.93.41-2.55,1.48-1.69,7.82,6.12,15.02,13,22.86,19.11,2.06,1.58,4.1,3.12,6.33,4.41.54.3,1.43.82,1,1.57-.61.85-1.86.42-2.63.03Z"/>
    <path class="cls-1" d="m136.07,163.52c.38,5.29.71,10.58,1.04,15.86-.59-.88-1.19-1.75-1.8-2.61-1.02-14.44-1.7-28.92-2.04-43.39-.3-15.32.29-30.64-.46-45.95-.09-.77.64-1.93,1.45-1.22.64.89.34,2.16.46,3.2.35,11.81-.07,23.62-.13,35.43-.05,12.91.59,25.84,1.47,38.7Z"/>
    <path class="cls-1" d="m163.61,210.17c1.04,1.26,12.05,13.89,8.78,13.89-1.99-.6-2.93-2.9-4.3-4.33-3.03-3.98-6.28-7.84-9.58-11.61.04.04.07.08.1.12-6.88-7.41-12.77-15.86-18.37-24.18,0,0-.01-.02-.02-.02,0,0,0,0,0,0-.01-.01-.02-.02-.02-.03-1.64-2.43-3.22-4.87-4.9-7.23-.07-.95-.13-1.91-.2-2.86-.64,0-1.29,0-1.94,0-.33-.43-.67-.84-1.01-1.26l-.05-.07c.97-.05,1.93-.09,2.9-.11,0-.05,0-.09,0-.14,1.7,2.14,3.27,4.42,4.79,6.68,3.32,5.02,6.71,9.91,10.19,14.8,3.96,5.87,9,11.09,13.64,16.37Z"/>
    <path class="cls-1" d="m213.2,81.33c.05.03.11.05.16.08-7,.4-14.11.77-21.08,1.24-9.5.67-19.07,1.48-28.57,2.07-10.41.63-20.82,1.16-31.16,2.51-5.88-2.6,27.18-3.87,28.61-4.1,16.39-1.09,32.77-2.61,49.19-3.27.54.26,1.07.53,1.59.8.08.04.16.08.23.12.34.18.68.36,1.02.55Z"/>
    <path class="cls-1" d="m208.69,109.51c-.07.52-.14,1.04-.22,1.56-.34.02-.69.04-1.04.07-1.64.09-3.27.2-4.91.32-12.73.86-25.38,1.8-38.05,2.63-.21-.07-.39-.16-.57-.25-.38-.23-.74-.46-1.11-.7,7.35-.95,14.77-1.3,22.16-1.96,7.94-.57,15.84-1.15,23.74-1.67Z"/>
    <path class="cls-1" d="m215.74,110.38c-.7.06-1.4.13-2.11.2-.03,0-.05,0-.08,0-.03,0-.06,0-.09,0-.02,0-.03,0-.04-.01-.02,0-.05-.01-.07-.02-.02,0-.04-.02-.05-.03t0,0c-.2.03-.41.05-.61.08-.26-.04-.6.04-.76-.24-.02-.09-.01-.16,0-.24,0-.03.02-.06.03-.09t0,0s.02-.04.04-.06c0-.02.02-.03.03-.04.05-.07.12-.14.21-.2.03-.02.06-.04.09-.06.07-.04.14-.08.22-.11.07-.03.14-.06.22-.09.02,0,.05-.02.08-.03.04-.02.09-.03.13-.04.29-.09.61-.15.91-.2.04,0,.07,0,.11,0,.58.39,1.15.8,1.72,1.21Z"/>
    <path class="cls-1" d="m248.17,107.43c.02.49.05.99.07,1.48-.61.05-1.21.1-1.82.14-.03-.5-.05-1-.08-1.5.61-.04,1.22-.09,1.83-.12Z"/>
    <path class="cls-1" d="m248.08,105.48c.02.5.05,1,.07,1.5-9.83-6.2-19.04-13.16-28.59-19.74-3.3-2.24-6.61-4.21-10.23-5.7-.65-.34-1.48-.42-1.97-.99-.14-.19-.2-.38-.21-.55,1.07-.05,2.14-.1,3.21-.14,10.88,5.29,20.03,13.46,30.14,20.02,2.5,1.7,5.02,3.35,7.56,4.99,0,.16.02.32.02.48,0,.05,0,.1,0,.14Z"/>
    <path class="cls-1" d="m248.65,116.5c.52,7.07,1.8,14.09,1.55,21.2-.06.33,0,.79.02,1.25-.48.04-.96.07-1.44.1.2-9.45-1.69-18.71-2.25-28.1-.2-2.47-.21-4.95-.51-7.39.67.44,1.34.88,2.02,1.31.19,3.88.31,7.79.61,11.64Z"/>
    <path class="cls-1" d="m250.2,138.62l.02.33c-15.24,1.06-30.5,1.87-45.77,2.4-.86.06-1.49-.93-.32-1.22,4.2-.48,8.38-.66,12.56-.98,11.16-.7,22.39-1.23,33.52-2.01,0,.19,0,.38-.02.56-.02.12-.03.25-.03.39,0,.09,0,.19.01.29,0,.08.01.16.02.24Z"/>
    <path class="cls-1" d="m208.89,182.27c.01.17.02.34.04.52-.7.05-1.39.12-2.09.19-.3-3.68-.52-7.37-.77-10.97-.57-9.96-2.62-19.77-3.58-29.68,0-.61,0-1.43.57-1.8.61-.34,1.09.34,1.16.89,2.45,13.46,3.98,27.22,4.68,40.86Z"/>
    <path class="cls-1" d="m209.74,190.35c0,.14.02.29.04.45-.51.04-1.02.06-1.52.08-.21,0-.42.02-.62.02-.05-.39-.1-.79-.14-1.18.72-.04,1.44-.08,2.16-.14.04.25.07.51.1.77Z"/>
    <path class="cls-1" d="m227.86,194.11c-.05.04-.11.08-.16.11-.35.21-.7.42-1.06.61-.2.11-.39.21-.59.3-.2.1-.4.19-.6.28-.16.07-.32.14-.49.21-.04.02-.09.04-.13.05-.2.08-.4.16-.61.24-.16.06-.32.12-.49.18-.46.17-.94.33-1.41.48-.19.06-.37.12-.56.17-.02,0-.04.01-.06.02-2.67.12-5.34.24-8.01.34.04,0,.07-.02.11-.02.67-.15,1.36-.31,2.05-.48.17-.04.35-.09.52-.13,1.14-.28,2.29-.58,3.4-.9.14-.04.27-.08.41-.12.62-.18,1.23-.38,1.81-.57.53-.18,1.04-.36,1.51-.54,1.45-.09,2.9-.17,4.35-.25Z"/>
    <path class="cls-1" d="m276.14,193.88c.1.32.23.66.37.99-10.37.52-20.8.58-31.18.97-5.6.09-11.2.33-16.79.6,0-.04-.02-.07-.02-.11-.04-.2-.09-.39-.13-.59-.07-.31-.14-.62-.2-.93,0,0,0,0,0,0-.04-.23-.09-.47-.13-.71,1.66-.09,3.32-.17,4.98-.24,12.73-.45,25.46-.7,38.19-1.19,1.5,0,3-.07,4.5-.14.01.05.03.11.04.16.02.06.04.12.05.18.11.35.21.69.32,1.02Z"/>
    <path class="cls-1" d="m208.26,190.87c-.21,0-.42.02-.62.02-.46.01-.91.02-1.37.02-.04-.14-.09-.28-.13-.42-.21-.18-.22-.5-.03-.71.11-.12.25-.15.39-.14.7-.39,1.28.19,1.76,1.22Z"/>
    <path class="cls-1" d="m222,194.9c1.54-.02,3.09-.04,4.64-.07-1.57.83-3.23,1.44-4.95,1.95-.42.12-.84.25-1.27.36-.3,0-.61,0-.91,0-.66-.07-3-.04-5.72-.05,2.68-.6,5.69-1.36,8.2-2.2Z"/>
    <path class="cls-1" d="m276.51,194.87s.03.06.04.1c-.32.02-.65.04-.98.06-15.62,1.07-31.25,1.82-46.9,2.04-.04-.21-.08-.42-.12-.62-.05-.24-.1-.47-.16-.7-.07-.31-.14-.62-.2-.94.1,0,.2,0,.3,0,15.8-.16,31.56-1.08,47.33-1.94.11.35.21.69.32,1.02.1.32.23.66.37.99Z"/>
    <path class="cls-1" d="m294.95,208.46c.12,1.52.62,3.81-.8,4.11-.5.07-1.03-.26-1.16-.76-.23-1.36-.35-2.72-.41-4.1.79.25,1.58.5,2.38.75Z"/>
    <path class="cls-1" d="m265.99,170.11c-.39,1.01-.73,2.03-.82,3.09-5.33-5.27-10.71-10.46-16.97-14.65-1.25-.98.2-2.93,1.51-1.96,6.04,3.79,11.24,8.55,16.28,13.52Z"/>
    <path class="cls-1" d="m278.25,182.15c-.18.17-.34.35-.5.54-.4.45-.76.95-1.08,1.46-.27-.23-.53-.46-.8-.69-3.35-2.97-6.53-6.13-9.72-9.29.84-.4,1.56-1.02,2.27-1.65.5.51,1.01,1.01,1.51,1.52-.59.56-1.24,1.14-1.93,1.6.38.06.77.12,1.15.16.94.12,1.87.21,2.8.27,2.07,2.07,4.15,4.11,6.3,6.08Z"/>
    <path class="cls-1" d="m243.12,156.59c.33.3.4.89-.16,1.01-.23-.04-.29.26-.52.23-.14-.02-.23-.14-.21-.28,0-.03.02-.06.03-.09-1.36-.09-2.72-.19-4.08-.28.16-.02.33-.04.49-.06.66-.09,1.32-.17,1.98-.25.82-.1,1.65-.19,2.48-.28Z"/>
    <path class="cls-1" d="m206.63,157.01c.07.53.14,1.06.2,1.59-.73.04-1.46.06-2.19.08-.06-.47-.13-.94-.2-1.41.42-.06.82-.11,1.06-.18.38-.05.75-.09,1.12-.13,0,.02,0,.04,0,.05Z"/>
    <path class="cls-1" d="m243.12,156.59c.33.3.4.89-.16,1.01-.09-.02-.15.02-.21.06-2.9.02-5.8.05-8.7.09,1.37-.2,2.75-.4,4.12-.58,1.65-.21,3.3-.41,4.95-.59Z"/>
    <path class="cls-1" d="m251.28,157.61c-.18,0-.36,0-.53,0-1.01,0-2.02,0-3.03.02,0-.89,1.03-1.75,1.99-1.04.53.33,1.05.67,1.57,1.02Z"/>
    <path class="cls-1" d="m215.74,110.38c-.7.06-1.4.13-2.11.2-.12.02-.24-.01-.33-.07-.2.03-.41.05-.61.08-.26-.04-.6.04-.76-.24-.12-.71.98-1,1.98-1.17.04,0,.07,0,.11,0,.58.39,1.15.8,1.72,1.21Z"/>
    <path class="cls-1" d="m251.36,137.06c-.38.03-.76.06-1.14.08,0,.19,0,.38-.02.56-.04.25-.02.57,0,.92-.7-.44-1.4-.88-2.1-1.34.23-.01.46-.03.69-.05,0-.7-.02-1.39-.04-2.09.89.61,1.77,1.24,2.6,1.91Z"/>
    <path class="cls-1" d="m207.59,109.58c.37-.03.73-.05,1.1-.07-.07.52-.14,1.04-.22,1.56-.34.02-.69.04-1.04.07.05-.52.11-1.04.16-1.55Z"/>
    <path class="cls-1" d="m213.2,81.33c-.09.63-.19,1.25-.29,1.88-.46-.24-.92-.47-1.39-.69.13-.62.27-1.25.42-1.87.42.22.84.44,1.26.67Z"/>
    <path class="cls-1" d="m204.14,142.21c.12.9-.87.81-1.37.39-.09-.08-.19-.16-.29-.25,0-.01,0-.03,0-.04,0-.61,0-1.43.57-1.8.46.5.94,1.02,1.09,1.69Z"/>
    <path class="cls-1" d="m222.9,138.77c.59-.04,1.17-.07,1.76-.1-.04.4-.08.79-.12,1.19-.11,1.01-1.73.92-1.69-.12l.06-.97Z"/>
    <path class="cls-1" d="m207.44,144.58c.14.98-1.39,1.2-1.52.21-.24-1.59-.45-3.18-.64-4.78.51-.05,1.02-.11,1.54-.15.18,1.58.38,3.15.63,4.72Z"/>
    <path class="cls-1" d="m214.18,147.76c-2.07-.35-7.38-.43-8.2-2.54.01-.9,1.08-.61,1.66-.53,4.37.89,9.07,1.36,13.21-.52,1.2-.64,2.29-1.6,3.04-2.64.82-.81.81-2.93,2.19-2.88,1.41.32.69,2.16.36,3.09-2.11,4.67-7.57,6.62-12.41,6.02,0,0,.16.01.16.01Z"/>
    <path class="cls-1" d="m256.5,129.35c1.06-.17,1.5,1.42.5,1.82-2.75.72-5.54,1.36-8.34,1.9-.04-.68-.08-1.36-.13-2.05,2.16-.39,4.31-.83,6.43-1.31.52-.11,1.02-.26,1.54-.36Z"/>
    <path class="cls-1" d="m258.65,127.54c.45,1.14-.05,2.42-1.04,3.09-.75.64-2.63.99-2.03-.47,1.03-1.04,1.99-1.39.64-2.83-1.53-1.06-3.6-.46-5.32-.25-.89.16-1.79.33-2.68.5-.07-.71-.15-1.41-.23-2.12,4.38-.9,9.23-1.63,10.66,2.08Z"/>
    <path class="cls-1" d="m231.29,147.97c-.21-1.19-1.19-10.99,1.62-8.7.25.29.27.68.29,1.04.03,2.16-.16,4.43,0,6.55.13.72.09,1.72-.82,1.84-.49.07-.96-.25-1.1-.73Z"/>
    <path class="cls-1" d="m240.71,151.53c-3.29-.36-9.77-1.73-9.29-5.96.1-.63.88-1.19,1.41-.61.52.82.33,1.62,1.25,2.3,2.36,1.57,5.3,2.21,8.07,2.09,1.55-.22,2.4-1.15,2.84-2.38-.07.28-.18.55-.32.8.75.19,1.5.37,2.26.54-.95,2.24-2.81,3.71-6.22,3.22Z"/>
    <path class="cls-1" d="m247.6,140.18c.2,1.69.27,3.62.04,5.39-.42-.11-.84-.23-1.26-.36-.31-.11-.64-.19-.98-.27.13-1.55-.03-3.21-.08-4.46.03-1.14-.64-3.21.89-3.56,1.51.07,1.26,2.22,1.39,3.26Z"/>
    <path class="cls-1" d="m244.62,147.76c.15-.25.27-.51.37-.79-.26.95-.86,1.78-1.78,2.06-.93-.49-1.27-1.07-.36-1.73.59.16,1.17.32,1.77.47Z"/>
    <path class="cls-1" d="m244.98,144.81s0,.02,0,.03c-.74-.2-1.45-.48-1.89-1.1-.08-.17-.12-.33-.14-.47.86-.47,1.89.64,2.02,1.54Z"/>
    <path class="cls-1" d="m280.78,167.02c-.04.05-.08.11-.13.16-.39.49-.84.96-1.31,1.41-.91-1.38-1.82-2.76-2.73-4.14-3.32-4.45-6.04-9.57-10.16-13.34-6.05-3.76-13.39-3.89-20.08-5.91-1.11-.38-2.54-.46-3.28-1.48-.61-1.31.84-2.07,1.85-1.2,3.89,1.27,7.91,1.95,11.88,2.95,3.91.91,8.02,1.77,11.23,4.32,3.93,3.95,7.03,8.97,10.29,13.41.83,1.26,1.64,2.52,2.45,3.8Z"/>
    <path class="cls-1" d="m260.37,153.52c-3.15-1.46-6.69-1.83-10.04-2.6-1.27-.37-10.26-1.6-7.47-3.63,5.7,1.61,11.8,2.36,17.45,4.32,2.59,1.07,4.38,3.61,6.26,5.54,3.4,4.46,6.85,8.92,10.43,13.26-.55.34-1.12.65-1.71.91-.37-.44-.74-.88-1.11-1.33-3.46-4.07-6.18-8.81-9.77-12.75-1.25-1.34-2.36-2.93-4.03-3.72Z"/>
    <path class="cls-1" d="m280.1,157.31c2.6,2.55,3,7.07.56,9.87-2.52,3.12-6.86,5.6-10.95,5.11-3.11-.59-4.45-4.09-4.02-6.92.16-1.81.55-3.62,1.29-5.23.22-.47.52-.94,1.02-1.13.34.45.68.89,1.02,1.33-.66,2.9-2.25,6.21-.22,8.8,3.35,3.22,9.87-1.01,11.75-4.23,1.65-3.19-.5-7.34-4.08-7.75-1-.18-2.05-.32-3.07-.25-.38,0-.72-.26-.77-.64-.05-2.25,6.71-.19,7.47,1.04Z"/>
    <path class="cls-1" d="m264.18,176.19c-1.96-2.06.37-7.78,1.49-10.02.45-.78,1.74-.64,1.67.36-.71,2.61-2.5,5.16-2.14,7.98,1.81-.42,3.08-1.95,4.47-3.07.91-.76,2.22.55,1.46,1.45-1.68,1.62-4.41,4.67-6.94,3.3Z"/>
    <path class="cls-1" d="m275.52,178.22c-2.56-.21-5.12-.5-7.69-.71-1.33-.29-3.36-.07-4.06-1.46-.24-.87.74-1.24,1.44-.97,1.31.3,2.61.57,3.94.72,2.8.37,5.59.38,8.4.56.25.02.48.09.67.28.6.57.15,1.64-.67,1.62-.68.02-1.35,0-2.03-.04Z"/>
    <path class="cls-1" d="m310.6,173.8c-10.18-4.29-20.49-8.64-29.66-14.89-.76-.49-1.55-1.04-2.27-1.55-.61-.4-1.52-.94-1.39-1.79.28-1.31,1.84-.74,2.51-.07,3.86,2.92,8.07,5.43,12.35,7.62,5.01,2.47,10.13,4.71,15.24,6.98,1.11.74,5.11,1.44,4.45,3.11-.19.45-.74.75-1.21.59Z"/>
    <path class="cls-1" d="m282.4,185.81c-.42-.35-.84-.72-1.25-1.08-.98-.84-1.95-1.7-2.9-2.58-.18.17-.34.35-.5.54-.71-1.08-1.43-2.15-2.16-3.2-.39-.73-1.16-1.15-1.25-1.94.28-1.45,1.77-.4,2.31.29,2.23,2.41,3.95,5.24,5.75,7.98Z"/>
    <path class="cls-1" d="m312.37,173.33c.98,8.82-6.85,20.34-15.82,23.68-.04-.03-.08-.06-.11-.1-.02-.04-.04-.09-.06-.13-.02-.04-.03-.07-.04-.11-.03-.08-.05-.15-.06-.22,0-.01-.01-.02-.02-.04-.03-.06-.07-.12-.09-.18,0,0,0-.02-.02-.02-.03-.07-.06-.13-.08-.2-.04-.09-.07-.18-.1-.27-.02-.05-.03-.1-.04-.15l-.04-.14c.11-.3.2-.61.3-.91,6.85-3.29,12.84-10.96,13.48-18.38.27-1.33-.68-3.62,1.18-4,.71-.09,1.44.42,1.52,1.15Z"/>
    <path class="cls-1" d="m309.18,170.44c-.45-.24-.41-.82-.16-1.17.7-1.36,1.05-2.72,1.18-4.2.58-6.37-4.17-13.51-10.91-13.52-3.73.35-9.63,4.1-11.06,7.56-.55,1.05-.16,4.06-1.89,3.39-.79-.55-.58-1.68-.41-2.48.63-2.91,2.68-5.2,5.06-6.86,3.24-2.52,7.53-4.61,11.65-3.17,5.68,2,9.37,7.9,9.2,13.83.01,1.21-.93,7.41-2.65,6.61Z"/>
    <path class="cls-1" d="m308.19,171.11c-1.05-.63.49-2.96,1.41-1.86.53.7-.53,2.37-1.41,1.86Z"/>
    <path class="cls-1" d="m310.31,162.08c.72,3.71.13,7.57-1.36,11.03-.38-.16-.75-.31-1.12-.47.78-1.88,1.31-3.84,1.39-5.89.81-6.14-4.29-12.77-10.64-12.6-1.41.15-2.8.9-3.9,1.64-1.39.9-2.66,2.02-3.09,3.68-.34.64.03,1.86-.86,2.07-1.12.01-1.11-1.53-.95-2.33.71-2.85,3.27-4.66,5.78-5.9,6.27-3.16,13.08,2.87,14.75,8.76Z"/>
    <path class="cls-1" d="m290.24,163.27c-1.04-.19-.61-1.4-.49-2.12.17-.83.37-1.78,1.16-2.25.71-.44,1.5.21,1.12.98-.37.93-.63,1.85-.89,2.8-.1.39-.5.64-.89.59Z"/>
    <path class="cls-1" d="m243.48,149.7c-2.3-.13-5.04-1.75-3.72-4.36.64-1.75,2.27-3.23,4.23-2.9,1.34.15.61,2.1-.49,1.29-1.35.13-2.48,1.63-2.47,2.94.35,1.03,2.11,1.14,3.07,1.32.7.06,2.03.1,1.73,1.14-.43.82-1.58.61-2.35.58Z"/>
    <path class="cls-1" d="m137.81,91.87c-1.03-.43-1.88-1.63-2.53-2.46-.62-.55-1.26-1.1-1.78-1.76-.29-.28-.56-.65-.49-1.08.06-.54.64-.9,1.15-.75.51.16.75.68,1.08,1.06.65.88,1.15,1.78,1.98,2.5.46.58,1.11.99,1.33,1.73.21.45-.32.98-.76.76Z"/>
    <path class="cls-1" d="m248.15,106.98v.28c-.54-.55-.81-1.43-.07-1.92.03.55.05,1.09.07,1.64Z"/>
    <path class="cls-1" d="m212.69,110.58c-.26-.04-.6.04-.76-.24-.19-1.1,2.54-1.18,3.31-1.41,10.55-2.01,21.35-2.3,31.92-4.05.3-.05.59-.12.89-.06.62.11.76,1,.19,1.29-6.29,1.14-12.8,1.14-19.15,1.98-5.55.31-10.93,1.78-16.41,2.49Z"/>
    <path class="cls-1" d="m213.64,110.57c-.52.07-.82-.62-.43-.97,2.67-.98,5.66-.86,8.43-1.37,8.45-.88,16.79-2.35,25.23-3.18.78.01.9,1.21.12,1.37-11.07,1.87-22.21,3.1-33.35,4.14Z"/>
    <path class="cls-1" d="m207.99,110.84c-.29,0-.54-.05-.83-.08-.55-.17-.32-.91.2-.91.57-.29,1.57-.63,1.71.29.06.6-.59.87-1.08.7Z"/>
    <path class="cls-1" d="m210.9,110.93c-1.39-.24-2.45-.07-3.79-.04-1.22-.27-.6-1.91.51-1.44,1.28.13,2.54.1,3.81-.08,1.25-.04,2.51-.14,3.77,0,.54.07.62.91.09,1.07-.94.31-1.92.39-2.91.39-.49.06-.97.12-1.47.09Z"/>
    <path class="cls-1" d="m216.62,160.43c.25.52.49,1.05.74,1.57-.18.02-.36.04-.54.07-3.07.36-6.13.7-9.2.96-.37,0-.75-.07-.98-.37-.86-1.6,1.64-1.58,2.64-1.64,2.42-.13,4.93-.31,7.34-.58Z"/>
    <path class="cls-1" d="m219.36,160.07c4.14-.65,8.26-1.35,12.4-1.98-3.47,1.47-9.15,1.93-12.4,1.98Z"/>
    <path class="cls-1" d="m252.11,156.75c.03.51-.36.91-.85.96-1.33.11-2.67.23-4,.34-3.23.21-6.45.68-9.63,1.06-1.46.2-2.93.41-4.4.62-.05-.62-.11-1.24-.15-1.85,5.45-.82,10.93-1.51,16.45-1.84.89,0,2.42-.61,2.59.7Z"/>
    <path class="cls-1" d="m226.04,189.76c.09.18.07.36-.02.49-.07-.04-.15-.07-.23-.1-.28,0-.56-.04-.84-.04-.96-1.37-1.65-2.94-2.49-4.32-2.76-4.59-5.83-9.1-7.1-14.38-.54-1.66-1-3.43-1.39-5.09-.09-.85-.51-1.79-.07-2.59.91-.98,1.7.32,1.64,1.24.77,3.66,1.55,7.42,2.91,10.89.97,2.23,2.3,4.29,3.48,6.41,1.51,2.43,2.81,4.95,4.11,7.49Z"/>
    <path class="cls-1" d="m218.19,163.73c.16.34.32.67.49,1.01-1.26.11-2.51.21-3.77.3-.85-.43.27-.95.76-.98.84-.12,1.68-.23,2.52-.34Z"/>
    <path class="cls-1" d="m247.8,161.02c.86-.07.97,1.32.08,1.36-4.79.3-9.57.68-14.34,1.09-.03-.44-.07-.88-.11-1.31,1.93-.16,3.85-.32,5.77-.47,2.86-.22,5.73-.43,8.59-.66Z"/>
    <path class="cls-1" d="m271.45,187.13c.18.25.43.45.7.62-1.15.02-2.3.03-3.46.04-14.61-.08-29.2.7-43.75,1.66-4.3-1.59,15.92-2.84,16.84-2.8,9.57-.25,19.2-.46,28.78-.47.3.32.61.63.91.95Z"/>
    <path class="cls-1" d="m272.15,187.75c-.74.01-1.48.02-2.23.03-4.66-4.42-8.23-9.92-11.96-15.1-3.05-3.89-6.77-7.21-10.58-10.32-.8-1.12.59-1.81,1.5-.92,4.04,3.34,7.67,7.21,10.92,11.32,3.44,5.13,7.35,9.96,11.66,14.37.18.25.43.45.7.62Z"/>
    <path class="cls-1" d="m223.48,186.14c-.16-.04-.34-.07-.35-.27-.01-.13.11-.27.24-.27,5.44-.78,10.99-.9,16.45-1.69,5.83-.6,11.57-1.32,17.39-1.81,2.7-.26,5.4-.44,8.11-.51.19,0,.35.18.36.37.01.19-.12.38-.31.41-1.06.12-2.12.11-3.18.23-4,.24-7.99.69-11.99.93-8.93.6-17.79,2.1-26.71,2.61Z"/>
    <path class="cls-1" d="m223.48,184.57c-4.46-.78,11.13-3.01,11.73-2.89,9.23-1.08,18.35-2.37,27.55-3.25.74.04.82,1.18.08,1.31-8,.86-16.1,1.82-24.04,2.78-5.11.66-10.24,1.74-15.32,2.05Z"/>
    <path class="cls-1" d="m261.69,175.48c.11.16.22.32.34.47-.04.06-.11.11-.19.12-2.9.7-5.91.86-8.85,1.23-11.04,1.25-21.99,3.29-33.03,4.35-.14-.25-.29-.5-.44-.75.04,0,.07.03.11.05,11.58-1.9,23.23-3.46,34.89-4.78,2.38-.34,4.77-.59,7.18-.7Z"/>
    <path class="cls-1" d="m259.97,173.02c.13.19.26.38.39.57-.26.03-.52.06-.79.09-5.32.96-10.71,1.71-16.09,2.29-8.16.96-16.27,2.09-24.46,2.72-.22-.05-.53.03-.76-.02-.07-.13-.14-.26-.21-.39.05-.07.14-.11.23-.11,2.24-.75,4.64-.71,6.96-1.06,10.3-1.14,20.59-2.55,30.83-3.72,1.29-.15,2.59-.23,3.89-.37Z"/>
    <path class="cls-1" d="m257.76,170.29c.29.33.56.66.84,1-1.95.28-3.89.49-5.84.73-11.88,1.18-23.68,3-35.46,4.77-.09-.21-.19-.41-.29-.62.74-.73,4.58-1.49,7.78-2.03.62.12,1.26.12,1.88.04.65-.17,1.29-.38,1.92-.62.37-.05.63-.09.73-.11,8.09-1.12,16.16-1.95,24.27-2.75,1.39-.14,2.77-.28,4.16-.41Z"/>
    <path class="cls-1" d="m222.72,173.08c.19.19.4.36.62.49-2,.29-4.01.6-6.01.8-.17,0-.34-.09-.42-.27-.27-.77.85-.79,1.33-.98,1.41-.3,2.82-.56,4.24-.79.07.17.14.34.2.52.02.07.04.14.04.21Z"/>
    <path class="cls-1" d="m256.03,168.31c.34.38.68.75,1.01,1.14-.18.01-.34.03-.46.07-5.39.66-10.83,1.17-16.21,1.72-3.21.47-6.41.88-9.61,1.3.76-.43,1.47-.93,2.11-1.52.66-.07,1.32-.14,1.98-.22,6.47-.48,12.89-1.66,19.32-2.3.62-.07,1.24-.14,1.86-.2Z"/>
    <path class="cls-1" d="m221.97,171.29c.12.24.25.48.36.73-2.15.26-4.31.4-6.41.71-.07,0-.14-.01-.21-.04-.09-.29-.17-.58-.25-.87.14-.19.4-.29.67-.2,1.52-.36,2.98-.75,4.52-1,.3-.05.6-.1.9-.14.14.27.28.54.42.81Z"/>
    <path class="cls-1" d="m255.22,167.43c.01.34-.2.7-.65.73-4.09.48-8.2.77-12.29,1.25-2.95.36-5.89.68-8.81,1.04.3-.37.34-1.01.39-1.62,6.86-.79,13.73-1.38,20.63-2.09.03,0,.05,0,.07,0,.22.23.44.46.66.7Z"/>
    <path class="cls-1" d="m220.72,168.85c.2.39.4.79.6,1.18-2.05.27-4.11.52-6.16.75-.1-.34-.2-.68-.3-1.03,1.93-.43,3.89-.69,5.86-.9Z"/>
    <path class="cls-1" d="m253.04,165.2c.3.3.6.6.9.9-5.04.71-10.19,1.04-15.21,1.66-1.62.2-3.23.4-4.85.61-.06-.1-.1-.22-.11-.36,0-.19,0-.38-.01-.57,2.02-.23,4.04-.45,6.04-.62,3.38-.45,6.72-.72,10.04-1.2,1.07-.14,2.14-.3,3.21-.43Z"/>
    <path class="cls-1" d="m219.86,167.14c.21.42.41.83.62,1.25-1.95.24-3.88.47-5.84.59-.08-.28-.15-.56-.22-.84,1.78-.46,3.61-.75,5.44-1Z"/>
    <path class="cls-1" d="m251.26,163.52c.34.31.68.62,1.01.94-4.48.73-9.02,1.09-13.53,1.63-1.68.17-3.35.38-5.02.6-.02-.41-.04-.83-.06-1.24,4.78-.57,9.55-1.16,14.31-1.78,1.02-.08,2.05-.23,3.07-.36.07.07.15.13.22.2Z"/>
    <path class="cls-1" d="m218.86,165.13c.19.38.38.77.57,1.15-1.48.13-2.96.27-4.45.4-1.07-.19-.14-.89.62-1,1.08-.22,2.17-.4,3.27-.55Z"/>
    <path class="cls-1" d="m251.26,163.52l-.22.02c-5.8.55-11.59,1.05-17.39,1.53-.02-.38-.05-.75-.07-1.13,1.96-.14,3.93-.32,5.88-.57,3.5-.27,7-.76,10.5-1.02.37.32.73.64,1.09.97.07.07.15.13.22.2Z"/>
    <path class="cls-1" d="m224.47,187.12c-.34-.68,1.09-.69,1.5-.86,5.94-1.23,12.03-1.66,18.07-2.07,5.65-.25,11.26-1.14,16.91-1.38,1.41-.13,2.83-.25,4.25-.23.12,0,.24.08.26.2.02.13-.06.27-.2.29-1.08.22-2.17.4-3.27.49-5.23.64-10.49.78-15.73,1.28-7.15.59-14.24,1.8-21.35,2.39-.15.07-.34.04-.44-.11Z"/>
    <path class="cls-1" d="m296.58,152.88c-.16,1.45-.3,2.9-.42,4.36-.32,3.32-.39,6.66-.46,10-.57-.27-1.14-.55-1.71-.84.14-3.05.33-6.11.59-9.14.14-1.21.26-2.41.38-3.62.2-.11.41-.21.61-.32.34-.17.68-.31,1.02-.43Z"/>
    <path class="cls-1" d="m310.11,92.79c-.11.89-.12,1.82.01,2.81-6.29,7.78-9.19,14.36-10.19,25.36-1.04,7.39-1.31,14.79-2.12,22.19-.39,3.02-.81,6.04-1.16,9.07-.54.2-1.09.45-1.63.72,1.38-14.25,1.88-28.68,5.2-42.63,1.88-6.54,5.56-12.31,9.9-17.52Z"/>
    <path class="cls-1" d="m321.11,81.58c.18.6.38,1.2.53,1.8-.62.58-1.24,1.17-1.85,1.77-.14-.45-.21-.89-.14-1.27-.07-.25-.13-.51-.2-.77.55-.51,1.1-1.02,1.66-1.53Z"/>
    <path class="cls-1" d="m352.97,65.86c-.5.47-.89,1.05-1.11,1.73-1.57.11-3.12.29-4.66.57-.69-.29-1.46-.42-2.34-.3-1.48.27-2.94.95-3.93,2.06-.64.25-1.28.52-1.9.82-.63.32-1.26.66-1.88,1-.32-.29-.71-.5-1.21-.6-.25-.07-.52-.1-.79-.11,2.32-1.3,4.74-2.43,7.29-3.3,3.42-1.08,6.96-1.7,10.52-1.88Z"/>
    <path class="cls-1" d="m366.76,67.29c.79.75,1.54,1.55,2.26,2.35-1.21-.39-2.44-.73-3.68-1.02-.88-.83-1.8-1.58-2.77-2.21,1.41.23,2.81.52,4.19.88Z"/>
    <path class="cls-1" d="m388.07,80.1c1.08,2.05,1.96,4.2,2.59,6.4-1.46-2.13-3.04-4.17-4.78-6.09-1.36-2.48-3.06-4.79-5.03-6.81.23.15.46.31.69.47,2.39,1.8,4.55,3.83,6.52,6.04Z"/>
    <path class="cls-1" d="m390.25,82.69s-.02-.02-.03-.02c-.61-.41-1.74-.79-1.36-1.67.48.55.94,1.12,1.39,1.69Z"/>
    <path class="cls-1" d="m412.84,198.91c-.04,6.16-.02,12.33.13,18.5-.5.68-1.54,1.37-2.41,1.91-.29-13.25.11-26.5-.55-39.74-.63-14.48-1.34-29.05-3.23-43.43.69-2.2,1.19-4.45,1.52-6.73.77,4.83,1.35,9.7,1.84,14.55,1.83,18.26,2.54,36.61,2.7,54.95Z"/>
    <path class="cls-1" d="m423.91,327.63c.12.63.24,1.27.36,1.9-.77.41-1.56,1-2.37,1.77-.36-1.96-.71-3.93-1.04-5.9-2.24-14.45-3.29-29.03-4.91-43.55-1.71-17.96-4.17-36.12-5.11-54.1-.04-.8-.07-1.6-.11-2.39.85-.59,1.66-1.23,2.42-1.93.29,7.81.82,15.61,1.69,23.39,1.8,17.83,3.89,35.62,5.69,53.45,1.04,9.1,1.71,18.36,3.36,27.36Z"/>
    <path class="cls-1" d="m443.05,367.5c-.59-.01-1.06-.51-1.05-1.09.49-5.77.01-11.58-1-17.27-1.53-8.67-9.75-28.54-20.07-16.82-3.49,4.34-6.32,9.23-8.47,14.35-1.75,3.51-2.81,7.22-2.95,11.14.03.76-.63,1.67-1.44,1.19-1.71-1.1.61-8.95,1.29-10.67,0,.02-.02.04-.03.07,2.66-6.64,7.48-17.88,13.77-21.49,9.29-4.47,15.79,7.22,18.29,14.57,2.4,6.65,3.45,13.93,3.13,20.95-.26,1.33.32,4.96-1.47,5.06Z"/>
    <path class="cls-1" d="m411.73,372.09c.27.44.34,1.11-.15,1.41-.42.26-.95.05-1.31-.2-.42-.38-.8-.77-1.15-1.2.73-.2,1.46-.39,2.2-.6.14.19.3.38.42.59Z"/>
    <path class="cls-1" d="m444.55,361.18c0,.42-.02.84-.04,1.26-.09.46-.08,1.19-.1,1.95-.77.27-1.55.55-2.33.81.06-1.05.1-2.11.1-3.16.79-.29,1.58-.57,2.37-.87Z"/>
    <path class="cls-1" d="m383.96,279.33c.09.8.19,1.6.29,2.4-.89-.32-1.8-.6-2.73-.84-.09-.8-.19-1.61-.28-2.41.93.24,1.84.53,2.72.85Z"/>
    <path class="cls-1" d="m411.73,372.09c.27.44.34,1.11-.15,1.41-.42.26-.95.05-1.31-.2-3.31-2.98-4.3-7.45-5.79-11.45-3.91-11.56-5.82-23.56-7.52-35.61.85-.18,1.67-.42,2.43-.74,1.88,12.34,3.82,24.66,7.98,36.47,1.16,3.12,1.95,6.45,3.75,9.28.19.29.43.55.61.84Z"/>
    <path class="cls-1" d="m331.63,214.69c-7.86,0-15.77.28-23.53-1.08-6.6-.84-13.13-2.26-19.44-4.39-.75-.26-1.52-.48-2.25-.81-.94-.41-1.07-1.81-.14-2.32,1.38-.5,2.84.66,4.2.92,3.09,1.03,6.43,2.11,9.52,2.78,9.63,1.96,19.4,2.67,29.2,2.45,16.13-.4,32.54.96,48.5-1.75,4.78-.86,9.72-2.11,13.59-5.19,2.54-3.07,4.35-6.75,6.27-10.23.68-1.32,1.35-2.67,1.83-4.04.46-.96.42-2.15,1.02-3.02.24-.23.61-.32.92-.18,1.93,1.36-.47,5.47-1.14,7.13-2.29,4.04-4.26,8.51-7.53,11.86-2.42,1.96-5.31,3.22-8.21,4.15-17.11,5-35.23,3.44-52.83,3.71Z"/>
    <path class="cls-1" d="m276.89,195.85c0,.72.06,1.43.21,2.11-.14.18-.38.29-.74.31-.66-.12-1.25-.88-1.76-1.9-.04-1.22.06-2.45.17-3.68-.02-.46.15-1.3.46-2.28.11.72.28,1.43.48,2.12.16,0,.32-.02.48-.02-.16,0-.32.02-.48.03.04.11.07.22.1.34.11.35.21.69.32,1.02.1.32.23.66.37.99.01.03.03.06.04.1.12.3.25.59.35.88Z"/>
    <path class="cls-1" d="m289.23,206.6s.01,0,.02.01c-1.48.75-3.2,1.03-4.84.72-.3-.06-.61-.13-.91-.22-1.3-.9-2.04-1.89-.96-2.59.81-.12,1.48.65,2.1.99.29.21.6.38.92.52.17.08.34.14.52.21.02-.02.05-.04.07-.06.04-.03.09-.06.13-.09.29-.11.59-.14.89-.11.04,0,.07,0,.11,0,.12.01.25.03.38.06.07.02.14.03.22.05.13.04.26.07.39.12.02,0,.04.01.05.02.07.02.15.05.22.08.07.02.15.05.22.09.12.04.23.09.34.14.03.01.06.02.09.04.01,0,.02,0,.04,0Z"/>
    <path class="cls-1" d="m298.97,186.18c1.27,3.75.14,7.8-1.37,11.39-.38-.12-.73-.29-1.04-.55h0s-.08-.06-.11-.1c-.08-.17-.14-.32-.16-.45-.18-.3-.31-.64-.39-1,.31-.9.57-1.81.77-2.71.38-1.78.43-3.64.22-5.38-.21-1.57.94-2.9,2.08-1.2Z"/>
    <path class="cls-1" d="m287.72,193.11c-.31-.32-.36-.86-.07-1.21.7-.82,1.39-1.66,2-2.54,1.33-1.84,2.18-4.42,4.39-5.36,1.14-.53,2.72-.27,3.39.86.28.48.14,1.26-.46,1.4-.43.1-.81-.16-1.07-.47-1.26-.41-2.26.95-2.9,1.86-1.08,1.27-3.24,6.83-5.27,5.48Z"/>
    <path class="cls-1" d="m300.81,197.98c-1.43-.23-3.25,0-4.37-1.06-.91-1.85,1.7-1.75,2.85-1.61,8.45.63,16.94.11,25.36-.71,16.59-1.85,33.58-4.18,49.02-10.73,1.3-.53,2.14,1.5.77,2.01-.03.02-.09.04-.11.05-.09.05-.41.19-.46.22-12.12,5.71-25.64,7.69-38.78,9.65-11.42,1.33-22.95,2.98-34.46,2.18,0,0,.17.01.17.01Z"/>
    <path class="cls-1" d="m314.48,128.87c-1.76-.25-2.12-2.37-1.43-3.75.25-.59.89-1.27,1.59-.97.3.12.46.46.38.77,2.45.94,2.07,3.85-.54,3.94Z"/>
    <path class="cls-1" d="m357.25,128.53c-.84-.52-1.46-1.42-1.3-2.44-.15-.44.04-.95.45-1.18,1.25-.53,3.11-.79,4.09.36,1.79,2.14-1.09,4.79-3.24,3.26Z"/>
    <path class="cls-1" d="m307.31,122.83c-1.87-1.12,1.28-5.31,2.8-4.02.87.98-.56,1.87-1.04,2.67-.4.62-.81,1.84-1.76,1.35Z"/>
    <path class="cls-1" d="m368.15,120.6c-1.37-.52-2.77-.99-4.21-1.32-.88-.21-2.91-.38-2.21-1.7,1.49-1.16,3.98-.17,5.54.48.82.48,2.6.74,2.14,2.04-.21.5-.78.69-1.26.5Z"/>
    <path class="cls-1" d="m358.36,177.96c-.82.06-1.9-.67-1.4-1.56.37-.58,1.12-.77,1.73-1.01.73-.28,1.48-.62,2.18-.97-.02.01-.05.02-.07.04-.01,0-.02.01-.03.02,4.38-2.23,8.42-5.14,11.84-8.56.57-.59,1.55-.56,2.12,0,1.46,1.62-1.19,3.14-2.1,4.09-4.19,3.33-8.74,7.38-14.26,7.95Z"/>
    <path class="cls-1" d="m217.82,160.06c-3.98,0-6.73-2.28-1.77-4.41,4.02-1.74,8.32-2.76,12.7-2.85.77,0,1.8-.25,2.34.44,1.5-1.02,3.9.31,3.57,2.18-.85,4.09-13.28,4.77-16.86,4.63Zm2.28-1.45c2.82-.24,5.67-.72,8.41-1.3,1.47-.37,3.22-.75,4.06-2.13-.48-.4-.94-.6-1.43-.96-.26.43-.86.53-1.32.57-1.5.11-3.23.22-4.64.29-3.69.11-7.34,1.19-10.53,2.88,1.67.8,3.65.58,5.46.65Z"/>
    <path class="cls-1" d="m233.76,168.02c-.06-3.84-.54-7.73-.79-11.53.04-.9-.38-2.07.37-2.75,1.81-.79,1.3,2.57,1.55,3.57.17,3.56.45,7.1.64,10.62.02,1.08-1.69,1.17-1.78.09Z"/>
    <path class="cls-1" d="m220.81,173.78c-1.68-3.24-3.4-6.47-5.15-9.68-.77-1.99-2.14-3.91-2.25-6.07.56-1.77,2.01-.5,2.41.7,1.99,4.23,3.99,8.43,6.16,12.57.26.52.53,1.03.71,1.58.34,1.06-1.24,1.83-1.87.91Z"/>
    <path class="cls-1" d="m224.44,176.69c-1.42-.13-3.07-.74-3.46-2.25-.33-.86.21-2.69,1.36-1.81.97,1.38,2.75,1.77,4.34,1.54,2.52-.67,4.98-1.8,6.78-3.71.79-.96-.18-3.7,1.74-3.29.87.43.72,1.67.59,2.46-.92,4.43-7.12,7.35-11.34,7.06Z"/>
    <path class="cls-1" d="m221.95,165.58c-1.23-.1-2.54-.18-3.65-.75-.07-.05-.12-.13-.12-.22,0-.23.29-.31.45-.16,0,0,0,0-.01,0,0,0,0,0-.01,0,4.88,1.53,10.35-.2,14.69-2.58.24-.11.48.23.27.41-3.39,2.28-7.6,3.13-11.62,3.31Z"/>
    <path class="cls-1" d="m218.2,164.12c-.04-.25.09-.51.25-.69.89-.81,2.02-1.24,3.11-1.72,3.23-1.35,10.8-3.37,13.22-.02.15.37-.4.64-.6.29-.12-.23-.24-.45-.43-.61-3.45-2.4-11.89.1-14.94,2.52.25.5-.46.73-.61.24Z"/>
    <path class="cls-1" d="m225.53,150.03c-1.13-.63-1.1-2.1-1.79-3.05-.28-.58-.89-.77-1.29-1.21-.29-.47.18-1.08.71-.96,1.62.59,1.65,2.75,2.59,3.96.07-.01.15-.03.21-.05.71-1.54.35-3.45-.48-4.88,0,.01.01.03.02.04.01.03.03.06.04.09-.27-.4-.32-.98.11-1.29.71-.53,1.39.27,1.68.88.88,1.89,1.19,4.32-.18,6.01-.43.47-1.05.77-1.63.46Z"/>
    <path class="cls-1" d="m212.97,151.27c-1.94-.07-1.98-2.7-.79-3.75.59-.64,1.62.06.97.75,0,0,.02-.02.03-.03-.23.36-.71,1.19-.2,1.47.89-.53,1.65-1.23,2.37-1.98.73-.48,2.11-1.72,2.86-.79.53,1.17-2.09,2.04-2.82,2.58-.76.64-1.26,1.78-2.42,1.75Z"/>
    <path class="cls-1" d="m291.01,207.56c.69.61.22,1.73-.71,1.61-2.37-.51-3.88-1.43-4.75-3.14.17.08.34.14.52.21.06-.05.13-.1.21-.14.97-.35,1.98.12,2.96.51.57.36,1.23.57,1.77.95Z"/>
    <path class="cls-1" d="m297.71,187.43c-.7-.47-1.04-1.31-1.7-1.84-.27-.44-.98-.79-.64-1.38.23-.42.77-.35,1.16-.29.62.03,1.07.51,1.52.88.41.57.9,1.18.93,1.91,0,.63-.74,1.05-1.28.71Z"/>
    <path class="cls-1" d="m294.22,184.75c.26-.08.39.26.23.42.01.7-.46,1.32-.81,1.9-1.14,1.86-2.57,3.65-3.92,5.29-.33.33-.9.86-1.56,1.37-.1-.14-.21-.28-.31-.42-.03-.04-.06-.08-.09-.12-.23-.3-.46-.6-.7-.9-.23.01-.47.02-.71.04.29-.14.54-.28.72-.43,2.43-1.83,3.96-4.6,6.17-6.68.23-.21.54-.43.86-.4.04-.02.07-.04.11-.05Z"/>
    <path class="cls-1" d="m278.3,179.8c.36.46.71.93,1.04,1.41-2.25,1.65-3.82,4.35-4.19,7.07-.18,1.92.43,3.89.98,5.59.2.64.53,1.35.75,1.97,0,.71.06,1.43.21,2.1-.14.18-.38.29-.74.31-2.06-.39-3.5-6.9-3.5-8.83-.04-3.07,2.36-7.88,5.44-9.64Z"/>
    <path class="cls-1" d="m297.52,197.61c-1.28-.58-1.86-2.11-1.69-3.45.01-1.02,1.39-2.17,2.09-1.02.37.57-.14,1.19-.06,1.75.35.81,1.36.74,1.89,1.33-.02-.03-.05-.05-.07-.08-.01-.01-.03-.03-.04-.04,1.06,1.25-1.17,2.05-2.13,1.49Z"/>
    <path class="cls-1" d="m288.77,209.28c-1.37.11-8.76-3.14-6.24-4.76.81-.12,1.48.65,2.1.99,1.17.84,2.6,1.05,3.96,1.41,2.33,0,2.62,2.59.18,2.36Z"/>
    <path class="cls-1" d="m281.69,186.84c-.54-1.02-1.5-1.76-2-2.8-.61-1.05.45-1.96,1.36-1.17.63.41.91,1.18,1.26,1.79.24.49.62.86.84,1.35.39.88-.88,1.61-1.46.83Z"/>
    <path class="cls-1" d="m286.36,193.37c-1.43-.56-2.32-1.92-3.19-3.12-1.28-1.68-2.16-3.66-2.67-5.7-.24-.69.22-1.65,1.05-1.32.87.58,1.16,1.84,1.69,2.66,1.5,2.26,2.96,5.18,5.87,5.68.47.23.63.85.36,1.3-.68.91-2.15.82-3.12.5Z"/>
    <path class="cls-1" d="m280.18,184.39c-1.14-.44-.19-2.05.74-1.26.6.51,0,1.54-.74,1.26Z"/>
    <path class="cls-1" d="m293.18,210.48c-4.95-.69-9.42-3.32-12.83-6.88-1.86-1.68-3.65-3.45-4.79-5.7-.39-.79-.89-1.62-.75-2.54.44-1.52,2.21-1.09,2.3.41.44,2.41,2.11,4.24,3.95,5.75,2.47,2.47,5.39,4.41,8.54,5.84,1.55.78,3.27.97,4.83,1.69.68.32.47,1.41-.29,1.44-.32.02-.64.02-.95,0Z"/>
    <path class="cls-1" d="m412.54,372.7c-.81-.06-2.95.29-2.7-1.01.22-.39.73-.43,1.13-.43,2.13.14,4.14.02,6.25-.15,7.85-.67,15.84-2.3,23.21-5.01,1.04-.21,2.62-1.96,3.43-.72.21.41.04.93-.38,1.14-9.69,4.11-20.44,5.96-30.94,6.18Z"/>
    <path class="cls-1" d="m139.02,261.71c-2.41-6.87-3.61-13.91-5.34-20.94-2.15-8.57-5.06-17.08-7.35-25.57-2.38-8.56-3.95-17.28-5.71-25.98-.93-4.52-1.53-9.15-3.12-13.5-.17-.57-.57-1.21-.19-1.77.48-.67,1.42-.32,1.65.4,1.42,3.03,1.9,6.37,2.43,9.64.69,4.07,1.58,8.1,2.35,12.16,1.56,8.37,3.54,16.69,6.04,24.82,4.01,12.31,6.9,24.92,10.1,37.45.11,1.15,1.68,3.17.29,3.84-.46.16-.97-.09-1.14-.55Z"/>
    <path class="cls-1" d="m134.02,173.22c.16.33-.21.56-.5.55-5.09.58-10.14,1.25-15.26,1.42-.64.04-1.27.11-1.89.2-.01-.48-.03-.97-.04-1.45,1.74-.09,3.48-.25,5.22-.3,3.83-.11,7.66-.35,11.48-.68.32-.02.82-.09,1,.25Z"/>
    <path class="cls-1" d="m313.48,182.14c0-.14.11-.26.25-.26s.26.11.26.25c0,.14-.11.26-.25.26s-.26-.11-.26-.25Z"/>
    <path class="cls-1" d="m343.1,186.73c-6.52-.08-12.96-.67-19.45-1.22-2.98-.29-5.98-.52-8.95-.86-.93-.21-2.15-.31-2.68-1.18-.36-1.03.9-1.22,1.64-1.04,1.45.11,2.89.28,4.34.42,10.56,1.15,21.15,2.31,31.78,1.93,3.87-.05,7.75-.26,11.61-.52.91,0,2.21-.54,2.48.67.13,1.48-1.96,1.06-2.8,1.25-5.98.44-11.97.56-17.96.56Z"/>
    <path class="cls-1" d="m361.28,184.75s-.03-.05-.04-.08c-.19-.43.09-.88.4-1.17.33-.32.71-.57,1.07-.85.77-.6,1.55-1.2,2.32-1.8.79-.61,1.58-1.23,2.38-1.83.82-.61,1.66-1.2,2.49-1.8.15-.11.3-.21.34-.24,3.47-2.45,7.07-4.7,10.79-6.77.6-.33,1.21-.67,1.77-.96,1.95-1.02,3.95-1.94,5.99-2.79,1.92-.8,3.86-1.56,5.82-2.26,1.91-.68,3.84-1.33,5.81-1.86,1.81-.48,3.66-.89,5.54-1.04,1.57-.13,3.14-.11,4.7.12.56.08.98.59.91,1.16s-.59.96-1.16.91c-.26-.02-.52-.05-.77-.06-.94-.05-1.88-.03-2.82.04-1.18.1-2.33.28-3.33.5-2.46.54-4.87,1.33-7.22,2.18-.11.04-.22.08-.31.11-1.85.68-3.68,1.42-5.5,2.18-2.01.83-4,1.71-5.95,2.7-.36.19-.73.37-1.09.56,0,0,0,0,0,0-.16.08-.31.16-.33.17-3.69,1.96-7.34,4.02-10.8,6.37-.4.27-.8.54-1.16.79-1.64,1.16-3.26,2.36-4.88,3.55-.81.6-1.61,1.21-2.45,1.77-.39.27-.79.5-1.23.66-.16.06-.35.09-.53.09-.29,0-.58-.1-.74-.36Z"/>
    <path class="cls-1" d="m362.85,188.79c-1.43-.82,1.53-3.3,2.18-3.98,6.59-5.61,14.95-8.68,22.91-11.72,7.13-2.3,14.39-5.23,21.94-5.48.51.03,1.08.6.65,1.07-.54.45-1.49.11-2.1.21-7.9.96-15.44,3.7-22.75,6.71-7.58,3.37-16.12,6.28-21.79,12.54-.2.4-.54.87-1.04.66Z"/>
    <path class="cls-1" d="m375.74,227.83c-1.06-4.64-3.21-9.26-3.09-14.05.12-.55.66-1.04,1.24-.8.55.22.65.85.76,1.36.26,1.29.43,2.67.71,3.91.66,3.04,1.68,5.98,2.48,8.98.37,1.37-1.68,1.98-2.09.61Z"/>
    <path class="cls-1" d="m377.49,228.19c-.76.05-1.36-.69-.84-1.37,1.25-1.01,3.11-.62,4.61-.93,9.97-1.81,20.5-3.56,29.19-9.03.78-.48,1.73-1.73,2.61-.75,1.13,1.39-2.74,3.22-3.67,3.96-5.4,3.1-11.5,4.53-17.49,6.04-4.76,1.08-9.51,2.22-14.41,2.08Z"/>
    <path class="cls-1" d="m387.26,233.99c-.06-.43.24-.8.65-.88,4.71-.82,9.63-1.68,14.11-3.24,4.49-1.86,9.28-4.17,12.52-7.84-.03-2.18-.09-4.41-1.05-6.36-.33-.76-.84-1.14-1.16-1.82-.24-.86.79-1.42,1.47-.95,2.47,2.26,2.82,6.25,2.37,9.4-.94,2.26-3.47,3.32-5.28,4.79-5.4,3.85-11.89,5.93-18.37,6.85-1.49.28-2.98.54-4.48.71-.38,0-.72-.27-.78-.65Z"/>
    <path class="cls-1" d="m399.19,305.12c-1.11-11.47-1.77-23.11-2.73-34.53-1.02-12.34-2.96-24.63-5.36-36.77-.11-.93,1.12-1.53,1.71-.71,1.45,3.5,1.52,7.5,2.29,11.2,1.79,9.43,3.32,18.99,4.02,28.57.85,10.14,1.21,20.35,2.27,30.45.44,4.03.87,8.07,1.23,12.11.15,2.86,1,5.84.06,8.63-1.26,3.02-5.12,3.17-7.84,4.12-2.38.63-4.77,1.12-7.16,1.53-.09-.61-.17-1.23-.25-1.84.63-.09,1.26-.2,1.89-.3,3.68-.96,8.34-.78,11.54-2.83,1.29-1.17-.08-2.91-.07-4.34-.64-5.03-1.2-10.3-1.59-15.29Z"/>
    <path class="cls-1" d="m198.38,190.88c-15.78-.55-14.81-5.78-.07-7.9,4.09-.78,8.22-1.52,12.39-1.63.99-.09,1.98-.17,2.98-.1.36.01.74.16.82.55,4.45-.35,9.31,3.3,4.16,6.9-6.24,2.94-13.55,2.05-20.27,2.17Zm5.65-1.05c3.81-.1,7.58-.2,11.24-1.15,1.31-.32,2.73-.85,3.64-1.87,2.18-3-3.1-3.35-4.67-4.38-6.62.36-13.48.97-19.93,2.65-.97.25-6.7,1.37-6.15,2.47,1.13,1.05,2.85,1.26,4.26,1.59,3.83.69,7.72.76,11.6.69Z"/>
    <path class="cls-1" d="m185.25,199.76c-1.13-.19-.72-1.56-.64-2.36.17-1.34.38-2.69.56-4.03.25-1.74.39-3.48.75-5.2.09-.42.19-.9.58-1.14,2.11-.7.48,5,.53,6.09-.23,1.84-.44,3.68-.74,5.52-.04.58-.39,1.22-1.05,1.12Z"/>
    <path class="cls-1" d="m222.64,190.6c-1.11-1.71-2.35-3.37-3.33-5.16-.14-.34-.22-.72-.07-1.07.73-1.35,2.03.03,2.5.88.98,1.43,1.86,2.63,2.69,4.09.73,1.13-.99,2.33-1.8,1.27Z"/>
    <path class="cls-1" d="m192.46,201.09c-3.15-.22-6.25-.33-9.06-1.73-1.78-1.05-.85-3.16,1.06-3.07.88.05,1.19,1.32.33,1.66,7.19,2.22,14.96,1.45,22.27.48,2.37-.35,28.49-5.21,17.75-8.64-.51-.37-.48-1.21.07-1.52,1.12-.58,2.46.06,3.42.68,1.81,1.35,1.13,4.18-.59,5.29-4.01,2.48-8.84,3.23-13.34,4.44-7.21,1.72-14.49,2.74-21.9,2.43Z"/>
    <path class="cls-1" d="m181.99,202.51c-1.35-.16-.93-1.83-.75-2.66.2-1.05.55-3.51,2.12-2.69.78.69.22,1.91.13,2.76-.21.98-.04,2.73-1.49,2.6Z"/>
    <path class="cls-1" d="m181.64,203.16c0-.14.11-.25.25-.25s.25.11.25.25-.11.25-.25.25-.25-.11-.25-.25Z"/>
    <path class="cls-1" d="m228.93,198.43c-.2-.88-.34-1.82-.55-2.68,0,.03.01.05.02.08-.31-1.38-.53-2.78-.77-4.18-.13-.66-.35-1.46.11-2.05.33-.43.98-.56,1.42-.21,1.01,1.1.74,3.18,1.16,4.61,0,1.16,1.16,4.85-.38,5.08-.43.06-.9-.21-1.01-.65Z"/>
    <path class="cls-1" d="m196.9,208.34c-2.94,0-5.81-.31-8.74-.46-2.33-.21-5.16-.12-6.93-1.87-.97-.98.44-3.25,1.36-1.58,2.35,1.27,4.67,1.38,7.28,1.59,4.18.31,8.38.7,12.51-.02,9.2-1.45,19.21-2.36,26.91-8.05.67-1.19,2.15-.21,1.41.92-4.23,5.04-12.98,6.31-19.13,7.61-4.85.75-9.77,1.85-14.67,1.86Z"/>
    <path class="cls-1" d="m180.72,205.46c-.31-1.17-.14-2.44-.25-3.64-.07-.74,0-2.06,1.04-1.87,1.36.48,1.47,4.28,1.15,5.48-.32.85-1.6.88-1.95.04Z"/>
    <path class="cls-1" d="m189.66,238.42c-2.04-7.26-4.08-14.53-5.77-21.88-.64-2.79-.54-5.64-1.02-8.44-.12-.52-.33-1.08-.06-1.59.2-.41.78-.56,1.16-.33.8.56.71,1.68,1.06,2.51.98,3.09,1.3,6.38,2,9.53.73,2.96,1.64,5.89,2.45,8.83.92,3.54,1.93,7.05,2.94,10.57.5,1.78-2.19,2.61-2.75.8Z"/>
    <path class="cls-1" d="m222.65,237.93c-.47-4.73.75-9.18,1.28-13.82,1.08-7.73,1.39-15.54,2.76-23.22-.04-2.25,2.37-2.14,2.18.12-.44,9.78-1.85,19.5-2.97,29.23-.16,1.77-.48,3.53-.71,5.29-.17.99-.01,2.16-.6,3.02-.61.67-1.82.29-1.93-.62Z"/>
    <path class="cls-1" d="m225.39,234.02c-.07.5-.14,1-.21,1.5-.09.55-.09,1.16-.16,1.73-5.75,7.84-16.84,11.11-26.1,8.59-3.64-1.11-8.87-4.64-9.03-8.75.49-1,1.55-.3,1.87.45,2.69,5.36,9.05,7.78,14.76,7.12,6.57-.53,13.56-3.23,17.03-9.11.4-.7.95-1.78,1.84-1.54Z"/>
    <path class="cls-1" d="m195.91,189.08c-.98-.25-2.23.21-3.02-.5-1.48-.28-.85-2.31.46-1.61,1.16-.15,2.4-.07,3.54.2,1.34.69.38,2.37-.97,1.91Z"/>
    <path class="cls-1" d="m205.56,187.68c-1.1-.15-2.26-.16-3.27-.69-1.2-.67-.99-1.91.24-2.38,1.82-.7,3.86-.52,5.75-1.01.61-.19,1.64-.59,2.23-.2,1.56-.13,3.37,1.8,1.94,3.1-1.12.69-2.55.8-3.84.81-1.04.08-2,.69-3.06.36Zm2.88-.94c.95-.11,1.84-.37,2.71-.73.16-.12.26-.37.24-.53-1.27-.93-2.83-.93-4.31-.68-1.53.12-3.04.56-4.51.96.5.63,2.07.63,2.86.78,1.03-.15,2.02.23,3.03.21,0,0-.02,0-.02,0Z"/>
    <path class="cls-1" d="m356.52,108.62c-13.99-1.45-28.2-8.29-35.49-20.7-.55-1.31-2.4-4.07-.71-5.05.3-.11.66-.08.91.13.68.93.72,2.43,1.4,3.48,5.62,10.29,16.95,16.73,28.12,19.14,5,1.07,10.11,1.9,15.05.4.74-.27,1.84-.81,2.25.2.82,2.75-9.8,2.75-11.53,2.4Z"/>
    <path class="cls-1" d="m379.9,105.77c.01.13-.02.27-.08.42-1.09,1.58-3.57,1.32-5.3,1.37-8.87-.77-17.11-5.68-23.66-11.48-5.5-5.19-9.12-12.21-11.8-19.2-.79-1.94-.58-5.23-3.11-5.73-1.2-.31-2.55.06-3.62.41-2.28.74-4.55,1.5-6.72,2.54-1.97,1.04-4.72,2.03-5,4.55-.07,2.19,1.18,4.21,1.32,6.36-.06.66-.94.98-1.43.54-.79-.77-.88-1.97-1.2-2.98-.89-2.75-.96-6.18,1.68-8,2.41-1.73,5.43-2.88,8.18-3.82,2.17-.55,4.36-1.53,6.64-1.23,2.72.18,4.07,2.86,4.58,5.23.56,2.11,1.34,4.14,2.26,6.12,2.48,5.21,5.77,10.14,10.07,14.02,5.87,5.19,13.3,9.46,21.11,10.48,1.61.17,3.18,0,4.69-.48.02,0,.03,0,.05,0,.45.3.89.6,1.35.89Z"/>
    <path class="cls-1" d="m383.08,110.31c-11.12-5.24-19.22-15.03-25.1-25.57-1.77-2.99-3.4-6.06-5.03-9.12-1.93-3.04-3.73-8.32-8.08-7.75-2.19.39-4.31,1.7-4.96,3.92-.28.59-.23,1.25-.38,1.85-.38.73-1.3.21-1.39-.44-.29-1.59.63-3.16,1.48-4.44,2.06-2.43,5.81-3.72,8.79-2.28,3.64,2.07,5.34,6.24,7.35,9.71,3.86,7.02,7.79,14.1,13.13,20.13,2.91,3.35,6.09,6.05,9.66,8.57,1.35.92,2.73,1.78,4.17,2.54.91.5,2.5.93,1.95,2.28-.26.6-.99.88-1.59.61Z"/>
    <path class="cls-1" d="m384.91,110.9c-2.58-4.02-4.64-8.43-6.08-12.99-2.28-7.57-3.32-15.69-7.65-22.48-3.41-4.41-7.73-10.15-13.5-10.98-2.85-.39-6.1,1.34-6.01,4.5.1.42.25.82.1,1.24-.26.32-.72.44-1.09.23-1.18-.63-.87-2.2-.65-3.27,1.06-4.59,6.68-5.53,10.54-4.07,4.11,1.61,7.19,5.08,10.03,8.34,5.77,6.53,7.62,15.29,9.76,23.46,1.32,4.05,2.93,8.06,4.93,11.75.45,1.4,2.81,3.2,1.36,4.51-.52.39-1.36.31-1.73-.25Z"/>
    <path class="cls-1" d="m397.74,130.51c-.32.05-.66-.03-.92-.24-8.73-10.69-4.17-31.07-8.38-43.82-3.21-10.68-12.35-19.75-23.65-21.15-.84-.16-1.84-.02-2.52-.6-.66-.85.65-1.44,1.38-1.41,13.46.45,24.29,11.96,27.38,24.53,2.39,9.39,1.61,19.2,3.23,28.71.54,3.14,1.2,6.23,2.55,9.12.2.47.45.91.72,1.35-.16.09-.36.14-.55.15.31,1.1.56,2.22.76,3.35Z"/>
    <path class="cls-1" d="m397.53,127.01c-.45.25-1.07.21-1.43-.2-3.19-3.7-5.5-8.06-8.15-12.14-1.14-1.8-2.36-3.55-3.75-5.16-.25-.35-.52-.72-.53-1.17.13-.99,1.41-.53,1.87-.04,3.66,3.76,6.22,8.45,9.31,12.67.16.24.33.48.5.71.38,1.35.84,2.68,1.45,3.96.2.47.45.91.72,1.35Z"/>
    <path class="cls-1" d="m397.82,152.59c-.91-1.23,1.45-2.74,2.01-3.59,1.57-1.66,2.97-3.68,3.96-5.69,6.84-12.76,6.32-28.5.38-41.47-3.55-7.21-7.82-14.01-13.95-19.17-.64-.42-1.84-.82-1.3-1.79,2.23-2.5,8.58,6.09,10,7.79,10.42,13.72,16.03,32.81,9.7,49.4-1.79,4.91-4.07,9.73-7.89,13.33-.83.66-1.93,1.99-2.92,1.2Z"/>
    <path class="cls-1" d="m398.4,137.22c.3,4.87-.07,9.82-2.34,14.23-.64,1.05-3.11,6.02-4.45,4.98-.45-.34-.35-.95,0-1.32,1.5-2.13,2.72-4.41,3.71-6.81,1.33-3.46,1.17-7.18,1.07-10.79-.09-4.48-.93-9.01-2.83-13.03-.24-.63-.46-1.27-.65-1.93-1.26-1.88-2.43-3.83-3.61-5.75.41-.12,1,0,1.4.3,5.97,4.6,7.46,13.01,7.71,20.12Z"/>
    <path class="cls-1" d="m388,158.97c-.84-.23-.96-1.42-.21-1.84.63-.38,1.17-.73,1.68-1.05,2.02-1.33,4.07-2.6,6.12-3.88,1.96-1.28,3.77-2.74,5.36-4.45.28-.3.58-.6,1.02-.59,1.27.2.68,1.54.04,2.03-2.64,2.81-5.74,5.14-8.96,7.23-1.52.82-3.34,2.48-5.06,2.56Z"/>
    <path class="cls-1" d="m390.9,118.8c-1.53-1.3-2.42-3.23-3.75-4.71-.73-1.01-1.74-1.76-2.59-2.65-.4-.49-.67-1.16-1.23-1.48-1.69.2-1.57-2.27.04-1.92.34.11.58.39.74.7.7.69,1.56,1.22,2.22,1.94-.01-.02-.03-.03-.04-.05.68.77,8.58,8.84,4.61,8.18Z"/>
    <path class="cls-1" d="m397.63,137.19c-.13,0-.25-.12-.25-.25,0-1.27-.48-2.52-.34-3.8v.08c-.06-1.64-.32-3.23-.52-4.85-.15-.71-1.13-2.06.11-2.26.64,0,.78.75,1.02,1.21.58,1.58.42,3.23.55,4.86-.04,1.06.23,2.13-.04,3.18-.08.55-.3,1.05-.29,1.6,0,.14-.12.25-.25.25Z"/>
    <path class="cls-1" d="m390.75,83.02c-.31-.06-.54-.37-.8-.51-.76-.41-1.52-.63-2.02-1.36-.45-.41-.14-1.15.46-1.14,1.12-.2,2.09.59,3,1.14,1.02.56.58,2.19-.63,1.87Z"/>
    <path class="cls-1" d="m321.17,108.99c-6.86-.5-11.12-7.88-12.46-13.97-.71-4.9,2.35-9.45,5.41-12.98,1.31-1.21,2.86-2.24,4.58-2.74.29-.07.6-.09.86.09.98,1.11-1.1,1.42-1.77,1.83-1.56.74-2.94,1.9-3.82,3.32-2.71,3.85-4.72,7.36-3.64,12.17,1.34,4.48,4.7,8.7,9.05,10.44,1.55.58,3.04.41,4.6.18.3-.04.59.14.68.45.22,1.22-2.67,1.16-3.48,1.21Z"/>
    <path class="cls-1" d="m323.63,108.29c-5.21-3.07-6.62-10.52-3.9-15.71.52-1.17,3.2-5.24,4.55-3.93.33.54-.22.94-.64,1.17-.31.23-.59.47-.85.71-2.75,2.89-3.94,7.69-2.13,11.31,1.02,1.89,2.33,3.66,4.01,5,.72.83-.04,1.77-1.05,1.45Z"/>
    <path class="cls-1" d="m338.84,159.17c.65,0,1.31-.05,1.95-.13.53-.07,1.06-.18,1.58-.31.54-.16,1.06-.34,1.57-.56.65-.3,1.28-.62,1.9-.97.55-.33,1.06-.69,1.57-1.08.56-.45,1.09-.94,1.59-1.45.4-.44.8-.88,1.16-1.36,0,0,0,0,0,0,.05-.06.1-.13.14-.19.29-.41.56-.82.81-1.25.26-.47.49-.95.7-1.44.25-.63.46-1.26.65-1.91.18-.7.32-1.41.43-2.11,0-.03,0-.06.01-.09.06-.46.08-.92.09-1.38-.01-.61-.06-1.22-.13-1.83-.11-.82-.26-1.63-.44-2.33l-.03-.11h0c-.19-.65-.4-1.27-.65-1.89-.23-.53-.48-1.05-.77-1.55-.29-.48-.61-.93-.91-1.32-.02-.02-.04-.05-.06-.07l-.02-.02c-.45-.55-.92-1.07-1.43-1.57-.42-.4-.86-.77-1.22-1.04-.28-.21-.57-.41-.86-.61-.22-.15-.43-.3-.54-.37-.39-.22-.81-.41-1.21-.62-.39-.2-.79-.4-1.19-.57-.12-.05-.24-.09-.35-.13-.09-.01-.17-.04-.25-.08-.16-.07-.3-.18-.4-.32,0,0,0-.01-.01-.02,0,0,0,0,0,0-.04-.06-.07-.12-.1-.19-.26-.05-.53-.09-.77-.13-1.09-.14-2.2-.2-3.3-.21-.57,0-1.14.04-1.71.11-.61.09-1.21.22-1.81.37-.74.21-1.46.46-2.09.72-.44.19-.86.41-1.27.64-.65.39-1.28.82-1.88,1.28-.48.39-.94.8-1.38,1.23-.4.41-.77.84-1.11,1.28,0,0,0,0,0,0l-.02.03c-.42.57-.8,1.15-1.11,1.68-.29.53-.56,1.07-.79,1.61,0,.01-.01.03-.02.04v.02c-.18.44-.33.89-.45,1.34-.21.83-.37,1.67-.5,2.52-.07.59-.11,1.18-.12,1.69,0,.1,0,.2,0,.31,0,.54.04,1.07.09,1.51.1.68.24,1.36.41,2.02.16.56.35,1.11.57,1.65.29.69.63,1.35.99,1.98.35.59.74,1.15,1.16,1.69.34.42.69.81,1.08,1.19.46.43.94.83,1.43,1.22.63.46,1.27.89,1.93,1.28.43.24.86.45,1.25.62.03.01.06.02.09.04,0,0,0,0,0,0,0,0,0,0,0,0,.64.26,1.29.47,1.93.65.02,0,.03,0,.05.01h.03c.51.13,1.02.24,1.51.31.02,0,.03,0,.04,0h.03c.72.09,1.44.14,2.17.14Zm-8.27-.5c-1.7-.96-3.14-2.3-4.37-3.81-1.27-1.57-2.23-3.34-2.82-5.27-.26-.85-.46-1.72-.57-2.54-.27-1.97-.3-4.03.2-5.97.25-.99.6-1.96,1.03-2.89.41-.9.88-1.77,1.43-2.58,1.12-1.63,2.55-3.04,4.16-4.17.74-.52,1.55-.95,2.36-1.32.43-.2.87-.39,1.32-.57.45-.18.92-.3,1.38-.43.93-.25,1.9-.4,2.86-.49.47-.05.95-.07,1.42-.08.5,0,1,.04,1.49.11.77.1,1.52.31,2.26.55.08-.06.17-.11.26-.15.13-.05.27-.06.4-.05,0,0,0,0,0,0,0,0,.02,0,.03,0h.02c.07.01.13.03.18.04,0,0,.02,0,.03.01.02,0,.04.01.05.02.51.19,1.05.31,1.57.51.27.11.55.22.82.35.29.13.56.32.81.46.02,0,.03.02.05.03h.02c.17.11.34.2.51.29.44.25.85.55,1.15.77,1.17.88,2.21,1.89,3.11,3.05.43.55.81,1.14,1.17,1.74.45.75.86,1.51,1.14,2.17.39.93.7,1.89.91,2.87.11.51.18,1.02.23,1.54.06.55.06,1.12.05,1.68-.01,2.08-.36,4.16-1.15,6.08-.55,1.34-1.29,2.63-2.14,3.78-.39.52-.79,1.01-1.24,1.48,0,0,0,0,0,0l-.12.13c-.44.46-.91.88-1.34,1.22l-.18.14c-1.44,1.14-3.09,2.05-4.85,2.59-.91.28-1.82.53-2.76.69-.95.17-1.9.25-2.87.25-2.86,0-5.66-.86-8.14-2.27l.09.05Z"/>
    <path class="cls-1" d="m207.81,288.98c-.74-1.31,2.21-1.01,2.9-1.15,3.61-.25,7.21-.45,10.82-.66,9.84-.62,19.67-1.43,29.49-2.31,13.23-1.2,26.35-2.83,39.52-4.37,9.83-1.29,19.74-2.15,29.47-4.09.72-.08,1.78-.7,2.15.22.14.48-.21.94-.69.98-18.53,3.36-37.44,4.85-56.11,7.09-11.65,1.2-23.26,2.35-34.92,3.27-4.81.4-9.62.68-14.44.94-2.47.13-4.96.2-7.43.29-.26,0-.54-.03-.75-.21Z"/>
    <path class="cls-1" d="m262.22,371.92c-8.81-.24-17.98-1.13-26.05-4.79-11.07-5.42-20.09-15.32-24.09-27.03-2.02-6.13-2.66-12.69-3.39-19.06-1.01-8.8-1.42-17.64-.86-26.48.02-1.29.1-2.57-.02-3.85-.09-.59-.31-1.34.23-1.78,2.59-1.39,1.68,5.89,1.77,7.21-.66,12.19.49,24.39,2.39,36.42,3.24,19.36,19.8,34.98,39.45,36.38,20.27,2.16,40.76-.85,60.56-5.12.97-.24,1.78,1.04,1.16,1.83-.19.27-.45.41-.76.48-4.19.99-8.43,1.75-12.67,2.5-12.43,2.35-25.08,3.68-37.74,3.3,0,0,.06,0,.01,0Z"/>
    <path class="cls-1" d="m287.78,370.47c-4.16-.16-8.34-.09-12.51-.21-1.05-.2-2.99.42-3.21-1.03-.02-.51.4-.98.92-.99,1.95-.05,3.98-.03,5.89.05,5.29-.11,10.61.42,15.88-.14,6.46-.75,12.79-2.02,18.76-4.34,8.38-2.79,11.07-12.38,11.59-20.27.04-.68.07-1.37.1-2.05.68-.12,1.35-.25,2-.41-.29,7.6-1.6,15.01-6.64,20.96-3.27,3.19-7.74,4.42-11.95,5.72-6.78,1.83-13.79,3.2-20.83,2.7Z"/>
    <path class="cls-1" d="m327.23,325.62c-.08,3.58.04,7.33.04,11.09-.67.38-1.34.72-1.93.98.42-12.75.14-25.5-.41-38.23-.53-5.93-.82-11.86-1.99-17.67-.26-1.09-.6-2.12-.98-3.18-.2-.69-.67-1.39-.45-2.12.12-.34.43-.55.8-.54.49.02.77.53.93.93,2.14,5.36,2.45,11.18,2.96,16.86.91,10.61.88,21.25,1.04,31.89Z"/>
    <path class="cls-1" d="m218.52,379.54c-3.26-.07-40.4.47-30.62-6.9,4.31-1.78,9.07-2.15,13.6-3.16,8.88-1.65,17.82-3.12,26.85-3.58.95.06,8.15-.81,7.36.71-.22.33-.72.3-1.08.32-2.79.08-5.58.2-8.36.48-10.2.92-20.26,2.46-30.31,4.39-6.3,1.04-14.22,3.1-2.36,5.05,18.91,2.29,38.06.89,57.03.04,14.78-.85,29.58-1.84,44.25-3.8,14.43-1.96,28.82-4.24,43.06-7.33,4.93-1.06,9.68-2.07,14.46-3.46,3.49-1.1,7.11-2.05,9.74-4.67-3.57-3.78-11.71-1.95-16.51-2.04-7.92.17-15.68,1.76-23.43,3.24-.84.18-1.53.37-2.34.55-.25.05-.5-.11-.58-.35-.16-.83,1.01-.75,1.53-.97,5.39-1.63,10.87-2.94,16.49-3.51,7.42-.56,15.1-1.69,22.45-.2,5.17,2,4.66,4.13.1,6.58-6.05,3.16-12.84,4.51-19.44,6.01-7.2,1.58-14.46,2.94-21.71,4.2-33.04,5.82-66.66,8.01-100.17,8.39Z"/>
    <path class="cls-1" d="m322.64,342.76c-.08-.42.22-.83.64-.9,1.33-.28,2.77-.46,4.06-.8,7.04-2.04,14.23-4.46,20.21-8.68,3.69-2.96,6.82-7.07,8.46-11.47,1.98-6.87,2.22-14.93-2.8-20.56-6.23-6.53-16.37-11.85-25.53-9.96-.7.11-2.28.93-2.27-.32.07-.41.48-.67.82-.86,1.26-.57,2.65-.7,4.02-.76,9.1.15,18.09,4.54,24.28,11.09,5.74,6.41,5.28,15.94,2.58,23.6-2.38,4.63-5.65,9.06-10.14,11.82-6.43,3.78-13.52,6.55-20.81,8.05-1.02.03-3.09,1.06-3.52-.25Z"/>
    <path class="cls-1" d="m323.14,337.79c-.17-.37-.02-.85.36-1.02,2.18-.95,4.09-1.98,6.06-3.18,6.93-4.76,13.73-11.47,15.34-20,1.34-6.15-2.33-11.8-7.92-14.19-3.25-1.34-7.79-2.87-10.67-.13.06.35-.44.38-.53.08-.43-.43-.15-1.13.13-1.56,2.16-2.26,5.79-1.46,8.49-.79,4.84,1.11,9.04,4.22,11.32,8.64,4.46,11.28-5.67,21.84-13.96,28.21-1.11.78-8.04,5.58-8.62,3.94Z"/>
    <path class="cls-1" d="m230.77,191.46c0-.59.91-.59.91,0,0,.59-.91.59-.91,0Z"/>
    <path class="cls-1" d="m223.54,188.75c.84-.23,1.91-.47,2.74-.12.9.18.81,1.45-.09,1.47-.52.14-1.06-.04-1.58.02-.61.16-1.18.55-1.82.56-.03,0-.06,0-.09,0l-.06-.07c-.2-.31-.4-.61-.61-.92.02-.09.07-.18.14-.27.35-.4.88-.58,1.38-.67Z"/>
  </g>
  <g id="Vector_layer-2" data-name="Vector layer">
    <path class="cls-14" d="m366.53,105.76c-.25.08-.5.18-.72.27-4.94,1.51-10.05.68-15.05-.4-10.14-2.18-20.42-7.7-26.43-16.39.09-.17.1-.37-.04-.59-.16-.15-.34-.23-.52-.25-.4-.62-.78-1.25-1.13-1.9-.38-.58-.55-1.3-.76-1.98-.05-.38-.13-.75-.23-1.13-.04-.14-.08-.29-.12-.44-.13-.45-.28-.91-.41-1.36-.29-.96-.54-1.93-.51-2.94.28-2.52,3.03-3.52,5-4.55,2.16-1.03,4.44-1.8,6.72-2.54.84-.27,1.86-.56,2.84-.52.02,0,.04,0,.06,0,.08,0,.16,0,.25.02.08,0,.16.02.24.04.08.01.16.03.24.05.1.02.19.04.28.07.05.01.09.03.14.05.31.11.57.28.8.48,1.28,1.16,1.27,3.58,1.9,5.13,2.69,7,6.3,14.01,11.8,19.2,4.53,4.01,9.87,7.59,15.66,9.68Z"/>
    <path class="cls-14" d="m322.51,107.51c-1.05.09-2.08.04-3.14-.36-4.35-1.74-7.71-5.96-9.05-10.44-.09-.38-.15-.75-.2-1.12,0-.07-.02-.14-.02-.21-.01-.11-.02-.21-.03-.32l-.02-.32c0-.11,0-.21-.01-.31-.01-.33,0-.65.02-.97.01-.23.04-.46.06-.68.37-2.96,1.93-5.52,3.85-8.24.89-1.42,2.26-2.59,3.82-3.32.25-.15.68-.29,1.08-.45.09.61.25,1.21.43,1.79.06.18.11.36.15.55.04.14.07.29.11.43.03.11.05.23.09.34-.01.04-.02.09-.02.14,0,.12,0,.25,0,.38,0,.06.01.12.02.18,0,.03,0,.06.01.09.03.16.07.32.12.48,0,0,0,.01,0,.02.31,1.02.95,2.09,1.23,2.78.3.5.61,1,.93,1.48-1,1.02-1.93,2.53-2.22,3.17-2.51,4.8-1.5,11.52,2.77,14.93Z"/>
    <path class="cls-14" d="m375.09,105.43c-.42,0-.85-.02-1.28-.07-7.82-1.02-15.25-5.29-21.11-10.48-4.3-3.88-7.59-8.8-10.07-14.02-.93-1.98-1.7-4.02-2.26-6.12-.15-.71-.38-1.44-.69-2.12.04-.29.1-.57.23-.84.21-.71.57-1.33,1.04-1.86.12-.14.25-.27.39-.39.07-.06.14-.12.21-.18.21-.18.44-.34.68-.49.08-.05.16-.1.24-.14.5-.28,1.03-.5,1.58-.66.09-.03.18-.05.26-.07.18-.05.37-.09.55-.12.22-.03.43-.04.63-.04.11,0,.21,0,.32.02.02,0,.04,0,.07,0,.1,0,.2.02.29.03h0c.07.01.14.03.21.04.14.03.29.07.43.11.05.02.11.04.16.05.02,0,.05.02.07.03.05.02.11.04.16.06,2.74,1.17,4.2,5.02,5.74,7.45,1.64,3.06,3.26,6.13,5.03,9.12,4.37,7.84,9.96,15.25,17.11,20.7Z"/>
    <path class="cls-14" d="m382.91,107.52c-.07-.04-.13-.07-.2-.1-.96-.51-1.9-1.06-2.82-1.64l-.34-.22c-.17-.11-.34-.22-.51-.34-.02-.02-.04-.03-.07-.04-.14-.1-.29-.2-.43-.29h0s0,0,0,0c-3.57-2.52-6.75-5.21-9.66-8.57-5.33-6.03-9.26-13.11-13.12-20.13-1.25-2.16-2.39-4.6-3.94-6.62-.04-.2-.09-.39-.14-.6-.01-.49.05-.95.19-1.36,0-.01,0-.03.02-.04.05-.15.1-.29.17-.43,0-.02.02-.04.03-.06.03-.07.07-.13.1-.19.04-.07.09-.15.13-.22.04-.05.07-.11.11-.16.16-.23.35-.44.55-.63,1.19-1.12,3.03-1.64,4.72-1.41,1.76.25,3.38.96,4.89,1.95h0c.09.06.18.12.27.18.41.28.8.57,1.2.89.14.11.28.23.42.34.3.26.6.53.89.8,2.22,2.09,4.15,4.61,5.85,6.81,4.32,6.79,5.37,14.91,7.64,22.48,1.04,3.31,2.41,6.54,4.08,9.61Z"/>
    <path class="cls-14" d="m388.44,86.46c2.73,8.27,1.77,19.77,3.15,29.74-1.41-2.12-2.84-4.23-4.48-6.17-.12-1.11-1.48-2.36-1.81-3.39-2-3.69-3.61-7.7-4.93-11.75-2.14-8.18-4-16.93-9.76-23.46-.52-.59-1.04-1.19-1.58-1.78-.2-.22-.41-.45-.61-.67-.14-.16-.29-.31-.44-.47-.2-.21-.41-.43-.62-.64-.12-.12-.25-.25-.38-.38-.07-.07-.13-.13-.2-.2h0c-.76-.73-1.55-1.42-2.39-2.04.14.01.29.03.42.06,6.22.77,11.79,3.87,16.07,8.28.25.25.49.51.73.77.2.22.4.45.6.68.06.07.12.14.18.22.16.2.32.39.48.59,0,0,0,0,0,0,.07.09.14.17.2.26.18.23.36.46.53.69.02.02.03.04.04.06.4.55.79,1.11,1.16,1.69.01.02.03.04.04.07.18.29.36.57.53.86.18.3.36.61.53.92,1.06,1.93,1.92,3.96,2.55,6.06Z"/>
    <path class="cls-14" d="m404.17,101.84c3.91,8.54,5.47,18.27,4.13,27.56-.05.34-.1.67-.16,1.01-.03.18-.06.37-.1.55-.11.63-.24,1.26-.38,1.88-.06.25-.12.5-.18.75-.07.29-.14.58-.22.88-.07.26-.14.52-.21.78,0,.02-.01.04-.02.05-.08.28-.16.55-.25.83h0c-.77,2.47-1.76,4.87-2.99,7.17-.79,1.6-1.84,3.21-3.03,4.64-1.52,1.61-3.25,2.98-5.11,4.2.17-.3.31-.55.41-.7,2.27-4.41,2.64-9.36,2.34-14.23-.03-.81-.07-1.63-.14-2.46.08-.86-.09-1.73-.06-2.59-.13-1.63.04-3.29-.55-4.86-.05-.09-.09-.19-.13-.29h0v-.02c-.12-.25-.23-.51-.41-.69-.11-.21-.22-.42-.31-.64-.11-.23-.21-.46-.31-.69-.06-.13-.11-.27-.17-.4-.06-.14-.11-.28-.16-.41-.04-.11-.09-.22-.12-.34-.05-.12-.09-.24-.13-.36-.06-.18-.12-.36-.18-.54,0-.01,0-.03-.02-.04-.06-.18-.11-.36-.17-.54-.05-.17-.1-.33-.15-.5-.01-.05-.02-.09-.04-.14-.47-1.69-.8-3.41-1.11-5.15-1.63-9.51-.84-19.32-3.23-28.71-.11-.45-.23-.89-.36-1.34,0-.02,0-.03-.01-.04-.08-.26-.16-.52-.24-.78-.08-.25-.17-.51-.25-.77-.11-.31-.22-.62-.34-.94-.09-.23-.18-.47-.27-.7-.13-.32-.26-.64-.41-.96-.04-.09-.07-.18-.11-.27.3.16.61.29.93.46.19.11.37.3.58.43h0c5.97,5.13,10.15,11.82,13.64,18.91Z"/>
    <path class="cls-4" d="m442.19,362.04c0,.38,0,.75-.02,1.12,0,.23-.01.47-.02.7,0,.11,0,.22-.01.33-.01.34-.03.67-.05,1,0,.03,0,.06,0,.09-.58.31-1.17.73-1.64.82-7.37,2.71-15.36,4.34-23.21,5.01-2.05.16-4.01.28-6.09.16,0,0-.01-.02-.02-.03-1.79-2.82-2.59-6.16-3.75-9.28-4.02-11.4-5.97-23.27-7.79-35.18,1.35-.53,2.5-1.32,3.09-2.73.94-2.79.09-5.78-.06-8.63-.36-4.04-.79-8.08-1.23-12.11-1.06-10.09-1.42-20.3-2.27-30.45-.7-9.57-2.23-19.13-4.02-28.57-.71-3.45-.83-7.14-2.01-10.46,6.26-.96,12.5-3,17.73-6.71,0,.21.02.41.03.62.94,17.98,3.4,36.14,5.11,54.1,1.62,14.52,2.67,29.1,4.91,43.55.15.91.31,1.83.47,2.75-5.41,4.46-9.57,14.18-11.98,20.19-.68,1.73-3,9.57-1.29,10.67.81.48,1.47-.43,1.44-1.19.14-3.93,1.2-7.64,2.95-11.14,2.16-5.12,4.98-10.01,8.47-14.35.33-.37.65-.71.98-1.02.1-.1.2-.19.3-.28.2-.18.4-.35.59-.51.14-.11.27-.21.41-.31.16-.12.32-.23.48-.33.1-.06.2-.12.29-.18.09-.06.19-.11.29-.16,8.71-4.67,15.36,11.89,16.73,19.61.76,4.26,1.21,8.58,1.19,12.91Z"/>
    <path class="cls-4" d="m410.51,216.83h0s-.04.03-.06.04c-8.69,5.47-19.22,7.22-29.19,9.03-1.16.24-2.54.06-3.68.43-.75-2.69-1.64-5.35-2.24-8.09-.28-1.24-.45-2.62-.71-3.91-.08-.37-.15-.8-.4-1.1,3.44-.54,6.85-1.27,10.22-2.25,2.9-.93,5.79-2.2,8.21-4.15,3.27-3.34,5.24-7.81,7.53-11.85.68-1.66,3.07-5.77,1.14-7.13-.31-.14-.68-.05-.92.18-.6.87-.56,2.06-1.02,3.02-.48,1.38-1.15,2.72-1.83,4.04-1.92,3.49-3.73,7.16-6.27,10.23-3.87,3.08-8.81,4.33-13.59,5.19-9.96,1.69-20.1,1.8-30.24,1.73-1.25,0-2.49-.02-3.74-.03-4.85-.04-9.7-.08-14.52.04-9.8.22-19.58-.49-29.2-2.45-1.63-.36-3.34-.83-5.04-1.34-.79-.24-1.59-.49-2.38-.75-.71-.23-1.41-.46-2.1-.69-.4-.07-.81-.23-1.22-.4,0,0-.01,0-.02,0t0,0s0,0,0,0c0,0-.01,0-.02,0-.04-.01-.07-.03-.11-.04-.11-.05-.23-.09-.34-.14-.02-.01-.05-.02-.07-.03-.05-.02-.09-.04-.14-.05h0c-.07-.03-.14-.06-.22-.08-.02,0-.04-.01-.05-.02-.07-.02-.13-.05-.2-.07-.06-.02-.12-.04-.19-.05-.07-.02-.14-.04-.22-.05-.12-.03-.25-.05-.38-.06-.04,0-.07,0-.11,0-.05,0-.11,0-.16,0-.02,0-.05,0-.07,0-2.13-1.23-4.12-2.72-5.88-4.47-1.83-1.51-3.5-3.34-3.95-5.75-.04-.61-.35-1.04-.74-1.24-.09-.22-.17-.44-.23-.64-.11-.33-.21-.67-.32-1.02-.02-.06-.04-.12-.05-.18,0-.02-.02-.05-.02-.07,0-.03-.02-.05-.02-.09.16-.01.32-.02.48-.03-.16,0-.32.02-.48.02-.13-.44-.25-.89-.34-1.35-.03-.14-.06-.27-.08-.41-.02-.12-.04-.23-.06-.35-.11-.7-.14-1.41-.08-2.12.21-1.52.79-3.04,1.66-4.37,0-.01.01-.02.02-.03.1-.14.2-.29.3-.43.11-.14.21-.29.32-.42,0,0,0,0,0,0,.11-.14.23-.27.34-.4.12-.13.24-.26.36-.39.03-.03.06-.07.1-.09.42.38.84.77,1.26,1.14-.04.22.01.48.16.75.28.58.7,1.07,1.12,1.57.53,1.66,1.31,3.26,2.37,4.64.87,1.2,1.76,2.55,3.19,3.12.49.16,1.11.27,1.7.21.04.05.07.09.11.14.09-.07.17-.13.25-.2.43-.1.8-.3,1.07-.65.02-.03.04-.06.05-.09.66-.58,1.29-1.54,1.85-2.49.8-1.04,1.58-2.12,2.26-3.22.15-.25.33-.51.48-.77.51-.45,1.11-.73,1.78-.52.2.23.45.43.74.48.09.11.18.23.26.34-.04.24-.04.51,0,.78.2,1.75.16,3.6-.22,5.38,0,.02-.01.04-.02.07-.45.26-.82.82-.82,1.34-.05.43-.04.88.06,1.3l.04.14s0,.01,0,.02c.01.04.02.09.04.13,0,.02.01.04.02.05.02.05.03.1.05.14.01.03.02.05.03.07.01.04.03.07.04.1.01.03.02.05.03.07,0,0,0,.02.01.03,0,0,.01.02.02.02.02.04.04.08.06.11,0,.02.02.04.03.05,0,0,0,0,0,.01,0,.01.02.02.02.04.02.07.04.14.06.22,0,0,0,.01,0,.02,0,.02.02.05.03.07,0,0,0,.01,0,.02.02.04.04.09.06.13.04.04.07.07.11.1h0c.07.06.14.12.21.16.02.01.04.02.05.04.03.02.06.04.1.06,0,0,.01,0,.02.01.06.04.12.07.18.09,0,0,.01,0,.02,0,.12.09.25.16.38.22.29.16.68.21,1.07.16h0c.74.09,1.51.09,2.2.2-.05,0-.1,0-.15,0h.17c8.02.55,16.05-.09,24.04-.98.98-.11,1.95-.22,2.93-.33.08,0,.16-.02.25-.03,2.37-.28,4.73-.57,7.09-.84,13.14-1.96,26.66-3.94,38.78-9.65.05-.03.37-.17.46-.22.02,0,.08-.04.11-.05,1.36-.51.52-2.54-.77-2.01-2.88,1.22-5.81,2.3-8.79,3.25,5.64-5.56,13.66-8.34,20.8-11.51,7.31-3.02,14.86-5.75,22.75-6.71.3-.05.7,0,1.09.02.18,3.56.34,7.11.49,10.66.62,12.41.31,24.84.5,37.25Z"/>
    <path class="cls-4" d="m309.07,121.47c.48-.79,1.91-1.68,1.04-2.67-1.52-1.29-4.68,2.9-2.8,4.02.95.49,1.36-.73,1.76-1.36Zm4.67,60.92c.14,0,.25-.12.25-.26,0-.14-.12-.25-.26-.25s-.25.12-.25.26c0,.14.12.25.26.25Zm.74-53.53c2.61-.09,2.99-3,.54-3.94.08-.31-.08-.65-.38-.78-.7-.3-1.34.38-1.59.97-.69,1.38-.33,3.5,1.43,3.75Zm40.77,15.65c0-.56,0-1.12-.05-1.68-.05-.52-.13-1.03-.23-1.54-.21-.98-.52-1.95-.91-2.87-.28-.66-.69-1.42-1.14-2.17-.36-.6-.74-1.19-1.17-1.74-.9-1.15-1.94-2.17-3.11-3.05-.3-.22-.71-.52-1.15-.77-.17-.09-.34-.19-.51-.28h-.02s-.04-.03-.05-.04c-.25-.15-.52-.33-.81-.46-.27-.12-.54-.24-.82-.35-.52-.2-1.05-.32-1.57-.51-.02,0-.04-.02-.05-.02-.01,0-.02,0-.03,0-.05-.02-.11-.03-.18-.04h-.02s-.02,0-.03,0c-.14-.01-.27,0-.4.05-.09.04-.18.09-.26.14-.74-.23-1.49-.44-2.26-.54-.5-.07-.99-.11-1.49-.11-.47,0-.95.03-1.42.08-.96.09-1.93.24-2.86.49-.46.13-.93.26-1.38.43-.45.18-.88.37-1.32.57-.81.38-1.62.81-2.36,1.32-1.62,1.13-3.04,2.54-4.16,4.17-.56.81-1.03,1.68-1.43,2.58-.43.93-.77,1.9-1.03,2.89-.5,1.94-.46,4-.2,5.97.11.82.31,1.69.57,2.54.59,1.93,1.55,3.7,2.82,5.27,1.2,1.48,2.61,2.8,4.27,3.75,2.48,1.41,5.27,2.26,8.14,2.27.96,0,1.92-.09,2.87-.25.93-.16,1.85-.41,2.76-.69,1.76-.54,3.41-1.46,4.85-2.59l.18-.14c.43-.34.89-.77,1.34-1.22l.12-.13c.44-.46.85-.96,1.23-1.48.86-1.14,1.59-2.44,2.14-3.78.8-1.92,1.14-4,1.15-6.08Zm2-15.98c2.15,1.54,5.03-1.12,3.24-3.26-.98-1.15-2.84-.89-4.09-.36-.41.23-.59.74-.45,1.18-.16,1.03.46,1.92,1.3,2.44Zm12.16-8.43c.46-1.3-1.32-1.56-2.14-2.04-1.56-.65-4.05-1.64-5.54-.48-.7,1.32,1.32,1.48,2.21,1.69,1.43.33,2.83.8,4.21,1.32.48.19,1.05,0,1.26-.5Zm3.21,49.91c.91-.95,3.56-2.47,2.1-4.09-.57-.57-1.55-.59-2.12,0-3.39,3.39-7.39,6.28-11.73,8.51-.03.02-.05.03-.09.04,0,0-.01,0-.02,0-.66.33-1.38.65-2.07.92-.61.24-1.36.43-1.73,1.01-.5.89.58,1.62,1.4,1.56,5.52-.57,10.07-4.62,14.26-7.95Zm36.47-8.73c-1.04-.07-2.09-.05-3.14.04-1.88.15-3.72.55-5.54,1.04-1.97.52-3.89,1.17-5.81,1.86-1.96.7-3.9,1.46-5.82,2.26-2.04.84-4.04,1.77-5.99,2.79-.56.29-1.17.62-1.77.96-3.71,2.07-7.32,4.32-10.79,6.77-.04.03-.19.13-.34.24-.84.59-1.68,1.18-2.49,1.8-.8.6-1.59,1.21-2.38,1.83-.78.6-1.55,1.2-2.32,1.8-.36.27-.74.53-1.07.85-.21.2-.42.48-.45.78-3.8.26-7.6.46-11.4.51-10.63.38-21.23-.79-31.78-1.93-1.45-.14-2.89-.31-4.34-.42-.42-.1-1.01-.09-1.37.14-.38-.34-.77-.69-1.15-1.03,1.04-2.79,1.52-5.62,1.23-8.21-.04-.4-.28-.73-.61-.94-.32-.54-1.17-.96-2.06-1.32.07-.24.14-.48.21-.72,1.25-.9,1.93-5.51,1.92-6.53.17-5.94-3.52-11.84-9.2-13.83-1.91-.67-3.85-.58-5.71-.04.28-2.27.59-4.54.89-6.8.81-7.39,1.09-14.8,2.12-22.19.95-10.44,3.61-16.89,9.24-24.17,1.71,5.66,5.79,11.74,12,12.2.71-.04,3,0,3.43-.8h0c.4-.27.53-.83.08-1.35-1.68-1.34-2.99-3.11-4.01-5-1.8-3.6-.63-8.36,2.09-11.26,7.66,10.74,20.81,16.71,33.77,18.05,1.72.36,12.24.35,11.54-2.36,2.11.65,4.26,1.1,6.46,1.29.99-.03,2.23.04,3.31-.19,1.67,1.09,3.41,2.08,5.24,2.94.24.11.5.12.74.07.27.33.48.73.75,1.06.84.89,1.85,1.64,2.59,2.66,1.01,1.12,1.77,2.5,2.74,3.67,0,0,0,0,0,.01.98,1.61,1.97,3.22,3.02,4.78.02.06.04.12.05.18.07.21.13.42.2.62.05.14.09.29.15.43.08.24.16.47.25.7.23.63.5,1.24.78,1.84,1.36,3.54,1.97,7.38,2.05,11.19.1,3.6.26,7.33-1.07,10.79-.88,2.13-1.94,4.16-3.21,6.08-.88.55-1.75,1.11-2.62,1.69-.52.33-1.05.67-1.68,1.05-.75.42-.64,1.61.21,1.84,1.72-.08,3.54-1.74,5.06-2.56,1.74-1.13,3.45-2.33,5.07-3.64.91.35,1.86-.78,2.61-1.38,3-2.82,5.05-6.4,6.66-10.18.76,6.67,1.29,13.36,1.69,20.07Z"/>
    <path class="cls-3" d="m352.99,144.93c0,.46-.04.92-.09,1.38,0,.03,0,.06-.01.09-.11.7-.25,1.41-.43,2.11-.19.65-.4,1.29-.64,1.91-.21.5-.44.97-.7,1.44-.25.43-.52.84-.81,1.25-.05.06-.1.13-.14.19-.36.48-.75.91-1.16,1.36-.5.51-1.03,1-1.59,1.45-.51.39-1.02.75-1.57,1.08-.62.36-1.25.68-1.9.97-.52.22-1.04.4-1.57.56-.52.13-1.04.23-1.57.31-.65.08-1.3.13-1.96.13-.73,0-1.44-.05-2.16-.14h-.03s-.03,0-.05,0c-.49-.08-1-.18-1.51-.3h-.04s-.03-.02-.05-.02c-.64-.18-1.29-.39-1.93-.65l-.09-.04c-.39-.17-.82-.39-1.25-.62-.66-.39-1.31-.81-1.93-1.28-.49-.38-.97-.79-1.43-1.22-.38-.38-.74-.77-1.08-1.18-.41-.54-.8-1.1-1.16-1.69-.36-.63-.7-1.29-.99-1.98-.22-.54-.41-1.09-.57-1.65-.18-.67-.32-1.34-.41-2.02-.05-.44-.09-.98-.09-1.51,0-.1,0-.2,0-.3.01-.51.05-1.1.12-1.69.12-.85.29-1.69.5-2.52.12-.46.27-.9.45-1.34v-.02s.02-.03.02-.04c.23-.54.5-1.08.79-1.61.31-.54.7-1.12,1.11-1.68l.02-.03s0,0,0,0c.34-.45.71-.88,1.11-1.29.44-.43.9-.84,1.38-1.23.6-.46,1.23-.89,1.88-1.28.41-.23.83-.45,1.27-.64.63-.26,1.35-.51,2.09-.72.6-.16,1.2-.29,1.81-.38.57-.07,1.14-.11,1.71-.11,1.11.01,2.21.07,3.3.21.24.04.51.08.77.13.03.07.06.13.1.19h0s.01.02.02.02c.1.14.24.25.4.32.08.04.16.07.25.08.12.04.24.08.36.12.41.18.8.38,1.19.57.4.21.81.4,1.21.62.11.07.32.22.54.37.29.2.58.4.86.61.35.27.8.64,1.21,1.04.51.5.98,1.02,1.43,1.57l.02.02s.04.05.06.07c.3.39.62.84.91,1.32.29.5.54,1.02.77,1.55.25.61.46,1.24.65,1.88h0s.02.08.03.12c.18.7.33,1.51.45,2.33.07.61.12,1.22.13,1.83Z"/>
    <path class="cls-10" d="m248.79,137.23h0c-.57.04-1.15.08-1.72.12-.19-.25-.47-.41-.87-.43-.38.09-.62.28-.77.54-6.91.45-13.84.82-20.77,1.21-.59.04-1.17.07-1.76.1h0c-2.07.12-4.14.25-6.21.38-3.29.25-6.58.41-9.88.71-.27.02-.54.05-.81.07-.24.02-.48.05-.73.07-.38.04-.76.08-1.14.12-.3.07-.48.2-.57.34-.15-.05-.32-.04-.51.06h0c-.05.04-.1.07-.14.12-.02.01-.04.03-.05.04-.02.01-.02.03-.04.04-.07.08-.12.16-.16.26-.19.41-.18.93-.18,1.34,0,.01,0,.03,0,.04.48,4.98,1.24,9.94,1.95,14.9.07.47.14.94.2,1.41.45,3.21.87,6.43,1.16,9.65l.11,1.22c.06.82.12,1.64.17,2.46.23,3.16.42,6.39.67,9.62-2.83.3-5.63.82-8.43,1.35-6.62.95-10.46,2.53-11.25,4.04-.15-.06-.33-.06-.56.02-.39.24-.49.72-.58,1.14-.36,1.72-.5,3.46-.75,5.2-.13,1-.29,1.99-.42,2.99-.09-.04-.18-.06-.29-.07-.74-.04-1.33.26-1.68.7-1.09-.02-1.37,1.95-1.55,2.86,0,.03-.01.06-.02.09-.76.1-.8,1.23-.74,1.88.11,1.21-.06,2.48.25,3.64.1.25.28.41.49.51,0,0,.02.02.02.03.43.43.92.74,1.45.98-.02.37.1.75.18,1.12.49,2.79.39,5.64,1.03,8.43.37,1.62.76,3.23,1.16,4.84-4.05.46-8.1.98-12.12,1.66-.15-.57-.54-1.33-1.08-2.21-1.13-9.18-1.78-18.41-2.45-27.64-.41-6.79-.81-13.58-1.21-20.38-.03-.44-.05-.87-.08-1.31-.42-6.96-.84-13.91-1.26-20.86-.6-11.86-.5-23.74-1.36-35.59-.02-.24-.04-.5-.05-.77.37.02.71-.07.98-.33,12.03-.8,24.04-1.69,36.13-2.5,1.63-.12,3.27-.22,4.91-.32.34-.02.69-.04,1.04-.07.01-.07.02-.14.03-.21.05,0,.09-.02.13-.04.72-.03,1.44-.04,2.27.11.5.03.98-.03,1.47-.09.99,0,1.97-.09,2.91-.39.04-.01.07-.02.09-.04l.38-.04c10.2-.98,20.4-2.14,30.54-3.83.02.34.04.68.05,1.01.03.5.05,1,.08,1.5h0c.03.63.07,1.26.12,1.89.29,4.86.93,9.68,1.46,14.52.02.16.04.33.05.5.05.5.11,1,.16,1.5,0,.04,0,.09.01.13.11,1.14.21,2.29.3,3.43.02.26.04.52.05.78.02.23.03.46.05.7.01.19.02.38.03.57.04.7.07,1.39.1,2.09.01.35.02.7.03,1.04s.01.7.01,1.04Z"/>
    <path class="cls-10" d="m167.06,172.9c.77,15.22,1.34,30.46,3.21,45.6-2.56-3.56-6.1-7.63-6.66-8.32-4.64-5.27-9.68-10.5-13.64-16.37-3.48-4.89-6.87-9.78-10.19-14.8-.86-1.29-1.75-2.58-2.66-3.85-.1-.14-.21-.29-.31-.43h0c-.02-.27-.04-.54-.05-.81v-.21c-.04-.41-.07-.82-.09-1.24-.2-2.98-.39-5.96-.61-8.95-.88-12.85-1.52-25.79-1.47-38.7.07-11.52.46-23.03.15-34.55.04.04.07.08.11.12,9.35,7.77,18.07,16.55,28.4,23.03.21.14.43.27.64.4.05.03.11.05.17.08.06.03.12.06.18.08.07.03.14.06.22.09.05.02.11.04.16.05,0,.11-.01.23-.02.34.04,17.36,1.19,34.66,2.11,52,.09,1.7.18,3.41.27,5.11.02.44.04.87.06,1.31Z"/>
    <path class="cls-10" d="m245.33,105.17c-.51.08-1.02.15-1.53.22-1.75.2-3.49.42-5.24.65-7.79.88-15.62,1.42-23.32,2.89-.27.08-.79.14-1.33.24-.06,0-.12.02-.18.03-.02,0-.04,0-.05.01-.04,0-.08.02-.12.02-.11.02-.21.04-.31.07h0c-.61.01-1.21.04-1.82.06-.91.13-1.82.18-2.73.16,0,0,0-.01,0-.02-.05,0-.1,0-.15.01h0c-.3-.02-.61-.04-.92-.07-.43-.18-.78-.05-.98.2-7.21.48-14.43,1.02-21.68,1.53-6.22.55-12.47.89-18.68,1.55-.23-.21-.51-.38-.74-.5-2.23-1.29-4.27-2.82-6.33-4.41-7.5-5.84-14.42-12.4-21.86-18.32-.04-.04-.07-.09-.11-.13-.82-.71-1.32-1.61-1.96-2.48,9.44-1.11,18.93-1.6,28.43-2.18,9.51-.59,19.07-1.4,28.57-2.07,5.7-.39,11.5-.7,17.25-1.03.68.28,1.34.58,2,.9.17.08.34.16.51.24.14.07.28.14.41.21.16.08.31.16.46.24,2.27,1.18,4.45,2.54,6.64,4.02,8.64,5.95,16.99,12.21,25.78,17.93Z"/>
    <path class="cls-10" d="m292.81,210.51s0,.03,0,.05c-21.74,2.61-43.55,4.54-65.36,6.57.62-5.37,1.16-10.74,1.4-16.12.01-.13.02-.26,0-.38.67-.53,1.29-1.11,1.83-1.76.29-.44.24-.86.04-1.13,0-.22,0-.46-.02-.7,14.47-.25,28.92-.95,43.37-1.91.16.44.33.86.52,1.24.26.53.54.98.84,1.31h0l.11.22c1.14,2.25,2.93,4.02,4.79,5.7.53.55,1.09,1.09,1.67,1.59-.07.47.32,1,.95,1.52.04.03.07.06.11.09.13.11.27.21.42.31,1.68,1.16,4.29,2.16,5.18,2.18,1.07.42,2.18.75,3.31.98.27.08.55.16.82.24Z"/>
    <path class="cls-15" d="m245.33,105.17c-.51.08-1.02.15-1.53.22-1.75.2-3.49.42-5.24.65-7.79.88-15.62,1.42-23.32,2.89-.27.08-.79.14-1.33.24-.06,0-.12.02-.18.03-.02,0-.04,0-.05.01-.04,0-.08.02-.12.02-.11.02-.21.04-.31.07h0c-.61.01-1.21.04-1.82.06-.91.13-1.82.18-2.73.16,0,0,0-.01,0-.02-.05,0-.1,0-.15.01h0c-.3-.02-.61-.04-.92-.07-.43-.18-.78-.05-.98.2-7.21.48-14.43,1.02-21.68,1.53-6.22.55-12.47.89-18.68,1.55-.23-.21-.51-.38-.74-.5-2.23-1.29-4.27-2.82-6.33-4.41-7.5-5.84-14.42-12.4-21.86-18.32-.04-.04-.07-.09-.11-.13-.82-.71-1.32-1.61-1.96-2.48,9.44-1.11,18.93-1.6,28.43-2.18,9.51-.59,19.07-1.4,28.57-2.07,5.7-.39,11.5-.7,17.25-1.03.68.28,1.34.58,2,.9.17.08.34.16.51.24.14.07.28.14.41.21.16.08.31.16.46.24,2.27,1.18,4.45,2.54,6.64,4.02,8.64,5.95,16.99,12.21,25.78,17.93Z"/>
    <path class="cls-15" d="m167.06,172.9c.77,15.22,1.34,30.46,3.21,45.6-2.56-3.56-6.1-7.63-6.66-8.32-4.64-5.27-9.68-10.5-13.64-16.37-3.48-4.89-6.87-9.78-10.19-14.8-.86-1.29-1.75-2.58-2.66-3.85-.1-.14-.21-.29-.31-.43h0c-.02-.27-.04-.54-.05-.81v-.21c-.04-.41-.07-.82-.09-1.24-.2-2.98-.39-5.96-.61-8.95-.88-12.85-1.52-25.79-1.47-38.7.07-11.52.46-23.03.15-34.55.04.04.07.08.11.12,9.35,7.77,18.07,16.55,28.4,23.03.21.14.43.27.64.4.05.03.11.05.17.08.06.03.12.06.18.08.07.03.14.06.22.09.05.02.11.04.16.05,0,.11-.01.23-.02.34.04,17.36,1.19,34.66,2.11,52,.09,1.7.18,3.41.27,5.11.02.44.04.87.06,1.31Z"/>
    <path class="cls-15" d="m275.19,182.85c-1.44,2.1-2.36,4.68-2.33,6.59,0,.67.17,1.88.48,3.2-.71.02-1.42.04-2.12.04-12.73.49-25.46.74-38.19,1.19-.9.04-1.8.08-2.71.12-.43-1.43-.16-3.5-1.16-4.6-.12-.09-.25-.15-.39-.18,13.29-.84,26.59-1.48,39.91-1.41.41,0,.82,0,1.23-.02.75,0,1.49-.02,2.23-.03-.27-.18-.52-.38-.7-.62-.3-.31-.61-.63-.91-.95-3.06-3.21-5.91-6.63-8.52-10.23-.12-.16-.23-.31-.34-.47-.45-.62-.89-1.25-1.32-1.89-.13-.19-.26-.38-.39-.57-.06-.09-.12-.18-.18-.27-.39-.5-.79-.99-1.19-1.48-.28-.34-.55-.67-.84-1-.23-.28-.48-.56-.72-.84-.01-.02-.03-.03-.04-.05-.25-.29-.5-.58-.76-.86-.07-.07-.14-.15-.21-.23-.27-.29-.54-.59-.81-.88-.21-.23-.44-.47-.66-.7-.21-.21-.41-.43-.62-.64-.28-.28-.55-.56-.84-.84l-.06-.06c-.25-.25-.51-.5-.77-.74-.15-.14-.3-.29-.45-.43-.16-.15-.32-.3-.48-.45-.02-.02-.05-.05-.08-.07-.07-.07-.15-.14-.22-.2-.36-.33-.73-.65-1.09-.97-.36-.31-.71-.61-1.08-.91-.29-.28-.61-.4-.91-.41h-.02s-.09,0-.14,0c-2.86.23-5.73.45-8.59.66-1.34.11-2.69.21-4.03.33-.06-.84-.11-1.69-.16-2.53.88-.12,1.75-.25,2.62-.37,3.19-.38,6.4-.85,9.63-1.06.18-.02.36-.03.53-.05.07.2.2.38.41.54,2.51,1.68,4.88,3.53,7.16,5.47.49.41.97.84,1.45,1.26,2.34,2.07,4.61,4.24,6.84,6.44-.31,1.47-.37,2.88.11,3.87-.04.13-.04.29,0,.46.69,1.39,2.73,1.17,4.05,1.46.62.05,1.25.11,1.88.16,1.8,1.76,3.61,3.5,5.48,5.18Z"/>
    <path class="cls-16" d="m224.04,188.63s-.02,0-.02,0c-.71-1.16-1.45-2.19-2.27-3.39-.3-.54-.92-1.28-1.53-1.42-1.11-1.35-3.46-2.2-5.72-2.02-.08-.4-.46-.54-.82-.55-.99-.07-1.99,0-2.98.1-.62.02-1.24.05-1.86.09-.21-4.02-.5-8.06-.87-12.09-.04-.4-.07-.81-.11-1.21-.16-1.71-.33-3.41-.52-5.12.09.01.18.02.28.02,2.41-.2,4.81-.45,7.21-.73.29.59.57,1.18.81,1.77-.08,0-.17.02-.27.05-.27-.64-.84-1.09-1.49-.39-.44.8-.01,1.75.07,2.59.14.59.29,1.2.45,1.82.07.28.14.56.22.84.07.26.14.51.21.77,0,0,0,.02,0,.02.08.28.16.56.25.84.02.06.04.11.05.17.07.21.13.42.2.62.04.14.07.28.11.42.07.29.16.59.25.87.36,1.19.8,2.34,1.3,3.46.09.21.19.41.29.62.24.5.49,1,.75,1.5.07.13.14.27.21.39.4.75.82,1.5,1.25,2.24.14.25.29.5.44.75.83,1.38,1.68,2.75,2.51,4.12.55.91,1.04,1.89,1.58,2.84Z"/>
    <path class="cls-9" d="m308.95,173.11l.75.32c-.13.86.13,1.98-.03,2.76-.1,1.16-.33,2.32-.67,3.46-.19.63-.41,1.25-.66,1.88-.07.17-.14.34-.21.51-1.86,4.25-5.14,8.16-8.96,10.79.48-2.22.55-4.48-.19-6.65-.06-.09-.12-.17-.18-.24h0c-.19-.41-.47-.78-.73-1.13-.45-.37-.9-.85-1.52-.88-.1-.02-.21-.03-.33-.04h0c-.7-.24-1.5-.2-2.17.11-2.19.93-3.05,3.49-4.36,5.32-.56.66-1.14,1.3-1.78,1.88-2.13-.98-3.38-3.38-4.65-5.3-.53-.82-.82-2.08-1.69-2.66-.05-.02-.09-.04-.14-.04-.11-.12-.23-.23-.37-.32-.26-.23-.53-.32-.77-.3-.3-.46-.62-.91-.93-1.36-.13-.19-.26-.37-.39-.55-.09-.12-.18-.24-.27-.36-.12-.17-.25-.34-.38-.5-.4-.53-.82-1.04-1.26-1.54.17,0,.34,0,.51,0,.82.01,1.27-1.06.67-1.62-.19-.18-.42-.26-.67-.28-1.88-.12-3.73-.16-5.6-.29-.71-.05-1.43-.11-2.14-.19-.22-.02-.44-.05-.66-.08-.39-.04-.77-.1-1.15-.16.01-.01.02-.02.04-.03.25-.17.49-.35.73-.54.08-.07.16-.13.23-.2.32-.27.64-.55.93-.84.43-.41.83-.81,1.18-1.15.15-.18.21-.37.22-.55,1.34-.08,2.68-.45,3.95-1.02.03-.01.05-.02.08-.04.12-.05.24-.11.36-.17.44-.21.86-.45,1.27-.71.84-.53,1.64-1.14,2.34-1.81.48-.45.92-.92,1.31-1.41.05-.05.09-.11.13-.16.7-.85,1.14-1.84,1.35-2.89.02-.1.04-.2.05-.29.02-.11.04-.21.05-.32,0-.09.02-.18.02-.27,0-.1.01-.2.02-.3.05-1.25-.21-2.52-.77-3.66,1.08.73,2.18,1.43,3.3,2.11.38.23.77.47,1.16.7,0,0,0,.01.01.02.03.05.05.09.09.14.03.04.07.09.11.12.05.05.1.1.16.14.09.03.16.05.23.07.03,0,.05.01.08.02.07.01.13.01.19,0,.34.2.67.39,1.01.58.34.19.68.38,1.01.57,0,0,0,0,0,0,1.68.92,3.39,1.8,5.11,2.65.29.14.57.29.86.42.29.14.57.28.86.41,3.99,1.91,8.07,3.67,12.14,5.4.38.16.75.31,1.12.47Z"/>
    <path class="cls-9" d="m299.29,151.56c5.16,0,9.14,4.18,10.47,9-2.16-5.03-7.76-9.55-13.18-7.67-.34.12-.68.27-1.02.43-.2.1-.41.21-.61.32-2.3,1.23-4.52,2.97-5.16,5.59-.09.44-.13,1.11.03,1.61-.02.11-.04.21-.06.31-.03.2-.09.42-.13.66-.59-.32-1.19-.66-1.78-1,.11-.64.18-1.29.38-1.68.95-2.29,3.85-4.7,6.79-6.18.28-.14.56-.28.84-.4.25-.11.5-.21.75-.3.02,0,.04-.02.05-.02.94-.36,1.84-.59,2.64-.66Z"/>
    <path class="cls-9" d="m265.45,182.9c.91,1.13,1.87,2.23,2.87,3.29-8.85.03-17.73.23-26.56.46-.64-.03-10.66.57-15.21,1.47-.45-.11-.92-.13-1.36,0-.15-.29-.3-.57-.45-.86.06,0,.11-.01.16-.04,7.11-.58,14.21-1.79,21.35-2.38,5.24-.5,10.51-.64,15.73-1.28,1.1-.09,2.19-.27,3.27-.49.1-.02.17-.09.19-.18Z"/>
    <path class="cls-9" d="m262.99,179.7c.48.65.96,1.29,1.46,1.92-2.41.08-4.82.25-7.23.48-5.82.49-11.56,1.21-17.39,1.81-5.3.77-10.7.9-16,1.63-.19-.34-.38-.68-.57-1.02.07.02.14.03.23.05,5.09-.31,10.21-1.39,15.32-2.05,7.94-.96,16.04-1.91,24.04-2.78.05,0,.1-.02.14-.04Z"/>
    <path class="cls-9" d="m260.57,176.35c.51.72,1.02,1.43,1.54,2.15-8.98.87-17.88,2.12-26.89,3.18-.49-.1-10.55,1.31-12.28,2.28-.33-.57-.66-1.13-1.01-1.69-.14-.26-.29-.51-.44-.77,10.52-1.1,20.98-3.01,31.5-4.2,2.52-.31,5.08-.48,7.58-.96Z"/>
    <path class="cls-9" d="m258.78,173.83c.41.58.83,1.17,1.24,1.75-1.84.13-3.68.34-5.51.6-11.18,1.26-22.36,2.75-33.47,4.55-.41-.7-.82-1.39-1.21-2.1,7.91-.64,15.76-1.73,23.65-2.66,5.12-.55,10.23-1.25,15.3-2.15Z"/>
    <path class="cls-9" d="m257.95,172.68c.12.16.24.33.36.5-.75.07-1.49.13-2.23.21-10.25,1.17-20.53,2.58-30.83,3.72-1.93.29-3.93.31-5.84.75-.23-.43-.45-.86-.66-1.3,1.16-.18,2.33-.35,3.49-.52.65.39,1.45.59,2.19.65,2.28.15,5.13-.62,7.42-2.07,6.95-1,13.91-1.91,20.91-2.61,1.41-.18,2.82-.34,4.23-.52.33.39.65.78.96,1.18Z"/>
    <path class="cls-9" d="m256.09,170.45c-.83.08-1.66.16-2.49.25-6.54.64-13.04,1.3-19.55,2.12.24-.25.45-.52.65-.8,1.88-.25,3.77-.5,5.66-.78,4.98-.51,10.02-.99,15-1.58.25.26.49.52.72.79Z"/>
    <path class="cls-9" d="m265.06,182.41l.14.18c-1.42-.02-2.83.09-4.25.23-5.65.24-11.26,1.12-16.91,1.38-1.13.08-2.27.15-3.4.23,3.18-.36,6.36-.69,9.55-.9,4-.24,7.99-.68,11.99-.93.96-.1,1.92-.1,2.87-.19Z"/>
    <path class="cls-9" d="m228.91,185.72c-.98.16-1.96.34-2.94.54-.32.13-1.25.16-1.49.49-.11-.22-.23-.44-.35-.66,1.6-.1,3.19-.23,4.79-.38Z"/>
    <path class="cls-9" d="m220.98,174.44c.04.13.08.26.14.38-1.07.23-2.05.47-2.8.72-.15-.4-.3-.81-.44-1.22,1-.11,2-.25,3.01-.39,0,.19.04.36.09.51Z"/>
    <path class="cls-9" d="m220.02,172.27c.08.15.16.31.24.46-.67.12-1.34.26-2.02.4-.18.07-.44.12-.69.19-.08-.25-.16-.51-.23-.77.89-.11,1.79-.19,2.7-.29Z"/>
    <path class="cls-9" d="m218.99,170.32c.1.19.2.38.3.56-.77.16-1.52.35-2.29.53-.07-.27-.15-.55-.21-.83.73-.08,1.47-.17,2.2-.27Z"/>
    <path class="cls-9" d="m218.11,168.67c.09.16.17.31.25.47-.62.08-1.24.18-1.86.29-.05-.2-.09-.39-.13-.58.58-.05,1.16-.11,1.75-.18Z"/>
    <path class="cls-9" d="m216.95,166.5c.18.33.36.66.54,1-.46.08-.91.16-1.37.25-.09-.39-.17-.77-.25-1.16.36-.04.72-.07,1.08-.1Z"/>
    <path class="cls-9" d="m216.11,164.95c.11.19.21.38.31.57-.25.05-.5.09-.75.14l-.14-.67c.2-.01.39-.03.58-.05Z"/>
    <path class="cls-9" d="m254.25,168.5s-.05,0-.08,0c-6.24.63-12.47,1.76-18.75,2.26.08-.19.15-.38.21-.58,2.21-.26,4.42-.51,6.64-.78,3.89-.45,7.8-.74,11.7-1.18.09.09.19.18.28.28Z"/>
    <path class="cls-9" d="m252.02,166.35c.21.19.41.38.62.57-5.6.56-11.18,1.06-16.75,1.67,0-.16-.01-.32-.04-.48.96-.12,1.92-.24,2.88-.36,4.39-.55,8.87-.87,13.29-1.41Z"/>
    <path class="cls-9" d="m251.03,165.46c-.4.05-.8.11-1.2.16-3.31.48-6.66.75-10.04,1.2-1.43.13-2.86.27-4.29.43-.01-.26-.03-.52-.04-.78,1.09-.14,2.19-.27,3.29-.38,3.82-.46,7.68-.79,11.5-1.33.27.23.53.46.79.7Z"/>
    <path class="cls-9" d="m243.95,164.19c-2.85.36-5.71.71-8.57,1.05,0-.1-.01-.21-.02-.31,2.86-.24,5.73-.48,8.59-.74Z"/>
    <path class="cls-9" d="m247.45,162.42c.05.05.11.09.17.14-2.73.27-5.45.61-8.17.82-1.38.18-2.77.32-4.16.44-.01-.16-.02-.32-.03-.48,4.06-.34,8.12-.65,12.19-.91Z"/>
    <path class="cls-5" d="m274.09,169.89c-1.94.64-3.89.6-5.29-.75-1.05-1.34-1.13-2.86-.88-4.42.02-.11.04-.23.06-.34.02-.11.04-.21.06-.32,0-.01,0-.02,0-.04.02-.11.05-.22.07-.33.03-.11.05-.23.09-.34.08-.33.17-.66.27-.99.23.32.46.64.69.96.31.43.61.86.92,1.29,1.29,1.8,2.58,3.59,4,5.27Z"/>
    <path class="cls-5" d="m276.46,157.16c2.88.33,4.83,3.08,4.62,5.81,0,.11-.02.22-.04.34,0,.08-.02.16-.04.25-.01.07-.03.14-.04.21-.02.08-.04.16-.06.23-.01.05-.03.1-.04.14-.08.26-.19.52-.32.77-.16.27-.35.55-.57.83-.33-.53-.67-1.05-1.02-1.57-.2-.32-.41-.63-.61-.95-.05-.07-.1-.14-.16-.21-1.44-1.98-2.86-4.07-4.33-6.12.87,0,1.76.12,2.61.27Z"/>
    <path class="cls-5" d="m268.92,172.07c-.17.15-.33.3-.5.45-.46.42-.94.83-1.45,1.17-.07.05-.14.1-.22.14-.2.12-.39.23-.6.33-.3.14-.62.26-.96.34-.06-.45-.06-.88-.02-1.31.02-.21.04-.41.08-.61.02-.14.05-.28.08-.41,0-.06.02-.12.04-.18.02-.1.05-.2.08-.3.02-.09.05-.17.07-.26.02-.08.04-.15.07-.23.12-.37.25-.74.39-1.11.09-.22.18-.44.27-.66.54,1.18,1.43,2.15,2.66,2.62Z"/>
    <path class="cls-13" d="m276.61,164.45c.62.95,1.25,1.89,1.87,2.84-.76.67-1.64,1.29-2.57,1.79-1.24-1.52-2.46-3.05-3.68-4.59-.33-.42-.66-.84-.99-1.26-.75-.96-1.5-1.93-2.24-2.89-.34-.44-.68-.89-1.02-1.33-.48-.62-.95-1.24-1.43-1.86-1.88-1.93-3.68-4.46-6.26-5.54-4.32-1.5-8.9-2.29-13.37-3.3-.76-.17-1.51-.35-2.26-.54.02-.03.04-.07.05-.1.11-.22.21-.46.27-.7-.1.28-.22.55-.37.79-.05-.01-.1-.02-.15-.04-.25-.06-.49-.12-.74-.19-.29-.08-.59-.16-.88-.24-.18.13-.31.26-.39.38-.65-.17-1.24-.46-1.43-1.01-.02-1.19.92-2.54,2.11-2.87.03.04.06.08.09.12.05.06.11.11.17.17.05.05.11.09.17.14h0c.06.05.12.09.18.12s.11.07.18.1c.14.07.29.14.44.2.07.02.13.05.2.07,0,0,0,0,.01,0,.07.03.15.05.23.07.05.02.11.04.17.05.14.04.27.07.41.11.04,0,.07.02.1.03.15.04.3.08.45.12s.29.08.43.13c.42.12.84.25,1.26.36,6.34,1.69,13.15,2.02,18.82,5.55,3.7,3.39,6.28,7.86,9.17,11.97.28.39.56.79.85,1.18.05.06.09.13.14.19Z"/>
    <path class="cls-15" d="m245.43,142.69l-.48-.15c-.55-.48-1.23-.47-1.64-.15-1.65.07-2.99,1.4-3.55,2.95-1.01,1.99.34,3.4,2.05,4.02-2.67.05-5.47-.59-7.73-2.1-.66-.49-.75-1.04-.93-1.61-.04-1.76.07-3.6.05-5.35,0-.09-.01-.19-.02-.28,4.02-.23,8.04-.47,12.05-.74.04.44.09.86.08,1.2.03.65.08,1.41.11,2.21Z"/>
    <path class="cls-15" d="m276.61,164.45c.62.95,1.25,1.89,1.87,2.84-.76.67-1.64,1.29-2.57,1.79-1.24-1.52-2.46-3.05-3.68-4.59-.33-.42-.66-.84-.99-1.26-.75-.96-1.5-1.93-2.24-2.89-.34-.44-.68-.89-1.02-1.33-.48-.62-.95-1.24-1.43-1.86-1.88-1.93-3.68-4.46-6.26-5.54-4.32-1.5-8.9-2.29-13.37-3.3-.76-.17-1.51-.35-2.26-.54.02-.03.04-.07.05-.1.11-.22.21-.46.27-.7-.1.28-.22.55-.37.79-.05-.01-.1-.02-.15-.04-.25-.06-.49-.12-.74-.19-.29-.08-.59-.16-.88-.24-.18.13-.31.26-.39.38-.65-.17-1.24-.46-1.43-1.01-.02-1.19.92-2.54,2.11-2.87.03.04.06.08.09.12.05.06.11.11.17.17.05.05.11.09.17.14h0c.06.05.12.09.18.12s.11.07.18.1c.14.07.29.14.44.2.07.02.13.05.2.07,0,0,0,0,.01,0,.07.03.15.05.23.07.05.02.11.04.17.05.14.04.27.07.41.11.04,0,.07.02.1.03.15.04.3.08.45.12s.29.08.43.13c.42.12.84.25,1.26.36,6.34,1.69,13.15,2.02,18.82,5.55,3.7,3.39,6.28,7.86,9.17,11.97.28.39.56.79.85,1.18.05.06.09.13.14.19Z"/>
    <path class="cls-15" d="m224.05,140.51c.14,0,.29-.01.43-.02-.16.4-.34.79-.59,1.04-.75,1.05-1.84,2-3.04,2.64-4.13,1.89-8.83,1.41-13.2.53-.06,0-.12-.02-.19-.03,0-.03,0-.06,0-.09-.18-1.11-.33-2.21-.46-3.32,5.49-.2,10.98-.43,16.46-.71.2.05.42.05.61-.03Z"/>
    <path class="cls-10" d="m225.51,143.88c.82,1.42,1.16,3.32.46,4.84-.07.02-.14.04-.21.05-.8-1.04-.94-2.75-1.97-3.61.59-.48,1.12-1.03,1.59-1.64.03.16.09.31.18.45-.01-.03-.03-.06-.04-.09Z"/>
    <path class="cls-10" d="m214.03,147.75c.4.05.8.08,1.2.09-.68.7-1.41,1.37-2.26,1.87-.51-.28-.03-1.11.2-1.47l-.03.03c.21-.22.24-.45.17-.62.32.04.62.07.86.12h-.16Z"/>
    <path class="cls-11" d="m233.87,168.38s.01.02.02.03c-.02.14-.03.28-.04.42,0,.02,0,.03,0,.05-.01.14-.02.28-.04.41,0,.08-.02.15-.03.23,0,.06-.02.12-.03.18,0,.01,0,.02,0,.04-.01.07-.03.14-.05.2h0c-.02.07-.04.13-.06.19-.02.06-.05.12-.08.17-.03.05-.06.1-.1.14,0,0,0,0,0,0h0c-.19.21-.39.4-.59.58h0c-.07.06-.14.12-.21.18-.23.2-.47.39-.72.57-.11.07-.21.15-.32.22-.11.07-.22.15-.33.21-.08.05-.17.11-.25.16l-.28.16c-.68.39-1.41.72-2.15,1-.63.24-1.27.45-1.92.62-.28.04-.57.06-.86.06-.14,0-.28,0-.41-.02-.2-.01-.41-.04-.61-.08-.52-.1-1.02-.29-1.45-.56-.05-.03-.11-.07-.16-.11-.16-.11-.32-.24-.46-.39,0-.03,0-.05,0-.08,0-.04-.02-.08-.03-.12-.03-.1-.07-.2-.11-.29-.03-.08-.06-.16-.09-.23-.05-.11-.1-.22-.15-.32-.11-.25-.24-.49-.36-.73-.14-.27-.28-.54-.42-.81-.08-.15-.16-.3-.24-.46-.2-.39-.4-.79-.6-1.18-.08-.15-.16-.31-.23-.46-.21-.41-.42-.83-.62-1.25-.14-.29-.29-.57-.43-.86-.19-.38-.38-.77-.57-1.15-.01-.02-.02-.04-.03-.06.98.36,2.08.43,3.11.51,3.97-.18,8.13-1.02,11.5-3.23.04.38.06.75.09,1.12.01.16.02.32.04.47.03.38.05.75.07,1.13,0,.12.02.25.02.38.02.38.04.75.05,1.12,0,.04,0,.08,0,.12.01.25.02.5.03.76,0,.19,0,.38.01.57,0,.04,0,.07.02.1,0,.06.02.11.05.16.01.04.03.07.05.1Z"/>
    <path class="cls-11" d="m233.35,161.12c.02.24.04.48.06.72-.04,0-.07,0-.11.02-4.34,2.38-9.8,4.11-14.68,2.59-.02-.02-.05-.04-.08-.05.22,0,.43-.21.27-.51,2.94-2.32,10.87-4.73,14.53-2.76Z"/>
    <path class="cls-2" d="m233.23,159.74c.02.25.04.49.06.74-3.21-1.53-9.01.09-11.73,1.22-1.09.48-2.22.91-3.11,1.72-.1.11-.18.24-.23.38-.02-.03-.03-.05-.04-.08-.28-.57-.55-1.15-.83-1.73-.25-.52-.5-1.05-.74-1.57-.08-.16-.15-.32-.23-.48.45.07.93.11,1.43.11.41.02.93.02,1.54.01.15,0,.31,0,.47,0,.13,0,.26,0,.39-.01.15,0,.3-.01.46-.02.09,0,.17,0,.26-.01.15,0,.31-.02.47-.02.12,0,.25-.02.38-.02.16,0,.32-.02.48-.03.23-.02.47-.04.71-.05.27-.02.54-.05.82-.07.14-.02.28-.03.41-.04.42-.05.84-.1,1.27-.16.14-.02.28-.04.43-.06.57-.08,1.14-.18,1.71-.29.13-.02.26-.05.39-.08.14-.03.28-.05.41-.09.27-.06.54-.12.8-.19.13-.03.27-.07.39-.1.26-.07.51-.14.76-.22.25-.08.49-.16.72-.24.12-.04.23-.09.34-.13s.22-.09.33-.14c.47-.2.9-.41,1.28-.65.01.15.02.3.04.45.02.25.04.5.06.74,0,.06,0,.12.02.18.02.31.05.62.08.93Z"/>
    <path class="cls-2" d="m231.13,154.23c.49.36.95.56,1.43.96-.84,1.38-2.59,1.76-4.05,2.12-2.73.59-5.59,1.06-8.41,1.3-1.46-.06-3.04.08-4.46-.29-.12-.23-.28-.45-.45-.64,3.05-1.52,6.5-2.5,9.98-2.6,1.42-.07,3.14-.18,4.64-.29.46-.04,1.06-.14,1.32-.57Z"/>
    <path class="cls-4" d="m298.57,154.15c6.36-.17,11.46,6.45,10.64,12.6-.03.75-.12,1.48-.26,2.21-.54.07-1.07.77-1.12,1.39-.19-.09-.35-.17-.47-.25-3.89-1.72-7.78-3.43-11.62-5.23.07-2.55.16-5.09.41-7.63.06-.81.13-1.61.21-2.42.7-.33,1.45-.59,2.2-.66Z"/>
    <path class="cls-6" d="m228.67,197.07c.07.39.14.78.23,1.16-7.65,5.44-17.48,6.34-26.52,7.77-4.13.71-8.33.33-12.51.01-2.54-.2-4.8-.3-7.08-1.48.04-.63.02-1.42-.08-2.17.67-.43.6-1.68.77-2.45.02-.15.05-.3.08-.47,2.77,1.33,5.8,1.44,8.89,1.66,7.41.32,14.7-.71,21.9-2.43,1.99-.54,4.05-.98,6.07-1.53.42-.11.84-.23,1.26-.36h.01s.01,0,.02,0c.01,0,.02,0,.04-.01.09-.02.17-.05.25-.08l.3-.09c.05-.02.11-.04.16-.05.14-.05.28-.09.42-.14.28-.09.56-.19.83-.29.16-.06.33-.12.49-.18.2-.08.41-.16.61-.24.05-.02.09-.04.13-.05.16-.07.33-.14.49-.21.2-.09.4-.18.6-.28.04-.02.09-.04.13-.07.11-.05.22-.11.33-.16.02,0,.03-.02.04-.02.03-.02.06-.03.09-.05h0c.16-.09.32-.18.48-.27.2-.11.39-.22.57-.34.05-.04.11-.07.16-.11h0c.06-.04.12-.09.17-.13,0,.04.01.08.02.12.04.23.09.47.13.71,0,0,0,0,0,0,0,.05.02.1.03.14.05.26.11.52.17.79.04.15.07.31.11.46.01.04.02.08.03.12,0,.04.02.07.02.11.04.21.09.41.12.62Z"/>
    <path class="cls-6" d="m226.02,190.25c2.81,1.31.96,2.78-2.51,4.11-.47.18-.98.36-1.51.54-.07.02-.14.05-.21.07-.09.03-.18.06-.27.09-.43.14-.88.28-1.34.41-.1.03-.21.06-.32.09-.03.01-.06.02-.09.03-.25.07-.52.15-.77.22-.14.04-.28.07-.42.11-.06.02-.12.04-.18.05-.14.04-.29.08-.45.12-.17.05-.35.09-.53.14-.07.02-.13.04-.2.05l-.5.13c-.12.03-.23.06-.35.09-.18.04-.35.09-.52.13-.51.12-1.01.24-1.51.36-.01,0-.03,0-.04,0-.13.03-.26.06-.39.09h0s-.07.02-.11.03l-.11.02h0c-3.23.73-5.95,1.21-6.64,1.31-6.79.9-13.97,1.63-20.72-.05.28-1.75.48-3.51.7-5.26-.03-.63.5-2.81.55-4.39,1.39,1.1,4.95,1.95,10.8,2.15,2.57-.05,5.23.05,7.88.03h.06c.41,0,.82-.01,1.23-.02h.08c.21,0,.42-.01.62-.02.51-.02,1.02-.05,1.52-.08,3.07-.21,6.08-.76,8.88-2.08.76-.53,1.3-1.07,1.66-1.59.55.87,1.14,1.71,1.71,2.56.21.3.41.61.61.92l.06.07c.63.71,1.71.21,1.89-.55,0,0,.02,0,.02,0,.11-.01.23-.02.35,0h0c.06,0,.12,0,.18.01.13,0,.26.02.38.03.09,0,.18,0,.26,0,.04.02.08.04.12.05s.07.04.11.05Z"/>
    <path class="cls-6" d="m195.9,189.08c1.36.46,2.32-1.22.98-1.91-1.14-.27-2.38-.35-3.54-.2-1.31-.7-1.93,1.33-.46,1.61.79.71,2.04.26,3.02.51Zm16.56-2.57c1.43-1.3-.38-3.23-1.95-3.1-.59-.4-1.62,0-2.23.2-1.89.48-3.93.3-5.75,1.01-1.23.47-1.44,1.71-.24,2.38,1.01.53,2.16.53,3.27.69,1.06.32,2.02-.29,3.06-.36,1.29,0,2.71-.12,3.84-.81Zm6.84-1.07c.04.07.08.15.13.22-.04.33-.2.71-.51,1.15-.91,1.03-2.33,1.55-3.64,1.87-1.86.48-3.73.74-5.64.89-.71.06-1.43.1-2.16.14-.01,0-.02,0-.04,0-.29-.22-.61-.27-.95-.07-.14-.01-.27.01-.38.12-.69.02-1.39.04-2.08.06-3.88.07-7.77,0-11.6-.69-1.42-.34-3.14-.54-4.27-1.59-.55-1.1,5.18-2.23,6.15-2.47,4.07-1.06,8.29-1.69,12.52-2.1.18-.02.35-.04.52-.05.52-.05,1.05-.1,1.57-.14,1.78-.15,3.56-.26,5.32-.36,1.1.72,3.98,1.11,4.91,2.29-.02.25.05.49.15.72Z"/>
    <path class="cls-6" d="m211.38,185.47c.02.17-.08.41-.23.54-.86.36-1.75.62-2.69.73-1.02.02-2-.36-3.04-.21-.79-.14-2.36-.15-2.86-.77,1.47-.4,2.98-.84,4.52-.96,1.47-.24,3.04-.25,4.3.68Z"/>
    <path class="cls-12" d="m226.47,202.18c-.82,5.04-1.24,10.12-1.75,15.21-.05.56-.11,1.12-.18,1.68-.18,1.68-.38,3.36-.61,5.04-.49,4.34-1.6,8.52-1.35,12.9-3.7,4.89-10.05,7.19-16.06,7.67-5.32.61-11.21-1.45-14.16-6.08.13-.27.16-.61.06-.98-1.01-3.52-2.02-7.03-2.94-10.57-.42-1.52-.86-3.03-1.29-4.54-.14-.48-.27-.96-.4-1.43-.27-.95-.52-1.9-.75-2.85-.7-3.15-1.01-6.45-2-9.53-.15-.35-.21-.75-.3-1.14,1.15.19,2.35.22,3.43.32,2.93.16,5.8.46,8.74.46,4.9,0,9.82-1.11,14.67-1.86,4.5-.96,10.41-1.89,14.9-4.3Z"/>
    <path class="cls-12" d="m413.49,215.67c.96,1.96,1.02,4.18,1.05,6.36-.43.49-.89.96-1.38,1.4-.01.01-.02.02-.04.03-.16.14-.31.28-.47.42-.04.04-.08.07-.12.11-.15.13-.3.25-.45.37-.2.16-.39.31-.6.46-.09.07-.18.14-.28.2-.15.11-.3.22-.46.33-2.69,1.87-5.77,3.29-8.72,4.51-4.48,1.55-9.39,2.42-14.11,3.24-.41.08-.71.45-.65.88.06.39.4.65.78.65,1.05-.11,2.09-.28,3.13-.46,2.36,12.02,4.29,24.19,5.29,36.41.96,11.43,1.62,23.06,2.73,34.53.39,4.99.96,10.26,1.59,15.29,0,1.43,1.36,3.16.07,4.34-.46.3-.95.54-1.46.75-.15.07-.31.12-.47.18-.07.02-.14.05-.21.07-.16.05-.32.11-.49.16,0,0-.01,0-.02,0-.2.06-.41.12-.62.17-.21.05-.42.1-.63.15-2.3.52-4.79.69-7,1.18-1.4-10.54-2.7-21.09-3.99-31.64-.57-4.68-1.15-9.36-1.72-14.05-.1-.8-.2-1.6-.29-2.4-1.48-12.3-2.82-24.61-3.46-36.97.16-.12.25-.3.23-.54-.08-.16-.18-.31-.28-.46,0-.09-.01-.18-.02-.28-.03-.64-.06-1.29-.09-1.93-.61.07-1.22.13-1.84.2-.02-.02-.05-.04-.07-.06-.1-.09-.2-.18-.29-.28-.02-.02-.04-.04-.06-.06-8.11-6.92-15.55-14.48-23.8-21.3-1.21-.98-2.44-1.96-3.67-2.93,7.43,0,14.86-.23,22.16-1.26-.06.1-.1.21-.13.33-.12,4.79,2.03,9.41,3.09,14.05.29.97,1.41.95,1.9.36,4.85.11,9.55-1.02,14.26-2.09,5.99-1.5,12.09-2.94,17.49-6.04.24-.19.68-.45,1.17-.76.6-.38,1.28-.81,1.8-1.27.05-.04.09-.08.14-.12.18-.17.34-.34.46-.51.33-.44.42-.88.09-1.29-.04-.05-.08-.09-.12-.12-.01-.42-.02-.84-.03-1.25.21.27.41.55.57.93Z"/>
    <path class="cls-7" d="m148.92,388.13c-.74-1.68-1.45-3.36-2.14-5.05-6.3-15.55-12.05-31.32-18.42-46.84-3.38-8.22-6.69-16.46-9.91-24.74-.22-9.27-.44-18.55-.46-27.83-.25-35.21.73-70.44.26-105.64,1.07,3.66,1.61,7.48,2.38,11.21,1.77,8.69,3.34,17.42,5.71,25.98,2.29,8.49,5.2,17,7.35,25.57,1.51,6.16,2.62,12.34,4.5,18.39.06.86.11,1.72.16,2.59.97,14.45,1.62,29,2.71,43.46,1.86,27.7,4.83,55.32,7.86,82.92Z"/>
    <path class="cls-7" d="m359.85,360.93c4.56-2.46,5.07-4.58-.09-6.58-7.36-1.48-15.04-.36-22.45.2-4.61.46-9.12,1.43-13.57,2.66,2.21-4.42,3.07-9.35,3.38-14.4,6.96-1.54,13.71-4.23,19.86-7.85,4.49-2.76,7.77-7.19,10.14-11.82,2.7-7.66,3.16-17.19-2.58-23.6-6.19-6.56-15.18-10.95-24.28-11.09-1.36.05-2.75.18-4.02.76-.14.08-.29.16-.42.27-.4-4.29-.98-8.57-2.59-12.59-.16-.4-.44-.91-.93-.93-.23,0-.43.07-.59.21-.49-.17-1.18.17-1.71.23-9.73,1.94-19.64,2.8-29.47,4.09-13.17,1.54-26.29,3.17-39.52,4.37-9.82.88-19.65,1.69-29.49,2.31-3.61.21-7.21.41-10.82.66-.69.14-3.64-.16-2.9,1.15.03.03.07.05.11.07-.37.45-.18,1.12-.09,1.65.12,1.29.04,2.56.02,3.85-.57,8.84-.15,17.69.86,26.48.73,6.38,1.37,12.93,3.39,19.06,3.67,10.75,11.57,19.98,21.42,25.61-1.97-.05-4.61.22-5.16.19-9.03.46-17.97,1.93-26.85,3.58-4.52,1.01-9.29,1.38-13.6,3.16-9.78,7.37,27.36,6.82,30.62,6.9,33.51-.39,67.13-2.57,100.17-8.39,7.26-1.26,14.51-2.63,21.71-4.2,6.61-1.5,13.39-2.85,19.44-6.01Zm33.88,10.35c.48,3.02.88,6.05,1.23,9.1-54.71,3.96-109.3,9.38-164.03,12.85-22.81,1.33-45.59,2.91-68.4,4.18-2.98.18-5.97.33-8.95.5-.46-.9-.91-1.7-1.11-2.18-.48-.95-.94-1.89-1.4-2.85-2.01-20.83-4.51-41.62-6.28-62.48-1.85-21.8-3.12-43.66-4.53-65.47-.06-.88-.12-1.75-.19-2.63.03,0,.05-.01.08-.02,1.36-.66-.11-2.59-.28-3.76.33-.03.66-.05.98-.08.76-.06,1.52-.12,2.29-.18.02,0,.03,0,.05,0,12.45-1.01,24.88-2.12,37.35-2.89,24.04-1.59,48.12-2.57,72.2-3.65,39.3-1.33,78.39-5.45,117.47-9.61,2.58-.25,5.15-.5,7.73-.76.09.07.18.14.27.2.37,12.33,1.61,24.66,3.03,36.95.09.8.18,1.61.28,2.41.51,4.34,1.03,8.68,1.54,13.01,1.41,11.34,2.85,22.66,4.37,33.98.08.61.16,1.22.25,1.84,1.87,13.88,3.87,27.73,6.06,41.57Z"/>
    <path class="cls-7" d="m336.98,299.4c5.59,2.39,9.26,8.04,7.92,14.19-1.62,8.53-8.41,15.24-15.34,20-.77.47-1.53.91-2.3,1.34-.02-3.16-.1-6.29-.03-9.3-.13-8.87-.13-17.74-.66-26.59,2.89-2.41,7.25-.94,10.41.36Z"/>
    <path class="cls-8" d="m351.85,218.5c8.28,6.66,15.66,14.48,23.95,21.14-40.9,4.48-81.84,8.67-122.98,10.34-33.43,1.68-66.82,2.93-100.18,5.89-3.27.29-6.54.57-9.82.86h0s0,0,0,0c-.77.07-1.54.13-2.32.2-.28.02-.55.05-.83.07-.05,0-.1,0-.15.01-3.06-12.06-5.88-24.2-9.74-36.04-2.5-8.13-4.48-16.45-6.04-24.82-.77-4.06-1.66-8.09-2.35-12.16-.48-2.98-.92-6.02-2.07-8.83,4.38-.21,8.71-.74,13.07-1.25.27,0,.53,0,.79,0,.64,0,1.29,0,1.94,0,.07.95.13,1.91.2,2.86.61.86,1.21,1.73,1.8,2.61,1.04,1.53,2.05,3.07,3.09,4.62,0,.01.01.02.02.03,0,0,0,0,0,0,0,0,0,.02.02.02,5.6,8.32,11.49,16.77,18.37,24.18-.03-.04-.07-.08-.1-.12,3.3,3.77,6.55,7.62,9.58,11.61.97,1.02,1.73,2.48,2.81,3.45.01.09.02.18.04.26-.18.07-.36.16-.5.29-.25.38.25.62.56.58.02,0,.04,0,.06,0,0,.03.01.07.02.1.05.34.37.59.71.54.34-.04.59-.37.54-.71,0-.02,0-.04,0-.06,4.36-.48,8.72-.94,13.09-1.38,1.33,5.23,2.79,10.43,4.25,15.63.15.49.45.78.81.92h0c1.48,3.12,5.49,5.61,8.45,6.52,8.59,2.34,18.76-.31,24.77-6.97.32.03.65-.07.89-.34.26-.38.37-.82.43-1.29.02-.14.03-.29.04-.44,0-.07.01-.14.02-.22s.01-.15.02-.22c0-.07.01-.14.02-.22.02-.22.04-.43.07-.64.06-.44.12-.88.18-1.32,0-.06.02-.12.03-.18.19-1.26.39-2.52.5-3.79.44-3.8.92-7.61,1.37-11.42,21.98-2.02,43.96-4.05,65.87-6.71.22.33.63.52,1.02.46.41-.09.66-.34.8-.69.05-.11.09-.23.11-.37.01-.05.02-.1.03-.15s.02-.1.02-.16c0-.02,0-.05,0-.07,4.27,1.11,8.61,1.92,12.98,2.47,7.76,1.36,15.67,1.09,23.53,1.08,5.07-.08,10.19,0,15.31.02,1.63,1.27,3.27,2.53,4.91,3.79Z"/>
    <path class="cls-8" d="m311.06,184.66c3.66,3.49,7.42,6.86,11.24,10.16-7.43.67-14.91,1.05-22.37.54,4.24-2.61,7.96-6.89,10.22-11.51.3.27.61.54.91.82Z"/>
    <path class="cls-8" d="m265.74,164.81c-.02.19-.04.38-.06.57-.05.3-.07.61-.08.93-.3.62-.68,1.46-1.04,2.41-1.28-1.24-2.57-2.46-3.88-3.65,1.69-.09,3.38-.18,5.05-.25Z"/>
    <path class="cls-8" d="m275.59,179.48c.11.15.21.31.32.46-.64-.61-1.28-1.23-1.91-1.85.19.02.38.04.56.05.28.45.75.82,1.03,1.34Z"/>
    <path class="cls-12" d="m409.22,163.42c.09,1.41.16,2.81.23,4.21-7.39.34-14.52,3.2-21.52,5.46-7.96,3.04-16.32,6.11-22.91,11.72-.47.5-2.17,1.95-2.5,3.02-11.98,3.56-24.57,5.27-36.97,6.66-.62-.55-1.24-1.1-1.85-1.65-3.05-2.7-6.09-5.46-9.13-8.21.04,0,.09.02.13.03,2.97.34,5.97.57,8.95.86,6.48.55,12.93,1.13,19.45,1.22,5.99,0,11.98-.12,17.96-.56.84-.19,2.93.23,2.8-1.25-.05-.21-.12-.37-.23-.49.05-.03.09-.06.14-.09.84-.56,1.64-1.17,2.45-1.77,1.62-1.19,3.24-2.39,4.88-3.55.36-.25.76-.52,1.16-.79,3.46-2.34,7.11-4.41,10.8-6.37.02,0,.17-.09.32-.17.36-.19.73-.38,1.09-.56,1.95-.98,3.93-1.86,5.95-2.7,1.82-.76,3.65-1.5,5.5-2.18.1-.04.21-.07.32-.11,2.36-.86,4.76-1.64,7.22-2.18,1-.21,2.16-.4,3.34-.5.8-.06,1.6-.08,2.4-.05Z"/>
    <path class="cls-12" d="m353.22,300.35c5.02,5.63,4.77,13.69,2.8,20.56-1.64,4.4-4.77,8.51-8.46,11.47-5.98,4.22-13.18,6.63-20.21,8.68-.05.01-.1.03-.15.04-.21.05-.42.1-.63.15-.12.03-.23.05-.35.07-.17.04-.34.07-.5.1s-.34.06-.51.09c-.64.11-1.29.22-1.92.35-.42.07-.71.48-.64.9.3.95,1.46.68,2.47.44,0,.12,0,.24-.02.36-.32,4.84-1.46,10.33-4.23,14.48-.02,0-.04,0-.06.02-.53.22-1.7.14-1.53.97.07.23.33.4.58.35.01,0,.02,0,.03,0-1.63,1.99-3.72,3.57-6.38,4.45-.14.05-.29.11-.44.16-.24-.18-.54-.26-.85-.18-8.72,1.88-17.59,3.52-26.5,4.57-2.28-.05-4.57-.12-6.85-.07-1.91-.08-3.95-.1-5.89-.05-.52,0-.94.48-.92.99.02.09.04.18.07.26-6.82.29-13.66.15-20.46-.57-19.64-1.4-36.21-17.02-39.45-36.38-1.91-12.02-3.05-24.23-2.39-36.42-.07-1.01.45-5.56-.49-6.97,2.22-.09,4.45-.15,6.66-.27,4.82-.26,9.63-.54,14.44-.94,11.66-.93,23.27-2.08,34.92-3.27,18.68-2.24,37.58-3.73,56.11-7.09.04,0,.07,0,.11-.02.11.35.28.7.38,1.04.38,1.05.72,2.09.98,3.18,1.18,5.81,1.46,11.74,1.99,17.67.53,12.14.8,24.29.46,36.44-.61.3-1.24.59-1.89.88-.38.17-.54.65-.36,1.02.19.54,1.07.38,2.2-.1h.02c.09-.05.18-.09.28-.14.2-.09.41-.2.63-.3.19-.09.38-.2.57-.3.14-.07.28-.15.43-.23,1.94-1.09,3.94-2.48,4.49-2.87,8.3-6.37,18.42-16.93,13.96-28.21-2.28-4.42-6.48-7.53-11.32-8.64-2.48-.61-5.75-1.33-7.94.31-.08-1.19-.17-2.38-.27-3.57-.09-1-.17-2-.26-3,.52.07,1.31-.29,1.75-.36,9.16-1.89,19.3,3.43,25.53,9.96Z"/>
    <path class="cls-12" d="m345.62,355.59c4.8.09,12.95-1.74,16.51,2.04-2.63,2.62-6.25,3.57-9.74,4.67-4.78,1.39-9.53,2.39-14.46,3.46-14.23,3.08-28.63,5.36-43.06,7.33-14.67,1.96-29.48,2.95-44.25,3.8-18.97.85-38.12,2.25-57.03-.04-11.86-1.95-3.94-4.01,2.36-5.05,10.04-1.93,20.11-3.46,30.31-4.39,2.78-.28,5.57-.39,8.36-.48.27-.02.63,0,.88-.14.22.12.45.23.68.34,8.06,3.66,17.23,4.55,26.04,4.79,8.7.26,17.39-.29,26-1.41,6.89.41,13.75-.93,20.39-2.73,4.21-1.3,8.68-2.54,11.95-5.72.91-1.08,1.7-2.2,2.39-3.37,7.5-1.44,15.02-2.93,22.68-3.09Z"/>
  </g>
</svg>