<?xml version="1.0" encoding="UTF-8"?>
<svg xmlns="http://www.w3.org/2000/svg" viewBox="0 0 1042.35 516.7">
  <defs>
    <style>
      .cls-1, .cls-2, .cls-3, .cls-4, .cls-5, .cls-6, .cls-7, .cls-8, .cls-9, .cls-10, .cls-11, .cls-12, .cls-13 {
        stroke-width: 0px;
      }

      .cls-2 {
        fill: #5bf092;
      }

      .cls-3 {
        fill: #76ef5b;
      }

      .cls-4 {
        fill: #6441ac;
      }

      .cls-5 {
        fill: #b598f0;
      }

      .cls-6 {
        fill: #b497f0;
      }

      .cls-7 {
        fill: #9981cb;
      }

      .cls-8 {
        fill: #8c5bef;
      }

      .cls-9 {
        fill: #8c5bf0;
      }

      .cls-10 {
        fill: #6b46b7;
      }

      .cls-11 {
        fill: #6541ac;
      }

      .cls-12 {
        fill: #7f7692;
      }

      .cls-13 {
        fill: #f0e35b;
      }
    </style>
  </defs>
  <g id="Vector_layer" data-name="Vector layer">
    <path class="cls-1" d="m353.07,394.39c-.05.88-.11,1.75-.18,2.63-1.24.16-2.48.31-3.71.46-8.75,1.07-17.52,1.96-26.3,2.75-56.75,4.97-113.3,11.96-170.1,16.39-28.32,2.02-56.61,5.79-85.04,5.77-11.19-.21-22.38-.8-33.56-1.13-1.15-.04-2.3-.07-3.45-.09-.13-.54-.26-1.05-.45-1.5-.11-.38-.21-.75-.31-1.13,1.16.04,2.33.11,3.47.13.46,0,.91.01,1.36,0,6.78.35,13.56.79,20.34,1.11,12.96.63,26.14.41,39.05-.5,81.2-6.05,162.08-15.59,243.11-23.45,4.04-.33,8.08-.64,12.11-1.05,1.22-.12,2.43-.25,3.65-.39Z"/>
    <path class="cls-1" d="m33.45,418.67c.25.86.5,1.73.74,2.59-1.15-.04-2.3-.07-3.45-.09-.13-.54-.26-1.05-.45-1.5-.11-.38-.21-.75-.31-1.13-1-3.58-1.97-7.16-2.94-10.75-6.34-23-10.16-46.66-10.65-70.51-.38-8.5-.7-17.01-.62-25.51.04-2.34.04-4.7.15-7.06.02-.37.04-.73.06-1.09.02-.39.05-.78.08-1.16.33-.07.66-.15.99-.22,0,0,0-.02,0-.03.04-.11.08-.22.12-.33.26-.62.67-1.3,1.18-2,.09-.12.19-.25.29-.38.13-.16.26-.33.39-.5.06-.08.13-.15.19-.23-.14,1.02-.25,2.04-.35,3.07-.05.47-.09.94-.12,1.41-.02.3-.05.6-.07.9-.78,11.07.36,22.27.79,33.33.86,17.34,2.83,34.85,6.46,51.78,1.68,8.21,3.89,16.31,6.09,24.4.46,1.68.94,3.35,1.42,5.02Z"/>
    <path class="cls-1" d="m346.35,285.55c6.43,31.01,8.66,62.88,7.46,94.5-.19,4.78-.42,9.56-.73,14.34-.05.88-.11,1.75-.18,2.63-1.24.16-2.47.32-3.71.46.08-.9.16-1.8.24-2.7.86-9.97,1.44-19.96,1.55-29.97.45-16.75-1.55-33.41-3.37-50.02-1.24-9.42-2.31-18.9-4.03-28.25-.06-.34-.12-.69-.19-1.03-.14-.76-.29-1.52-.45-2.28-.02-.09-.03-.18-.05-.26.98.01,1.95.02,2.93.04.18.85.36,1.7.54,2.54Z"/>
    <path class="cls-1" d="m346.35,285.55c-.61,0-1.21-.02-1.81-.02-.26,0-.53,0-.79,0-.12,0-.24,0-.36,0-.8,0-1.6-.02-2.4-.02-29.3-.27-58.61-.1-87.89,1.21-23.02,1.05-46.02,2.53-69.07,3.02-46.81,1.14-93.78,2.61-140.12,9.68-8.43,1.36-16.89,3.02-25.21,4.73-.93.19-1.85.38-2.77.57.02-.37.04-.73.06-1.09.02-.39.05-.78.08-1.16.33-.07.66-.15.99-.22.61-.14,1.22-.27,1.83-.4.49-.11.98-.21,1.48-.32,7.58-1.59,15.23-2.88,22.88-4.08,35.43-5.45,71.3-7.32,107.08-8.93,30.26-1.11,60.53-1.88,90.76-3.68,32.72-1.8,65.49-2.22,98.25-1.89,1.16.01,2.32.03,3.48.04.03,0,.06,0,.09,0,.98.01,1.95.02,2.93.04.18.85.36,1.7.54,2.54Z"/>
    <path class="cls-1" d="m343.75,285.52c.04.41,0,.75-.17,1.02-.06-.34-.12-.69-.19-1.03-.8,0-1.6-.02-2.4-.02-.39-.66-.71-1.38-1.16-1.92-.16-.21-.33-.43-.5-.64-9.4-12.18-21.21-22.43-33.09-32.03-.35-.28-.56-.61-.65-.95-.31-1.12.63-2.37,1.8-2.36.36,0,.73.12,1.1.39,7.14,5.4,13.86,11.32,20.05,17.79,1.44,1.68,11.16,11.45,14.27,17.2.05.09.1.18.14.26.46.88.75,1.66.81,2.29Z"/>
    <path class="cls-1" d="m79.8,257.87c.84-.06,1.68-.12,2.51-.18-.04.46-.32.91-.89,1.16-.95.41-1.89.82-2.83,1.26-9.23,4.21-18.03,9.43-26.37,15.18-7.85,5.31-15.53,10.91-22.66,17.16-3.15,2.74-6.06,5.76-8.91,8.81-.09.07-.18.16-.29.27-.45.46-1.02,1.21-1.6,1.72-.65.58-1.32.88-1.84.18-.05-.36,0-.75.14-1.18,0,0,0-.02,0-.03.04-.11.07-.22.12-.33.26-.62.67-1.3,1.18-2,.09-.12.19-.25.29-.38.13-.16.26-.33.39-.5.06-.08.13-.15.19-.23,2.12-2.55,5.11-5.2,6.36-6.51,6.26-5.93,13.16-11.14,20.23-16.05,8.48-6.02,17.14-11.53,26.31-16.22,1.2-.62,2.41-1.22,3.64-1.81,1.34-.11,2.69-.21,4.03-.31Z"/>
    <path class="cls-1" d="m107.96,255.94c0,.09,0,.18,0,.27,0,.27-.02.55-.03.82-.01.39-.03.79-.05,1.18-1.29.11-2.57.21-3.86.32-8.47.71-16.94,1.34-25.43,1.58-1.5.04-3,.07-4.51.09-.79.07-1.47-.02-1.95-.2,1.2-.62,2.41-1.22,3.64-1.81,1.34-.11,2.69-.21,4.03-.31.84-.06,1.68-.12,2.51-.18,7.23-.53,14.46-1.02,21.69-1.49,1.32-.09,2.64-.17,3.96-.26Z"/>
    <path class="cls-1" d="m296.42,238c-1.63.2-3.27.4-4.9.59-2.78.34-5.56.66-8.34.98-17.43,2.03-34.86,4.21-52.28,6.34-1.02.12-2.04.25-3.06.38-.1-.75-.2-1.49-.31-2.23l3.15-.39c18.81-2.3,37.61-4.66,56.42-7,.68-.08,1.36-.16,2.03-.24,1.59-.19,3.19-.38,4.78-.57.41.36.83.72,1.25,1.08.42.36.84.71,1.26,1.07Z"/>
    <path class="cls-1" d="m308.41,248.64c1.17,1.37.05,3.18-1.64,2.12-.41-.26-.8-.53-1.2-.81-2.96-2.1-5.6-4.68-8.52-6.84-1.87-1.48-3.74-2.95-5.54-4.51-.81-.7-1.61-1.42-2.39-2.16,1.59-.19,3.19-.38,4.78-.57.41.36.83.72,1.25,1.08.42.36.84.71,1.26,1.07,3.72,3.13,7.53,6.17,10.96,9.59.35.34.69.69,1.03,1.05Z"/>
    <path class="cls-1" d="m231.37,251.9c.59.07,1.14.55,1.02,1.26-4.73,17.29-18.52,21.18-34.24,24.62-18.31,3.44-37.05,4.61-55.66,4.33-10.58-.54-21.29-2.99-30.7-7.93-2.71-1.68-9-5.34-7.83-9.09.07-.22.16-.44.29-.66,1.18-.93,1.83.45,1.7,1.52,0,.54.25,1,.57,1.43.16.22.33.43.5.63,4.13,4.29,10.29,5.89,15.64,7.97,17.66,6.53,36.6,4.21,54.88,2.42,11.03-1.34,22.43-2.48,32.95-6.08,8.91-2.7,15.29-8.06,18.61-16.57.21-.53.41-1.08.59-1.64.18-.52.32-1.04.53-1.54.2-.53.7-.73,1.17-.66Z"/>
    <path class="cls-1" d="m396.09,133.67c.15,1.05-.72,1.88-1.66,1.92-.36.02-.74-.09-1.07-.34-3.05-2.21-5.96-4.66-9-6.91-.41-.3-.82-.6-1.23-.89-1.82-1.29-3.71-2.48-5.72-3.48-32.64-17.26-66.45-19-102.29-14.88-.51.05-1.02.12-1.53.18-.23.02-.45.05-.68.08-24.23,2.8-48.48,6.87-71.61,14.74-13.44,4.77-27.46,10.8-40.37,18.49-.19.11-.38.22-.57.34-23.24,13.95-42.78,33.32-48.69,60.46-.98,4.41-1.55,8.89-1.95,13.38,0,.11-.02.23-.03.35-.5,5.83-.71,11.68-1.14,17.44-.3,5.54-.66,11.08-.55,16.63.02,1.59,0,3.17-.04,4.75,0,.09,0,.18,0,.27,0,.27-.02.55-.03.82-.01.39-.03.79-.05,1.18-.08,1.76-.2,3.52-.35,5.27-.2,1.16-.2,3.18-1.02,3.9-.36.32-.88.39-1.64.02-.6-.62-.84-1.43-.9-2.3-.11-1.43.22-3.05.11-4.33-.02-.75-.04-1.49-.05-2.23-.01-.78-.02-1.55-.02-2.33-.02-3.88.04-7.76.12-11.64.32-16.45,1.16-33.27,6.77-48.89,8.95-24.83,28.86-44.29,51.72-56.76,17.77-10.12,36.87-17.75,56.59-22.92,23.44-6.09,47.54-9.57,71.69-11.23,29.26-2.04,59.19,2.46,85.7,15.34,5.06,2.22,9.7,5.27,14.06,8.64,1.21.9,2.41,1.82,3.58,2.78.41.34.82.69,1.22,1.04.34.3.58.66.64,1.11Z"/>
    <path class="cls-1" d="m472.35,223.44c.45.58.33,1.43-.25,1.88-.12.09-.25.19-.37.28-3.93,3-7.97,5.93-12.49,7.99-6.77,3.09-14.04,4.96-21.29,6.54-15.55,3.19-31.63,2.7-47.18-.36l-.81-.16c-4.09-.83-8.13-1.84-12.12-3-23.13-6.41-33.13-19.3-42.66-34.98-.32-.53-.64-1.06-.96-1.6-4.32-7.21-8.64-14.97-14.14-22.94-6.03-10.06-12.64-12.78-24.09-12.64-15,.25-30.39,3.53-42.82,12.13-10.84,7.39-19.75,17.48-22.16,30.67-1.66,7.73-2.11,15.59-1.68,23.44.02.28.04.55.05.83.19,3.01.51,6.01.94,9,.13,1.07.25,2.12.35,3.16.08.75.15,1.5.22,2.25.18,2,.32,3.96.47,5.98.04.47.07.94.1,1.41,0,1.14.37,3.08-1.25,3.2-.58-.04-.93-.35-1.14-.77-.34-.66-.35-1.62-.41-2.31-.16-1.55-.32-3.11-.52-4.65-.1-.83-.2-1.66-.31-2.48-.1-.75-.2-1.49-.31-2.23-.52-3.68-1.09-7.36-1.47-11.05-.04-.29-.06-.58-.09-.87-.06-.68-.12-1.35-.17-2.02-.51-9.28.7-18.7,3.15-27.65,1.82-5.29,4.6-10.11,8.04-14.45.16-.21.33-.41.5-.62,5.96-7.3,13.82-13.19,22.08-17.52,10.16-4.93,21.48-7.48,32.81-7.88.32-.02.64-.02.96-.03,3.09-.07,6.18,0,9.25.25,12.04,1.11,15.76,7.76,21.84,16.91,3.58,5.02,6.57,10.39,9.61,15.74.28.49.55.98.84,1.47,1.54,2.69,3.1,5.36,4.77,7.97,7.88,12.92,19.95,23.3,34.42,27.96,5.36,1.8,10.83,3.28,16.38,4.41.27.05.54.11.81.16,15.81,3.12,32.19,3.41,47.97.26,5.34-1.14,10.67-2.28,15.71-4.28,5.67-2.46,10.52-6.12,15.52-9.63.46-.33,1.06-.36,1.52-.09.14.08.26.19.36.33Z"/>
    <path class="cls-1" d="m575.9,121.2c.16.59-.19,1.22-.78,1.38-.62.16-1.24.32-1.86.49-4.9,1.3-9.75,2.77-14.56,4.38-3.27.95-6.55,1.88-9.84,2.81-.55.16-1.09.31-1.64.46-5.12,1.45-10.23,2.89-15.32,4.4-14.77,4.32-29.5,8.78-44.31,12.94-4.2,1.16-8.42,2.3-12.67,3.37-1.4.36-2.81.7-4.21,1.04-12.93,3.07-26.07,5.24-39.37,4.77-6.84-.25-13.65-1.39-19.52-4.38-.16-.08-.32-.17-.48-.25-3.6-1.91-6.82-4.54-9.45-8.1-2.36-3.07-5.59-5.56-7.44-8.91-.43-.77-.79-1.59-1.04-2.48-.14-.65.2-1.42.83-1.6.14-.04.29-.05.45-.03.79.11,1.09.92,1.43,1.53,2.55,4.41,6.41,7.72,9.59,11.59,5.6,7.29,14.93,9.56,23.69,10.04,19.02,1.16,37.65-3.56,55.8-8.52,22.02-6.3,43.81-13.32,65.88-19.45,7.75-2.34,15.68-4.05,23.46-6.27.14-.04.29-.05.42-.03.44.05.84.36.96.81Z"/>
    <path class="cls-1" d="m655.32,173.23c1.26,1.29,4.86,3.04,3.53,5.07-.41.48-.84.64-1.26.6-1-.08-1.97-1.28-2.73-1.89-.41-.36-.84-.71-1.26-1.06-2.46-2.02-5.07-3.88-7.9-5.34-2.5-1.34-5.37-2.24-8.54-2.75-.17-.03-.34-.05-.52-.08-20.48-3.07-52.9,9.2-76.51,19.13-.45.18-.89.37-1.33.56-6.73,2.84-12.7,5.46-17.39,7.43-18.44,7.88-36.72,16.1-55.14,24.02-3.5,1.51-6.98,3.05-10.41,4.73-1.38.52-2.71,1.55-4.15,1.95-.45.13-.92.19-1.39.15-1.03-.4-.17-1.4,1.64-2.64,4.63-3.17,15.43-7.93,16.52-8.47,1.86-.82,3.71-1.64,5.57-2.46.36-.16.72-.32,1.09-.48,12.45-5.46,24.96-10.8,37.38-16.35,10.05-4.26,20.07-8.71,30.19-12.91.38-.16.76-.32,1.14-.48,14.6-6.02,29.42-11.46,44.84-14.96,9.48-1.93,19.72-3.98,29.3-2.23.17.03.34.06.5.1,2.99.59,5.92,1.56,8.74,3.04,2.93,1.48,5.51,3.31,8.06,5.32Z"/>
    <path class="cls-1" d="m760.95,204.94c.25.81-.15,1.65-.8,2.09,0,0,0,0-.02.01-.01,0-.03.02-.04.03-.02.02-.04.03-.07.04-.04.02-.07.04-.11.06-.04.02-.08.04-.12.05-.03.02-.06.03-.09.04-.03,0-.06.02-.09.02-.02,0-.04.01-.05.02-.02,0-.05.01-.07.02-.04.01-.08.02-.12.02-.06,0-.12.01-.18.01-.42,0-.86-.16-1.25-.55-.31-.36-.62-.71-.93-1.07-.3-.34-.6-.69-.89-1.04-.8-.93-1.59-1.87-2.37-2.81-1.66-2-3.29-4.03-4.86-6.1-.69-.89-1.36-1.79-2.02-2.7-5.46-7.44-10.29-15.34-13.89-23.84-1.45-3.48-2.66-7.09-3.8-10.73-.23-.71-.45-1.43-.67-2.15-2.36-7.66-4.57-15.4-8.18-22.43-6.99-13.73-19.23-24.85-33.76-29.95-15.66-4.77-32.12-3.82-48.18-.66-.29.05-.59.11-.88.17-8.57,1.73-17.02,4.07-25.15,6.48-7.7,2.41-15.46,4.77-23.06,7.45-5.17,1.72-10.14,4.11-15.34,5.7-.22.04-.46.04-.67-.03-.26-.08-.47-.25-.54-.57.05-1.12,1.2-1.64,2.22-2.1.31-.14.6-.27.85-.41,12.19-5.13,24.77-9.24,37.42-13.05,22.38-6.62,46.4-12.21,69.66-7.27,16.66,4.11,31.05,15.78,39.29,30.73,7.51,13.02,9.29,28.5,16.15,41.8,4.09,7.88,9.04,15.3,14.5,22.29,2.57,3.34,5.31,6.54,7.85,9.89.14.18.23.37.29.56Z"/>
    <path class="cls-1" d="m756.83,203.31s0,.05,0,.08c0,.24-.06.48-.17.68-.13.25-.32.46-.56.61-.23.14-.5.23-.79.23-22.78-.07-41.52,6.18-60.35,18.83-5.26,3.41-16.95,13.1-18.25,21.01-.27,1.59-.11,3.11.61,4.49.34.54.71,1.03,1.11,1.47.03.1.06.21.09.31.05.17.1.34.16.5h0c.36,1.2.74,2.38,1.12,3.57.02.05.03.1.04.15,0,.03.01.06.02.09,0,.04.01.08.02.11-2.23-1.17-3.8-2.54-4.81-4.05-.04-.05-.07-.11-.11-.17-.91-1.43-1.34-2.98-1.37-4.61-.05-2.22.64-4.57,1.81-6.94,3.6-7.27,11.78-14.62,17.32-18.33,8.41-5.75,17.59-10.36,27.16-13.82,7.18-2.55,14.68-4.17,22.26-4.89,3.86-.4,7.72-.72,11.6-.76.53,0,1.05,0,1.58,0,.8,0,1.48.64,1.52,1.44Z"/>
    <path class="cls-1" d="m760.07,206.97s.04.05.06.07c-.01,0-.03.02-.04.03-.02.01-.04.03-.07.04-.04.02-.07.04-.11.06-.04.02-.08.04-.12.05-.03.02-.06.03-.09.04-.03,0-.06.02-.09.02-.02,0-.04.01-.05.02-.02,0-.05.01-.07.02-.04.01-.08.02-.12.02-.06,0-.12.01-.18.01-.42,0-.86-.16-1.25-.55-.31-.36-.62-.71-.93-1.07.29-.27.78-.29,1.27-.15.43.12.86.36,1.13.66.25.23.48.48.68.73Z"/>
    <path class="cls-1" d="m679.87,255.45c.04.6-.25,1.09-.68,1.39-.79.57-2.06.51-2.54-.65-.61-1.64-1.17-3.3-1.7-4.96-.48-1.53-.94-3.06-1.37-4.61-3.18-11.39-5.06-23.13-8.46-34.49-.45-1.58-.89-3.16-1.31-4.76-.09-.33-.18-.66-.27-.99-2.72-10.31-5.15-20.81-9.94-30.28,0-.05,0-.11,0-.16.02-.61.69-1.08,1.44-.67,1.16,1,1.92,2.28,2.55,3.62.48,1.03.88,2.1,1.33,3.12,1.39,3.48,2.5,7.05,3.59,10.64.81,2.71,1.63,5.43,2.46,8.14.13.45.27.89.4,1.34,3.37,11.16,6.68,22.36,9.14,33.76.02.07.03.14.05.2.14.64.29,1.27.44,1.91.13.56.27,1.11.4,1.67.42,1.7.86,3.39,1.32,5.07.54,2,1.12,3.98,1.72,5.96.03.1.06.21.09.31.05.17.1.33.15.5h0c.36,1.2.74,2.38,1.12,3.57.02.05.03.1.04.15,0,.03.01.06.02.09,0,.04.01.08.02.11Z"/>
    <path class="cls-1" d="m229.34,230.68c.02.28.04.55.05.83-1.1.52-2.21,1.02-3.34,1.5-6.05,2.55-12.48,4.41-18.87,5.86-10.85,1.75-21.93,2.27-32.9,2.15-22.14-.3-46.53-4.02-62.25-21.1-.5-.57-2.11-2.03-2.34-2.81-.04-.14-.04-.26.03-.35.06-.09.19-.14.38-.15,1.36,1.82,2.97,3.6,4.67,5.12,5.9,5.55,13,9.71,20.55,12.59,14.32,5.29,29.91,5.98,45.04,5.93,14.72,0,29.56-1.59,43.29-7.14.77-.31,1.54-.64,2.31-.96,1.13-.48,2.25-.97,3.38-1.46Z"/>
    <path class="cls-1" d="m238.78,188.15c.41.25.03.95-.41.66-.46-.27-.92-.53-1.38-.79-11.91-6.76-24.69-11.73-36.75-18.2-7.59-4.02-14.73-8.78-21.82-13.58-6.04-4.27-12.61-7.97-17.92-13.16-.04-.05-.08-.1-.12-.15-.13-.16-.25-.33-.24-.54.05-.27.42-.36.58-.13.07.12.15.23.23.33.3.39.65.72.99,1.05,5.17,4.46,11.02,8.02,16.63,11.89,8.65,5.89,17.51,11.51,26.92,16.11,8.96,4.7,18.45,8.45,27.37,13.19,1.55.84,3.1,1.69,4.63,2.57.43.25.87.5,1.3.75Z"/>
    <path class="cls-1" d="m294.29,142.87c1.16,6.38,1.06,12.95-.95,19.11-.08.25-.16.5-.25.75-.08.23-.33.38-.56.3-.23-.07-.37-.33-.3-.56.05-.15.1-.3.15-.45,1.24-3.71,1.93-7.67,1.74-11.55-.92-15.35-6.67-32.18-20-40.92-.17-.09-.34-.18-.52-.25-.84-.38-1.72-.61-2.64-.72-.12-.04-.2-.15-.22-.27.02-.84,1.2-.6,1.75-.46.91.36,1.79.78,2.64,1.27,10.97,6.21,17.21,22.15,19.16,33.77Z"/>
    <path class="cls-1" d="m384.65,127.33c.76.01,2.8-.34,2.61.73-.05.3-.46.41-.65.16-.75.02-1.5.06-2.24.12-25.54,2.03-42.57,27.06-47.75,50.43-1.27,5.75-1.88,11.68-1.75,17.57.04,1.77.14,3.53.32,5.28-.32-.53-.64-1.06-.96-1.6-.13-1.7-.19-3.42-.19-5.14-.02-23.75,11.8-48.91,31.98-61.38,5.18-3.2,11.05-5.39,17.13-6.04.5-.05,1.01-.09,1.51-.12Z"/>
    <path class="cls-1" d="m411.74,151.37c.34.38.1,1.02.08,1.48t0,0c-2.58,11.05-7.17,21.57-9.57,32.7-3.67,14.4-6.61,28.91-9.6,43.46-.52,2.6-.95,5.22-1.38,7.84-.16.97-.32,1.95-.48,2.92l-.81-.16c.13-.84.28-1.69.42-2.53.02-.13.04-.25.06-.38.61-3.69,1.3-7.37,2.12-11.02,1.64-8.27,3.28-16.52,5.16-24.73,2.4-10.3,5.02-20.57,8.25-30.65,1.78-5.88,4.27-11.61,5.35-17.68.02-.11.04-.21.06-.32.08-.28-.09-.61.02-.86.09-.11.24-.11.33-.05Z"/>
    <path class="cls-1" d="m488.09,158.12c10.02,8.25,13.99,21.46,13.3,34.09.17,6.09-1.83,11.82-4.84,17.04-.44.83-.9,1.65-1.4,2.45-.6.96-1.25,1.9-1.95,2.8-.11.14-.34.15-.47.04-.14-.12-.15-.33-.04-.48.48-.62.93-1.24,1.37-1.88.55-.8,1.08-1.62,1.57-2.48,2.03-3.51,3.01-7.48,4.08-11.37,1.51-9.68.68-20.16-3.77-28.98-4.48-8.46-14.71-18.16-24.91-16.95-.12.1-.24.11-.34.06-.23-.11-.34-.48,0-.62,1.16-.58,2.62-.66,4.22-.41,4.7.74,10.53,4.37,13.18,6.69Z"/>
    <path class="cls-1" d="m563.7,181.04c5.07-7.07,7.3-15.87,6.7-24.5-.77-14.29-14.04-28.07-28.87-25.66-.29.12-.48-.32-.2-.45.12-.22.44-.33.66-.4,2.42-.53,4.98-.13,7.38.33,8.85,1.92,15.97,8.78,19.65,16.86,4.19,10.41,2.35,22.72-3.47,32.15-1.61,2.64-3.42,5.16-5.4,7.54-.45.19-.89.38-1.33.56,1.77-2.04,3.37-4.2,4.88-6.43Z"/>
    <path class="cls-1" d="m646.31,127.89c.29,12.13-2.56,24.23-7.14,35.42-.21.52-.43,1.04-.66,1.56-.43,1-.88,2-1.35,2.98-.02.05-.04.09-.07.14-.06.12-.22.17-.34.11-.12-.07-.17-.21-.11-.33,0,0,0,0,0,0,.43-.89.84-1.8,1.22-2.68.05-.11.09-.21.13-.32,1.47-3.43,2.77-6.93,3.89-10.48,2.66-8.98,4.35-18.36,3.85-27.74-.66-8.1-2.24-17.19-8.27-23.09,0-.01-.02-.02-.03-.03-.82-.7-1.74-1-2.64-1.43-.41-1.39,1.96-.16,2.41.21.39.34.77.7,1.13,1.09,5.74,6.04,7.55,16.65,7.95,24.59Z"/>
    <path class="cls-1" d="m728.48,156.34c2.08,2.02,3.91,4.55,2.86,5.85-.46.14-.6-.42-.73-.73-.32-1.07-.82-2.06-1.45-2.96-1.67-2.37-4.27-4.13-6.85-5.3-11.84-4.47-25.12,1.94-33.7,10.19-9.13,9.32-16.26,20.61-21.12,32.69-.78,2-1.49,4.02-2.12,6.06-.51,1.65-.96,3.32-1.35,5.01-.02.11-.1.2-.2.23-.05.02-.1.02-.15,0-.16-.04-.26-.2-.23-.36.04-.21.08-.43.12-.64.37-1.89.85-3.75,1.41-5.58.44-1.45.93-2.89,1.45-4.33,2.74-7.11,6.59-13.82,10.62-20.26,5.5-8.13,11.89-16.2,20.66-20.93,8.16-4.39,18.66-6.61,27.08-1.75.81.34,2.31,1.46,3.7,2.81Z"/>
    <path class="cls-1" d="m746.85,193.07c3.32,1.62,6.69,3.66,5.11,4.87-.44.09-.77-.33-1.04-.61-.66-.56-1.34-1.08-2.05-1.56-3.29-2.22-7.11-3.66-10.78-5.1-19.96-8-36.61,1.92-47.86,18.52-4.2,6.43-7.86,13.11-11.3,19.95-1.46,2.96-2.71,5.86-3.94,8.87,0,.02-.01.04-.02.05-.11.25-.38.39-.64.3-.46-.11-.23-1.09.21-2.26.64-1.67,1.73-3.75,1.86-4.3,2.81-6.85,6.73-13.17,10.54-19.48,12.8-20.76,30.68-32.45,54.74-21.55.66.31,2.9,1.21,5.15,2.3Z"/>
    <path class="cls-1" d="m763.36,206.98c16.29,18.24-11.64,34.91-25.21,43.65-12.34,7.38-31.07,14.17-45.52,12.02-4.25-.99-9.64-2.81-13.43-5.81-1.89-1.5-3.39-3.3-4.13-5.45-.58-1.64-.71-3.49-.25-5.55,1.3-1.09,1.47,1.15,1.81,1.92.57,1.31,1.23,2.61,2.06,3.76h0c.77,1.09,1.69,2.05,2.82,2.8,7.19,5.11,16.04,6.54,24.61,5.16,9.08-1.07,18-3.61,25.8-8.3,7.06-3.95,13.97-8.58,20.19-13.7,8.33-6.52,18.95-17.31,10.71-28-.8-.92-1.71-1.71-2.66-2.45-.02-.02-.05-.04-.08-.06-.6-.47-1.21-.93-1.81-1.4-.43-.33-.87-.67-1.29-1.02-.16-.12-.26-.29-.3-.47-.05-.23-.02-.48.11-.68.02-.03.04-.05.05-.08.27-.35.79-.46,1.17-.21.99.61,2,1.19,2.95,1.85.86.6,1.68,1.25,2.4,2.03Z"/>
    <path class="cls-1" d="m517.62,362.54c1.89-6.1-4.36-10.56-9.43-12.3-1.51.35-3.13-.43-4.67-.5-6.48-.77-13-1.05-19.52-1.11-13.65-.06-27.59.77-40.61,5.08-9.02,3.14-21.33,9.97-25.09,19.14-.76,2.28-.88,4.77-.39,7.13.23,1.16.62,2.29,1.14,3.36.95,1.94,2.37,3.64,4.21,4.86,9.77,6.02,22.86,5.41,33.98,5.16,17.16-.8,34.14-5.84,48.44-15.41,5.54-3.62,10.79-8.61,11.95-15.4Zm2.45-5.02c.64,3.08.12,6.11-1.11,8.96-2.39,5.51-7.48,10.3-12.11,13.35-17.32,11.15-38.32,16.27-58.8,16.37-8.39-.09-17.34-.66-24.69-5-1.71-.95-3.17-2.22-4.34-3.7-1.43-1.8-2.43-3.9-2.95-6.12-.72-3.13-.46-6.5.97-9.55,4.56-9.78,18.02-17.19,27.84-20.71,18.1-6.19,37.86-6.01,56.67-4.41,7.09.06,15.59,2.96,18.28,10.11h0c.09.23.17.47.24.71Z"/>
    <path class="cls-1" d="m519.77,397.26c.06.07.12.14.18.21-.06,1.49-.12,2.97-.2,4.46-.02.45-.04.91-.07,1.36-.02.39,0,.9-.16,1.26-.05.11-.11.2-.18.27v-.02c.01-.09.02-.18.02-.27.01-.16.02-.3.03-.46,0-.08,0-.16,0-.24,0-.1,0-.2,0-.3v-.02h0s-.01-.08-.02-.12c-.04-.15-.05-.29-.05-.43,0-.1,0-.2.03-.29h0s0-.03,0-.04c0-.09-.01-.17-.02-.25,0-.04,0-.09-.02-.13,0-.08-.02-.16-.03-.25-.02-.12-.04-.25-.06-.37-.03-.15-.06-.3-.1-.44-.04-.14-.08-.29-.12-.42-.03-.1-.07-.2-.11-.3-.02-.06-.05-.12-.07-.18-.05-.11-.1-.21-.15-.32-.06-.13-.12-.25-.19-.38-.03-.06-.06-.12-.1-.18-.06-.11-.12-.21-.19-.31.04-1.08.08-2.16.12-3.24.08.06.16.12.23.18.08.06.15.12.23.18s.14.12.21.19c.06.06.12.11.19.17l.04.04.18.18c.13.14.26.27.38.41Z"/>
    <path class="cls-1" d="m520.05,356.53c.92-.66,1.74.45,1.65,1.35-1.03,10.2-1.21,20.44-1.47,30.68-.04,1.41-.07,2.81-.12,4.21h0c-.1.13-.19.25-.29.37-.66.84-1.21,1.48-1.46,1.74l-.02.02c.04-1.22.07-2.45.11-3.67.16-5.85.24-11.71.38-17.56.04-2.39.08-4.79.13-7.19.03-1.64.06-3.29.09-4.93.18-1.54-.15-3.42.77-4.73h0c.07-.1.14-.19.22-.28Z"/>
    <path class="cls-1" d="m420.59,408.41c.14.94.29,1.89.43,2.83l-.56-.39c-.16-.12-.32-.23-.48-.35-.17-.12-.34-.25-.51-.38-.1-.08-.2-.16-.3-.23-.07-.05-.13-.11-.2-.16-.09-.57-.16-1.14-.24-1.72,0-.04-.01-.08-.02-.12-.06-.46-.12-.92-.17-1.38-.01-.08-.02-.15-.03-.23-.71-6.06-1.02-12.17-1.64-18.23-.18-1.63-.39-3.25-.72-4.86-.09-.54-.18-1.21-.09-1.82.08-.49.28-.93.69-1.22.42-.28.81-.31,1.14-.18.74.28,1.22,1.33,1.15,2.18,0,.39-.02.79-.02,1.18-.02,1.39-.03,2.78-.02,4.17.03,5.38.28,10.77.94,16.11.18,1.6.39,3.2.63,4.8Z"/>
    <path class="cls-1" d="m520.23,388.56c-.04,1.41-.07,2.81-.12,4.21h0c-.1.13-.2.25-.29.37-.66.84-1.21,1.48-1.46,1.74l-.02.02c-.19.21-.38.42-.57.62-.47.52-.96,1.02-1.46,1.52-9.79,9.74-23.04,15.23-36.26,18.67-10.84,2.75-22.05,4.59-33.26,3.74-6.48-.36-12.81-1.7-18.69-4.31-.61-.27-1.22-.56-1.82-.86-.18-.09-.36-.18-.54-.27-.05-.02-.1-.05-.15-.08-.4-.2-.86-.45-1.35-.71-.15-.08-.3-.17-.45-.26-.07-.04-.14-.08-.22-.12-.81-.46-1.69-1-2.55-1.6l-.56-.39c-.08-.05-.16-.11-.24-.17-.08-.06-.16-.12-.24-.18-.09-.06-.17-.12-.25-.19h0c-.09-.07-.17-.13-.25-.2-.1-.08-.2-.16-.3-.23-.07-.05-.13-.11-.2-.16-.08-.57-.16-1.14-.24-1.72,0-.04-.01-.08-.02-.12-.06-.46-.12-.92-.17-1.38-.01-.08-.02-.15-.03-.23.15.22.31.42.5.6.5.54,1.03,1.04,1.57,1.52,1.27,1.12,2.62,2.08,4.05,2.91.26.15.52.29.78.43l.33.18c.25.13.5.25.75.38,6.81,3.3,14.94,4.08,22.38,4.82,8.7.62,17.29-.09,25.69-2.04,12.67-2.34,25.07-6.73,35.29-14.76,1.73-1.29,3.3-2.75,4.75-4.32.02-.02.04-.04.05-.06.2-.21.4-.43.59-.65.2-.21.38-.43.57-.65.02-.02.04-.05.06-.07.91-1.07,1.76-2.19,2.57-3.34.62-.87,1.21-1.76,1.78-2.67Z"/>
    <path class="cls-1" d="m425.38,412.51c.42.38.31.92.21,1.42-.04.18-.07.36-.09.52-.01.27,0,.55,0,.82,0,.24.02.48.02.72.02.79-1.02,1.21-1.55.64-.02-.02-.03-.04-.04-.06-.29-.43-.27-.96-.25-1.5.02-.34.04-.68,0-.98-.07-.38-.02-.79.11-1.13.07-.2.18-.37.31-.49.3-.3.74-.36,1.28.04Z"/>
    <path class="cls-1" d="m432.97,453.43h0s-.05-.04-.08-.06c-.16-.12-.32-.24-.47-.37-.47-.37-.92-.75-1.36-1.15-.29-.26-.57-.52-.85-.79-.29-.28-.57-.57-.85-.86-.22-1.19-.44-2.38-.66-3.57-.45-2.48-.89-4.95-1.35-7.43-.11-.6-.22-1.2-.33-1.79-.49-2.66-.98-5.31-1.49-7.96-.78-4.09-.89-8.28-1.55-12.38-.02-.16-.04-.33-.07-.49-.08-.5-.17-1-.25-1.5-.11-.71-.18-1.43-.12-2.14,0-.03,0-.06.02-.09.09-.52.33-.86.62-1.05.72-.45,1.79.07,1.98,1.31.04.39.07.79.11,1.18.08.86.17,1.71.26,2.56.71,6.73,1.68,13.4,3.29,20,.05.22.11.44.16.66.05.21.09.43.14.64.91,4.12,1.67,8.27,2.37,12.44.16.95.32,1.91.48,2.86Z"/>
    <path class="cls-1" d="m515.88,394.57c8.21,3.23,7.04,12.93,3.44,19.92-8.35,17.01-39.06,24.95-56.65,23.2-14.56-1.12-28.58-8.8-36.4-21.29-.77-1.43-2.52-2.82-2.1-4.57.13-.26.29-.43.48-.52.61.35,1.22.68,1.86.98,13.5,25.98,44.86,27.6,69.27,17.33,7.85-3.08,15.22-7.79,20.02-14.7,2.33-3.54,4.91-10.96,2.89-14.92-.93-1.93-2.36-3.19-4.06-4,.43-.47.86-.95,1.27-1.43Z"/>
    <path class="cls-1" d="m518.51,446.53c.43-8.7.66-17.41.69-26.12.41-5.71.94-11.3.18-17-.31-1.41.97-2.45,1.81-.91.89,3.72-.01,7.71.2,11.52.18,5.52.05,11.02.04,16.54.07,5.33.32,10.65.15,15.98-.03,1.98-3.06,2.02-3.07,0Z"/>
    <path class="cls-1" d="m424.34,438.74c.41.46.52,1.15.73,1.78-.4.29-.79.59-1.16.92-.11-.28-.2-.55-.29-.84-.11-.29-.22-.79-.21-1.23,0-.5.18-.91.72-.82.07.06.14.12.2.19Z"/>
    <path class="cls-1" d="m521.64,441.77c0,.93,0,1.85,0,2.78,0,.43-.02.85-.03,1.27-.73.71-1.49,1.4-2.27,2.06-1.23,1.06-2.5,2.06-3.81,3.01-.08.06-.16.11-.23.17-.28.2-.56.4-.84.59-.29.2-.58.4-.88.59-2.35,1.57-4.79,2.98-7.28,4.23-12.74,6.1-27.28,7.74-41.27,7.16h.07c-10.53-.82-23.29-3.46-32.12-10.21-.03-.02-.05-.04-.08-.06-.16-.12-.32-.24-.47-.37-.47-.38-.92-.76-1.36-1.15-.29-.26-.57-.52-.85-.79-.29-.28-.57-.57-.85-.86-.22-1.19-.44-2.38-.66-3.57,1.12,1.44,2.39,2.76,3.78,3.94.91.77,1.89,1.49,2.91,2.14,18.74,12.01,49.84,10.98,69.5,1.7,5.04-2.43,9.64-5.68,13.68-9.52,1.05-1,2.07-2.04,3.05-3.11Z"/>
    <path class="cls-1" d="m515.93,453.62c.08,1.05-.07,2.05-.4,2.99-.36,1.03-.91,2-1.59,2.89-.75.98-1.66,1.87-2.6,2.64-11.18,8.16-28.26,10.21-41.82,9.84-8.62-.23-17.25-.24-25.84-1.06-5.15-.5-10.51-1.19-15.17-3.53-3.98-1.86-7.77-5.2-9.93-9.19h0c-.74-1.37-1.28-2.82-1.57-4.3-.02-.09-.04-.17-.05-.26-.02-.12-.04-.25-.06-.38-.01-.08-.02-.17-.04-.25-.02-.16-.04-.32-.05-.48-.02-.15-.03-.31-.04-.46,0-.05,0-.1,0-.15,0-.15-.01-.31-.01-.46,0-.2,0-.4.02-.6,0-.1,0-.2.02-.3s.02-.2.03-.29c.03-.29.07-.59.12-.89.02-.1.03-.2.05-.3.18-.9.46-1.8.87-2.7,1.17-2.77,3.11-5.23,5.54-7.01.3-.22.61-.43.93-.63.85-.54,1.75-.98,2.7-1.34.7-.26,1.41-.47,2.14-.61.24-.07.46-.05.64.04.5.22.72.88.3,1.29-.07.07-.16.13-.26.18-.46.17-.93.29-1.39.45-.38.13-.75.27-1.11.44-.81.36-1.58.81-2.29,1.32-.4.29-.79.59-1.16.92-1.96,1.74-3.47,4-4.42,6.41-2.44,6.22,2.52,12.59,7.39,15.92,12.35,7.54,29.04,6.1,43.04,6.43,12-.03,24.36-1.47,35.31-6.64,3.84-2.04,8.83-4.61,9.05-9.51.14-.59-.32-1.22-.71-1.82-.52-.79-.95-1.52.2-2.06.62-.1,1.09.23,1.43.72.04.05.07.1.1.15.34.57.52,1.3.55,1.85.04.24.07.48.09.71Z"/>
    <path class="cls-1" d="m516.18,451.34c.26.37.03.96-.04,1.3-.05.31-.12.64-.2.98-.08.38-.17.75-.24,1.07-.05.64-.11,1.28-.16,1.92-.43,5.38-.77,10.77-1.26,16.14-.1,2.08-.32,4.16-.55,6.23-.04.36-.09.71-.12,1.07-.04.33-.07.66-.11.99-.05.42-.47.73-.88.67-.09-.02-.16-.04-.23-.08-.21-.11-.33-.3-.39-.55-.22-.91.34-2.51.27-3.23.63-5.65,1.01-11.34,1.52-16.99.04-.45.11-.91.18-1.36.36-2.39.96-4.82.59-7.21-.1-.22-.12-.44-.08-.64.09-.38.39-.66.75-.75.11-.03.21-.04.33-.02.24.03.47.17.65.45Z"/>
    <path class="cls-1" d="m418.73,459.96c-.02.75.79,10.07.68,15.39-.04,1.61-.15,2.86-.4,3.38-.18.37-.42.38-.74-.1-.05-.38-.1-.77-.14-1.15-.12-1.05-.22-2.09-.29-3.14-.17-2.54-.21-5.09-.24-7.64-.01-1.18-.02-2.35-.04-3.53-.05-3.1-.16-6.2-.54-9.26,0-.03,0-.06-.01-.09-.01-.06-.02-.12-.04-.18-.02-.12-.04-.25-.06-.38-.01-.08-.02-.17-.04-.25-.02-.16-.04-.32-.05-.48-.02-.15-.03-.31-.04-.46,0-.05,0-.1,0-.15,0-.15-.01-.31-.01-.46,0-.2,0-.4.02-.6,0-.1,0-.2.02-.3s.02-.2.03-.29c.03-.29.07-.59.12-.89.02-.1.04-.2.05-.3,1.35.49,1.04,2.57,1.09,3.77,0,1.76.3,3.57.49,5.35h0c.07.59.12,1.18.15,1.76Z"/>
    <path class="cls-1" d="m514.29,479.9c.02.14.02.28,0,.42,0,.07-.03.14-.05.2-.16.79-.23,1.66-.35,2.47-.5.3-1.02.58-1.54.85-3.56,1.88-7.43,3.24-11.18,4.5-12.94,4.83-26.81,6.89-40.6,6.54-10.14-.5-20.65-1.69-29.85-6.25-4.61-2.35-8.63-5.79-11.73-9.91-.3-.41-.6-.82-.89-1.25-.27-.39-.53-.79-.78-1.19-.25-.39-.4-.94-.18-1.38.14-.31.39-.5.67-.58.52-.15,1.16.11,1.43.66.05.12.1.24.15.36.22.57.41,1.14.8,1.62,13.62,18.18,47.52,17.05,67.7,13.09,6.92-1.45,13.83-3.63,20.1-6.77,1.37-.7,2.69-1.43,3.97-2.22.12-.07.24-.15.36-.23.42-.26.84-.53,1.25-.8.21-.14.42-.28.63-.43h0s.02.07.03.11c.02.05.03.11.04.16Z"/>
    <path class="cls-1" d="m514.29,479.9c.02.14.02.28,0,.42,0,.07-.03.14-.05.2-.16.79-.23,1.66-.35,2.47-.5.3-1.02.58-1.54.85-.03-.61,0-1.23-.01-1.82.02-.13.02-.26.02-.39,0-.26-.02-.52-.03-.78-.03-.68-.02-1.34.55-1.81.31-.18.59-.18.82-.06.23.12.41.36.51.64h0s.02.07.03.11c.02.05.03.11.04.16Z"/>
    <path class="cls-1" d="m414.52,423.35c1.51-.64,11.82-2.56,9.75.85-.46.38-1.2.27-1.77.25-2.4.07-4.76.68-7.1,1.16-13.01,3.83-25.8,10.97-33.23,22.59-3.11,5.34-7.27,14.35-.52,18.54,4.85,3.11,10.39,3.52,15.95,2.95,6.59-.87,13.21-2.56,18.75-6.27.4-.27.81-.34,1.19-.26,1.23.24,2.07,1.99.82,2.99-.26.18-.52.36-.78.54-7.34,4.92-16.45,7.19-25.22,6.48-4.93-.52-11.21-2.42-14.61-6.25-1.86-2.09-2.85-4.76-2.28-8.1.05-.5.12-1.01.2-1.5,1.12-6.8,5.23-12.84,10.15-17.55,8.14-7.49,18.11-13.18,28.68-16.42Z"/>
    <path class="cls-1" d="m422.3,422.68c1.16-.27,1,1.61-.1,1.14-.48-.24-.42-.99.1-1.14Z"/>
    <path class="cls-1" d="m418.72,407.89c.82.03,1.8.64,1.26,1.53-.21.27-.5.4-.81.47-.48.11-1.04.07-1.51.15-14.05,1.81-28,7.25-38.45,16.99-2.41,2.29-4.69,4.71-6.54,7.48-.2.29-.41.59-.61.88-.44.64-.87,1.29-1.29,1.95-.22.34-.64.48-1.03.41-.14-.02-.28-.08-.4-.16-.47-.34-.55-.95-.25-1.42.14-.23.29-.45.44-.67.19-.29.39-.57.59-.86.77-1.11,1.59-2.18,2.43-3.24,10.3-13.01,29.58-21.7,45.88-23.47.09-.02.19-.02.29-.02Z"/>
    <path class="cls-1" d="m377.91,466.35c.04.2-.02.41-.14.57-.09.12-.21.21-.36.26-.38.12-.79-.09-.92-.47-2.43-7.37-3.68-15.16-5.04-22.75-.42-2.13-1.15-4.15-1.7-6.23-.07-.28-.14-.57-.21-.85-.08-.46-.12-.96,0-1.41.07-.24.18-.47.36-.67.07-.08.14-.14.22-.19.69-.46,1.63.01,1.94.77.02.05.04.09.05.14,1.24,7.26,2,14.6,3.57,21.8.33,1.53.7,3.06,1.12,4.57.39,1.5.79,2.95,1.09,4.46Z"/>
    <path class="cls-1" d="m1022.12,432.79c4.48-10.04-1.74-16.28-9.9-19.45-2.36-.91-4.88-1.57-7.35-2-.38-.07-.76-.12-1.13-.18-2.66-.45-5.33-.8-8-1.06-4-.4-8.02-.6-12.03-.67-8.18-.14-16.38.29-24.55.86-1.13.08-2.26.16-3.39.25-3.11.23-6.22.46-9.32.69-6.78.51-13.55.97-20.33,1.41-.74.05-1.48.09-2.22.14-6.82.43-13.64.84-20.47,1.25-7.93.53-15.87,1-23.8,1.43-.78.04-1.56.09-2.34.13-15.57.82-31.15,1.52-46.72,2.26-.67.03-1.33.06-2,.09-6.02.29-12.03.59-18.04.91-2.27.12-4.53.24-6.8.37-5.31.29-10.61.61-15.92.95-.84.05-1.69.11-2.54.16h-.2c-18.25,1.22-36.52,1.69-54.8,2.31-.88.03-1.77.06-2.65.09-.11,0-.21,0-.32.01-.4.01-.8.03-1.2.04-12.88.46-25.75,1.02-38.61,2-.51.04-1.01.08-1.52.12-.5.04-1.01.08-1.52.12-12.09.94-24.18,1.98-36.28,2.91-1.37.11-2.75.21-4.12.32-6.45.48-12.9.93-19.35,1.3-7.28.39-14.51,1.02-21.74,1.73-5.06.5-10.12,1.03-15.19,1.55-2.7.27-5.4.54-8.11.79-.23,2.28-4.8.52-6.33.47-2.04.13-4.09.27-6.09.45-1.13.1-2.26.25-3.37.46-.88.15-2,.34-2.67-.39-1-1.98,2.24-2.15,3.52-2.17-7.17-.72-16.55,3.08-18.82,10.33-1.15,7.5,3.08,15.62,10.01,18.79,8.89,4.04,18.78,3.42,28.29,3.39,1.53-.04,3.05-.09,4.58-.16,3.87-.16,7.74-.39,11.61-.66.93-.06,1.86-.13,2.79-.2,2.34-.18,4.67-.37,7-.57.29-.02.57-.05.86-.07.41-.04.82-.07,1.23-.11,4.67-.4,9.33-.83,14-1.23,20.3-1.08,40.63-1.76,60.95-2.7,7.34-.34,14.68-.71,22.02-1.15l1.01-.06c25.98-1.16,51.94-2.74,77.92-3.93,1.89-.09,3.78-.17,5.67-.25.45.2.91.39,1.38.56.11.04.23.08.34.12s.23.08.34.11c.11.04.23.08.34.11.23.07.46.14.7.2.58.16,1.17.29,1.77.4.1.02.2.04.3.05.2.04.39.07.59.09.15.02.29.04.44.06.03,0,.07,0,.1.01.17.02.35.04.52.06.15.02.31.03.46.04,1.45.12,2.88.1,4.23-.05.25-.02.5-.05.75-.09.3-.04.59-.08.89-.12.16-.02.31-.05.46-.07.84-.14,1.67-.32,2.5-.54.15-.04.3-.08.45-.12.15-.04.3-.08.46-.13.18-.05.36-.11.53-.16.2-.06.39-.12.59-.19.2-.07.39-.13.59-.21.16-.06.33-.12.49-.18.25-.09.49-.19.73-.29.17-.07.34-.14.51-.21.19-.08.38-.17.57-.25,0,0,0,0,0,0h0c1.83-.06,3.66-.11,5.48-.16,13.38-.38,26.77-.55,40.17-.42,13.41.05,26.84.43,40.25.96,4.3.17,8.61.36,12.91.55,6.22.29,12.43.59,18.64.9,15.96.49,32.89,1.04,48.97-1.64,2.39-.39,4.76-.86,7.11-1.41,5.26-1.23,10.39-2.88,15.34-5.05,1.54-.67,3.06-1.4,4.57-2.18,1.37-.78,2.77-1.59,4.15-2.45,3.87-2.44,7.52-5.33,9.68-9.36Zm-1.22-16.82c3.56,3.22,5.93,7.62,5.1,12.59-.21,2.14-.8,4.08-1.66,5.86-3.52,7.23-11.74,11.72-18.8,15.23-12.95,6.2-27.47,7.95-41.65,8.85-19.09,1.06-38.32-.62-57.38-1.45-31.15-1.58-62.29-1.39-93.42-.42-6.39.2-12.78.43-19.17.7-32.56,1.32-65.11,3.3-97.65,4.81-23.08,1.08-46.16,1.76-69.24,2.75-18.09.99-36.15,3.1-54.3,2.75-8.66.09-18.36-.97-24.5-7.75-6.95-7.71-7.82-20.46,1.56-26.68,1.36-1.02,2.77-1.8,4.2-2.37,2.65-1.06,5.39-1.43,8.19-1.38,4.51.07,9.13,1.21,13.65,2.22,8.43-.62,16.86-1.26,25.27-2.1,28.57-2.16,57.11-4.8,85.63-7.04,13.58-.96,27.19-1.52,40.8-2.01.75-.03,1.5-.05,2.25-.08,13.88-.49,27.77-.93,41.64-1.66,14.65-.77,29.29-1.73,43.95-2.55,39.25-1.91,78.52-3.41,117.71-6.2,7.39-.5,14.8-1.15,22.23-1.68,1.11-.08,2.22-.16,3.33-.23,9.06-.6,18.14-.98,27.18-.68,5.43.18,10.84.61,16.24,1.38,1.72.29,3.45.58,5.16.94,2.41.51,4.8,1.14,7.09,2.05,2.34.96,4.65,2.38,6.59,4.14Z"/>
    <path class="cls-1" d="m554.3,431.76c-2.15-1.99,6.27-4.65,7.53-5.64,3.9-2.06,7.75-4.24,11.59-6.41,7.31-4.13,14.46-8.52,21.75-12.68,2.41-1.38,4.8-2.76,7.25-4.07.43-.23.88-.32,1.36-.2,1.47.32,1.83,2.49.49,3.23-3.63,1.96-7.24,3.97-10.8,6.06-9.17,5.4-18.26,10.94-27.79,15.69-2.74,1.35-5.46,2.79-8.32,3.87-.95.3-2.15.78-3.06.15Z"/>
    <path class="cls-1" d="m608.34,404.56c-1.28-.13-2.77-.09-3.76-1-.68-1.32,1.02-1.37,1.96-1.36,27.69.33,55.37-.57,83.03-1.93,19.24-1.2,38.42-3.23,57.67-4.37,18.82-1.21,37.68-1.71,56.53-2.39,53.68-2.93,107.64-3.91,161.2-8.61,5.47-.56,10.95-1.07,16.45-1.38,1.01-.07,1.88.82,1.9,1.8.04,1-.81,1.89-1.8,1.9-4.47.32-8.58.78-12.99,1.08-70.36,5.44-140.94,7.11-211.43,9.99-23.13.93-46.17,3.28-69.28,4.52-26.47,1.22-52.98,2.09-79.48,1.73Z"/>
    <path class="cls-1" d="m1023.15,434.49c-.64-.47-.3-1.2.02-1.75,2.72-4.87,1.91-11.01-1.25-15.48-4.57-6.09-11.35-9.94-17.28-14.56-3.38-2.48-6.83-5.29-10.27-7.58-4.62-2.86-9.23-5.85-14.22-8.03-.74-.32-2.11-.91-1.6-1.95,1.36-3.66,17.29,7.26,19.79,8.76,6.52,4.57,12.91,9.32,19.17,14.24,6.06,4.49,11.59,11.07,10.77,19.08-.06,1.85-.63,3.84-1.91,5.18-.61.72-1.34,1.33-2,1.99-.33.33-.85.38-1.23.1Z"/>
    <path class="cls-1" d="m588.96,464.87c-5.17-1.71-9.45-6.34-8.94-12.05.62-7.61,4.81-15.83,11.93-19.18-1.3-.02-3.29,1.07-4.12-.3-.21-.51-.01-1.11.46-1.39,8.5-3.96,22.71-.2,27.34,8.18,3.43,7.27,1.72,16.5-4.06,22.07-5.96,5.53-15.36,5.31-22.61,2.67Zm12.56-.71c10.16-.69,14.56-13.52,11.45-22.08-1.57-4.69-6.76-7.04-11.27-7.87.25,1.03-.39,1.4-1.31,1.3-2.77-.23-5.68-.11-8.21,1.17-5.28,3.03-8.17,9.71-9.07,15.5-.69,9.51,11,11.99,18.41,11.99Z"/>
    <path class="cls-1" d="m610.77,463.03c-.96-3.07,13.15-15.3,15.82-18.08,5.85-5.57,11.64-11.21,17.5-16.77.93-.92,2.28-2.5,3.59-1.25,1.14,1.17-.06,2.46-1.03,3.24-1,.96-1.98,1.91-2.98,2.87-4.41,4.24-8.91,8.39-13.34,12.62-4.53,4.34-9.14,8.61-13.54,13.09-1.34,1.45-2.76,2.81-4.23,4.14-.45.51-1.37.85-1.8.14Z"/>
    <path class="cls-1" d="m692.85,460.87c-6.97-1.4-14.8-4.95-16.93-12.33-1.81-5.83,1.36-12.23,6.02-15.78,5.91-4.82,21.27-6.25,28.48-4.11,4.8,1.03,10.46,3.75,11.48,9.02.99,6.87-3.04,13.5-8.3,17.54-5.77,4.56-13.41,7.17-20.74,5.66Zm5.93-2.56c10.48-.46,21.87-10.57,19.35-21.58-1.76-3.47-5.94-4.38-8.8-6.51-1.65-.19-3.38-.44-4.98-.55-6.79-.19-16.5.55-21.78,5.01-13.6,13.18,2.45,24.3,16.35,23.61,0,0-.14.01-.14.01Z"/>
    <path class="cls-1" d="m675.48,440.65c-1.46-2.38,8.24-14.33,9.97-17.15.38-.53,1.18-.6,1.68-.21.53.41.59,1.14.21,1.68-1.07,1.5-2.22,2.93-3.3,4.43-1.89,2.55-3.65,5.18-5.25,7.91-.71.92-1.77,4.59-3.3,3.35Z"/>
    <path class="cls-1" d="m720.12,443.61c-.62-1.99.43-4.08.78-6.05,1.13-4.71,2.45-9.39,4.32-13.87.45-1.13,2.19-1.14,2.63,0,.37,1.07-.55,2.24-.77,3.2-.64,1.89-1.23,3.79-1.77,5.71-.59,1.51-2.84,13.47-5.2,11.02Z"/>
    <path class="cls-1" d="m801.89,458.47c-12.27.53-22.64-8.95-17.66-21.43,2.51-7.14,7.78-14.03,15.21-16.37,9.91-4.83,23.35-.26,29.14,8.97,4.49,7.62-.57,16.65-6.52,21.84-5.45,4.85-12.99,6.99-20.17,6.99Zm3.41-2.83c7.94-.8,16.14-4.81,20.08-11.98-.03.06-.05.1-.07.15,7.06-13.31-6.85-23.14-19.28-21.9-.09,1.58-1.79.6-2.71.5-2.46.03-4.92.81-6.92,2.24-6.09,4.14-10.77,11.83-10.45,19.3,1.02,8.97,11.43,12.58,19.35,11.69Z"/>
    <path class="cls-1" d="m784.7,436.85c-.09-.03-.15-.09-.17-.18-.79-.96-.34-2.32-.26-3.44.29-3.15.53-6.34.75-9.5.05-.88.11-1.55.17-2.4.09-.67-.1-1.48.43-2,.74-.79,2.19-.2,2.15.89-.22,3.17.02,15.32-2.83,16.55-.06.06-.16.09-.25.07Z"/>
    <path class="cls-1" d="m905.9,454.36c-10.48-.98-23.59-7.79-22.93-19.86.63-12.41,10.78-20.6,23-19.44.7-1.6,3.94-.1,5.27.05,4.51,1.2,8.98,3.02,12.83,5.65,10.51,6.38,11.52,18.69,2.75,27.07-5.56,5.15-13.51,7.05-20.92,6.53Zm5.18-3.68c8.21-.65,16.71-5.83,18.25-14.37,1.31-8.99-8.64-14.92-15.77-17.8.08,1.6-1.76.7-2.57.4-3.08-1.12-6.37-1.54-9.64-1.21-8.13.25-14.14,6.49-15.76,14.2-1.5,6.04,2.1,11.06,6.97,14.25,5.39,3.67,12.16,4.83,18.51,4.53Z"/>
    <path class="cls-1" d="m884.72,442.29c-.75-.3-1.05-1.17-1.3-1.87-3.03-7.54-5.21-15.37-6.66-23.36-.16-.86.47-1.72,1.28-1.95.94-.26,1.91.31,2.18,1.23.54,2.05.98,4.12,1.5,6.18,1.26,4.98,2.81,9.88,3.91,14.9.29,1.37,1.68,5.24-.9,4.86Z"/>
    <path class="cls-1" d="m987.25,454.31c-7.79-.3-15.27-4.79-19.59-11.22-3.93-6.62-3.13-15.38.3-22.04,3.75-7.8,12.41-12.05,20.82-12.19-2.17-.22-4.35-.16-6.5.23-.47.08-.6-.69-.1-.75,10.63-3.05,23.78-2.36,31.48,6.53,7.3,7.9,4.65,20.46-1.8,28-5.83,7.37-15.16,11.93-24.61,11.45Zm2.75-2.42c9.03.08,16.6-6.34,21.38-13.49,10.35-15.69-.37-29.51-17.93-29.14.98.3,3.78.99,3.1,2.39-.2.25-.5.31-.76.22-1.23-.14-2.46-.37-3.7-.44-8.74-.69-18.61,2.74-22.54,11.09-3.29,6.48-3.26,15.08,1.48,20.83,4.95,5.07,11.84,8.6,18.98,8.53Z"/>
    <path class="cls-1" d="m961.12,418.66c.35-.51,1.05.22.52.54-.34.24-.79-.21-.52-.54Z"/>
    <path class="cls-1" d="m964.63,427.63c.55,2.11,4.7,9.95,1.48,10.5-3.1.16-9.24-21.52-10.81-29.75,1.11-.08,2.21-.16,3.32-.23h0c.36,1.55.74,3.09,1.17,4.62,1.42,5.02,3.05,9.97,4.83,14.87Z"/>
    <path class="cls-1" d="m829.25,432.92c-1.11-.58-.82-2.02-.74-3.05.22-3.83.27-7.71,0-11.54-.17-1.35,1.86-1.63,2.06-.28.13,1.08.22,2.02.29,2.98.23,2.76,0,5.51-.12,8.27-.09,1.21.53,4.04-1.49,3.62Z"/>
    <path class="cls-1" d="m724.81,426.46c-.19-.07-.21-.3-.1-.44,0-.13.05-.27.08-.35.22-.63.62-1.21.84-1.81.6-1.33.87-3.31,2.62-3.55.53-.01,1.49-.36,1.59.4-.01.75-1.26.65-1.8.75-.7.39-.76,1.44-1.09,2.09-.46.98-1.01,2.03-1.82,2.74,0,0,0,0,0,0-.04.14-.19.22-.33.17Z"/>
    <path class="cls-1" d="m724.98,427.31c-.99-1.58,1.33-3.24,2.27-4.24.73-.66,1.58-2,2.63-1.12,1.11,1.14-.63,2.11-1.12,3.08-.9,1.08-2.19,3.57-3.79,2.28Z"/>
    <path class="cls-1" d="m931.77,435.05c-1.65-5.37-2.41-11.09-4.51-16.33-.8-2.01-1.87-3.91-3.18-5.63-.18-.25-.4-.55-.4-.88,1.83-4.1,6.3,8.68,6.46,10.13.04,1.09,4.23,14.71,1.63,12.71Z"/>
  </g>
  <g id="Vector_layer-2" data-name="Vector layer">
    <path class="cls-3" d="m197.75,344.7s0,0,.03.02c-.5-.18-.32-.92.2-.69.54.19.3.98-.23.67Z"/>
    <path class="cls-3" d="m214.25,345.27c0-.21.18-.39.39-.39s.39.18.39.39-.18.39-.39.39-.39-.18-.39-.39Z"/>
    <path class="cls-3" d="m255.41,350.75c-.06-.45.35-.69.52-.27.01.04.04.07.06.11.24.45-.56.67-.58.16Z"/>
    <path class="cls-3" d="m254.54,339.28c0-.22.18-.4.4-.4s.4.18.4.4-.18.4-.4.4-.4-.18-.4-.4Z"/>
    <path class="cls-3" d="m347.61,314.8c1.82,16.62,3.82,33.27,3.37,50.02-.11,10.01-.69,20-1.55,29.97-4.03.41-8.07.72-12.11,1.05-81.03,7.86-161.91,17.4-243.11,23.45-12.91.91-26.09,1.13-39.05.5-6.78-.32-13.55-.76-20.34-1.11-.45.01-.9,0-1.36,0-.48-1.67-.96-3.34-1.42-5.02-2.2-8.09-4.41-16.19-6.09-24.4-3.62-16.93-5.6-34.44-6.46-51.78-.43-11.06-1.57-22.27-.79-33.33,8.32-1.71,16.79-3.38,25.21-4.73,46.35-7.08,93.32-8.54,140.12-9.68,23.04-.49,46.05-1.97,69.07-3.02,29.27-1.31,58.59-1.48,87.89-1.21.8,0,1.6.01,2.4.02.07.34.13.68.19,1.03,1.71,9.35,2.79,18.83,4.03,28.25Z"/>
    <path class="cls-3" d="m339.32,282.93c-32.76-.33-65.53.09-98.25,1.89-30.23,1.8-60.5,2.57-90.76,3.68-35.77,1.61-71.65,3.48-107.08,8.93-7.65,1.2-15.29,2.49-22.88,4.08.1-.11.2-.2.29-.27,2.86-3.05,5.76-6.07,8.91-8.81,7.13-6.26,14.81-11.85,22.66-17.16,8.34-5.75,17.13-10.96,26.37-15.18,8.49-.23,16.96-.87,25.43-1.58.01.75.03,1.49.05,2.23.11,1.28-.22,2.9-.11,4.33-1.16,3.75,5.12,7.41,7.83,9.09,9.41,4.94,20.12,7.39,30.7,7.93,18.61.28,37.34-.89,55.66-4.33,15.73-3.45,29.51-7.34,34.24-24.62.13-.71-.42-1.19-1.02-1.26-.14-2.01-.29-3.98-.47-5.98,17.43-2.14,34.85-4.31,52.28-6.34,2.78-.32,5.56-.64,8.34-.98,1.8,1.56,3.67,3.04,5.54,4.51,2.92,2.16,5.55,4.74,8.52,6.84.09.34.3.67.65.95,11.88,9.6,23.69,19.86,33.09,32.03Z"/>
    <path class="cls-3" d="m228.66,253.43c.07.69.08,1.65.41,2.31-3.31,8.51-9.69,13.87-18.61,16.57-10.52,3.59-21.92,4.73-32.95,6.08-18.28,1.79-37.22,4.11-54.88-2.42-5.35-2.07-11.51-3.68-15.64-7.97-.17-.2-.34-.41-.5-.63.82-.72.83-2.74,1.02-3.9.15-1.75.27-3.51.35-5.27.02-.39.04-.79.05-1.18.01-.27.02-.55.03-.82,0-.09,0-.18,0-.27.04-1.59.06-3.17.04-4.75-.11-5.55.25-11.09.55-16.63.43-5.77.64-11.61,1.14-17.44.23.78,1.83,2.24,2.34,2.81,15.72,17.07,40.11,20.8,62.25,21.1,10.97.12,22.05-.41,32.9-2.15,6.39-1.44,12.82-3.3,18.87-5.86.38,3.69.95,7.37,1.47,11.05.11.75.21,1.49.31,2.23.11.82.21,1.65.31,2.48.19,1.55.36,3.1.52,4.65Z"/>
    <path class="cls-3" d="m236.99,188.02c-3.45,4.34-6.22,9.16-8.04,14.45-2.45,8.95-3.66,18.38-3.15,27.65.05.68.11,1.35.17,2.02-.77.33-1.54.65-2.31.96-13.72,5.56-28.56,7.14-43.29,7.14-15.13.05-30.72-.64-45.04-5.93-7.55-2.88-14.65-7.03-20.55-12.59-1.7-1.52-3.3-3.3-4.67-5.12-.19.02-.32.07-.38.15.4-4.49.97-8.97,1.95-13.38,5.91-27.14,25.45-46.5,48.69-60.46.04.05.08.1.12.15,5.31,5.19,11.88,8.89,17.92,13.16,7.09,4.8,14.24,9.57,21.82,13.58,12.06,6.47,24.84,11.44,36.75,18.2Z"/>
    <path class="cls-3" d="m294.12,150.45c.19,3.88-.5,7.84-1.74,11.55-11.33.4-22.66,2.95-32.81,7.88-8.27,4.33-16.12,10.21-22.08,17.52-1.53-.88-3.08-1.73-4.63-2.57-8.93-4.74-18.41-8.5-27.37-13.19-9.41-4.6-18.27-10.22-26.92-16.11-5.61-3.88-11.46-7.43-16.63-11.89-.34-.33-.69-.66-.99-1.05,12.91-7.69,26.93-13.71,40.37-18.49,23.13-7.88,47.38-11.95,71.61-14.74.23-.03.45-.05.68-.08.18.07.35.16.52.25,13.34,8.75,19.09,25.57,20,40.92Z"/>
    <path class="cls-3" d="m377.42,123.97c2.01,1,3.89,2.2,5.72,3.48-6.08.64-11.95,2.84-17.13,6.04-20.18,12.47-31.99,37.64-31.98,61.38-3.04-5.35-6.02-10.72-9.61-15.74-6.08-9.15-9.8-15.8-21.84-16.91-3.07-.24-6.16-.32-9.25-.25,2-6.15,2.11-12.73.95-19.11-1.95-11.62-8.18-27.57-19.16-33.77,35.84-4.12,69.66-2.39,102.29,14.88Z"/>
    <path class="cls-3" d="m411.33,152.6c-1.07,6.07-3.57,11.8-5.35,17.68-3.22,10.08-5.84,20.35-8.25,30.65-1.88,8.21-3.53,16.47-5.16,24.73-.82,3.65-1.51,7.33-2.12,11.02-5.55-1.13-11.03-2.61-16.38-4.41-14.47-4.66-26.54-15.04-34.42-27.96-1.67-2.61-3.23-5.29-4.77-7.97-.13-5.89.48-11.82,1.75-17.57,5.18-23.37,22.21-48.39,47.75-50.43,3.04,2.24,5.95,4.7,9,6.91.33.26.7.36,1.07.34,1.85,3.35,5.08,5.84,7.44,8.91,2.63,3.56,5.85,6.19,9.45,8.1Z"/>
    <path class="cls-3" d="m495.95,169.35c4.46,8.82,5.28,19.29,3.77,28.98-1.07,3.89-2.05,7.86-4.08,11.37-.49.85-1.01,1.67-1.57,2.48-1.86.82-3.71,1.64-5.57,2.46-1.09.54-11.89,5.3-16.52,8.47-.46-.28-1.06-.24-1.52.09-5.01,3.51-9.85,7.16-15.52,9.63-5.04,2-10.37,3.14-15.71,4.28-15.79,3.15-32.16,2.86-47.97-.26.43-2.62.87-5.24,1.38-7.84,2.98-14.54,5.93-29.05,9.6-43.46,2.4-11.12,7-21.64,9.57-32.7,5.87,2.99,12.68,4.14,19.52,4.38,13.3.47,26.44-1.71,39.37-4.77.1.05.22.04.34-.06,10.19-1.21,20.43,8.49,24.91,16.95Z"/>
    <path class="cls-3" d="m570.39,156.53c.6,8.63-1.62,17.43-6.7,24.5-.32.47-.64.94-.97,1.4-10.12,4.19-20.14,8.64-30.19,12.91-12.42,5.55-24.93,10.89-37.38,16.35.5-.8.96-1.61,1.4-2.45,3-5.22,5.01-10.96,4.84-17.04.68-12.63-3.29-25.84-13.3-34.09-2.65-2.32-8.48-5.95-13.18-6.69,4.25-1.07,8.47-2.21,12.67-3.37,14.81-4.16,29.54-8.62,44.31-12.94,5.09-1.51,10.21-2.95,15.32-4.4,12.39,1.34,22.51,13.39,23.18,25.81Z"/>
    <path class="cls-3" d="m645.75,126.56c.5,9.38-1.19,18.76-3.85,27.74-1.11,3.55-2.42,7.05-3.89,10.48-9.59-1.75-19.83.3-29.3,2.23-15.43,3.5-30.24,8.95-44.84,14.96.59-.85,1.14-1.72,1.68-2.6,5.82-9.43,7.66-21.75,3.47-32.15-3.68-8.08-10.8-14.94-19.65-16.86-.17-.03-.34-.06-.51-.1,3.28-.93,6.56-1.86,9.84-2.81,4.81-1.61,9.66-3.08,14.56-4.38.21.06.45.06.67.03,5.2-1.59,10.18-3.97,15.34-5.7,7.61-2.68,15.37-5.04,23.06-7.45,8.14-2.41,16.58-4.75,25.15-6.48,6.02,5.9,7.6,14.99,8.27,23.09Z"/>
    <path class="cls-3" d="m728.48,156.34c-1.39-1.35-2.89-2.46-3.7-2.81-8.43-4.86-18.93-2.65-27.08,1.75-8.77,4.73-15.17,12.8-20.66,20.93-4.04,6.44-7.88,13.15-10.62,20.26-.52,1.43-1.01,2.88-1.45,4.33-.82-2.71-1.64-5.43-2.46-8.14-1.09-3.58-2.2-7.16-3.59-10.64-.45-1.02-.85-2.09-1.33-3.12.42.04.84-.12,1.26-.6,1.33-2.03-2.27-3.78-3.53-5.07-2.55-2.02-5.12-3.84-8.06-5.32-2.82-1.47-5.75-2.45-8.74-3.04.23-.52.44-1.04.66-1.56,4.57-11.19,7.43-23.29,7.14-35.42-.4-7.95-2.21-18.55-7.95-24.59,16.05-3.16,32.52-4.11,48.18.66,14.53,5.11,26.77,16.22,33.76,29.95,3.61,7.04,5.82,14.77,8.18,22.43Z"/>
    <path class="cls-3" d="m746.85,193.07c-2.25-1.09-4.49-1.99-5.15-2.3-24.05-10.89-41.94.79-54.74,21.55-3.8,6.31-7.73,12.64-10.54,19.48-.14.55-1.23,2.62-1.86,4.3-.02-.07-.03-.14-.05-.2-2.46-11.41-5.77-22.6-9.14-33.76.63-2.04,1.34-4.06,2.12-6.06,4.86-12.08,11.99-23.38,21.12-32.69,8.57-8.25,21.86-14.66,33.7-10.19,2.58,1.16,5.18,2.93,6.85,5.3,1.14,3.64,2.36,7.25,3.8,10.73,3.61,8.5,8.43,16.4,13.89,23.84Z"/>
    <path class="cls-3" d="m748.87,195.77c1.58,2.07,3.21,4.1,4.86,6.1-3.88.04-7.74.36-11.6.76-7.59.73-15.08,2.34-22.26,4.89-9.57,3.46-18.76,8.07-27.16,13.82-5.54,3.71-13.72,11.06-17.32,18.33-.13-.55-.27-1.11-.4-1.67,1.23-3.01,2.48-5.91,3.94-8.87,3.44-6.85,7.09-13.53,11.3-19.95,11.25-16.61,27.9-26.53,47.86-18.52,3.67,1.45,7.49,2.88,10.78,5.1Z"/>
    <path class="cls-3" d="m762.81,209.48c8.24,10.69-2.38,21.48-10.71,28-6.22,5.12-13.13,9.75-20.19,13.7-7.8,4.69-16.72,7.22-25.8,8.3-8.57,1.38-17.42-.05-24.61-5.16-1.13-.75-2.04-1.71-2.82-2.79h0c-.05-.17-.11-.34-.16-.51-.03-.1-.06-.21-.09-.31-.6-1.98-1.18-3.97-1.72-5.96,1.3-7.91,12.98-17.59,18.25-21.01,18.83-12.66,37.57-18.9,60.35-18.83.29,0,.56-.08.79-.23.29.35.59.7.89,1.04l.93,1.07c.4.39.84.55,1.25.55.06,0,.12,0,.18-.01.04,0,.08-.01.12-.02.03,0,.05,0,.07-.02.02,0,.04,0,.05-.02.03,0,.06-.02.09-.02.03-.01.06-.02.09-.04.04-.01.08-.03.12-.05.04-.02.08-.04.11-.06.02-.01.05-.02.07-.04.02,0,.03-.02.04-.03,0,0,.01,0,.02-.01.94.75,1.85,1.54,2.66,2.45Z"/>
    <path class="cls-8" d="m347.61,314.8c1.82,16.62,3.82,33.27,3.37,50.02-.11,10.01-.69,20-1.55,29.97-4.03.41-8.07.72-12.11,1.05-81.03,7.86-161.91,17.4-243.11,23.45-12.91.91-26.09,1.13-39.05.5-6.78-.32-13.55-.76-20.34-1.11-.45.01-.9,0-1.36,0-.48-1.67-.96-3.34-1.42-5.02-2.2-8.09-4.41-16.19-6.09-24.4-3.62-16.93-5.6-34.44-6.46-51.78-.43-11.06-1.57-22.27-.79-33.33,8.32-1.71,16.79-3.38,25.21-4.73,46.35-7.08,93.32-8.54,140.12-9.68,23.04-.49,46.05-1.97,69.07-3.02,29.27-1.31,58.59-1.48,87.89-1.21.8,0,1.6.01,2.4.02.07.34.13.68.19,1.03,1.71,9.35,2.79,18.83,4.03,28.25Z"/>
    <path class="cls-8" d="m228.66,253.43c.07.69.08,1.65.41,2.31-3.31,8.51-9.69,13.87-18.61,16.57-10.52,3.59-21.92,4.73-32.95,6.08-18.28,1.79-37.22,4.11-54.88-2.42-5.35-2.07-11.51-3.68-15.64-7.97-.17-.2-.34-.41-.5-.63.82-.72.83-2.74,1.02-3.9.15-1.75.27-3.51.35-5.27.02-.39.04-.79.05-1.18.01-.27.02-.55.03-.82,0-.09,0-.18,0-.27.04-1.59.06-3.17.04-4.75-.11-5.55.25-11.09.55-16.63.43-5.77.64-11.61,1.14-17.44.23.78,1.83,2.24,2.34,2.81,15.72,17.07,40.11,20.8,62.25,21.1,10.97.12,22.05-.41,32.9-2.15,6.39-1.44,12.82-3.3,18.87-5.86.38,3.69.95,7.37,1.47,11.05.11.75.21,1.49.31,2.23.11.82.21,1.65.31,2.48.19,1.55.36,3.1.52,4.65Z"/>
    <path class="cls-8" d="m236.99,188.02c-3.45,4.34-6.22,9.16-8.04,14.45-2.45,8.95-3.66,18.38-3.15,27.65.05.68.11,1.35.17,2.02-.77.33-1.54.65-2.31.96-13.72,5.56-28.56,7.14-43.29,7.14-15.13.05-30.72-.64-45.04-5.93-7.55-2.88-14.65-7.03-20.55-12.59-1.7-1.52-3.3-3.3-4.67-5.12-.19.02-.32.07-.38.15.4-4.49.97-8.97,1.95-13.38,5.91-27.14,25.45-46.5,48.69-60.46.04.05.08.1.12.15,5.31,5.19,11.88,8.89,17.92,13.16,7.09,4.8,14.24,9.57,21.82,13.58,12.06,6.47,24.84,11.44,36.75,18.2Z"/>
    <path class="cls-8" d="m294.12,150.45c.19,3.88-.5,7.84-1.74,11.55-11.33.4-22.66,2.95-32.81,7.88-8.27,4.33-16.12,10.21-22.08,17.52-1.53-.88-3.08-1.73-4.63-2.57-8.93-4.74-18.41-8.5-27.37-13.19-9.41-4.6-18.27-10.22-26.92-16.11-5.61-3.88-11.46-7.43-16.63-11.89-.34-.33-.69-.66-.99-1.05,12.91-7.69,26.93-13.71,40.37-18.49,23.13-7.88,47.38-11.95,71.61-14.74.23-.03.45-.05.68-.08.18.07.35.16.52.25,13.34,8.75,19.09,25.57,20,40.92Z"/>
    <path class="cls-8" d="m377.42,123.97c2.01,1,3.89,2.2,5.72,3.48-6.08.64-11.95,2.84-17.13,6.04-20.18,12.47-31.99,37.64-31.98,61.38-3.04-5.35-6.02-10.72-9.61-15.74-6.08-9.15-9.8-15.8-21.84-16.91-3.07-.24-6.16-.32-9.25-.25,2-6.15,2.11-12.73.95-19.11-1.95-11.62-8.18-27.57-19.16-33.77,35.84-4.12,69.66-2.39,102.29,14.88Z"/>
    <path class="cls-8" d="m411.33,152.6c-1.07,6.07-3.57,11.8-5.35,17.68-3.22,10.08-5.84,20.35-8.25,30.65-1.88,8.21-3.53,16.47-5.16,24.73-.82,3.65-1.51,7.33-2.12,11.02-5.55-1.13-11.03-2.61-16.38-4.41-14.47-4.66-26.54-15.04-34.42-27.96-1.67-2.61-3.23-5.29-4.77-7.97-.13-5.89.48-11.82,1.75-17.57,5.18-23.37,22.21-48.39,47.75-50.43,3.04,2.24,5.95,4.7,9,6.91.33.26.7.36,1.07.34,1.85,3.35,5.08,5.84,7.44,8.91,2.63,3.56,5.85,6.19,9.45,8.1Z"/>
    <path class="cls-8" d="m495.95,169.35c4.46,8.82,5.28,19.29,3.77,28.98-1.07,3.89-2.05,7.86-4.08,11.37-.49.85-1.01,1.67-1.57,2.48-1.86.82-3.71,1.64-5.57,2.46-1.09.54-11.89,5.3-16.52,8.47-.46-.28-1.06-.24-1.52.09-5.01,3.51-9.85,7.16-15.52,9.63-5.04,2-10.37,3.14-15.71,4.28-15.79,3.15-32.16,2.86-47.97-.26.43-2.62.87-5.24,1.38-7.84,2.98-14.54,5.93-29.05,9.6-43.46,2.4-11.12,7-21.64,9.57-32.7,5.87,2.99,12.68,4.14,19.52,4.38,13.3.47,26.44-1.71,39.37-4.77.1.05.22.04.34-.06,10.19-1.21,20.43,8.49,24.91,16.95Z"/>
    <path class="cls-8" d="m570.39,156.53c.6,8.63-1.62,17.43-6.7,24.5-.32.47-.64.94-.97,1.4-10.12,4.19-20.14,8.64-30.19,12.91-12.42,5.55-24.93,10.89-37.38,16.35.5-.8.96-1.61,1.4-2.45,3-5.22,5.01-10.96,4.84-17.04.68-12.63-3.29-25.84-13.3-34.09-2.65-2.32-8.48-5.95-13.18-6.69,4.25-1.07,8.47-2.21,12.67-3.37,14.81-4.16,29.54-8.62,44.31-12.94,5.09-1.51,10.21-2.95,15.32-4.4,12.39,1.34,22.51,13.39,23.18,25.81Z"/>
    <path class="cls-8" d="m645.75,126.56c.5,9.38-1.19,18.76-3.85,27.74-1.11,3.55-2.42,7.05-3.89,10.48-9.59-1.75-19.83.3-29.3,2.23-15.43,3.5-30.24,8.95-44.84,14.96.59-.85,1.14-1.72,1.68-2.6,5.82-9.43,7.66-21.75,3.47-32.15-3.68-8.08-10.8-14.94-19.65-16.86-.17-.03-.34-.06-.51-.1,3.28-.93,6.56-1.86,9.84-2.81,4.81-1.61,9.66-3.08,14.56-4.38.21.06.45.06.67.03,5.2-1.59,10.18-3.97,15.34-5.7,7.61-2.68,15.37-5.04,23.06-7.45,8.14-2.41,16.58-4.75,25.15-6.48,6.02,5.9,7.6,14.99,8.27,23.09Z"/>
    <path class="cls-8" d="m728.48,156.34c-1.39-1.35-2.89-2.46-3.7-2.81-8.43-4.86-18.93-2.65-27.08,1.75-8.77,4.73-15.17,12.8-20.66,20.93-4.04,6.44-7.88,13.15-10.62,20.26-.52,1.43-1.01,2.88-1.45,4.33-.82-2.71-1.64-5.43-2.46-8.14-1.09-3.58-2.2-7.16-3.59-10.64-.45-1.02-.85-2.09-1.33-3.12.42.04.84-.12,1.26-.6,1.33-2.03-2.27-3.78-3.53-5.07-2.55-2.02-5.12-3.84-8.06-5.32-2.82-1.47-5.75-2.45-8.74-3.04.23-.52.44-1.04.66-1.56,4.57-11.19,7.43-23.29,7.14-35.42-.4-7.95-2.21-18.55-7.95-24.59,16.05-3.16,32.52-4.11,48.18.66,14.53,5.11,26.77,16.22,33.76,29.95,3.61,7.04,5.82,14.77,8.18,22.43Z"/>
    <path class="cls-8" d="m746.85,193.07c-2.25-1.09-4.49-1.99-5.15-2.3-24.05-10.89-41.94.79-54.74,21.55-3.8,6.31-7.73,12.64-10.54,19.48-.14.55-1.23,2.62-1.86,4.3-.02-.07-.03-.14-.05-.2-2.46-11.41-5.77-22.6-9.14-33.76.63-2.04,1.34-4.06,2.12-6.06,4.86-12.08,11.99-23.38,21.12-32.69,8.57-8.25,21.86-14.66,33.7-10.19,2.58,1.16,5.18,2.93,6.85,5.3,1.14,3.64,2.36,7.25,3.8,10.73,3.61,8.5,8.43,16.4,13.89,23.84Z"/>
    <path class="cls-4" d="m762.81,209.48c8.24,10.69-2.38,21.48-10.71,28-6.22,5.12-13.13,9.75-20.19,13.7-7.8,4.69-16.72,7.22-25.8,8.3-8.57,1.38-17.42-.05-24.61-5.16-1.13-.75-2.04-1.71-2.82-2.79h0c-.05-.17-.11-.34-.16-.51-.03-.1-.06-.21-.09-.31-.6-1.98-1.18-3.97-1.72-5.96,1.3-7.91,12.98-17.59,18.25-21.01,18.83-12.66,37.57-18.9,60.35-18.83.29,0,.56-.08.79-.23.29.35.59.7.89,1.04l.93,1.07c.4.39.84.55,1.25.55.06,0,.12,0,.18-.01.04,0,.08-.01.12-.02.03,0,.05,0,.07-.02.02,0,.04,0,.05-.02.03,0,.06-.02.09-.02.03-.01.06-.02.09-.04.04-.01.08-.03.12-.05.04-.02.08-.04.11-.06.02-.01.05-.02.07-.04.02,0,.03-.02.04-.03,0,0,.01,0,.02-.01.94.75,1.85,1.54,2.66,2.45Z"/>
    <path class="cls-9" d="m748.87,195.77c1.58,2.07,3.21,4.1,4.86,6.1-3.88.04-7.74.36-11.6.76-7.59.73-15.08,2.34-22.26,4.89-9.57,3.46-18.76,8.07-27.16,13.82-5.54,3.71-13.72,11.06-17.32,18.33-.13-.55-.27-1.11-.4-1.67,1.23-3.01,2.48-5.91,3.94-8.87,3.44-6.85,7.09-13.53,11.3-19.95,11.25-16.61,27.9-26.53,47.86-18.52,3.67,1.45,7.49,2.88,10.78,5.1Z"/>
    <path class="cls-9" d="m339.32,282.93c-32.76-.33-65.53.09-98.25,1.89-30.23,1.8-60.5,2.57-90.76,3.68-35.77,1.61-71.65,3.48-107.08,8.93-7.65,1.2-15.29,2.49-22.88,4.08.1-.11.2-.2.29-.27,2.86-3.05,5.76-6.07,8.91-8.81,7.13-6.26,14.81-11.85,22.66-17.16,8.34-5.75,17.13-10.96,26.37-15.18,8.49-.23,16.96-.87,25.43-1.58.01.75.03,1.49.05,2.23.11,1.28-.22,2.9-.11,4.33-1.16,3.75,5.12,7.41,7.83,9.09,9.41,4.94,20.12,7.39,30.7,7.93,18.61.28,37.34-.89,55.66-4.33,15.73-3.45,29.51-7.34,34.24-24.62.13-.71-.42-1.19-1.02-1.26-.14-2.01-.29-3.98-.47-5.98,17.43-2.14,34.85-4.31,52.28-6.34,2.78-.32,5.56-.64,8.34-.98,1.8,1.56,3.67,3.04,5.54,4.51,2.92,2.16,5.55,4.74,8.52,6.84.09.34.3.67.65.95,11.88,9.6,23.69,19.86,33.09,32.03Z"/>
    <path class="cls-10" d="m339.32,282.93c-32.76-.33-65.53.09-98.25,1.89-30.23,1.8-60.5,2.57-90.76,3.68-35.77,1.61-71.65,3.48-107.08,8.93-7.65,1.2-15.29,2.49-22.88,4.08.1-.11.2-.2.29-.27,2.86-3.05,5.76-6.07,8.91-8.81,7.13-6.26,14.81-11.85,22.66-17.16,8.34-5.75,17.13-10.96,26.37-15.18,8.49-.23,16.96-.87,25.43-1.58.01.75.03,1.49.05,2.23.11,1.28-.22,2.9-.11,4.33-1.16,3.75,5.12,7.41,7.83,9.09,9.41,4.94,20.12,7.39,30.7,7.93,18.61.28,37.34-.89,55.66-4.33,15.73-3.45,29.51-7.34,34.24-24.62.13-.71-.42-1.19-1.02-1.26-.14-2.01-.29-3.98-.47-5.98,17.43-2.14,34.85-4.31,52.28-6.34,2.78-.32,5.56-.64,8.34-.98,1.8,1.56,3.67,3.04,5.54,4.51,2.92,2.16,5.55,4.74,8.52,6.84.09.34.3.67.65.95,11.88,9.6,23.69,19.86,33.09,32.03Z"/>
    <path class="cls-11" d="m339.32,282.93c-32.76-.33-65.53.09-98.25,1.89-30.23,1.8-60.5,2.57-90.76,3.68-35.77,1.61-71.65,3.48-107.08,8.93-7.65,1.2-15.29,2.49-22.88,4.08.1-.11.2-.2.29-.27,2.86-3.05,5.76-6.07,8.91-8.81,7.13-6.26,14.81-11.85,22.66-17.16,8.34-5.75,17.13-10.96,26.37-15.18,8.49-.23,16.96-.87,25.43-1.58.01.75.03,1.49.05,2.23.11,1.28-.22,2.9-.11,4.33-1.16,3.75,5.12,7.41,7.83,9.09,9.41,4.94,20.12,7.39,30.7,7.93,18.61.28,37.34-.89,55.66-4.33,15.73-3.45,29.51-7.34,34.24-24.62.13-.71-.42-1.19-1.02-1.26-.14-2.01-.29-3.98-.47-5.98,17.43-2.14,34.85-4.31,52.28-6.34,2.78-.32,5.56-.64,8.34-.98,1.8,1.56,3.67,3.04,5.54,4.51,2.92,2.16,5.55,4.74,8.52,6.84.09.34.3.67.65.95,11.88,9.6,23.69,19.86,33.09,32.03Z"/>
    <path class="cls-12" d="m612.97,442.07c2.93,8.09-.83,20-9.83,21.86-.93.07-1.86.14-2.79.2-7.41-.25-17.9-2.95-17.24-11.97.9-5.79,3.79-12.47,9.07-15.5,2.53-1.28,5.44-1.39,8.21-1.17.93.09,1.57-.27,1.32-1.3,4.51.83,9.7,3.18,11.27,7.87Z"/>
    <path class="cls-12" d="m644.02,428.25c-5.84,5.54-11.6,11.16-17.43,16.71-1.47,1.54-6.45,5.96-10.44,10.13,1.77-4.8,1.68-10.29-.52-14.96-2.39-4.32-7.31-7.41-12.7-8.85,7.23-.71,14.46-1.34,21.74-1.73,6.45-.38,12.91-.82,19.35-1.3Z"/>
    <path class="cls-12" d="m718.13,436.73c2.53,11-8.86,21.12-19.35,21.58h.14c-13.91.67-29.95-10.44-16.35-23.62,5.28-4.46,14.99-5.2,21.78-5.02,1.61.11,3.33.36,4.98.55,2.85,2.12,7.04,3.04,8.8,6.51Z"/>
    <path class="cls-12" d="m726.06,422.78c-.02.05-.04.11-.05.16-.34.12-.63.38-.78.75-1.65,3.94-2.87,8.03-3.91,12.17-1.82-4.09-6.7-6.3-10.91-7.2-7.21-2.14-22.57-.71-28.48,4.11-.21.16-.41.32-.61.49.88-1.31,1.78-2.6,2.72-3.87,1.08-1.49,2.23-2.93,3.3-4.43.04-.06.08-.12.11-.18,12.85-.98,25.73-1.55,38.61-2Z"/>
    <path class="cls-12" d="m806.02,421.9c12.38-1.23,26.23,8.52,19.35,21.75-2.33,4.25-6.16,7.39-10.54,9.41h0s0,0,0,0c-.19.09-.38.17-.57.25-.17.07-.34.14-.51.21-.24.1-.49.2-.73.29-.16.06-.33.12-.49.18-.2.07-.39.14-.59.21-.2.07-.39.13-.59.19-.18.05-.36.11-.53.16-.15.05-.3.09-.46.13-.15.04-.3.09-.45.12-.83.21-1.66.39-2.5.54-.16.03-.31.05-.46.07-.29.05-.59.09-.89.12-.25.03-.5.06-.75.09-1.36.15-2.79.17-4.23.05-.15-.01-.3-.02-.46-.04-.17-.02-.35-.04-.52-.06-.03,0-.07,0-.1-.01-.15-.02-.29-.04-.44-.06-.2-.03-.39-.06-.59-.09-.1-.02-.2-.04-.3-.05-.59-.11-1.18-.24-1.77-.4-.23-.06-.46-.13-.7-.2-.11-.04-.23-.07-.34-.11-.11-.04-.23-.07-.34-.11s-.23-.08-.34-.12c-.47-.17-.93-.36-1.38-.56-4.09-1.87-7.31-5.12-7.86-9.91-.32-7.47,4.36-15.16,10.45-19.3,2.01-1.43,4.46-2.21,6.92-2.24.92.1,2.61,1.07,2.71-.5Z"/>
    <path class="cls-12" d="m828.52,418.33c.26,3.73.21,7.51.01,11.24-3.8-6.01-10.85-10.02-18.04-10.73,6.01-.32,12.03-.62,18.04-.91-.03.12-.04.25-.02.4Z"/>
    <path class="cls-12" d="m803.69,419.21c-1.46.32-2.89.8-4.25,1.46-5.23,1.65-9.4,5.56-12.28,10.22.51-4,.48-8.84.61-10.68v-.05c5.31-.34,10.61-.66,15.92-.95Z"/>
    <path class="cls-12" d="m913.56,418.51c7.13,2.88,17.08,8.81,15.77,17.8-1.54,8.54-10.04,13.72-18.25,14.37-6.35.3-13.12-.86-18.51-4.52-3.47-2.27-6.29-5.46-7.09-9.3-.32-1.55-.32-3.21.12-4.95,1.61-7.71,7.63-13.95,15.75-14.2,3.27-.32,6.55.09,9.64,1.21.81.29,2.65,1.19,2.57-.4Z"/>
    <path class="cls-12" d="m927.27,418.71c.86,2.14,1.49,4.36,2.05,6.6-1.35-1.71-3.1-3.26-5.24-4.56-3.85-2.63-8.32-4.45-12.83-5.65-1.33-.15-4.57-1.65-5.27-.05-10.63-1-19.68,5.05-22.28,14.81-.67-2.45-1.37-4.88-1.99-7.34-.51-2.05-.95-4.12-1.5-6.18-.11-.37-.32-.68-.61-.91,7.94-.43,15.87-.89,23.8-1.43,6.83-.41,13.65-.82,20.47-1.25.06.11.14.21.21.3,1.32,1.72,2.38,3.62,3.18,5.63Z"/>
    <path class="cls-12" d="m1004.86,411.34c10.12,4.4,14.34,15.2,6.51,27.06-2.07,3.09-4.66,6.04-7.66,8.39-4.95,2.18-10.09,3.82-15.34,5.05-6.55-.43-12.78-3.8-17.36-8.48-4.73-5.75-4.77-14.35-1.47-20.84,3.92-8.35,13.79-11.78,22.54-11.09,1.24.07,2.47.3,3.7.44.26.09.57.04.76-.22.32-.67-.14-1.17-.82-1.55,2.67.26,5.34.61,8,1.06.38.05.75.11,1.13.18Z"/>
    <path class="cls-12" d="m959.14,410.3c8.18-.57,16.38-1,24.55-.86-6.62,1.42-12.75,5.38-15.74,11.61-1.32,2.58-2.25,5.46-2.66,8.42-.31-.77-.56-1.41-.67-1.83-1.02-2.81-1.99-5.64-2.9-8.49.23-.23.05-.57-.21-.64-.6-1.9-1.18-3.81-1.72-5.73-.23-.82-.45-1.64-.65-2.46Z"/>
    <path class="cls-6" d="m1020.89,415.97c-1.95-1.77-4.25-3.18-6.59-4.14-2.3-.91-4.68-1.55-7.09-2.05-6.38-3.34-14.23-3.71-21.4-2.32-9.05-.3-18.12.08-27.18.68-1.11.07-2.22.15-3.33.23-7.43.54-14.84,1.18-22.23,1.68-39.19,2.8-78.46,4.29-117.71,6.2-14.65.82-29.29,1.79-43.95,2.55-13.87.74-27.75,1.17-41.64,1.66-.27-.43-1.05-.17-1.51-.16-.28.04-.52.12-.73.24-13.61.49-27.21,1.05-40.8,2.01-28.53,2.23-57.07,4.88-85.63,7.04-8.41.84-16.84,1.47-25.27,2.1-4.52-1.01-9.14-2.15-13.65-2.22,1.17-.57,2.34-1.16,3.51-1.74,9.53-4.75,18.62-10.29,27.79-15.69,3.56-2.09,7.17-4.1,10.8-6.06.79-.43.99-1.36.72-2.12.96.6,2.23.57,3.34.69,26.5.36,53.01-.51,79.48-1.73,23.11-1.24,46.16-3.58,69.28-4.52,70.49-2.88,141.07-4.55,211.43-9.99,4.12-.28,7.98-.7,12.12-1.01,4.8,2.16,9.27,5.04,13.73,7.81,3.44,2.29,6.89,5.1,10.27,7.58,5.5,4.28,11.73,7.91,16.25,13.27Z"/>
    <path class="cls-6" d="m587.82,433.34c.84,1.38,2.82.28,4.12.3-7.12,3.35-11.31,11.57-11.93,19.18-.5,5.63,3.65,10.21,8.73,11.97-1.53.07-3.05.12-4.58.16-9.51.04-19.39.65-28.29-3.39-6.93-3.17-11.16-11.29-10.01-18.79,2.27-7.25,11.65-11.05,18.82-10.33-1.28.02-4.52.18-3.52,2.17.67.73,1.79.54,2.67.39,1.11-.22,2.24-.36,3.37-.46,2.01-.18,4.05-.31,6.09-.45,1.52.05,6.09,1.81,6.33-.47,2.71-.25,5.41-.52,8.11-.79-.01.17.01.35.08.51Z"/>
    <path class="cls-6" d="m675.91,448.55c1.56,5.4,6.18,8.75,11.27,10.7-20.32.95-40.65,1.62-60.95,2.7-4.67.4-9.33.83-14,1.23.12-.08.24-.18.34-.29,1.46-1.32,2.88-2.69,4.23-4.14,4.4-4.48,9.01-8.75,13.54-13.09,4.43-4.22,8.93-8.38,13.34-12.62,1-.96,1.98-1.91,2.98-2.87.7-.56,1.52-1.39,1.49-2.25,12.1-.93,24.19-1.97,36.28-2.91-3.03,4.25-10.2,13.56-8.93,15.63.21.17.41.25.61.25-.81,2.46-.96,5.11-.18,7.64Z"/>
    <path class="cls-6" d="m785.04,420.34h.2c-.02.32,0,.67-.05.99-.05.85-.12,1.53-.17,2.41-.22,3.15-.47,6.34-.75,9.5-.08,1.07-.49,2.35.15,3.29-.06.17-.12.35-.19.52-2.82,7.08-.7,13.2,3.9,17.07-25.98,1.19-51.95,2.77-77.92,3.93l-1.01.06c1.55-.83,3.02-1.8,4.39-2.88,3.75-2.88,6.88-7.09,8-11.75,1.77-2.01,3.27-9.68,3.73-10.87.52-1.82,1.07-3.64,1.67-5.43.7-.59,1.29-1.57,1.77-2.15.38-.77,1.55-1.54,1.48-2.38,18.27-.62,36.55-1.09,54.8-2.3Z"/>
    <path class="cls-6" d="m884.65,442.26c3,5.71,9.55,9.48,16.09,11.18-13.42-.53-26.84-.91-40.25-.96-13.4-.13-26.79.04-40.17.42.6-.45,1.19-.91,1.75-1.41,5.11-4.46,9.57-11.76,7.87-18.56,1.2-.32.73-2.58.81-3.63.13-2.75.36-5.51.12-8.27-.07-.96-.16-1.9-.29-2.98-.01-.07-.03-.14-.05-.21,15.57-.75,31.15-1.44,46.72-2.26-.39.39-.61.94-.51,1.49,1.46,7.99,3.63,15.82,6.66,23.36.25.68.54,1.52,1.24,1.84Z"/>
    <path class="cls-6" d="m951.79,440.6c.02-.29.26-.48.53-.48s.5.27.48.53c-.02.29-.26.48-.53.48s-.5-.27-.48-.53Z"/>
    <path class="cls-6" d="m949.3,442.86c.02-.32.28-.53.59-.53s.55.29.53.59c-.02.32-.28.53-.59.53s-.55-.29-.53-.59Z"/>
    <path class="cls-6" d="m948.13,427.85c.02-.32.29-.54.59-.54s.55.3.54.59c-.02.32-.29.54-.59.54s-.55-.3-.54-.59Z"/>
    <path class="cls-6" d="m967.66,443.08c3.19,4.75,8.11,8.45,13.61,10.17-16.09,2.67-33.01,2.13-48.97,1.64-6.21-.31-12.43-.61-18.64-.9,4.87-.82,9.54-2.8,13.18-6.17,5.22-4.99,6.98-11.38,5.32-17.08-.71-3.48-1.97-7.81-2-8.41-.11-.97-2.16-7.05-4.05-9.7,6.78-.43,13.55-.89,20.33-1.41,3.1-.22,6.21-.46,9.32-.69,1.95,8.83,6.93,25.77,9.88,27.45.43,1.78,1.09,3.5,2.04,5.09Z"/>
    <path class="cls-6" d="m1012.22,413.34c8.16,3.18,14.38,9.41,9.9,19.45-2.16,4.04-5.81,6.93-9.68,9.36,6.04-7.59,8.31-19.63,1.23-27.3-.46-.54-.95-1.04-1.45-1.52Z"/>
    <path class="cls-13" d="m508.18,350.24c5.07,1.74,11.32,6.21,9.43,12.3-1.15,6.79-6.41,11.78-11.95,15.4-14.3,9.58-31.28,14.61-48.44,15.41-11.12.24-24.21.85-33.98-5.16-1.84-1.22-3.26-2.92-4.21-4.86,0-.39,0-.79.02-1.18.07-.85-.41-1.9-1.15-2.18-.48-2.36-.37-4.85.39-7.13,3.76-9.17,16.07-16,25.09-19.14,13.02-4.31,26.96-5.14,40.61-5.08,6.52.06,13.04.34,19.52,1.11,1.54.08,3.16.85,4.67.5Z"/>
    <path class="cls-13" d="m519.4,403.53v.02c0,.1,0,.2,0,.3,0,.08,0,.16,0,.24,0,.15-.02.3-.03.46,0,.09-.02.18-.02.27v.02c-.34,3.64-2,7.73-3.56,10.09-4.79,6.92-12.17,11.62-20.02,14.7-23.49,9.88-53.41,8.75-67.66-14.49,5.88,2.62,12.21,3.95,18.69,4.31,11.21.85,22.42-.99,33.26-3.74,13.21-3.43,26.47-8.93,36.26-18.67.72.57,1.36,1.25,1.89,2.1.07.1.13.21.19.31.04.06.07.12.1.18.07.12.13.25.19.38.05.1.1.21.15.32.02.06.05.12.07.18.04.1.08.2.11.3.05.14.09.28.12.42.04.14.07.29.1.44.02.12.05.24.06.37.01.08.02.16.03.25,0,.04.01.09.02.13.01.08.02.17.02.25,0,0,0,.02,0,.03h0c-.02.1-.03.2-.03.3,0,.14.01.28.05.43,0,.04.01.08.02.12h0Z"/>
    <path class="cls-13" d="m513.57,452.25c.39.6.85,1.22.71,1.82-.23,4.89-5.21,7.47-9.05,9.51-10.95,5.16-23.31,6.61-35.31,6.64-14-.33-30.68,1.11-43.04-6.43-4.88-3.34-9.83-9.7-7.39-15.92.95-2.41,2.46-4.68,4.42-6.41.37-.33.75-.64,1.16-.92.71-.52,1.48-.96,2.29-1.32.45,2.48.9,4.95,1.35,7.43.22,1.19.44,2.38.66,3.57.28.29.56.58.85.86.27.27.56.54.85.79.44.4.89.78,1.36,1.15.15.12.31.25.47.37.03.02.05.04.08.06h0c8.83,6.75,21.59,9.39,32.12,10.21h-.07c13.99.58,28.53-1.06,41.27-7.16,2.49-1.25,4.93-2.66,7.28-4.23Z"/>
    <path class="cls-13" d="m425.55,429.45c.51,2.65,1,5.3,1.49,7.96-.95.35-1.85.8-2.7,1.34-.06-.07-.13-.13-.2-.19-.54-.09-.72.32-.72.82-2.43,1.77-4.38,4.24-5.54,7.01-.41.9-.7,1.8-.87,2.7-.02.1-.04.2-.05.3-.05.3-.09.59-.12.89-.01.1-.02.2-.03.29s-.01.2-.02.3c-.01.2-.02.4-.02.6,0,.16,0,.31.01.46,0,.05,0,.1,0,.15,0,.16.02.31.04.46.01.16.03.32.05.48,0,.08.02.17.04.25.02.13.04.25.06.38.02.09.03.18.05.26.38,3.06.49,6.16.54,9.26-.38-.08-.79-.01-1.19.26-5.54,3.71-12.16,5.4-18.75,6.27-5.56.57-11.09.16-15.95-2.95-6.76-4.19-2.6-13.2.52-18.54,7.43-11.62,20.22-18.76,33.23-22.59,2.34-.48,4.7-1.09,7.1-1.16.57.02,1.3.12,1.77-.25,2.06-3.41-8.24-1.49-9.75-.85-10.57,3.24-20.54,8.93-28.68,16.42-4.92,4.71-9.03,10.75-10.15,17.55-1.57-7.2-2.33-14.54-3.57-21.8-.02-.05-.03-.09-.05-.14.2-.3.4-.59.61-.88,1.84-2.77,4.12-5.19,6.54-7.48,10.44-9.74,24.39-15.18,38.45-16.99.47-.08,1.03-.04,1.51-.15.1.08.2.16.3.23.17.13.34.26.51.38.16.12.32.23.48.35l.56.39c.87.59,1.75,1.13,2.55,1.6,0,.03-.01.06-.02.09-.05.71.02,1.43.12,2.14-.03.54-.04,1.07.25,1.5.03.16.05.33.07.49.66,4.11.78,8.29,1.55,12.38Z"/>
    <path class="cls-2" d="m494.11,398.88c-.41-.35.04-1.1.52-.67.43.33-.08,1.01-.52.67Z"/>
    <path class="cls-2" d="m518.96,366.48c-.05,2.39-.09,4.79-.13,7.19-.14,5.86-.23,11.71-.38,17.56-.81,1.15-1.67,2.27-2.57,3.34-.02.02-.04.05-.06.07-.19.22-.38.44-.57.65-.19.22-.39.44-.59.65-.01.02-.03.04-.05.06-1.45,1.57-3.03,3.03-4.75,4.32-10.22,8.03-22.62,12.43-35.29,14.76-8.4,1.95-16.99,2.65-25.69,2.04-7.44-.74-15.57-1.52-22.38-4.82-.25-.12-.5-.25-.75-.38l-.33-.18c-.26-.14-.52-.29-.78-.43-1.43-.83-2.79-1.79-4.05-2.91-.23-1.6-.45-3.2-.63-4.8-.66-5.35-.91-10.73-.94-16.11,1.17,1.48,2.63,2.74,4.34,3.7,7.35,4.34,16.3,4.91,24.69,5,20.48-.09,41.49-5.22,58.8-16.37,4.63-3.05,9.72-7.84,12.11-13.35Z"/>
    <path class="cls-2" d="m519.31,414.49c.12-.23.23-.46.34-.7-.11,2.2-.29,4.4-.45,6.62-.03,8.16-.23,16.32-.61,24.47-4.04,3.84-8.64,7.09-13.68,9.52-19.66,9.28-50.76,10.3-69.5-1.7-1.02-.65-2-1.36-2.91-2.14-.7-4.16-1.46-8.32-2.37-12.44.43-.41.21-1.07-.3-1.29-1.61-6.6-2.57-13.27-3.29-20,7.87,12.23,21.73,19.75,36.12,20.86,17.59,1.74,48.3-6.2,56.65-23.2Z"/>
    <path class="cls-2" d="m513.95,459.5c-.07.45-.13.91-.18,1.36-.51,5.65-.89,11.34-1.52,16.99.07.72-.49,2.32-.27,3.23-1.28.79-2.6,1.52-3.97,2.22-6.27,3.13-13.18,5.32-20.1,6.77-20.17,3.96-54.08,5.09-67.7-13.09-.38-.49-.58-1.06-.8-1.62.11-5.31-.7-14.64-.68-15.39-.03-.58-.08-1.16-.15-1.75,2.16,3.99,5.95,7.33,9.93,9.19,4.66,2.34,10.02,3.03,15.17,3.53,8.59.82,17.22.84,25.84,1.06,13.56.38,30.64-1.68,41.82-9.84.95-.77,1.85-1.66,2.6-2.64Z"/>
    <path class="cls-5" d="m748.87,195.77c1.58,2.07,3.21,4.1,4.86,6.1-3.88.04-7.74.36-11.6.76-7.59.73-15.08,2.34-22.26,4.89-9.57,3.46-18.76,8.07-27.16,13.82-5.54,3.71-13.72,11.06-17.32,18.33-.13-.55-.27-1.11-.4-1.67,1.23-3.01,2.48-5.91,3.94-8.87,3.44-6.85,7.09-13.53,11.3-19.95,11.25-16.61,27.9-26.53,47.86-18.52,3.67,1.45,7.49,2.88,10.78,5.1Z"/>
    <path class="cls-5" d="m746.85,193.07c-2.25-1.09-4.49-1.99-5.15-2.3-24.05-10.89-41.94.79-54.74,21.55-3.8,6.31-7.73,12.64-10.54,19.48-.14.55-1.23,2.62-1.86,4.3-.02-.07-.03-.14-.05-.2-2.46-11.41-5.77-22.6-9.14-33.76.63-2.04,1.34-4.06,2.12-6.06,4.86-12.08,11.99-23.38,21.12-32.69,8.57-8.25,21.86-14.66,33.7-10.19,2.58,1.16,5.18,2.93,6.85,5.3,1.14,3.64,2.36,7.25,3.8,10.73,3.61,8.5,8.43,16.4,13.89,23.84Z"/>
    <path class="cls-5" d="m728.48,156.34c-1.39-1.35-2.89-2.46-3.7-2.81-8.43-4.86-18.93-2.65-27.08,1.75-8.77,4.73-15.17,12.8-20.66,20.93-4.04,6.44-7.88,13.15-10.62,20.26-.52,1.43-1.01,2.88-1.45,4.33-.82-2.71-1.64-5.43-2.46-8.14-1.09-3.58-2.2-7.16-3.59-10.64-.45-1.02-.85-2.09-1.33-3.12.42.04.84-.12,1.26-.6,1.33-2.03-2.27-3.78-3.53-5.07-2.55-2.02-5.12-3.84-8.06-5.32-2.82-1.47-5.75-2.45-8.74-3.04.23-.52.44-1.04.66-1.56,4.57-11.19,7.43-23.29,7.14-35.42-.4-7.95-2.21-18.55-7.95-24.59,16.05-3.16,32.52-4.11,48.18.66,14.53,5.11,26.77,16.22,33.76,29.95,3.61,7.04,5.82,14.77,8.18,22.43Z"/>
    <path class="cls-5" d="m645.75,126.56c.5,9.38-1.19,18.76-3.85,27.74-1.11,3.55-2.42,7.05-3.89,10.48-9.59-1.75-19.83.3-29.3,2.23-15.43,3.5-30.24,8.95-44.84,14.96.59-.85,1.14-1.72,1.68-2.6,5.82-9.43,7.66-21.75,3.47-32.15-3.68-8.08-10.8-14.94-19.65-16.86-.17-.03-.34-.06-.51-.1,3.28-.93,6.56-1.86,9.84-2.81,4.81-1.61,9.66-3.08,14.56-4.38.21.06.45.06.67.03,5.2-1.59,10.18-3.97,15.34-5.7,7.61-2.68,15.37-5.04,23.06-7.45,8.14-2.41,16.58-4.75,25.15-6.48,6.02,5.9,7.6,14.99,8.27,23.09Z"/>
    <path class="cls-5" d="m570.39,156.53c.6,8.63-1.62,17.43-6.7,24.5-.32.47-.64.94-.97,1.4h0c-10.12,4.19-20.13,8.64-30.18,12.91-12.42,5.55-24.93,10.89-37.38,16.35.5-.8.96-1.61,1.4-2.45,3-5.22,5.01-10.96,4.84-17.04.68-12.63-3.29-25.84-13.3-34.09-2.65-2.32-8.48-5.95-13.18-6.69,4.25-1.07,8.47-2.21,12.67-3.37,14.81-4.16,29.54-8.62,44.31-12.94,5.09-1.51,10.21-2.95,15.32-4.4,12.39,1.34,22.51,13.39,23.18,25.81Z"/>
    <path class="cls-5" d="m495.95,169.35c4.46,8.82,5.28,19.29,3.77,28.98-1.07,3.89-2.05,7.86-4.08,11.37-.49.85-1.01,1.67-1.57,2.48-1.86.82-3.71,1.64-5.57,2.46-1.09.54-11.89,5.3-16.52,8.47-.46-.28-1.06-.24-1.52.09-5.01,3.51-9.85,7.16-15.52,9.63-5.04,2-10.37,3.14-15.71,4.28-15.79,3.15-32.16,2.86-47.97-.26.43-2.62.87-5.24,1.38-7.84,2.98-14.54,5.93-29.05,9.6-43.46,2.4-11.12,7-21.64,9.57-32.7,5.87,2.99,12.68,4.14,19.52,4.38,13.3.47,26.44-1.71,39.37-4.77.1.05.22.04.34-.06,10.19-1.21,20.43,8.49,24.91,16.95Z"/>
    <path class="cls-5" d="m411.33,152.6c-1.07,6.07-3.57,11.8-5.35,17.68-3.22,10.08-5.84,20.35-8.25,30.65-1.88,8.21-3.53,16.47-5.16,24.73-.82,3.65-1.51,7.33-2.12,11.02-5.55-1.13-11.03-2.61-16.38-4.41-14.47-4.66-26.54-15.04-34.42-27.96-1.67-2.61-3.23-5.29-4.77-7.97-.13-5.89.48-11.82,1.75-17.57,5.18-23.37,22.21-48.39,47.75-50.43,3.04,2.24,5.95,4.7,9,6.91.33.26.7.36,1.07.34,1.85,3.35,5.08,5.84,7.44,8.91,2.63,3.56,5.85,6.19,9.45,8.1Z"/>
    <path class="cls-5" d="m377.42,123.97c2.01,1,3.89,2.2,5.72,3.48-6.08.64-11.95,2.84-17.13,6.04-20.18,12.47-31.99,37.64-31.98,61.38-3.04-5.35-6.02-10.72-9.61-15.74-6.08-9.15-9.8-15.8-21.84-16.91-3.07-.24-6.16-.32-9.25-.25,2-6.15,2.11-12.73.95-19.11-1.95-11.62-8.18-27.57-19.16-33.77,35.84-4.12,69.66-2.39,102.29,14.88Z"/>
    <path class="cls-5" d="m294.12,150.45c.19,3.88-.5,7.84-1.74,11.55-11.33.4-22.66,2.95-32.81,7.88-8.27,4.33-16.12,10.21-22.08,17.52-1.53-.88-3.08-1.73-4.63-2.57-8.93-4.74-18.41-8.5-27.37-13.19-9.41-4.6-18.27-10.22-26.92-16.11-5.61-3.88-11.46-7.43-16.63-11.89-.34-.33-.69-.66-.99-1.05,12.91-7.69,26.93-13.71,40.37-18.49,23.13-7.88,47.38-11.95,71.61-14.74.23-.03.45-.05.68-.08.18.07.35.16.52.25,13.34,8.75,19.09,25.57,20,40.92Z"/>
    <path class="cls-5" d="m236.99,188.02c-3.45,4.34-6.22,9.16-8.04,14.45-2.45,8.95-3.66,18.38-3.15,27.65.05.68.11,1.35.17,2.02-.77.33-1.54.65-2.31.96-13.72,5.56-28.56,7.14-43.29,7.14-15.13.05-30.72-.64-45.04-5.93-7.55-2.88-14.65-7.03-20.55-12.59-1.7-1.52-3.3-3.3-4.67-5.12-.19.02-.32.07-.38.15.4-4.49.97-8.97,1.95-13.38,5.91-27.14,25.45-46.5,48.69-60.46.04.05.08.1.12.15,5.31,5.19,11.88,8.89,17.92,13.16,7.09,4.8,14.24,9.57,21.82,13.58,12.06,6.47,24.84,11.44,36.75,18.2Z"/>
    <path class="cls-5" d="m228.66,253.43c.07.69.08,1.65.41,2.31-3.31,8.51-9.69,13.87-18.61,16.57-10.52,3.59-21.92,4.73-32.95,6.08-18.28,1.79-37.22,4.11-54.88-2.42-5.35-2.07-11.51-3.68-15.64-7.97-.17-.2-.34-.41-.5-.63.82-.72.83-2.74,1.02-3.9.15-1.75.27-3.51.35-5.27.02-.39.04-.79.05-1.18.01-.27.02-.55.03-.82,0-.09,0-.18,0-.27.04-1.59.06-3.17.04-4.75-.11-5.55.25-11.09.55-16.63.43-5.77.64-11.61,1.14-17.44.23.78,1.83,2.24,2.34,2.81,15.72,17.07,40.11,20.8,62.25,21.1,10.97.12,22.05-.41,32.9-2.15,6.39-1.44,12.82-3.3,18.87-5.86.38,3.69.95,7.37,1.47,11.05.11.75.21,1.49.31,2.23.11.82.21,1.65.31,2.48.19,1.55.36,3.1.52,4.65Z"/>
    <path class="cls-5" d="m347.61,314.8c1.82,16.62,3.82,33.27,3.37,50.02-.11,10.01-.69,20-1.55,29.97-4.03.41-8.07.72-12.11,1.05-81.03,7.86-161.91,17.4-243.11,23.45-12.91.91-26.09,1.13-39.05.5-6.78-.32-13.55-.76-20.34-1.11-.45.01-.9,0-1.36,0-.48-1.67-.96-3.34-1.42-5.02-2.2-8.09-4.41-16.19-6.09-24.4-3.62-16.93-5.6-34.44-6.46-51.78-.43-11.06-1.57-22.27-.79-33.33,8.32-1.71,16.79-3.38,25.21-4.73,46.35-7.08,93.32-8.54,140.12-9.68,23.04-.49,46.05-1.97,69.07-3.02,29.27-1.31,58.59-1.48,87.89-1.21.8,0,1.6.01,2.4.02.07.34.13.68.19,1.03,1.71,9.35,2.79,18.83,4.03,28.25Z"/>
    <path class="cls-7" d="m339.32,282.93c-32.76-.33-65.53.09-98.25,1.89-30.23,1.8-60.5,2.57-90.76,3.68-35.77,1.61-71.65,3.48-107.08,8.93-7.65,1.2-15.29,2.49-22.88,4.08.1-.11.2-.2.29-.27,2.86-3.05,5.76-6.07,8.91-8.81,7.13-6.26,14.81-11.85,22.66-17.16,8.34-5.75,17.13-10.96,26.37-15.18,8.49-.23,16.96-.87,25.43-1.58.01.75.03,1.49.05,2.23.11,1.28-.22,2.9-.11,4.33-1.16,3.75,5.12,7.41,7.83,9.09,9.41,4.94,20.12,7.39,30.7,7.93,18.61.28,37.34-.89,55.66-4.33,15.73-3.45,29.51-7.34,34.24-24.62.13-.71-.42-1.19-1.02-1.26-.14-2.01-.29-3.98-.47-5.98,17.43-2.14,34.85-4.31,52.28-6.34,2.78-.32,5.56-.64,8.34-.98,1.8,1.56,3.67,3.04,5.54,4.51,2.92,2.16,5.55,4.74,8.52,6.84.09.34.3.67.65.95,11.88,9.6,23.69,19.86,33.09,32.03Z"/>
    <path class="cls-7" d="m762.81,209.48c8.24,10.69-2.38,21.48-10.71,28-6.22,5.12-13.13,9.75-20.19,13.7-7.8,4.69-16.72,7.22-25.8,8.3-8.57,1.38-17.42-.05-24.61-5.16-1.13-.75-2.04-1.71-2.82-2.79h0c-.05-.17-.11-.34-.16-.51-.03-.1-.06-.21-.09-.31-.6-1.98-1.18-3.97-1.72-5.96,1.3-7.91,12.98-17.59,18.25-21.01,18.83-12.66,37.57-18.9,60.35-18.83.29,0,.56-.08.79-.23.29.35.59.7.89,1.04l.93,1.07c.4.39.84.55,1.25.55.06,0,.12,0,.18-.01.04,0,.08,0,.12-.02.03,0,.05,0,.07-.02.02,0,.04,0,.05-.02.03,0,.06-.02.09-.02.03-.01.06-.02.09-.04.04-.01.08-.03.12-.05.04-.02.08-.04.11-.06.02-.01.05-.02.07-.04.02,0,.03-.02.04-.03,0,0,.01,0,.02-.01.94.75,1.85,1.54,2.66,2.45Z"/>
  </g>
</svg>