<?xml version="1.0" encoding="UTF-8"?>
<svg xmlns="http://www.w3.org/2000/svg" viewBox="0 0 475.98 523.48">
  <defs>
    <style>
      .cls-1, .cls-2, .cls-3, .cls-4, .cls-5, .cls-6, .cls-7 {
        stroke-width: 0px;
      }

      .cls-2 {
        fill: #5bf0de;
      }

      .cls-3 {
        fill: #5bd9f0;
      }

      .cls-4 {
        fill: #ff6260;
      }

      .cls-5 {
        fill: #fff;
      }

      .cls-6 {
        fill: #ffbfbe;
      }

      .cls-7 {
        fill: #f05d5b;
      }
    </style>
  </defs>
  <g id="Vector_layer" data-name="Vector layer">
    <path class="cls-1" d="m296.14,239.44c.59.73,1.19,1.46,1.8,2.18-.04,11.82-.45,23.62-1.95,35.38-1.82,17.15-4.36,34.48-1.84,51.66-.08.6-.6,1.23-1.27.95-.58-.24-.74-.95-.84-1.51-1.65-13.89-.36-27.89,1.21-41.73,1.22-11.49,2.81-23.02,2.95-34.55.02-4.12,0-8.25-.05-12.38Z"/>
    <path class="cls-1" d="m172.54,366.87c.31,3.33.64,6.66.96,10-1.05-.32-2.14-.64-3.25-.96-3.16-26.88-4.21-53.94-5.89-80.95-1.78-22.21-2.25-44.61-.93-66.87.2-.07.41-.12.63-.16.16.06.3.13.4.21.63-.49,1.26-.98,1.89-1.48-2.11,35.62,1.41,71.4,3.31,106.94.68,11.11,1.76,22.18,2.88,33.26Z"/>
    <path class="cls-1" d="m275.2,109.53c22.33,19.16,23.05,55.99,22.57,83.3-.19,6.89-.18,13.79-.11,20.69-.68-.7-1.36-1.41-2.04-2.12-.08-5.86-.11-11.71-.02-17.57.22-13.09.39-26.23-2.03-39.14-2.17-13.95-5.88-28.39-15.41-39.15-10.16-12.54-27.47-14.34-42.54-13.47-12.48,1.11-25.21,4.05-35.92,10.68-5.05,3.41-8.86,8.35-11.87,13.57-5.29,9.23-8.04,19.54-10.52,29.8-4.05,16.49-7.25,33.2-9.14,50.07-.48.26-.96.52-1.44.78-.36.14-.9.51-1.44.78-.06.05-.12.1-.19.16,1.77-16.19,4.57-32.26,8.56-48.08,8.89-36.54,16.96-53.54,56.84-59.14,14.56-1.59,32.85-.68,44.69,8.85Z"/>
    <path class="cls-1" d="m297.61,370.98c.1,2.43.19,4.87.25,7.3-.01,1.6-2.43,1.81-2.65.18-.14-2.37-.27-4.74-.39-7.11-.04-.79-.09-1.59-.12-2.38-.46-9.09-.82-18.17-1.11-27.27-.08-4.01-.38-8.03-.49-12.05-.09-2.94-.07-5.88.2-8.8,0-.11.01-.22.02-.32.24-1.93,2.23-2.88,2.42-.16.82,11.97.62,23.99,1.27,35.97.13,4.05.32,8.1.5,12.14.04.83.07,1.66.11,2.48Z"/>
    <path class="cls-1" d="m149.46,413.17c-4.91-.26-9.98-1.04-14.26-3.61-7.77-4.57-9.33-14.49-4.51-21.84,4.63-8.65,13.35-16.09,23.48-16.5,4.74-.26,22.27,1.85,24.18,6.23.07.06.11.15.11.25,0,.18-.16.33-.33.33-.21.18-.44.22-.76.2-1.05-.22-2.06-.8-3.08-1.11-7.69-2.32-17.51-5.35-25.27-2.62-5.52,2.01-10.31,5.77-13.64,10.5-2.92,4.45-6.28,9.93-4.27,15.39,5.82,13.72,28.6,8.93,40.34,7.46,10.31-1.69,20.53-3.91,30.62-6.56,2.21-.57,4.41-1.17,6.61-1.77,1.07-.29,2.21.35,2.51,1.43.3,1.08-.36,2.2-1.43,2.51-4.82,1.39-9.69,2.59-14.57,3.73-15.03,3.09-30.33,6.1-45.73,6Z"/>
    <path class="cls-1" d="m226.2,333.5c-6.53-.51-12.99-2.01-19.04-4.55-1.92-.95-4.34-1.5-5.7-3.23-.38-.81.58-1.48,1.26-1.15,8.48,4.59,18.24,6.08,27.75,6.12,10.25-.1,20.19-1.78,30.21-3.64,1.67-.11,4.36-1.79,5.17.47.23.84-.28,1.82-1.15,2.02-2.63.61-5.29,1.16-7.95,1.63-10.07,1.62-20.33,3-30.55,2.32Z"/>
    <path class="cls-1" d="m329.18,387.17c.07,14.54-16.51,24.26-29.69,24.23-7.42-.11-14.29-3.35-20.61-6.97-6.42-3.61-12.81-7.29-18.95-11.37-1.53-1.01-3.06-2.03-4.54-3.1-2.31-1.85.35-5.39,2.79-3.61,9.97,6.63,20.24,12.72,30.97,18.01,13.21,6.96,35.62.39,37.32-15.98.14-8.13-7.08-16.36-15.03-17.69-4.12-.76-8.2-.19-12.32.14-1.41.17-2.91.21-4.32.53-.04-.79-.09-1.59-.12-2.38,2.91-.66,6.48-.82,8.12-1.06,5.48-.4,11.37-.4,16.13,2.71,5.57,3.5,10.04,9.84,10.24,16.54Z"/>
    <path class="cls-1" d="m208.44,405.14c-1.79-2.28-1.44-5.78-1.98-8.54-.61-5.49-.94-10.78-1.05-16.25-.3-17.26,1.3-34.54,4.59-51.47.12-.69.73-1.19,1.45-1.1.7.09,1.2.75,1.1,1.45-.2,1.45-.36,2.9-.54,4.35-1.37,8.8-2.38,17.61-2.65,26.5-.42,7.96-.92,15.93-.38,23.89.31,5.43.88,10.83,1.23,16.23.02,1.48.86,5.99-1.77,4.94Z"/>
    <path class="cls-1" d="m263.7,328.03c1.06,12.77,1.67,25.54.77,38.33-.24,2.27-1.3,25.7-5.12,21.85-.88-1.21-.54-2.84-.52-4.24.32-3.77.96-7.52,1.38-11.28,1.16-9.97,1.19-20.18.56-30.09-.38-5.12-.83-10.23-1.31-15.34.4-.07.81-.15,1.21-.23.82-.05,1.9-.5,2.88-.65.05.55.1,1.09.14,1.64Z"/>
    <path class="cls-1" d="m98.89,258.22c-.42-.54-.31-1.32.23-1.74,7.22-5.63,14.39-11.34,21.65-16.92,14.69-11.57,29.79-22.61,44.35-34.34.57-.39,1.11-1,1.84-1,.48.03.85.45.72.94-.82,1.54-2.61,2.65-3.79,3.86-3.46,3.07-7.01,6.02-10.6,8.93-10.49,8.51-21.32,16.58-32.08,24.74-6.84,5.27-13.79,10.41-20.58,15.76-.53.42-1.33.31-1.75-.23Z"/>
    <path class="cls-1" d="m145.54,301.73c.25,1.42-1.58,2.51-2.7,1.56-15.1-12.61-29.81-25.78-45.45-37.7-.13-.2-.23-.41-.29-.66-.27-.99-.19-1.98.07-2.95,1.92.21,4.53,2.27,5.8,3.39,11.98,9.89,24.12,19.68,35.78,29.93,2.04,1.8,4.07,3.55,6.14,5.32.34.29.58.65.64,1.1Z"/>
    <path class="cls-1" d="m137.56,340.56c-1.3-2,1.73-3.13,2.8-4.38,1.45-1.26,2.84-2.6,4.29-3.87,7.32-6.55,15.03-12.53,21.49-19.93,1.08-1.47,2.76-.63,2.08,1.13-1.36,3.09-3.97,5.44-6.27,7.86-3.27,3.25-6.98,6.61-10.36,9.6-2.88,2.57-5.8,5.03-8.83,7.41-1.54.9-3.38,4.06-5.21,2.17Z"/>
    <path class="cls-1" d="m137.27,340.08c-3.27-2.17-5.85-5.18-8.31-8.2-1.84-2.51-4.15-4.94-4.72-8.09-1.08-9.23,3.22-18.01,8.75-25.12.62-.79,1.79-.95,2.59-.33,1.97,1.61-.75,3.78-1.49,5.13-3.36,5.19-5.91,10.58-5.99,16.78-.16,1.78-.08,3.65,1.1,5.1,2.74,4.34,6.42,7.82,10.08,11.35,2.41,2.11,1.11,5.25-2,3.38Z"/>
    <path class="cls-1" d="m138.76,295.31c.14.13.29.25.43.38-1.57,1.36-3.2,2.64-4.78,3.98-.74.59-1.48,1.47-2.51,1.41-2.52-.97,2.12-4.12,2.93-5.1.79-.67,1.56-1.37,2.34-2.06.53.46,1.06.93,1.59,1.39Z"/>
    <path class="cls-1" d="m129.33,256.96c-.4-.52-.29-1.25.21-1.65,3.42-2.74,6.79-5.54,10.2-8.29,3.4-2.74,6.86-5.39,10.29-8.09,3.34-2.64,6.53-5.47,9.81-8.19,1.36-.92,2.54-2.57,4.22-2.79,2.37.89-2.09,3.8-2.81,4.65-3.21,2.82-6.57,5.45-9.85,8.17-6.68,5.63-13.54,11.02-20.42,16.41-.5.4-1.26.29-1.66-.21Z"/>
    <path class="cls-1" d="m167.14,292.23c.09,1.57.18,3.15.28,4.73-1.04-.77-2.06-1.54-3.09-2.32-6.53-4.96-12.9-10.12-19.01-15.59-6.71-6.14-13.07-12.66-19.88-18.67-.52-.67-.13-1.62.64-1.89.15-.06.31-.1.47-.11.68-.07,1.37.22,1.96.54.44.28.86.57,1.28.87,3.28,2.38,6,5.5,9,8.21,6.46,6.38,13.2,12.16,20.23,17.85,1.64,1.32,3.28,2.63,4.94,3.93,1.05.83,2.11,1.65,3.18,2.46Z"/>
    <path class="cls-1" d="m195.9,276.1c.03.35-.04.7-.23,1.01-1.02,1.61-2.09,3.19-3.11,4.8-.71,1.12-1.4,2.27-2.02,3.44-.66,1.47-1.32,2.96-1.79,4.51-.2.63-.36,1.27-.48,1.93-.27.95-1.05,1.16-1.74.9-.36-.13-.7-.38-.94-.72,0-.01-.02-.03-.03-.04-.04-.05-.07-.11-.1-.17-.03-.05-.05-.1-.07-.15-.04-.1-.08-.2-.1-.31-.14-.51-.18-1.02-.16-1.52,0-.05,0-.1.01-.14.01-.16.03-.33.05-.49,0-.06.02-.11.03-.17.04-.21.08-.42.14-.62.3-1.16.84-2.29,1.32-3.34.09-.2.19-.39.29-.59.39-.77.79-1.53,1.23-2.27,2.57-2.01,5.14-4.03,7.7-6.05Z"/>
    <path class="cls-1" d="m341.52,253.47c1.32,1.38-.7,3.46-2.1,2.1l-.04-.04c-.5-.51-1-1.02-1.51-1.54-6.35-6.52-12.45-13.27-18.89-19.7-6.97-7.06-14.4-13.65-21.31-20.77h0c-.25-.26-.5-.52-.75-.78-.43-.45-.86-.89-1.29-1.35-.01-.94-.02-1.88-.03-2.82,0-.5-.01-1-.02-1.49h0s0,0,0,0c.66.75,1.34,1.49,2.04,2.21,1.81,1.89,3.71,3.71,5.59,5.53,7.09,6.73,14.32,13.33,21.11,20.38,5.83,5.98,11.63,12.01,17.18,18.25Z"/>
    <path class="cls-1" d="m339.93,252.49c.69,0,1.13.77.78,1.36-.44.56-.88,1.12-1.33,1.68-3.62,4.46-7.63,8.62-11.55,12.83-3.17,3.28-6.3,6.6-9.48,9.87-.45.46-.89.93-1.35,1.39-2.07,2.12-4.16,4.21-6.3,6.26-1.28,1.18-2.5,2.41-3.68,3.7-.33.35-.92.34-1.26,0-.4-.39-.3-.99.08-1.35,3.37-3.96,6.72-7.93,10.43-11.59,7.34-7.41,14.25-15.24,21.61-22.64.23-.23.46-.46.69-.7.38-.37.8-.83,1.37-.81Z"/>
    <path class="cls-1" d="m316.43,328.11c-9.4-1.69-19.37-6.34-23.99-15.11-2.27-5.08-2-10.86-2.03-16.3.14-5.13.45-10.32,1.73-15.3.54-1.93,1.21-3.93,2.59-5.42.7-.98,2.87-2.07,3.32-.35.06.71-.39,1.24-.77,1.79-.6.9-1.03,1.9-1.39,2.91-2.49,8.04-2.55,16.52-2.16,24.78-.41,12.02,15.42,18.36,25.43,19.52,6.64.69,9.44-8.29,11.61-13.19,1.67-4.69,2.16-9.91,1.15-14.73-1.01-5.61-5.48-9.77-9.84-13.05-1.62-1.18-3.01-2.07-4.59-3.15-.52-.36-.63-1.12-.32-1.65.31-.53,1.02-.79,1.59-.53,2.38,1.09,4.56,2.55,6.66,4.1,6.87,4.74,10.36,10.91,10.55,19.28.26,6.84-2.52,13.49-5.88,19.25-3.01,5.12-7.48,8.57-13.67,7.15Z"/>
    <path class="cls-1" d="m313.28,257.53c1.41-1.06,3.45.83,2.27,2.35-4.33,5.02-9.17,9.57-13.91,14.2-.77.54-3.25,3.45-4.97,4.43-.32.18-.61.3-.86.32-.32.03-.56-.09-.71-.41-.21-.57.05-1.18.33-1.68.23-.41.48-.8.76-1.18.2-.28.41-.54.63-.81.59-.72,1.23-1.4,1.88-2.08,3.09-3.23,6.27-6.38,9.38-9.61.94-.94,1.87-1.89,2.77-2.87.76-.82,1.51-1.65,2.25-2.48.07-.07.13-.12.2-.18Z"/>
    <path class="cls-1" d="m313.6,257.83c1.65,1.67-.85,4.21-2.56,2.56-.07-.07-.14-.13-.21-.2-4.47-4.23-8.75-8.86-12.92-13.46-.57-.63-1.14-1.25-1.71-1.88-1.04-1.15-2.08-2.3-3.11-3.43-1.97-2.45-4.48-4.64-5.92-7.44-.47-2.09,1.78-2.3,3.02-1.14,2.23,1.95,4.09,4.29,5.97,6.59h0c.34.42.68.83,1.02,1.24.22.27.44.53.67.8l.12.14c.41.48.82.95,1.25,1.41,3.61,4.06,7.36,7.99,11.24,11.79.93.92,1.88,1.82,2.84,2.71.11.1.21.2.32.3Z"/>
    <path class="cls-1" d="m228.79,190.88c11.87.27,21.12-9.95,19.88-21.71-.28-8.12-4.34-15.22-11.62-19.02.17.58,0,1.39-.67,1.55-1.21-.21-2.12-1.26-3.32-1.57-11.5-3.81-23.46,5.26-25.96,16.47-2.91,12.78,9.45,24.17,21.68,24.27Zm23.65-24.35c2.56,17.2-12.43,31.72-29.51,26.63-13.45-3.74-23.02-19.21-15.77-32.25,4.32-9.08,14.23-15.47,24.42-13.64.12-.32.45-.52.8-.47,1.48.2,2.96.4,4.44.54,3.62.38,6.68,2.77,9.25,5.2,3.82,3.7,5.92,8.72,6.36,13.98Z"/>
    <path class="cls-1" d="m252.46,198.67c2.16-1.23,4.07,2.01,1.92,3.29-.58.3-.82.41-1.25.64-12.29,6.2-26.17,9.59-39.96,8.85-4.12-.36-8.54-1.32-11.67-4.06-.61-.52-1.25-1.88-.19-2.26.77-.14,1.43.4,2.1.69,2.83,1.36,5.95,2.01,9.05,2.29,13.93.8,27.73-3.09,40.01-9.44Z"/>
    <path class="cls-1" d="m203.32,129.51c1.47-.28,2.3-1.89,2.22-3.29-.89-.72-2.2-.07-2.9.64-.11.57-.64.93-.79,1.49.01.67.85,1.18,1.48,1.16Zm2.18-6.39c7.39,1.29,2.36,11.4-3.54,9.54-6.33-2.19-1.9-10.55,3.54-9.54Z"/>
    <path class="cls-1" d="m259.37,126.89c1.01-2.48-.79-4.89-3.32-5.23-1.73.89-3.48,2.08-4.1,4.07-1.09,2.27.93,4.98,3.37,4.82,2.04-.04,3.32-1.96,4.06-3.65Zm-2.85-8.77c6.65,1.45,8.62,8.5,3.84,13.29-1.88,2.23-4.9,3.74-7.76,2.5-5.19-1.91-4.81-8.96-1.21-12.25-.72.11-1.45-.36-1.63-1.06-.54-2.69,5.04-2.78,6.77-2.48Z"/>
    <path class="cls-1" d="m133.24,252.31c.98-.09,1.83.85,1.63,1.81-.03.16-.09.31-.18.46-1.17,1.7-2.91,2.96-4.27,4.52-.17.23-.38.46-.63.67-1,.87-2.47,1.39-3.2-.05-.2-.48-.18-.93-.04-1.36.27-.77.93-1.45,1.45-2.03,1.44-1.45,2.96-3,4.8-3.91.14-.06.29-.1.43-.11h0Z"/>
    <path class="cls-1" d="m164.46,228.15c.63-.49,1.26-.98,1.89-1.48-.04.73-.09,1.46-.12,2.2-1,.77-1.98,1.55-2.97,2.31-.52.4-1.04.8-1.56,1.18-.27.18-.64.49-1,.71-.48.29-.98.4-1.32-.16-.2-.4.09-.78.38-1.03,1.2-.98,2.41-1.93,3.62-2.88.36-.28.72-.56,1.08-.84Z"/>
    <path class="cls-1" d="m168.48,203.68c-.1.84-.2,1.68-.3,2.51-.48.26-.96.52-1.44.78-.36.14-.9.51-1.44.78-.06.03-.12.05-.18.08-.62.27-1.23.37-1.53-.21-.06-.95,1.07-1.43,1.77-1.93.05-.04.11-.08.16-.12.62-.41,1.25-.81,1.88-1.21.36-.23.72-.46,1.08-.68h0Z"/>
    <path class="cls-1" d="m227.71,239.42c-9.51-.17-18.99-.78-28.34-2.49-.51-.12-.91-.72-.67-1.23.27-.61.96-.65,1.54-.53,1.49.28,2.99.53,4.5.73,14.33,1.95,28.88,1.75,43.27.77,5.01-.38,10.15-.71,15.07-1.72.46-.09.93.25,1.05.7.27,1.27-1.28,1.31-2.16,1.47-3.41.58-6.85.88-10.29,1.14-8.08.67-15.91,1.37-23.98,1.16Z"/>
    <path class="cls-1" d="m184.39,255.68c-.95-.83,1.47-2.61,1.92-3.41,3.87-4.69,8.31-8.89,11.88-13.77.85-.93,1.37-2.52,2.64-2.9,1.38.34-.12,1.81-.54,2.43-3.78,5.28-8.3,9.91-12.59,14.77-.84.92-1.6,1.92-2.46,2.83-.24.22-.6.26-.86.05Z"/>
    <path class="cls-1" d="m274.34,249.72c-3.89-3.55-7.59-7.29-11.32-11-.67-.92-3.02-2.2-1.61-3.37.48-.31,1.08-.09,1.48.24,4.32,4.21,8.53,8.53,12.89,12.69.94.93-.51,2.39-1.45,1.45Z"/>
    <path class="cls-1" d="m275.82,250.1c-.12.19-.28.37-.43.54-.98,1.02-2.06,1.94-3.09,2.92,1.11-2.1,2.6-4.47,3.52-3.45Z"/>
    <path class="cls-1" d="m230.86,294.99c-11.87-10.02-25.04-18.47-36.37-29.14-3.48-3.17-6.07-6.78-8.93-10.42-.23-.3-.42-.77-.09-1.09,1.19-.89,2.95,2.04,3.73,2.69,2.99,3.34,6.21,6.65,9.58,9.57-.02-.02-.05-.04-.07-.06-.01-.01-.03-.02-.04-.04,6.41,5.75,13.37,10.84,20.22,16.05,4.55,3.43,9.03,6.94,13.37,10.62,1.17.92-.21,2.73-1.4,1.82Z"/>
    <path class="cls-1" d="m229.64,297.48c-.94-1.22,1.23-2.26,1.87-3.11,2.04-1.94,4.02-3.93,5.95-5.99,8.76-9.45,16.86-19.15,25.62-28.54,2.65-2.8,5.39-5.52,8.14-8.23,1.12-.77,3.76-4.68,4.82-2.55.15.62-.25,1.13-.65,1.56-1.06,1.09-2.23,2.08-3.32,3.14-4.04,3.9-7.86,8.01-11.67,12.14-5.81,6.64-11.5,13.12-17.45,19.58-3.01,3.23-6.12,6.35-9.29,9.41-1.02.68-2.82,3.62-4.02,2.59Z"/>
    <path class="cls-1" d="m194.41,254.47c-.42,0-.93-.06-1.32-.1-.95.12-1.44-.56-.37-.98,6.39-.53,12.86-.16,19.27-.24,17.68-.26,35.38-1.13,52.91-3.57.59-.09.76.87.13.95-23.39,3.35-47.04,3.49-70.62,3.95Z"/>
    <path class="cls-1" d="m235.05,284.56c-.12-.07-.16-.22-.09-.34,2.01-3.5,4.17-6.92,6.3-10.35,4.21-7.08,8.9-13.87,13.27-20.83.27-.34.62.1.4.41-4.62,7.01-9.23,14.03-13.58,21.21-2.02,3.25-4.06,6.49-5.96,9.8-.07.12-.22.16-.34.09Z"/>
    <path class="cls-1" d="m232.37,286.35c.27-9.62.26-19.36-.5-28.89.21-.27.62-.09.66.22.49,8.08.56,16.22.42,24.32-.11.59.25,5.86-.59,4.35Z"/>
    <path class="cls-1" d="m227.84,286.14c-5.69-8.4-11.48-16.77-17.93-24.6-.41-.46-.83-.91-1.24-1.37-.23-.27-.73-.75-.39-1.12.14-.13.36-.08.51,0,1.43,1.04,2.34,2.54,3.41,3.91,3.22,4.23,6.27,8.59,9.36,12.92,1.61,2.31,3.21,4.68,4.78,7,.25.52,3.1,3.93,1.5,3.25Z"/>
    <path class="cls-1" d="m208.99,246.64c-.96-.72-7.82-5.52-6.67-6.5.16-.07.33-.01.47.07.59.48,1.13,1.18,1.69,1.64,1.64,1.41,3.37,2.73,5.03,4.11.44.34-.08,1.02-.53.68Z"/>
    <path class="cls-1" d="m214.04,248.63c.73-1.8,2.66-2.96,4.2-4.05,2.74-.29-3.03,4.27-3.76,4.21-.13.18-.45.08-.45-.15Z"/>
    <path class="cls-1" d="m232.85,245.7c-.8-.42-6.2-2.63-4.65-3.69.25-.09.51-.04.74.08,1.02.59,1.86,1.24,2.82,1.86.51.34,1,.72,1.46,1.12.14.12.19.31.09.48-.09.16-.29.22-.46.15Z"/>
    <path class="cls-1" d="m238.17,249.79c-.53-1.1.91-2,1.54-2.74.83-.86,1.76-1.62,2.69-2.37.22-.18.55-.14.74.05.55.8-.77,1.5-1.11,2.16-.72.69-2.84,3.84-3.86,2.9Z"/>
    <path class="cls-1" d="m256.83,244.68c-1-.49-5.41-2.34-4.12-3.74.41-.33.99-.06,1.36.2.7.54,1.42,1.05,2.13,1.57.46.5,1.71.9,1.37,1.73-.15.25-.47.36-.73.25Z"/>
    <path class="cls-1" d="m262.27,246.64c-.16-.6.41-1.55,1.1-1.17.34.2.41.64.18.95-.24.44-1.05.9-1.28.22Z"/>
  </g>
  <g id="Vector_layer-2" data-name="Vector layer">
    <path class="cls-3" d="m201.96,132.65c5.9,1.87,10.92-8.25,3.54-9.54-5.43-1.02-9.86,7.35-3.54,9.54Zm20.97,60.52c17.09,5.09,32.07-9.43,29.51-26.63-.44-5.26-2.54-10.28-6.36-13.98-2.57-2.43-5.62-4.82-9.25-5.2-1.48-.14-2.96-.34-4.44-.54-.35-.05-.68.16-.8.47-10.19-1.83-20.11,4.55-24.42,13.64-7.25,13.04,2.32,28.51,15.77,32.25Zm31.45,8.79c2.15-1.27.25-4.51-1.92-3.29-12.28,6.34-26.08,10.23-40.01,9.44-3.11-.28-6.22-.93-9.05-2.29-.67-.29-1.33-.83-2.1-.69-1.05.38-.42,1.74.19,2.26,3.13,2.73,7.55,3.7,11.67,4.06,13.79.74,27.67-2.65,39.96-8.85.43-.22.68-.34,1.25-.64Zm5.98-70.54c4.78-4.79,2.81-11.84-3.84-13.29-1.73-.3-7.3-.21-6.77,2.48.19.7.91,1.18,1.63,1.06-3.59,3.29-3.97,10.34,1.21,12.25,2.86,1.23,5.88-.28,7.76-2.5Zm15.7,117.77c.07-.3,0-.63-.28-.91-4.04-3.84-7.93-7.81-11.9-11.71.23-.2.34-.49.25-.92-.12-.44-.59-.78-1.05-.7-.43.09-.86.17-1.29.25-4.52.82-9.21,1.13-13.78,1.47-14.39.98-28.94,1.17-43.27-.77-1.51-.2-3-.45-4.5-.73-.57-.12-1.27-.08-1.54.53-.23.48.12,1.05.59,1.21-.38.54-.71,1.14-1.12,1.59-3.57,4.88-8.01,9.08-11.88,13.77-.45.8-2.88,2.59-1.92,3.41.26.2.62.17.86-.05.09-.09.17-.18.25-.27l.06.08c2.86,3.64,5.45,7.25,8.93,10.42,11.33,10.66,24.5,19.11,36.37,29.14,0,0,0,0,.01,0-.84.72-1.95,1.55-1.23,2.48,1.2,1.03,3-1.91,4.02-2.59,3.17-3.07,6.28-6.19,9.29-9.41,5.96-6.46,11.64-12.94,17.45-19.58,3.81-4.12,7.63-8.24,11.67-12.13.07-.07.15-.15.23-.22.06-.06.12-.12.18-.18.32-.3.65-.61.98-.91.13-.12.26-.24.39-.36.38-.35.76-.7,1.12-1.07.14-.13.27-.27.4-.41.11-.12.23-.26.33-.39.03-.04.06-.08.09-.12,0,0,0-.01.01-.02.18-.28.29-.58.24-.92Zm55.86,47.53c1.02,4.82.53,10.04-1.15,14.73-2.16,4.89-4.97,13.88-11.61,13.18-10.01-1.15-25.84-7.49-25.43-19.52-.07-1.44-.12-2.88-.15-4.33.46-6.34,1.19-12.68,1.89-19,.13-.48.27-.97.42-1.45.22-.62.47-1.24.77-1.83,1.72-.98,4.21-3.89,4.97-4.43,4.74-4.62,9.58-9.18,13.91-14.2,1.18-1.52-.85-3.41-2.27-2.35-.96-.89-1.91-1.79-2.84-2.71-3.88-3.8-7.63-7.73-11.24-11.79-.43-.46-.84-.93-1.25-1.41l-.12-.14c-.23-.26-.45-.53-.67-.8-.34-.41-.68-.82-1.02-1.23h0c-1.88-2.31-3.73-4.64-5.97-6.6-1.23-1.16-3.49-.95-3.02,1.14,1.45,2.8,3.95,4.99,5.92,7.44,1.04,1.13,2.07,2.28,3.11,3.43.02,2.32.02,4.64,0,6.96-.1,8.21-.93,16.42-1.84,24.61-1.13,1.43-1.73,3.23-2.21,4.98-1.28,4.98-1.59,10.18-1.73,15.3.02,4.33-.15,8.89.93,13.13-.18,6.09-.03,12.19.7,18.27.1.56.26,1.27.84,1.51.07.03.14.05.21.06.11,4.02.41,8.04.49,12.05.28,9.1.64,18.18,1.11,27.27.04.79.08,1.58.12,2.38.12,2.37.25,4.73.39,7.11.21,1.63,2.64,1.42,2.65-.18-.05-2.43-.14-4.87-.25-7.3.51-.05,1.02-.09,1.52-.15,4.12-.32,8.19-.89,12.32-.14,7.95,1.32,15.16,9.56,15.03,17.69-1.7,16.37-24.12,22.95-37.32,15.98-9.73-4.8-19.09-10.26-28.19-16.18,2.52-3.02,3.3-19.91,3.5-21.82.86-12.22.34-24.43-.64-36.62.29-.06.57-.13.86-.2.88-.2,1.38-1.19,1.15-2.02-.41-1.15-1.3-1.29-2.3-1.12-.01,0-.02,0-.03,0-.07.01-.15.03-.22.04-.15.03-.3.07-.46.11-.38.09-.77.21-1.13.3-.04.01-.07.02-.11.03-.08.02-.15.04-.23.05-.25.06-.48.1-.7.11-.41.07-.81.15-1.21.23-9.61,1.77-19.16,3.32-28.99,3.42-6.06-.03-12.22-.64-18.09-2.28-.19-.34-.53-.58-.94-.64-.27-.04-.54.02-.75.13-2.74-.86-5.41-1.96-7.96-3.34-.68-.33-1.64.34-1.26,1.15,1.36,1.73,3.78,2.28,5.7,3.23.87.36,1.74.7,2.62,1.02-3.14,16.58-4.66,33.48-4.38,50.37.11,5.46.45,10.75,1.05,16.25.21,1.06.29,2.24.4,3.41-1.59.43-3.19.86-4.79,1.28-10.09,2.66-20.31,4.88-30.62,6.56-11.74,1.47-34.51,6.25-40.34-7.46-2.01-5.46,1.35-10.95,4.27-15.39,3.34-4.73,8.13-8.49,13.64-10.5,6.46-2.27,14.34-.56,21.22,1.41.1.03.19.05.29.08.31.09.61.18.91.27.7.21,1.38.41,2.05.61.27.08.54.16.8.24,1.02.31,2.03.88,3.08,1.11.32.03.55-.02.76-.2.17,0,.33-.16.33-.34,0-.09-.04-.18-.11-.25-.57-1.3-2.53-2.41-5.12-3.3-.23-2.42-.47-4.84-.7-7.27-1.12-11.07-2.2-22.15-2.88-33.26-.73-13.77-1.71-27.57-2.51-41.39-1.22-21.11-2.03-42.26-.92-63.36.04-.73.08-1.46.12-2.2-.63.49-1.26.98-1.89,1.48-.06-.05-.14-.1-.23-.14-.05-.03-.11-.05-.17-.07-.05,0-.11.02-.16.03-.05.01-.11.02-.16.04-.05.01-.11.03-.16.04-.05.02-.1.03-.15.05-1.36.48-2.4,1.84-3.58,2.64-3.28,2.72-6.46,5.55-9.81,8.19-3.43,2.7-6.89,5.35-10.29,8.09-2.18,1.75-4.34,3.53-6.5,5.3h0c-.14.02-.29.05-.43.11-1.84.91-3.36,2.46-4.8,3.91-.52.58-1.18,1.26-1.45,2.03-.16.02-.32.05-.47.11-.77.27-1.17,1.23-.64,1.89,6.8,6.01,13.17,12.53,19.88,18.67,6.11,5.47,12.48,10.63,19.01,15.59,0,.11.02.22.03.34.38,6.08.72,12.16,1.07,18.24-6.3,7.03-13.72,12.81-20.77,19.12-1.45,1.27-2.85,2.61-4.29,3.86-.22.25-.52.5-.84.75-.07-.08-.16-.16-.24-.23-3.65-3.54-7.33-7.01-10.07-11.35-1.18-1.45-1.26-3.32-1.1-5.1.08-6.2,2.63-11.59,5.99-16.78.71-1.31,3.25-3.36,1.69-4.95l.71-.59c2.11,1.79,4.23,3.57,6.35,5.34,1.11.95,2.95-.14,2.7-1.56-.06-.45-.3-.81-.64-1.1-1.93-1.64-3.82-3.27-5.71-4.93-.14-.13-.29-.25-.43-.38-.53-.46-1.05-.93-1.59-1.39-11.17-9.75-22.76-19.1-34.19-28.54-.59-.52-1.46-1.24-2.42-1.88.47-1.54,1.13-3.04,1.79-4.51.62-1.18,1.31-2.32,2.02-3.44,5.59-4.32,11.25-8.54,16.85-12.85,10.76-8.16,21.59-16.23,32.08-24.74,3.59-2.91,7.14-5.87,10.6-8.93.36-.38.79-.74,1.22-1.11.06-.05.12-.11.19-.16.54-.27,1.09-.63,1.44-.78.48-.26.96-.52,1.44-.78.1-.84.2-1.68.3-2.51,1.92-16.02,5-31.89,8.85-47.56,2.48-10.27,5.24-20.57,10.52-29.8,3.02-5.22,6.82-10.17,11.87-13.57,10.71-6.64,23.44-9.57,35.92-10.68,15.07-.87,32.38.93,42.54,13.47,9.54,10.76,13.24,25.2,15.41,39.15,2.42,12.91,2.25,26.05,2.03,39.14-.07,4.42-.07,8.85-.03,13.27h0c0,.49,0,.99.02,1.49,0,.94.02,1.88.03,2.82.43.45.85.9,1.29,1.35.25.26.5.52.75.77h0c6.91,7.12,14.34,13.71,21.31,20.77,6.45,6.43,12.54,13.18,18.89,19.7-7.35,7.4-14.27,15.22-21.61,22.64-3.7,3.67-7.05,7.63-10.43,11.59-.38.36-.48.96-.08,1.35.34.34.93.35,1.26,0,1.18-1.28,2.41-2.52,3.68-3.7,2.14-2.05,4.23-4.14,6.3-6.26.03.35.19.69.49.89,1.57,1.08,2.96,1.97,4.59,3.15,4.36,3.28,8.83,7.44,9.84,13.05Z"/>
    <path class="cls-7" d="m208.99,246.64c.45.34.96-.34.53-.68-1.66-1.39-3.39-2.7-5.03-4.11-.56-.46-1.1-1.15-1.69-1.64-.14-.08-.32-.14-.47-.07-1.15.98,5.71,5.78,6.67,6.5Zm5.49,2.14c.72.06,6.5-4.5,3.76-4.21-1.54,1.09-3.48,2.25-4.21,4.05,0,.23.31.34.45.16Zm13.36,37.36c1.59.68-1.25-2.73-1.5-3.25-1.58-2.32-3.17-4.69-4.78-7-3.09-4.33-6.14-8.69-9.36-12.92-1.07-1.36-1.98-2.87-3.41-3.91-.16-.09-.37-.14-.51,0-.35.36.15.85.39,1.12.41.46.83.91,1.24,1.37,6.45,7.84,12.24,16.2,17.93,24.6Zm5.11-4.14c.14-8.1.07-16.24-.42-24.32-.04-.32-.45-.49-.66-.22.75,9.54.76,19.28.5,28.89.84,1.51.48-3.77.59-4.35Zm.36-36.45c.1-.16.05-.36-.09-.48-.46-.41-.95-.78-1.46-1.12-.96-.62-1.81-1.27-2.82-1.86-.23-.12-.49-.17-.74-.08-1.55,1.06,3.86,3.27,4.65,3.69.16.07.37,0,.46-.15Zm8.73,1.34c.34-.66,1.66-1.37,1.11-2.16-.2-.19-.52-.22-.74-.05-.93.75-1.86,1.51-2.69,2.37-.62.74-2.06,1.64-1.54,2.74,1.01.94,3.14-2.21,3.86-2.9Zm12.9,6.56c.21-.31-.13-.75-.4-.41-4.38,6.96-9.06,13.75-13.27,20.83-2.14,3.43-4.29,6.84-6.3,10.35-.07.12-.03.27.09.34.11.07.27.03.34-.09,1.91-3.32,3.94-6.55,5.96-9.8,4.35-7.18,8.96-14.2,13.58-21.21Zm2.63-9.02c.34-.83-.91-1.23-1.37-1.73-.71-.53-1.43-1.04-2.13-1.57-.37-.26-.95-.53-1.36-.2-1.29,1.4,3.12,3.25,4.12,3.74.27.11.59,0,.73-.25Zm5.98,1.99c.22-.31.16-.75-.18-.95-.69-.38-1.25.57-1.1,1.17.23.68,1.04.22,1.28-.22Zm1.48,4.1c.63-.08.46-1.04-.13-.95-17.53,2.44-35.22,3.31-52.91,3.57-6.42.07-12.88-.29-19.27.24-1.07.41-.58,1.1.38.98.39.05.89.1,1.32.11,23.58-.46,47.23-.6,70.62-3.95Zm8.72-1.35c-.96.81-1.95,2.05-2.53,2.45-2.74,2.71-5.49,5.43-8.14,8.23-8.76,9.39-16.86,19.09-25.62,28.54-1.61,1.72-3.26,3.4-4.96,5.04-.06-.09-.14-.17-.24-.25-4.34-3.68-8.83-7.19-13.37-10.62-6.85-5.21-13.81-10.29-20.22-16.05-3.33-2.89-6.51-6.16-9.47-9.47-.59-.49-1.73-2.28-2.77-2.75.42-.5.84-1,1.28-1.49,4.29-4.86,8.81-9.49,12.59-14.77.14-.21.39-.51.63-.83,8.85,1.51,17.8,2.06,26.79,2.22,8.06.21,15.9-.49,23.98-1.16,3.28-.26,6.55-.54,9.8-1.07.49.55,1.2,1.08,1.52,1.52,3.55,3.52,7.06,7.07,10.73,10.45Z"/>
    <path class="cls-7" d="m248.68,169.17c1.24,11.75-8.01,21.98-19.88,21.71-12.23-.1-24.59-11.49-21.68-24.27,2.5-11.21,14.46-20.28,25.96-16.47,1.2.31,2.11,1.36,3.32,1.57.66-.16.84-.96.67-1.55,7.29,3.8,11.34,10.89,11.62,19.02Z"/>
    <path class="cls-5" d="m256.05,121.66c2.54.34,4.34,2.75,3.32,5.23-.73,1.69-2.02,3.61-4.06,3.65-2.44.17-4.46-2.55-3.37-4.82.62-1.99,2.37-3.18,4.1-4.07Z"/>
    <path class="cls-5" d="m205.54,126.22c.08,1.4-.75,3.01-2.22,3.29-.62.02-1.46-.49-1.48-1.16.15-.56.69-.91.79-1.49.7-.7,2.02-1.36,2.9-.64Z"/>
    <path class="cls-4" d="m208.99,246.64c.45.34.96-.34.53-.68-1.66-1.39-3.39-2.7-5.03-4.11-.56-.46-1.1-1.15-1.69-1.64-.14-.08-.32-.14-.47-.07-1.15.98,5.71,5.78,6.67,6.5Zm5.49,2.14c.72.06,6.5-4.5,3.76-4.21-1.54,1.09-3.48,2.25-4.21,4.05,0,.23.31.34.45.16Zm13.36,37.36c1.59.68-1.25-2.73-1.5-3.25-1.58-2.32-3.17-4.69-4.78-7-3.09-4.33-6.14-8.69-9.36-12.92-1.07-1.36-1.98-2.87-3.41-3.91-.16-.09-.37-.14-.51,0-.35.36.15.85.39,1.12.41.46.83.91,1.24,1.37,6.45,7.84,12.24,16.2,17.93,24.6Zm5.11-4.14c.14-8.1.07-16.24-.42-24.32-.04-.32-.45-.49-.66-.22.75,9.54.76,19.28.5,28.89.84,1.51.48-3.77.59-4.35Zm.36-36.45c.1-.16.05-.36-.09-.48-.46-.41-.95-.78-1.46-1.12-.96-.62-1.81-1.27-2.82-1.86-.23-.12-.49-.17-.74-.08-1.55,1.06,3.86,3.27,4.65,3.69.16.07.37,0,.46-.15Zm8.73,1.34c.34-.66,1.66-1.37,1.11-2.16-.2-.19-.52-.22-.74-.05-.93.75-1.86,1.51-2.69,2.37-.62.74-2.06,1.64-1.54,2.74,1.01.94,3.14-2.21,3.86-2.9Zm12.9,6.56c.21-.31-.13-.75-.4-.41-4.38,6.96-9.06,13.75-13.27,20.83-2.14,3.43-4.29,6.84-6.3,10.35-.07.12-.03.27.09.34.11.07.27.03.34-.09,1.91-3.32,3.94-6.55,5.96-9.8,4.35-7.18,8.96-14.2,13.58-21.21Zm2.63-9.02c.34-.83-.91-1.23-1.37-1.73-.71-.53-1.43-1.04-2.13-1.57-.37-.26-.95-.53-1.36-.2-1.29,1.4,3.12,3.25,4.12,3.74.27.11.59,0,.73-.25Zm5.98,1.99c.22-.31.16-.75-.18-.95-.69-.38-1.25.57-1.1,1.17.23.68,1.04.22,1.28-.22Zm1.48,4.1c.63-.08.46-1.04-.13-.95-17.53,2.44-35.22,3.31-52.91,3.57-6.42.07-12.88-.29-19.27.24-1.07.41-.58,1.1.38.98.39.05.89.1,1.32.11,23.58-.46,47.23-.6,70.62-3.95Zm8.72-1.35c-.96.81-1.95,2.05-2.53,2.45-2.74,2.71-5.49,5.43-8.14,8.23-8.76,9.39-16.86,19.09-25.62,28.54-1.61,1.72-3.26,3.4-4.96,5.04-.06-.09-.14-.17-.24-.25-4.34-3.68-8.83-7.19-13.37-10.62-6.85-5.21-13.81-10.29-20.22-16.05-3.33-2.89-6.51-6.16-9.47-9.47-.59-.49-1.73-2.28-2.77-2.75.42-.5.84-1,1.28-1.49,4.29-4.86,8.81-9.49,12.59-14.77.14-.21.39-.51.63-.83,8.85,1.51,17.8,2.06,26.79,2.22,8.06.21,15.9-.49,23.98-1.16,3.28-.26,6.55-.54,9.8-1.07.49.55,1.2,1.08,1.52,1.52,3.55,3.52,7.06,7.07,10.73,10.45Z"/>
    <path class="cls-4" d="m248.68,169.17c1.24,11.75-8.01,21.98-19.88,21.71-12.23-.1-24.59-11.49-21.68-24.27,2.5-11.21,14.46-20.28,25.96-16.47,1.2.31,2.11,1.36,3.32,1.57.66-.16.84-.96.67-1.55,7.29,3.8,11.34,10.89,11.62,19.02Z"/>
    <path class="cls-6" d="m243.14,244.73c.55.8-.77,1.5-1.11,2.16-.72.69-2.85,3.84-3.86,2.9-.53-1.1.91-2,1.54-2.74.83-.86,1.76-1.62,2.69-2.37.22-.18.55-.14.74.05Z"/>
    <path class="cls-6" d="m233.21,245.07c.14.12.19.31.09.48-.09.16-.3.22-.46.15-.8-.42-6.2-2.63-4.65-3.69.25-.09.51-.04.74.08,1.02.59,1.86,1.24,2.82,1.86.51.34,1,.72,1.46,1.12Z"/>
    <path class="cls-6" d="m218.24,244.58c2.74-.29-3.04,4.27-3.76,4.21-.14.18-.45.07-.45-.16.73-1.8,2.66-2.96,4.21-4.05Z"/>
    <path class="cls-6" d="m209.52,245.96c.44.34-.08,1.02-.53.68-.96-.72-7.82-5.52-6.67-6.5.16-.07.33-.01.47.07.59.48,1.13,1.18,1.69,1.64,1.64,1.41,3.37,2.73,5.03,4.11Z"/>
    <path class="cls-6" d="m264.9,249.58c.59-.09.76.87.13.95-23.39,3.35-47.04,3.48-70.62,3.95-.42,0-.93-.06-1.32-.11-.96.12-1.45-.56-.38-.98,6.39-.53,12.86-.16,19.27-.24,17.68-.26,35.38-1.13,52.91-3.57Z"/>
    <path class="cls-6" d="m256.2,242.71c.46.5,1.71.89,1.37,1.73-.15.25-.47.36-.73.25-1-.49-5.41-2.34-4.12-3.74.41-.33.99-.06,1.36.2.7.54,1.42,1.04,2.13,1.57Z"/>
    <path class="cls-6" d="m263.37,245.47c.34.2.41.64.18.95-.24.44-1.05.91-1.28.22-.16-.6.41-1.55,1.1-1.17Z"/>
    <path class="cls-6" d="m254.54,253.04c.27-.34.62.1.4.41-4.62,7.01-9.23,14.03-13.58,21.21-2.02,3.25-4.06,6.49-5.96,9.8-.07.12-.23.16-.34.09-.12-.07-.16-.22-.09-.34,2.01-3.5,4.16-6.92,6.3-10.35,4.21-7.08,8.89-13.87,13.27-20.83Z"/>
    <path class="cls-6" d="m232.53,257.68c.49,8.08.56,16.22.42,24.32-.11.59.25,5.86-.59,4.35.27-9.62.26-19.36-.5-28.89.21-.27.62-.09.66.22Z"/>
    <path class="cls-6" d="m226.34,282.9c.25.52,3.1,3.93,1.5,3.25-5.69-8.4-11.48-16.77-17.93-24.6-.41-.46-.83-.91-1.24-1.37-.23-.27-.73-.75-.39-1.12.14-.13.36-.08.51,0,1.43,1.04,2.34,2.55,3.41,3.91,3.21,4.23,6.27,8.59,9.36,12.92,1.61,2.31,3.2,4.68,4.78,7Z"/>
    <path class="cls-2" d="m248.68,169.17c1.24,11.75-8.01,21.98-19.88,21.71-12.23-.1-24.59-11.49-21.68-24.27,2.5-11.21,14.46-20.28,25.96-16.47,1.2.31,2.11,1.36,3.32,1.57.66-.16.84-.96.67-1.55,7.29,3.8,11.34,10.89,11.62,19.02Z"/>
  </g>
</svg>